<?xml version="1.0" encoding="UTF-8"?>
<svg id="Layer_2" data-name="Layer 2" xmlns="http://www.w3.org/2000/svg" viewBox="0 0 175.63 75.9">
  <defs>
    <style>
      .cls-1 {
        fill: #626370;
      }
    </style>
  </defs>
  <g id="Layer_1-2" data-name="Layer 1">
    <g>
      <g>
        <path class="cls-1" d="M76.49,54.98c-9.84-14.92-11.92-18.08-13.37-20.34-.04,2.34-.07,5.16-.07,7.72,0,6.2.19,12.62.19,12.62h-3.49s.19-6.42.19-12.62c0-5.72-.19-12.58-.19-12.58h3.53l13.33,20.23c.04-2.26.07-4.94.07-7.65,0-5.72-.18-12.58-.18-12.58h3.49s-.19,6.87-.19,12.58c0,6.16.11,12.62.11,12.62h-3.41Z"/>
        <path class="cls-1" d="M97.61,36.68l.33-1.37h2.86s-.41,3.34-.41,7.42v3.86c0,4.16.41,8.39.41,8.39h-2.75s-.3-.89-.48-2.64c-.93,1.45-3.01,3.08-6.35,3.08-4.6,0-8.35-3.67-8.35-9.69s3.79-10.39,9.84-10.39c3.64,0,4.9,1.34,4.9,1.34ZM97.2,49.71v-10.39s-1.15-1.26-4.16-1.26c-4.57,0-6.83,2.52-6.83,7.57,0,4.27,2.12,7.05,5.86,7.05s5.12-2.97,5.12-2.97Z"/>
        <path class="cls-1" d="M128.5,54.98s.19-4.9.19-9.61v-2.53c0-3.01-1.3-4.68-3.56-4.68-3.3,0-4.86,2.56-5.46,4.01v3.19c0,4.68.19,9.61.19,9.61h-3.49s.19-4.9.19-9.61v-2.53c0-3.01-1.3-4.68-3.56-4.68-3.71,0-5.2,3.19-5.64,4.45v2.75c0,4.68.19,9.61.19,9.61h-3.49s.19-4.9.19-9.61c0-6.27-.52-9.58-.52-9.58h3.19s.15,1.45.3,3.42c1.41-2.41,3.16-3.86,6.2-3.86s5.2,1.11,5.94,3.93c.97-1.85,2.78-3.93,6.2-3.93,3.93,0,6.27,1.85,6.27,7.01v3.01c0,4.68.19,9.61.19,9.61h-3.49Z"/>
        <path class="cls-1" d="M149.62,36.68l.33-1.37h2.86s-.41,3.34-.41,7.42v3.86c0,4.16.41,8.39.41,8.39h-2.75s-.3-.89-.48-2.64c-.93,1.45-3.01,3.08-6.35,3.08-4.6,0-8.35-3.67-8.35-9.69s3.79-10.39,9.84-10.39c3.64,0,4.9,1.34,4.9,1.34ZM149.21,49.71v-10.39s-1.15-1.26-4.16-1.26c-4.57,0-6.83,2.52-6.83,7.57,0,4.27,2.12,7.05,5.86,7.05s5.12-2.97,5.12-2.97Z"/>
        <path class="cls-1" d="M170.45,36.68l.33-1.37h2.86s-.41,3.34-.41,7.42v3.86c0,4.16.41,8.39.41,8.39h-2.75s-.3-.89-.48-2.64c-.93,1.45-3.01,3.08-6.35,3.08-4.6,0-8.35-3.67-8.35-9.69s3.79-10.39,9.84-10.39c3.64,0,4.9,1.34,4.9,1.34ZM170.04,49.71v-10.39s-1.15-1.26-4.16-1.26c-4.57,0-6.83,2.52-6.83,7.57,0,4.27,2.12,7.05,5.86,7.05s5.12-2.97,5.12-2.97Z"/>
        <path class="cls-1" d="M59.94,75.59s.05-4.03.05-7.92c0-3.56-.05-7.9-.05-7.9h1.16s-.07,4.33-.07,7.9c0,3.89.05,7.92.05,7.92h-1.14Z"/>
        <path class="cls-1" d="M64.66,63.55s.19,1.28.19,2.87c.65-1.33,1.89-3.15,4.36-3.15,2.61,0,4.17,1.33,4.17,4.36v1.93c0,2.96.07,6.03.07,6.03h-1.17s.07-3.08.07-6.03v-1.77c0-2.42-1.19-3.56-3.26-3.56-2.84,0-3.98,2.91-4.19,3.54v1.79c0,2.96.05,6.03.05,6.03h-1.14s.05-3.08.05-6.03v-1.24c0-3.4-.26-4.78-.26-4.78h1.07Z"/>
        <path class="cls-1" d="M74.28,63.53s1.42.05,2.38.05l.19-3h.89s-.05,1.75-.05,3c2.21,0,4.05-.05,4.05-.05v1.02s-1.82-.05-4.05-.05v2.31c0,1.4.02,4.24.02,5.64,0,1.52.84,2.31,2.31,2.31,1.1,0,1.72-.37,1.72-.37v.93s-.61.37-1.93.37c-2.12,0-3.22-1.24-3.22-3.19,0-1.05.05-3.8.05-5.68v-2.31c-1.4.02-2.35.05-2.35.05v-1.02Z"/>
        <path class="cls-1" d="M91.7,74.76c-.44.28-1.68,1.12-3.82,1.12-3.91,0-5.85-2.59-5.85-6.38s2.38-6.22,5.31-6.22c3.1,0,4.71,2.1,4.71,5.01,0,.7-.07,1.12-.07,1.12h-8.85c0,3.45,1.61,5.52,4.89,5.52,1.93,0,3.26-.91,3.68-1.19v1.02ZM83.18,68.58h7.78s.02-.16.02-.46c0-2.24-1.26-3.87-3.66-3.87-2.17,0-3.89,1.72-4.15,4.33Z"/>
        <path class="cls-1" d="M94.96,69.56c0,2.96.07,6.03.07,6.03h-1.17s.07-3.08.07-6.83c0-4.1-.28-5.22-.28-5.22h1.07s.19,1.05.21,3.03c.93-2.28,2.31-3.05,3.87-3.05h1.3v.98h-1.26c-1.47,0-3.01.84-3.89,3.5v1.56Z"/>
        <path class="cls-1" d="M101.85,63.55s.19,1.28.19,2.87c.65-1.33,1.89-3.15,4.36-3.15,2.61,0,4.17,1.33,4.17,4.36v1.93c0,2.96.07,6.03.07,6.03h-1.17s.07-3.08.07-6.03v-1.77c0-2.42-1.19-3.56-3.26-3.56-2.84,0-3.98,2.91-4.19,3.54v1.79c0,2.96.05,6.03.05,6.03h-1.14s.05-3.08.05-6.03v-1.24c0-3.4-.26-4.78-.26-4.78h1.07Z"/>
        <path class="cls-1" d="M121.72,64.9c.02-.63.21-1.47.21-1.47h.98s-.26,1.44-.26,4.17v1.44c0,4.5.23,6.55.23,6.55h-.93s-.19-1.07-.26-2.35c-.58,1.05-1.93,2.66-4.38,2.66-2.98,0-5.1-2.28-5.1-6.15s2.35-6.48,5.8-6.48c2.52,0,3.54,1.35,3.7,1.63ZM121.6,72.12v-6.17s-.89-1.75-3.49-1.75c-2.96,0-4.8,2.03-4.8,5.52,0,3.26,1.61,5.22,4.31,5.22s3.77-2.35,3.98-2.82Z"/>
        <path class="cls-1" d="M123.83,63.53s1.42.05,2.38.05l.19-3h.89s-.05,1.75-.05,3c2.21,0,4.05-.05,4.05-.05v1.02s-1.82-.05-4.05-.05v2.31c0,1.4.02,4.24.02,5.64,0,1.52.84,2.31,2.31,2.31,1.1,0,1.72-.37,1.72-.37v.93s-.61.37-1.93.37c-2.12,0-3.22-1.24-3.22-3.19,0-1.05.05-3.8.05-5.68v-2.31c-1.4.02-2.35.05-2.35.05v-1.02Z"/>
        <path class="cls-1" d="M132.8,59.79c.54,0,.93.42.93.96s-.4.93-.93.93-.96-.4-.96-.93.42-.96.96-.96ZM133.36,63.55s-.05,3.26-.05,6.01c0,2.96.05,6.03.05,6.03h-1.14s.05-3.08.05-6.03c0-2.75-.05-6.01-.05-6.01h1.14Z"/>
        <path class="cls-1" d="M135.06,69.61c0-3.87,1.98-6.34,5.52-6.34s5.5,2.47,5.5,6.24-1.89,6.36-5.52,6.36-5.5-2.61-5.5-6.27ZM144.96,69.61c0-3.56-1.68-5.36-4.38-5.36s-4.43,1.79-4.43,5.4c0,3.08,1.58,5.27,4.4,5.27s4.4-2.19,4.4-5.31Z"/>
        <path class="cls-1" d="M148.71,63.55s.19,1.28.19,2.87c.65-1.33,1.89-3.15,4.36-3.15,2.61,0,4.17,1.33,4.17,4.36v1.93c0,2.96.07,6.03.07,6.03h-1.17s.07-3.08.07-6.03v-1.77c0-2.42-1.19-3.56-3.26-3.56-2.84,0-3.98,2.91-4.19,3.54v1.79c0,2.96.05,6.03.05,6.03h-1.14s.05-3.08.05-6.03v-1.24c0-3.4-.26-4.78-.26-4.78h1.07Z"/>
        <path class="cls-1" d="M168.57,64.9c.02-.63.21-1.47.21-1.47h.98s-.26,1.44-.26,4.17v1.44c0,4.5.23,6.55.23,6.55h-.93s-.19-1.07-.26-2.35c-.58,1.05-1.93,2.66-4.38,2.66-2.98,0-5.1-2.28-5.1-6.15s2.35-6.48,5.8-6.48c2.52,0,3.54,1.35,3.7,1.63ZM168.46,72.12v-6.17s-.89-1.75-3.49-1.75c-2.96,0-4.8,2.03-4.8,5.52,0,3.26,1.61,5.22,4.31,5.22s3.78-2.35,3.98-2.82Z"/>
        <path class="cls-1" d="M173.13,57.89s-.05,5.13-.05,9.23v6.24c0,.96.54,1.49,1.37,1.49.72,0,1.16-.3,1.16-.3v.89s-.44.3-1.35.3c-1.33,0-2.28-.79-2.28-2.31,0-.23.02-3.59.02-6.31,0-4.01-.05-9.23-.05-9.23h1.16Z"/>
      </g>
      <g>
        <path class="cls-1" d="M29.87,27.52s.39-.25,1.16-.62c.78-.36,1.94-.89,3.53-1.25,1.58-.37,3.59-.64,5.91-.37,1.16.14,2.39.42,3.64.89,1.24.48,2.47,1.19,3.63,2.07,1.16.88,2.26,1.94,3.26,3.14.98,1.21,1.88,2.54,2.69,3.96l.3.55c.11.21.2.41.3.62.18.42.36.87.49,1.41.11.54.24,1.18-.03,2.07-.13.44-.42.91-.8,1.25-.38.34-.8.54-1.17.66-.73.22-1.33.23-1.86.2-.54-.03-1.02-.11-1.49-.21-.93-.19-1.8-.46-2.65-.75-3.37-1.2-6.58-2.72-9.76-4.42-3.18-1.69-6.34-3.5-9.47-5.36-3.11-1.89-6.17-3.84-9.17-5.78-3.01-1.93-5.89-3.93-8.69-5.88-.74-.52-1.29-.92-1.95-1.29-.64-.36-1.3-.67-1.94-.9-.64-.24-1.26-.38-1.78-.4-.53,0-.91.09-1.22.31-.32.21-.61.62-.82,1.15-.21.5-.38,1.25-.37,1.6-.02.97.53,2.05,1.3,2.96.76.93,1.7,1.73,2.64,2.44.94.72,1.88,1.37,2.8,1.93,1.84,1.13,3.54,2,4.96,2.67,2.84,1.35,4.52,2.02,4.52,2.02l-.07.22s-1.75-.49-4.7-1.64c-1.47-.58-3.25-1.33-5.2-2.36-1.93-1.05-4.14-2.31-6.02-4.33C.94,23.11.1,21.82,0,20.28c-.04-.77.13-1.51.38-2.25.25-.73.65-1.45,1.3-1.97.63-.53,1.47-.78,2.29-.8.83-.02,1.65.15,2.43.4,1.58.51,3.07,1.36,4.44,2.34,5.63,3.76,11.71,7.66,17.9,11.38,3.09,1.87,6.21,3.69,9.33,5.38,3.13,1.68,6.24,3.28,9.4,4.45.79.29,1.58.54,2.38.73.79.17,1.63.31,2.35.11.36-.1.64-.33.75-.67.11-.33.09-.72.01-1.09-.16-.75-.48-1.46-.83-2.15-.71-1.37-1.51-2.65-2.38-3.81-.89-1.14-1.86-2.16-2.9-3.01-2.07-1.72-4.42-2.67-6.56-3.05-2.15-.39-4.08-.26-5.63,0-1.55.26-2.73.65-3.51.95-.79.3-1.18.51-1.18.51l-.11-.21Z"/>
        <path class="cls-1" d="M22.99,44.12s-.38-.33-1-1.02c-.6-.71-1.54-1.74-2.39-3.28-.86-1.53-1.77-3.52-2.25-5.99-.08-.62-.19-1.27-.26-1.94,0-.68,0-1.37-.01-2.09.04-.71.2-1.44.31-2.18.1-.75.42-1.46.63-2.22,1.06-2.95,2.87-5.92,5.32-8.48.58-.7,1.2-1.29,2.05-1.96.42-.31.86-.62,1.45-.88.55-.25,1.38-.5,2.37-.26,1.01.24,1.73,1.02,2.08,1.63.37.64.53,1.21.67,1.76.25,1.09.32,2.1.35,3.09.05,1.98-.1,3.91-.3,5.85-.19,1.94-.48,3.86-.82,5.8-.67,3.86-1.49,7.73-2.38,11.59-.93,3.84-1.94,7.66-2.97,11.4-.51,1.87-1.05,3.72-1.6,5.54-.55,1.79-1.09,3.55-1.62,5.29-.42,1.6-.6,3.27-.4,4.58.09.68.35,1.13.62,1.52.2.12.31.35.58.42.12.05.23.12.35.18l.45.09c.15.03.29.08.45.09h1.02s.06,0,.06,0h.03s-.24.04-.1.02l.15-.03.3-.05c.09-.02.22-.03.28-.05.04-.02.08-.04.11-.06.08-.04.16-.03.27-.12.22-.11.42-.29.62-.47.77-.84,1.27-2.18,1.54-3.51.29-1.34.39-2.7.47-4,.08-1.3.09-2.56.06-3.74-.06-2.36-.24-4.43-.42-6.13-.2-1.7-.34-3.04-.47-3.95-.13-.91-.2-1.4-.2-1.4l.23-.06s.49,1.91,1.07,5.3c.29,1.7.59,3.76.79,6.16.19,2.39.32,5.11-.16,8.05-.25,1.45-.69,3.01-1.74,4.28-.53.62-1.3,1.1-2.12,1.28-.39.11-.85.12-1.26.13l-.64.02c-.21,0-.43-.06-.64-.09l-.65-.11-.61-.26c-.44-.13-.75-.47-1.12-.74-.6-.67-1.04-1.51-1.2-2.41-.36-1.79-.13-3.65.29-5.45,1.01-3.56,2.06-7.2,3.06-10.93,1-3.73,1.97-7.54,2.86-11.36.91-3.82,1.75-7.65,2.44-11.45.67-3.79,1.27-7.57,1.27-11.23,0-.91-.06-1.82-.25-2.68-.18-.83-.53-1.76-1.31-1.97-.77-.19-1.59.3-2.27.77-.67.5-1.33,1.06-1.88,1.69-.57.61-1.14,1.22-1.69,1.82-.53.62-.96,1.3-1.43,1.93-.22.33-.48.62-.66.97-.18.34-.36.68-.54,1.02-.35.67-.73,1.32-.94,2.02-1.07,2.71-1.32,5.47-.97,7.82.32,2.36,1.08,4.31,1.83,5.84.75,1.54,1.56,2.62,2.1,3.36.56.73.9,1.07.9,1.07l-.17.16Z"/>
        <path class="cls-1" d="M21.35,5.8s0,.12.03.36c.02.24.06.56.16.98.09.42.26.92.58,1.41.31.49.73,1.02,1.32,1.37.28.19.61.32.92.42.34.07.67.11,1,.07.14-.01.37-.06.43-.1l.33-.09c.11-.03.12-.08.19-.11.22-.13.5-.35.7-.57.21-.23.4-.48.55-.78.16-.28.31-.58.4-.91.09-.33.17-.66.23-1,.03-.17.05-.34.06-.52.01-.09.01-.18,0-.26v-.13s0-.07,0-.07v-.03s0-.02,0-.02h0s0-.1,0,.07v-.38c0-.14,0-.25-.01-.3,0-.13-.02-.28-.05-.46-.07-.34-.14-.68-.23-1-.09-.33-.24-.63-.39-.91-.14-.3-.33-.56-.55-.79-.44-.46-.95-.8-1.7-.85-.24-.06-.63,0-.95.06-.32.11-.64.24-.93.42-.59.35-1,.88-1.32,1.37-.32.49-.49.99-.58,1.41-.1.42-.15.75-.16.98-.02.23-.03.35-.03.35ZM21.11,5.81s0-.13.01-.37c0-.24.04-.59.12-1.03.17-.86.58-2.15,1.72-3.23.56-.53,1.31-.98,2.22-1.13.87-.15,1.88.03,2.71.55.84.51,1.53,1.3,1.97,2.22.46.9.67,1.98.7,2.98-.02,1.05-.23,2.08-.69,3-.45.92-1.13,1.71-1.97,2.22-.85.52-1.82.7-2.72.55-.89-.15-1.66-.59-2.22-1.12-1.14-1.08-1.55-2.37-1.72-3.23-.09-.44-.12-.8-.12-1.03,0-.23-.01-.36-.01-.36Z"/>
      </g>
    </g>
  </g>
</svg>