<?xml version="1.0" encoding="UTF-8"?>
<svg id="Layer_2" data-name="Layer 2" xmlns="http://www.w3.org/2000/svg" viewBox="0 0 97.66 88.37">
  <defs>
    <style>
      .cls-1, .cls-2 {
        fill: #626370;
      }

      .cls-2 {
        font-family: GESSTwoMedium-Medium, 'GE SS Two';
        font-size: 6.92px;
        font-weight: 500;
      }
    </style>
  </defs>
  <g id="Layer_1-2" data-name="Layer 1">
    <g>
      <g>
        <path class="cls-1" d="M65.25,84.61c-1.21.84-2.78,1.48-4.83,1.72-.65-.05-1.27-.12-1.84-.22-.01.13-.01.2-.01.2l2.25.99,3.4-.52,1.73-2.38.73-1.01c-.4.44-.87.85-1.41,1.22ZM68.98,78.99c-.17.7-.47,1.62-1,2.58l1.87-2.58h-.86Z"/>
        <path class="cls-1" d="M68.34,78.99c-7.63.17-9.31,4.74-9.68,6.57-.04.24-.07.42-.08.55.57.1,1.19.17,1.84.22,2.05-.24,3.62-.88,4.83-1.72.54-.38,1.01-.79,1.41-1.22h0s1.32-1.82,1.32-1.82c.53-.96.83-1.88,1-2.58h-.65ZM65.15,81.49h0s.09,1.76-1.66,2.75c-1.24.7-1.86.58-2.11.45,0,0,0,0,0,0-.11-.05-.14-.1-.14-.1,0,0,.23-2.26,3.91-3.1t0,0Z"/>
        <path class="cls-1" d="M54.4,85.41l-1.11-.72-.68-.85c.79.28,1.42.85,1.79,1.57Z"/>
        <path class="cls-1" d="M53.06,83.75s.07.03.1.05l-.06-.02s-.03-.02-.04-.03Z"/>
        <path class="cls-1" d="M53.24,79.83c-.13.61,1.01,1.87,1.97,2.8.62.6,1.02,1.37,1.19,2.21.05.25.07.5.07.76v.04l-.17.21-.35.56-.81-.52c-.2-.71-.59-1.34-1.14-1.81-.38-.34-.85-.61-1.36-.77l-.08-.03-.55-.18-.62-.78-.73-1.29-.34-2.24v-1.12s.07,0,.1.01c6.23.6,6.75,3.98,6.79,4.26v.02l-3.95-2.13h0Z"/>
        <path class="cls-1" d="M54.76,86.63s-.01,0-.02-.01c-.14-.08-.28-.17-.42-.25-.14-.09-.28-.18-.42-.27-.14-.09-.27-.18-.39-.28-.25-.18-.49-.37-.71-.54-.11-.09-.21-.18-.31-.27-.1-.08-.2-.17-.28-.25-.09-.08-.18-.16-.26-.24-.65-.62-1-1.06-1-1.06,0,0,0-.01-.03-.03-.01-.02-.04-.04-.07-.08-.02-.03-.05-.06-.08-.1l1.71.55s.08.03.12.04h0c.79.28,1.42.85,1.79,1.57.2.37.32.79.36,1.22Z"/>
        <path class="cls-1" d="M69.28,83.32c-.54.79-1.19,1.56-1.97,2.25-.15.13-.3.26-.46.39-.08.07-.17.13-.25.19-.17.13-.34.25-.52.37-.12.08-.24.16-.36.23-.12.08-.25.15-.38.22-.39.22-.81.42-1.25.6-.13.06-.27.11-.41.16-.15.06-.3.11-.45.16-.15.05-.31.1-.47.14-.32.09-.65.17-.99.24h-.04c-.33.05-.68.08-1.01.09-.15,0-.31,0-.45-.01-.08,0-.17,0-.25-.02-.16,0-.3-.02-.45-.04-.16-.02-.31-.04-.46-.06-.17-.03-.34-.06-.51-.09-.17-.04-.34-.07-.5-.11s-.33-.08-.48-.13c-.16-.05-.32-.1-.47-.15-.67-.23-1.29-.51-1.86-.81,0-.36-.05-.71-.15-1.03-.2-.71-.59-1.34-1.14-1.81l2.39.77,1.83.59c.14.05.28.09.43.13.59.15,1.2.23,1.81.23.75,0,1.51-.12,2.24-.35l2.55-.82.68-.21,3.35-1.08Z"/>
        <path class="cls-1" d="M32.14,79.77l-2-.64c-4.09-1.32-6.87-5.13-6.87-9.43v-28.8l2.58.89v27.91c0,2.37,1.14,4.54,2.97,5.89.37.92.89,1.79,1.54,2.56.52.62,1.12,1.16,1.77,1.62Z"/>
        <path class="cls-1" d="M54.77,86.93l-19.99-6.42c-1.61-.52-2.98-1.46-4.02-2.69-.44-.53-.83-1.1-1.13-1.72.41.23.85.42,1.31.57l3.1.99c.44.28.93.51,1.44.67l15.29,4.91s.06.07.08.1c.03.04.06.06.07.08.02.02.03.03.03.03,0,0,.35.44,1,1.06.08.08.17.16.26.24.09.08.18.17.28.25.1.09.2.17.31.27.22.18.45.36.71.54.13.09.25.18.39.28.13.09.27.18.42.27.13.09.27.17.42.25,0,0,.01.01.02.01.01.1.01.2.01.3Z"/>
        <path class="cls-1" d="M36.67,9.38l.06,2s-.1.07-.16.11c-.2.14-.39.31-.55.49l-5.6,2.28c-2.76,1.12-4.56,3.8-4.56,6.77v17.07c-.47-.1-.93-.19-1.4-.29l-1.19-.28v-16.5c0-4.03,2.44-7.65,6.16-9.17l7.23-2.95v.47Z"/>
        <polygon class="cls-1" points="38.67 10.89 37.88 11.21 37.1 11.53 37.04 9.37 37.02 8.77 37.83 8.44 38.64 8.1 38.65 8.21 38.66 9.32 38.67 10.89"/>
        <path class="cls-1" d="M44.89,8.07c.01.11,0,.2,0,.28l-1.27.52-1.18.48c.08-.37.22-.69.37-.97l-.07-.06-.27-.21-.13-.1-.07-.05s-.01-.01-.06-.06c-.03-.03-.07-.07-.1-.1-.24-.28-.3-.53-.34-.74-.01-.08-.02-.15-.03-.22l.94-.38,1.15-.47c0,.11-.03.18-.05.26-.04.14-.09.25-.17.38l-.02.03.03.02.24.18.5.37c.07.06.15.09.33.3.08.1.2.33.21.54Z"/>
        <path class="cls-1" d="M97.66,21.03v48.68c0,4.3-2.78,8.11-6.88,9.42l-19.4,6.23c.71-1.1,1.6-2.07,2.63-2.86,1.02-.79,2.19-1.4,3.44-1.8l12.55-4.02c3.03-.97,5.08-3.78,5.08-6.96V21.03c0-2.97-1.8-5.65-4.56-6.77L63.23,3.13c-.89-.36-1.83-.54-2.76-.54s-1.88.18-2.76.54l-12.43,5.07c0-.06,0-.11,0-.16-.02-.28-.16-.58-.29-.74-.16-.2-.26-.27-.35-.34l-.03-.02-.51-.38h-.01c.03-.07.05-.13.07-.2v-.02s.01-.02.01-.02c0-.02,0-.03.01-.05.01-.06.03-.15.04-.25,0-.06,0-.11,0-.17L56.72.74c1.2-.48,2.47-.74,3.74-.74s2.53.25,3.74.74l27.3,11.13c3.72,1.52,6.16,5.14,6.16,9.17Z"/>
        <path class="cls-1" d="M61.03,84.65s1.69.69,4.12-3.16c0,0-3.46.47-4.12,3.16Z"/>
        <path class="cls-1" d="M58.09,79.87l-1.25.35s-.13-1.42-1.68-1.81c-1.55-.38-4.52-1.29-4.69-1.64,0,0-.06.35-.06.91,0,1.27.27,3.65,2.15,5.59l-.55-.18-1.73-.55c-.89-1.41-2.19-4.35-.76-8.01,0,0,2.58,1.94,5.51,2.32,2.97.95,3.06,3.01,3.06,3.01Z"/>
        <path class="cls-1" d="M60.73,88.36c.34-.01.68-.04,1.01-.08-.14.03-.28.06-.42.08-.2.01-.4.01-.59,0Z"/>
        <path class="cls-1" d="M72.04,75.35s-.24,4.28-2.76,7.97l-3.35,1.08-.68.21c.54-.38,1.01-.79,1.41-1.22h0c.55-.59.98-1.21,1.32-1.82.53-.96.83-1.88,1-2.58.18-.74.22-1.22.22-1.22,0,0-7.84-.31-10.77,6.97l-5.18-4.91h0s2.28-.21,3.96,2.11c0,.01.02.03.03.04,0,0,3.71-6.8,14.81-6.63Z"/>
        <path class="cls-1" d="M91.97,42.33s-.01.07-.04.12l-.04.03h-.03s-.04.03-.04.03c-.06.03-.11.07-.14.13-.05.12,0,.27,0,.42,0,.14.06.29.01.43.04-.14-.04-.28-.05-.43,0-.14-.06-.28-.02-.45.03-.08.1-.14.17-.18l.05-.03h.03s.02-.1.02-.1c.01-.14.01-.28-.07-.38-.14-.25-.28-.54-.3-.86,0-.08,0-.16.01-.24.01-.08.01-.11,0-.17l-.02-.05-.07-.09c-.05-.06-.09-.13-.13-.19-.33-.54-.38-1.18-.52-1.7-.08-.25-.24-.49-.35-.79-.05-.16-.11-.28-.12-.5,0-.1.03-.23.09-.33.01-.01.02-.03.04-.04l-.27-.35-.2-.26c-.07-.08-.19-.24-.21-.42-.03-.18.01-.33.04-.45.03-.11.06-.22.1-.34.07-.22.15-.44.23-.64.16-.41.29-.81.31-1.2.01-.19,0-.39-.04-.56-.04-.18-.12-.37-.2-.61-.02-.06-.04-.12-.05-.19l-.03-.17c-.02-.09-.04-.17-.08-.27-.06-.19-.16-.39-.24-.63-.08-.23-.13-.54-.13-.79,0-.11-.05-.28-.13-.46-.08-.18-.19-.38-.29-.61l-.03-.08-.02-.05-.08-.16c-.03-.07-.07-.16-.09-.27l-.03-.18c-.07-.4-.18-.79-.35-1.16-.21-.43-.35-.9-.48-1.3-.07-.2-.14-.39-.23-.57-.09-.2-.18-.38-.28-.57-.2-.36-.42-.68-.69-.94-.18-.16-.45-.51-.49-.89-.01-.09-.02-.18-.01-.27,0-.08.01-.2.01-.19,0-.04,0-.1-.02-.17-.03-.15-.11-.35-.18-.59l-.04-.13s0,0,0,0c0-.02-.04-.06-.07-.17-.02-.06-.04-.14-.03-.24v-.06s0-.06,0-.06v-.08c-.02-.1-.07-.2-.17-.33-.1-.13-.24-.27-.4-.44-.09-.11-.12-.1-.3-.35-.04-.06-.08-.16-.11-.27v-.03s-.04-.06-.04-.06c-.04-.06-.11-.14-.25-.24-.07-.05-.16-.1-.25-.16-.11-.07-.23-.15-.33-.22-.2-.16-.38-.31-.54-.44-.08-.07-.16-.13-.23-.18-.04-.03-.09-.06-.18-.1-.08-.04-.2-.09-.33-.16l-.16-.09-.14-.07c-.11-.06-.24-.12-.4-.25-.08-.07-.17-.15-.26-.29-.02-.03-.04-.07-.06-.11l-.02-.04-.02-.05c-.06-.12-.14-.21-.25-.3-.21-.17-.57-.3-1-.45-.37-.14-.76-.21-1.24-.33-.11-.03-.24-.06-.36-.1-.18-.06-.35-.16-.48-.24-.13-.09-.23-.18-.32-.25l-.07-.06-.03-.02-.04-.03c-.06-.03-.19-.07-.41-.09-.2-.03-.5-.06-.83-.2-.04-.02-.08-.04-.13-.06l-.08-.05-.16-.09-.3-.18-.37-.21-.15-.09-.04-.03h-.02s0-.01,0-.01l-.24-.13-.13-.07s-.06-.03-.1-.04c-.13-.05-.31-.09-.53-.13l-.28-.06s-.06,0-.11,0c-.02,0-.05,0-.08,0,0,0-.01,0-.03,0-.03,0-.06,0-.09-.02-.05-.01-.1-.03-.17-.07-.05-.03-.15-.1-.18-.14l-.04-.03c-.09-.08-.19-.15-.33-.21h0s-.03-.02-.04-.03c-.31-.14-.76-.24-1.27-.48-.13-.06-.25-.13-.38-.22-.04-.03-.08-.06-.11-.08h-.04s-.07.02-.07.02l-.16.03c-.06,0-.11.02-.24.02-.04,0-.07,0-.14-.02l-.1-.03s-.1-.04-.14-.07-.12-.08-.17-.13l-.04-.05h0s-.03-.03-.03-.03c-.02-.01-.04-.03-.07-.04-.07-.03-.23-.05-.45-.06h-.17s-.09-.01-.09-.01c-.07,0-.14.01-.24.03-.18.03-.41.08-.68.11-.04,0-.09.01-.16.01-.07,0-.13.01-.33-.04-.07.04-.14.07-.23.1-.07.02-.14.04-.23.06-.12.01-.1,0-.14,0h-.17s-.68.02-.68.02h-.34c-.06,0-.12.02-.32-.04-.06-.02-.12-.04-.2-.1-.04-.02-.09-.06-.13-.1-.02,0-.13-.03-.32-.03-.12,0-.27,0-.45-.04-.04,0-.09-.02-.14-.03l-.09-.03c-.08-.03-.14-.07-.19-.1h-.85c-.24.2-.52.35-.78.42-.38.11-.68.12-.95.15-.28.03-.57.08-.82.08-.06,0-.13,0-.2,0l-.17.03-.34.06s-.13.05-.3.13c-.09.03-.2.08-.38.1-.08.01-.19.01-.3,0-.01,0-.02,0-.03,0,0,0-.01,0-.07.03-.07.03-.18.1-.37.19-.03.01-.05.02-.08.03-.02.05-.06.12-.11.19-.04.06-.09.11-.14.17-.21.22-.52.35-.73.39-.1.02-.18.03-.26.04-.1.01-.17.01-.24.02l-.59.05h-.18s0-.37,0-.37v-.11h-.11c-.08,0-.15.01-.2.02l-.03.18-.35,1.95-.1.58h-.57s-.4,0-.4,0l-.08.02h-.01s-.05.03-.05.03l-.11.06-.43.23-.11.06-.06.03s-.06.06-.09.09c-.31.31-.64.5-.91.68-.13.08-.25.17-.35.25-.1.08-.17.16-.26.26-.17.2-.31.44-.41.68-.09.23-.14.51-.17.78-.01.28,0,.57.05.86l.04.24c.02.1.03.21.04.31.02.2.01.4,0,.59-.02.38-.13.78-.16,1.02-.04.28-.04.58,0,.87.01.15.04.3.07.44l.06.25c.02.1.04.2.04.3.05.41,0,.83-.11,1.2-.12.39-.25.67-.37.99l-.36.93-.7,1.87-.35.96c-.11.31-.22.61-.29.9-.03.14-.06.29-.07.44l-.02.26c-.01.11-.03.21-.06.3-.1.38-.24.67-.32.97l-.03.09-.14.47-.12.41s-.01.04-.01.06h0c-.03.1-.07.21-.09.28.03.04.06.08.08.13.09.19.03.41-.02.5-.05.1-.08.17-.09.18l-.05.22-.1.48-.03.11h0s-.03.13-.03.13l-.03.12s0,.06,0,.1c0,.07,0,.17-.03.29-.02.11-.07.26-.17.36-.04.05-.12.1-.16.13,0,0,0,0-.01,0h0s-.02.08-.03.13c-.03.18-.07.34-.1.5l-.11.54h-.03s-.08-.03-.08-.03h-.03s0,0,0,0c0,0-.01,0-.03-.01-.01,0-.03,0-.04-.01-.08-.03-.15-.06-.2-.09l.07-.47c.02-.16.05-.33.07-.49.01-.09.01-.18.08-.33.02-.04.05-.08.11-.13l.07-.05.04-.04s.04-.11.03-.31c0-.04,0-.1,0-.15l.02-.13.04-.25.08-.5c.01-.09.02-.15.04-.27.04-.14.08-.21.1-.27h-.02c-.04-.05-.06-.09-.08-.12-.06-.12-.04-.16-.05-.21,0-.16.03-.27.05-.34l.06-.24.24-.98c.06-.27.16-.53.22-.76.02-.07.03-.13.04-.19.01-.07.03-.13.03-.19v-.24c0-.07.01-.14.02-.21.01-.11.03-.23.05-.34.02-.11.04-.22.07-.33h0c.06-.24.13-.47.21-.69l.3-.94.63-1.93.33-.96c.11-.32.24-.65.31-.91.07-.27.09-.53.05-.79,0-.06-.02-.13-.04-.2l-.06-.24c-.04-.18-.08-.36-.1-.55-.05-.37-.06-.75-.03-1.13.05-.42.12-.67.13-.96,0-.14,0-.28-.01-.41,0-.07-.02-.13-.03-.19l-.05-.25c-.07-.36-.11-.74-.1-1.13.01-.39.07-.78.22-1.18.14-.38.34-.73.59-1.05.12-.16.28-.32.44-.45.16-.13.31-.24.46-.34.29-.2.53-.36.69-.52l.06-.06.03-.03c.07-.1.18-.17.23-.2l.08-.04h.03s.11-.08.11-.08l.45-.25.11-.07.06-.03.1-.04c.13-.06.26-.1.41-.11h.01l.27-1.68v-.07c.02-.06.04-.14.07-.19.04-.11.09-.2.15-.27.11-.15.22-.28.45-.41.03-.01.06-.03.1-.04l.05-.02h.03s.07-.03.11-.04c.07-.02.14-.03.21-.04.13-.02.25-.03.35-.03h.26c.14-.03.3-.03.51.02.13.03.3.11.44.23,0,0,.01-.02.01-.03.03-.06.06-.13.2-.27.07-.07.2-.18.41-.22.02,0,.03,0,.03,0h0s.02,0,.06-.03c.07-.03.19-.1.37-.19.18-.09.45-.17.74-.16.03,0,.06,0,.09,0,0,0,0,0,0,0,.08-.03.22-.11.47-.18l.48-.08.24-.04c.07-.01.14-.01.22-.01.3,0,.55-.05.82-.08.28-.03.53-.06.69-.11.16-.05.21-.1.29-.19l.24-.3h1.81s.29,0,.29,0l.2.19h0s.08,0,.13,0c.2.01.57-.02.98.2.03.02.07.04.1.06h.15s.65-.02.65-.02h.11l.06-.05c.08-.06.19-.16.47-.23.13-.03.31-.02.45.02.08.03.16.06.22.1.13-.02.29-.05.47-.08.13-.02.27-.04.43-.04.08,0,.16,0,.24,0h.16c.23.03.52.04.87.17.14.05.29.13.43.23.07-.01.17-.06.42-.05.06,0,.13.02.21.04l.09.03c.05.02.1.05.14.07.17.09.28.18.34.22.06.04.13.08.2.11.3.15.74.25,1.23.47.21.1.43.22.63.38.03,0,.06,0,.09.01l.31.07c.22.04.48.09.76.2.07.03.15.06.21.09l.17.08c.11.06.22.11.32.17l.59.35.28.16.13.08.06.03h.02c.08.05.23.08.47.11.23.04.55.08.88.26.08.04.16.1.24.16l.1.08.06.06c.07.07.14.13.2.16.06.04.08.06.11.07.08.03.18.06.28.08.38.11.87.21,1.34.39.39.16.91.3,1.39.71.24.2.45.46.58.74l.04.08s.08.05.14.08l.16.09.14.08c.06.04.16.08.27.13.11.05.26.13.4.23.1.08.2.16.29.24.18.16.34.3.49.41.08.06.14.11.22.16.09.06.2.13.31.2.22.16.49.39.65.73.04.09.07.17.1.25v.04s.01,0,.01,0c.04.04.09.1.11.13.14.16.31.33.48.56.17.23.33.55.37.89.01.08.01.17.01.25v.03s0,0,0,0c.01.03.03.07.04.13l.03.14c.06.19.14.41.19.69.03.14.05.31.03.49-.01.12-.01.11-.01.14v.07c.01.07.02.11.16.25.36.37.64.8.85,1.23.11.21.21.43.3.64.1.23.18.46.24.68.14.45.24.85.4,1.23.19.45.31.93.37,1.41l.02.16s0,.02.01.05l.07.15.04.11.03.07c.07.18.17.38.26.6.09.23.19.5.18.83-.01.19.01.33.06.52.05.19.14.39.21.63.04.12.07.25.09.38l.02.16s.01.09.03.13c.05.19.13.41.18.67.04.26.04.52.01.77-.06.51-.25.95-.43,1.36-.09.2-.18.4-.25.6-.07.18-.16.44-.15.51,0,.05.02.08.08.17l.19.28.38.57.14.21-.23.13c-.09.05-.11.06-.11.14,0,.08.03.23.07.35.08.25.23.52.31.83.13.61.14,1.18.4,1.67.03.06.07.12.11.17l.06.08c.04.06.05.1.06.15.02.08,0,.2-.01.26-.01.07-.02.13-.02.2,0,.27.1.54.21.8.08.14.07.32.04.47Z"/>
        <path class="cls-1" d="M76.02,20.62h-.09s-.01-.05-.02-.08c-.15-.59-.28-1.19-.4-1.78-.11-.63-.21-1.26-.29-1.89-.09-.63-.17-1.26-.24-1.9l-.05-.47s0-.06,0-.08c0,0-.01,0-.02,0l-.23-.06-.41-.11h-.1s-.03.95-.03.95v.41s-.4-.01-.4-.01l-1.28-.03-.02.93v.33s-.32,0-.32,0l-1.36-.04-.03,1.13v.25s-.24,0-.24,0l-1.52-.04-.04,1.28v.15s-.14,0-.14,0l-1.65-.06-.03.97v.11h-.1v-.12s-.04-1.05-.04-1.05v-.08s.08,0,.08,0l1.58-.05-.04-1.35v-.18s.19,0,.19,0l1.45-.04-.03-1.18v-.27s.28,0,.28,0l1.31-.03-.03-.98v-.34s.35-.01.35-.01l1.21-.03-.03-1.03v-.44s.06,0,.06,0h.39s.58-.02.58-.02h.11s.46.11.46.11l.23.05c.08.01.25.06.39.16.15.1.27.28.31.42.04.12.05.24.06.31,0,.01,0,.03,0,.04l.03.47c.03.44.05.88.07,1.32.01.2.01.4.02.59.02.64.03,1.27.03,1.91.01.64.02,1.27,0,1.91Z"/>
        <path class="cls-1" d="M64.02,18.75v.08l-.04,1.17h-.09l-.03-1.08-1.65.06h-.14s0-.14,0-.14l-.04-1.28-1.52.05h-.24s0-.25,0-.25l-.03-1.12-1.37.03h-.31s-.01-.32-.01-.32l-.02-.93-1.28.03h-.38s-.01-.4-.01-.4l-.02-.56v-.4s-.1,0-.1,0l-.08.02-.34.09h0l-.23.06s-.01,0-.02,0c0,.02,0,.04,0,.08l-.05.47c-.07.64-.15,1.27-.24,1.9,0,0,0,.01,0,.01-.09.63-.18,1.25-.29,1.88-.12.63-.27,1.26-.42,1.88h-.09c-.01-.65-.01-1.29,0-1.93,0-.61.01-1.23.03-1.84,0-.03,0-.05,0-.07.02-.64.05-1.27.09-1.9l.03-.48c0-.06.01-.21.06-.35.04-.15.16-.33.31-.42.14-.1.31-.14.4-.16l.23-.05.46-.1h.06s.04-.01.04-.01h.58s.46.02.46.02v.44s-.04.78-.04.78v.24s1.2.03,1.2.03h.36s0,.35,0,.35l-.03.98,1.31.03h.29s0,.28,0,.28l-.03,1.18,1.46.04h.2s0,.19,0,.19l-.04,1.35,1.58.05h.08Z"/>
        <path class="cls-1" d="M77.29,30.4c-.02.1-.03.26-.04.4,0,.19,0,.4,0,.61l.22.03.69.09-.38.58c-.16.24-.28.48-.35.71-.04.13-.06.26-.06.39h.12s.12,0,.12,0c.03,0,.09,0,.16,0,.13.02.31.05.48.27.08.11.11.24.1.35,0,.11-.03.18-.06.25-.06.13-.1.19-.16.28-.1.14-.19.26-.27.36l-.2.53c-.04.1-.07.2-.12.32-.04.11-.09.2-.11.28-.01.04-.03.07-.03.1v.04s0,.05,0,.05v.33s.03.64.03.64l.06,2.57.03,2.58v.65c.01.22-.03.44.11.55.03.03.07.05.11.07l.08.04s.06.05.07.08c.06.11.08.21.1.33.03.22.02.43.03.65-.03-.21-.05-.43-.1-.63-.03-.1-.06-.2-.12-.28-.03-.04-.04-.03-.11-.05-.06-.02-.11-.04-.16-.08-.11-.08-.16-.21-.18-.33-.02-.12-.02-.22-.03-.33l-.06-.64-.24-2.56-.21-2.57-.05-.64-.03-.32s0-.06,0-.11c0-.04,0-.08.01-.12.01-.08.03-.15.05-.21.04-.13.08-.23.12-.32l.09-.29.2-.62v-.04s.04-.05.04-.05c.07-.11.15-.21.21-.3l-.41.02h-.32s-.1-.3-.1-.3c-.11-.36-.11-.78-.01-1.13.03-.13.08-.25.13-.37l-.36-.04v-.39c0-.31-.03-.65-.02-1.01,0-.19.01-.35.05-.58.05-.21.14-.32.22-.42.08-.09.17-.17.25-.23.09-.06.17-.12.27-.17.07-.04.11-.06.16-.1.1-.07.19-.16.28-.27.04-.04.07-.09.11-.14.01-.01.02-.02.03-.03l-1.14-.17-.36-.06v-.19s-.02-.17-.02-.17l-.11-1.96-.05-.98c-.02-.36,0-.74.08-1.1.08-.36.24-.73.41-1.01.15-.27.28-.56.41-.86.13-.3.25-.59.38-.9.04-.09.07-.18.11-.27.03-.07.06-.15.09-.22l-1.37-.13-.26-.03v-.07s-.01-.17-.01-.17h0c-.06-1.14-.13-2.27-.16-3.4l-.06-1.7-.03-.85v-.35h-.01v-.07c0-.14-.07-.27-.11-.4.06.13.15.24.17.4v.11s.06.31.06.31l.11.84.1.76.11.92c.13,1.04.26,2.08.38,3.12l1.59.07h.41s-.11.44-.11.44c-.1.36-.22.64-.33.95-.11.31-.22.62-.34.93-.13.31-.26.62-.41.93-.16.29-.25.53-.31.82-.06.27-.07.56-.04.86l.07.99.11,1.6,1.54.22.8.11-.52.62c-.19.23-.36.51-.61.8-.13.15-.27.3-.45.42-.08.06-.19.12-.27.16-.05.03-.11.06-.16.1-.05.03-.09.07-.12.1,0,.01-.01.02-.02.03h0Z"/>
        <path class="cls-1" d="M77.66,20.81v.36c-.07,0-.14,0-.21,0-1.18-.03-2.35-.06-3.52-.1-2.41-.08-4.81-.18-7.22-.26-3.11-.11-6.21-.23-9.32-.34-.88-.03-1.76-.06-2.63-.1-.11,0-.21-.14-.31-.21v-.07c.19,0,.38,0,.58,0,.55,0,1.1,0,1.65.02,2.78.09,5.55.18,8.33.27.65.02,1.31.04,1.96.06.03,0,.07,0,.1,0,2.81.09,5.62.18,8.43.27h.41c.44.02.88.03,1.32.04.13,0,.25.03.38.05.02,0,.03,0,.05,0Z"/>
        <path class="cls-1" d="M78.22,28.51v.37c-.08,0-.16,0-.23,0-.09,0-.18,0-.27,0-1.08-.03-2.15-.05-3.23-.09-2.41-.08-4.81-.18-7.22-.27-3.11-.11-6.21-.23-9.32-.34-.88-.03-1.76-.06-2.63-.1-.11,0-.21-.14-.31-.21v-.07c.74.01,1.49,0,2.23.03,2.78.08,5.55.17,8.33.27,3.5.11,7,.22,10.49.33.06,0,.11,0,.17,0,.52.01,1.04.02,1.56.04.07,0,.14.01.21.02.07.01.14.02.22.03Z"/>
        <g>
          <path class="cls-1" d="M79.74,60.17c0,.08,0,.14-.02.2l-.11-.03-.11-.03h0c.02-.1,0-.16-.03-.17-.03-.03-.13-.04-.25-.05l-.53-.07h-.11s-1.29-.18-1.29-.18l-2.56-.37-5.13-.73c-3.41-.48-6.83-1-10.23-1.57-.21-.04-.43-.07-.61-.08l-.28-.03h-.16c-.12-.03-.27-.05-.43-.12-.16-.07-.33-.19-.45-.33-.11-.13-.19-.3-.23-.38l-.15-.4c-.07-.24-.11-.43-.17-.64l-.65-2.5c-.04-.14-.08-.29-.12-.44-.42-1.52-.82-3.06-1.19-4.58l-.64-2.49-.08-.3-.75-.04-.64-.03h-.18c-.14-.02-.33-.04-.61-.18-.14-.07-.28-.18-.4-.31-.11-.14-.18-.27-.23-.39-.09-.24-.1-.39-.11-.5l-.09-1.29-.18-2.57-.02-.35h-.02s-.6-.17-.6-.17c-.39-.11-.82-.23-1.24-.34l-.63-.17-.32-.08-.13-.03h-.03s-.08-.03-.08-.03h-.03s0,0,0,0c0,0-.01,0-.03-.01-.01,0-.03,0-.04-.01-.08-.03-.15-.06-.2-.09,0,0,0,0-.01,0-.06-.03-.1-.06-.14-.1-.16-.12-.23-.21-.3-.3-.06-.08-.11-.17-.15-.25-.04-.08-.08-.17-.11-.28-.01-.06-.03-.12-.04-.21v-.07s-.04-.33-.04-.33l-.06-.64-.12-1.29-.23-2.58c-.17-1.74-.24-3.38-.59-5.02-.35-1.74-.64-3.39-.82-5.22-.02-.25-.03-.37-.06-.55-.03-.17-.07-.34-.11-.53-.1-.37-.23-.76-.37-1.19-.04-.15-.03-.11-.06-.17-.02-.04-.06-.11-.1-.19l-.17-.29-.1-.18c-.03-.06-.08-.15-.09-.2-.17-.45-.36-.87-.5-1.34-.12-.47-.27-.95-.33-1.39-.04-.23-.07-.47-.09-.72v-.19s-.02-.17-.02-.17v-.33s-.04-1.32-.04-1.32v-.66s-.02-.17-.02-.17c0-.2.04-.36.08-.48.03-.08.06-.16.1-.23-.01-.01-.03-.03-.05-.04-.28-.23-.53-.6-.64-.98-.11-.38-.11-.72-.07-1.03.01-.09.03-.18.04-.27.08-.37.22-.69.37-.97l-.07-.06-.27-.21-.13-.1-.07-.05s-.01-.01-.06-.06c-.03-.03-.07-.07-.1-.1-.24-.28-.3-.53-.34-.74-.01-.08-.02-.15-.03-.22,0-.13,0-.25.01-.38.03-.19.08-.39.2-.62l-.06-.15-.22-.59-.06-.17-.06-.17-.08-.22s0-.01-.04-.04l-.04-.02-.21-.07c-.1-.04-.17-.09-.23-.13h-.38c-.05.04-.11.08-.19.12-.09.04-.13.06-.19.1-.11.06-.21.14-.3.21-.17.16-.26.31-.37.61-.04.1-.07.2-.11.31-.02.07-.04.14-.06.22-.02.07-.04.15-.06.22-.03.09-.05.18-.08.27l-.3,1.07-.02.07v.04s-.03.06-.04.11c-.02.05-.05.11-.12.22-.02.03-.05.07-.1.11v.15s0,.1,0,.1v1.12s.02,1.56.02,1.56v.71c0,.17-.02.37-.1.57-.08.2-.21.37-.33.5-.25.24-.47.34-.56.41-.23.16-.4.34-.51.55-.06.11-.1.22-.13.34-.03.13-.05.25-.07.44l-.1,1.13c-.04.39-.11.82-.2,1.2l-.28,1.09-.06.25c-.02.11-.06.24-.09.35-.08.23-.18.44-.28.62-.1.19-.21.36-.3.52s-.2.32-.24.41c-.1.23-.19.58-.26.96l-.23,1.1c-.03.1-.02.15-.08.34-.06.16-.12.27-.18.37l-.14.24-.14.24-.56.96-.28.48-.14.24c-.04.07-.07.13-.1.19-.05.13-.1.27-.12.4l-.08.53c-.05.36-.09.72-.12,1.07-.03.35-.03.68,0,1.04.01.17.03.35.04.54,0,.03.01.13.01.21,0,.08-.01.17-.03.26-.04.18-.13.37-.23.5-.1.14-.21.23-.31.31l-.25.18-.46.33-.93.65-.46.33c-.12.08-.11.08-.13.11-.02.04-.03.18-.04.38l-.02.56-.04,1.12-.1,2.25-.05,1.12c-.01.2,0,.34-.04.64-.01.07-.04.2-.14.34-.1.14-.27.24-.35.26-.2.06-.29.06-.39.08l-1.16.11s-.05,0-.07,0c-.43,0-.81-.1-1.15-.16-.27-.06-.54-.11-.81-.17-.47-.1-.93-.19-1.4-.29l-1.19-.28-1.01-.23c-.25-.06-.51-.12-.76-.18-.06-.01-.12-.03-.18-.04-.06-.01-.12-.03-.18-.04-1.09-.26-2.17-.51-3.25-.81-1.45-.37-2.9-.75-4.36-1.09-1.46-.34-1.43-.38-2.88-.7-.72-.17-1.46-.3-2.19-.45-.74-.15-1.47-.27-2.21-.4l-5.51-1.47-.74-.14.02-.11v-.11s6.31,1.4,6.31,1.4c.74.11,1.48.22,2.22.35.74.13,1.48.24,2.22.4,1.48.29,1.45.29,2.92.6,1.46.31,2.93.65,4.39.99,1.02.25,2.04.47,3.07.69.06.01.12.02.18.04.06.01.12.03.18.04.32.07.64.14.95.2l.82.17v-.19l1.41.29c.39.08.78.15,1.17.22v.18c.33.06.66.12.99.18.34.06.63.12.9.12.04,0,.07,0,.11,0l1.06-.14c0-.1,0-.22,0-.33l.02-1.12.04-2.25.02-1.12v-.56c.02-.17,0-.42.11-.74.1-.33.4-.6.59-.72l.45-.33.89-.66.45-.33.21-.16s.08-.07.08-.08c0,0,0-.01,0-.01,0,0,0-.03,0-.08-.02-.19-.04-.38-.06-.58-.03-.39-.04-.81-.02-1.21.02-.39.06-.78.11-1.16l.08-.58c.04-.23.1-.45.19-.67.04-.11.1-.23.15-.31l.14-.25.27-.5.55-.99.14-.25.14-.25c.08-.16.06-.1.11-.35l.21-1.1c.07-.36.14-.74.33-1.21.11-.25.21-.4.31-.57.1-.16.18-.31.25-.46.07-.14.13-.27.17-.4.02-.07.03-.12.05-.2l.06-.29.26-1.09c.08-.35.13-.66.16-1.02l.08-1.11c.01-.18.04-.43.09-.67.06-.24.14-.48.26-.71.23-.45.59-.83.97-1.1.16-.11.27-.18.32-.22v-.04l-.06-2.16v-.6s-.03-.53-.03-.53v-.27c-.01-.11-.02-.27.03-.5.04-.19.16-.41.3-.57v-.03s.07-.21.07-.21l.06-.22.14-.55c.1-.37.17-.71.32-1.13.07-.21.16-.43.3-.66.14-.23.31-.45.5-.62.19-.18.39-.33.6-.46.04-.02.08-.05.13-.07,0-.02.02-.04.04-.06l.25-.34.59-.29.72-.04.55.31.24.19c.05.04.09.07.12.1h0s.04.02.04.02c.09.03.17.07.26.11.34.17.67.5.84.88l.11.28.07.17.07.17.25.65.12.32.06.17c.05.2.06.33.05.43,0,.11-.03.18-.05.26-.04.14-.09.25-.17.38l-.02.03.03.02.24.18.5.37c.07.06.15.09.33.3.08.1.2.33.21.54.01.11,0,.2,0,.28-.01.08-.03.14-.04.18-.14.35-.18.35-.23.46-.2.36-.31.62-.33.84-.01.11,0,.22.01.25.02.04.01.03.07.08l.05.03.1.06c.24.15.45.38.58.65.13.26.17.56.14.85-.02.14-.05.28-.11.41-.03.07-.06.13-.1.19l-.06.09-.03.04v.03l.03.63.06,1.27c.01.46.04.77.11,1.16.07.41.19.76.29,1.12.11.35.29.71.43,1.07.06.13.14.24.27.45.07.1.14.23.21.37.07.13.15.38.17.44.13.39.29.81.43,1.27.07.23.13.48.18.73.05.24.08.56.1.73.18,1.6.54,3.34.89,4.98.4,1.74.51,3.55.69,5.24l.03.25c.02-.07.03-.13.04-.19.01-.07.03-.13.03-.19v-.24c0-.07.01-.14.02-.21.02.19.04.38.06.57l.18,1.78-.12.41s-.01.04-.01.06h0s.04.35.04.35l.12,1.29.04.41.57.15c.41.11.82.22,1.25.35l.64.19.32.1.16.05.08.02h.02s.07.03.07.03c.1.04.16.07.22.11.23.14.33.26.45.41.06.07.11.15.16.25.05.11.11.23.14.46v.09s0,.02,0,.02v.04s0,.08,0,.08v.16s.04.65.04.65l.14,2.59.03.61h.06s.98.08.98.08c.1.01.21,0,.45.05.12.03.29.06.51.19.22.12.4.34.49.5.1.16.13.27.16.37.03.1.05.17.06.22l.14.64.58,2.53c.37,1.69.72,3.36,1.12,5.04l.17.76.39,1.78c.05.2.08.42.13.59l.23.03c.25.04.46.08.67.13,1.69.37,3.37.73,5.06,1.08l5.06,1.07,5.06,1.12.74.17,1.78.41,1.26.3.63.14.16.04c.06.02.13.04.2.1.07.06.11.15.11.23Z"/>
          <path class="cls-1" d="M49.2,32.19l-.03-.25c-.04-.39-.08-.78-.12-1.18,0-.01,0-.03,0-.05-.03.11-.05.22-.07.33-.02.11-.04.23-.05.34,0,.07-.01.14-.02.21v.24c0,.06-.02.13-.03.19-.01.06-.03.12-.04.19l.2,1.97s.01-.04.01-.06l.12-.41.14-.47-.11-1.08ZM24.72,36.54l-1.37-.28h-.07s0,.36,0,.36l1.37.28c.4.08.81.16,1.21.23v-.37c-.42-.07-.8-.14-1.13-.21Z"/>
        </g>
      </g>
      <g>
        <path class="cls-1" d="M53.1,83.78s-.03-.02-.04-.03c.03.02.07.03.1.05l-.06-.02Z"/>
        <path class="cls-1" d="M54.77,86.93l-19.99-6.42c-1.61-.52-2.98-1.46-4.02-2.69-.44-.53-.83-1.1-1.13-1.72-.41-.82-.7-1.71-.84-2.63v-13.37c0-2.2.78-3.91,2.19-4.82v16.89c0,.45.04.88.13,1.31.36,1.74,1.42,3.26,2.92,4.19.44.28.93.51,1.44.67l15.29,4.91,1.71.55s.08.03.12.04h0c.79.28,1.42.85,1.79,1.57.2.37.32.79.36,1.22.01.1.01.2.01.3Z"/>
        <path class="cls-1" d="M53.06,83.75s.03.02.04.03l.06.02s-.06-.03-.1-.05Z"/>
      </g>
      <text class="cls-2" transform="translate(29.43 51.83)"><tspan x="0" y="0" xml:space="preserve">شـــــــــاي  طنطورة</tspan></text>
      <g>
        <path class="cls-1" d="M90.55,50.37v2.31h2.27v-2.31h-2.27ZM81.76,66.25v2.33h2.29v-2.33h-2.29ZM77.84,66.25v2.33h2.28v-2.33h-2.28ZM39.48,54.57h-5.86c-1.04,0-1.93.25-2.65.71-1.42.91-2.19,2.62-2.19,4.82v13.37c.24,1.63.94,3.13,1.97,4.35h.35v-17.25c0-2.27,1-3.64,2.56-3.64h1.7c-.4.71-.58,1.52-.58,2.45,0,2.7,1.93,4.84,4.69,4.84s4.66-2.06,4.66-4.78-1.89-4.88-4.66-4.88ZM39.55,62.09c-1.39,0-2.37-1.2-2.37-2.72s.81-2.66,2.22-2.66,2.35,1.19,2.35,2.74-.89,2.64-2.2,2.64Z"/>
        <path class="cls-1" d="M90.53,54.59v4.88c0,.75-.06,1.25-.17,1.5-.23.45-.71.68-1.47.68h-5.28c.35-.4.52-1.18.52-2.41v-4.65h-2.31v4.78c0,.73-.08,1.27-.25,1.58-.25.48-.73.71-1.42.71h-25.05v-2.41c0-2.72-1.79-4.67-4.32-4.67s-4.65,1.87-4.65,4.61,2.04,4.84,4.55,4.84h2.22c-.33,1.1-1.1,1.6-2.31,1.6v1.83c2.7,0,4.22-1.14,4.53-3.43h34.24c2.33,0,3.49-1.25,3.49-3.76v-5.67h-2.33ZM52.78,61.65h-2.06c-1.25,0-2.22-1.16-2.22-2.6s.87-2.35,2.24-2.35c1.2,0,1.91.87,2.04,2.1v2.85Z"/>
      </g>
    </g>
  </g>
</svg>