<?xml version="1.0" encoding="UTF-8"?>
<svg id="Layer_2" data-name="Layer 2" xmlns="http://www.w3.org/2000/svg" viewBox="0 0 157.62 55.41">
  <defs>
    <style>
      .cls-1 {
        fill: #626370;
      }
    </style>
  </defs>
  <g id="Layer_1-2" data-name="Layer 1">
    <g>
      <path class="cls-1" d="M155.96,24.26c.67-2.62.41-5.41-.71-7.88-1.12-2.45-3.06-4.47-5.48-5.68-.87-2.61-2.54-4.76-4.86-6.26-2.27-1.46-5-2.11-7.69-1.82-2.13-1.72-4.7-2.63-7.47-2.63s-5.34.91-7.47,2.63c-2.68-.28-5.41.37-7.69,1.83-2.26,1.45-3.99,3.67-4.85,6.23-2.42,1.22-4.37,3.24-5.49,5.69-1.14,2.51-1.39,5.23-.71,7.88-1.4,2.35-1.93,5.04-1.53,7.75.34,2.4,1.38,4.58,3,6.35.2.22.43.45.67.68.1,2.7,1.13,5.3,2.9,7.34.08.09.16.18.23.26,1.78,1.94,4.07,3.21,6.65,3.66.32.47.65.89,1,1.26,1.45,1.59,3.33,2.74,5.41,3.36,1.11.32,2.25.49,3.37.49,1.55,0,3.07-.31,4.54-.91,2.5,1.02,5.29,1.18,7.88.42,2.65-.78,4.87-2.39,6.42-4.64,2.66-.48,5.09-1.86,6.87-3.91,1.76-2.04,2.8-4.66,2.9-7.36,1.97-1.85,3.27-4.34,3.66-7.01.39-2.67-.17-5.42-1.54-7.75ZM150.29,12.98c1.49,1.03,2.66,2.45,3.42,4.1.77,1.66,1.06,3.48.88,5.29-1.39-1.54-3.14-2.7-5.1-3.35.79-1.91,1.06-3.99.81-6.05ZM154.12,24.53c-.72,2.19-2.16,4.07-4.07,5.34-.1-.1-.2-.19-.31-.28l-4.38-3.81,3.14-4.87c.08-.12.14-.23.22-.35,2.19.67,4.09,2.07,5.4,3.97ZM133.41,38.87c-.13-.03-.28-.03-.43.01l-.17.07-3.05,2.6-2.91-2.51-.08-.06-.2-.09-.23-.03-3.89.54-1.08-3.68-.04-.1-.13-.2-.11-.1-3.62-1.68,1.08-3.69.02-.16v-.1l-.04-.21-2.14-3.38,2.9-2.51.07-.08.1-.14.08-.2.02-3.99,3.81-.55.1-.02.14-.07.18-.13,2.19-3.35,3.49,1.6.1.03.23.02h.14s3.65-1.65,3.65-1.65l2.07,3.23.07.09.12.1.19.11,3.95.59v3.85s.02.1.02.1l.06.2.09.16,3.01,2.63-2.07,3.24-.04.09-.06.16-.02.23,1.11,3.83-3.49,1.6-.09.06-.12.1-.13.18-1.15,3.83-3.66-.53ZM136.59,41.05l-1.51,5.11-4.03-3.49,2.4-2.07,3.14.45ZM128.47,42.67l-4.04,3.49-1.5-5.11,3.14-.45,2.4,2.07ZM116.8,29.9l-.89,3.04-4.86-2.22,4.04-3.49,1.71,2.67ZM112.57,20.18l5.28-.75v3.16l-2.4,2.09-2.88-4.49ZM116.98,35.29l2.88,1.32.9,3.04-5.28.75,1.5-5.11ZM119.54,17.47v-5.35l4.86,2.22-1.72,2.67-3.14.45ZM126.87,13.62l2.88-4.49,2.88,4.49-2.88,1.31-2.88-1.31ZM135.12,14.34l4.85-2.22v5.34l-3.14-.44-1.71-2.67ZM141.67,22.59v-3.17l5.28.77-2.88,4.49-2.4-2.09ZM139.65,36.6l2.88-1.31,1.51,5.11-5.28-.75.89-3.05ZM143.61,32.94l-.89-3.04,1.71-2.67,4.04,3.49-4.86,2.22ZM148.46,12.3c.47,2.14.24,4.32-.64,6.3-.13-.02-.28-.04-.41-.07l-5.74-.83v-5.79c0-.14,0-.28-.01-.42,2.21-.61,4.58-.47,6.7.42.03.12.07.26.1.39ZM144,5.88c1.54.99,2.77,2.36,3.59,3.98-1.04-.29-2.12-.43-3.2-.43-.98,0-1.96.12-2.92.37-.37-2.04-1.26-3.94-2.6-5.52,1.82.07,3.58.62,5.11,1.61ZM136.98,4.69c1.55,1.54,2.54,3.49,2.87,5.65-.12.04-.26.1-.38.17l-5.28,2.41-3.13-4.88c-.08-.11-.16-.23-.23-.34,1.52-1.71,3.59-2.87,5.87-3.27.09.09.19.18.28.28ZM129.76,1.7c1.84,0,3.63.49,5.18,1.41-1.99.61-3.77,1.73-5.18,3.25-1.41-1.52-3.2-2.64-5.18-3.25,1.56-.92,3.35-1.41,5.18-1.41ZM122.53,4.69c.09-.1.19-.19.29-.28,2.26.4,4.34,1.56,5.86,3.27-.08.11-.16.23-.23.34l-3.13,4.88-5.27-2.41c-.13-.07-.26-.12-.39-.17.33-2.15,1.32-4.1,2.87-5.65ZM115.52,5.88c1.53-.99,3.29-1.54,5.1-1.61-1.33,1.59-2.22,3.49-2.58,5.52-2.01-.51-4.1-.49-6.11.07.82-1.62,2.06-3,3.59-3.98ZM111.16,11.91c2.12-.89,4.49-1.03,6.69-.41v6.2l-5.74.83c-.14.02-.28.04-.41.07-.93-2.1-1.12-4.46-.54-6.69ZM111.03,20.91l3.13,4.88-4.38,3.79c-.1.09-.2.18-.31.28-1.81-1.2-3.17-2.91-3.94-4.96-.04-.12-.09-.26-.13-.38.08-.11.16-.22.23-.32,1.31-1.75,3.11-3.02,5.18-3.65.07.12.14.24.22.35ZM105.8,17.1c.75-1.66,1.94-3.08,3.43-4.13-.26,2.06.02,4.15.81,6.06-1.96.65-3.73,1.81-5.11,3.36-.19-1.81.11-3.63.88-5.29ZM103.7,31.78c-.27-1.82-.03-3.65.65-5.33.51,1.08,1.16,2.06,1.96,2.94.6.63,1.26,1.22,1.99,1.72-1.3,1.61-2.15,3.54-2.47,5.59-1.13-1.41-1.87-3.12-2.13-4.93ZM109.78,31.99c.12.06.26.12.38.18l5.27,2.41-1.63,5.56c-.04.13-.08.27-.11.41-2.17-.02-4.24-.73-5.99-2.04-.11-.08-.21-.17-.32-.24.08-2.3.93-4.53,2.41-6.27ZM109.85,45.27c-1.19-1.38-1.99-3.04-2.32-4.83,1.76,1.1,3.77,1.71,5.85,1.78-.23,2.06.09,4.14.93,6.05-1.72-.58-3.25-1.61-4.46-3ZM116.85,48.78c-.13-.01-.27-.02-.4-.04-.07-.11-.13-.22-.2-.34-1.05-1.92-1.45-4.07-1.16-6.22.13-.02.28-.03.41-.06l5.74-.82,1.64,5.56c.03.13.08.27.12.4-1.84,1.15-3.97,1.69-6.15,1.53ZM122.34,53.3c-1.76-.51-3.34-1.48-4.57-2.81,2.07-.02,4.1-.6,5.88-1.66.5,1,1.12,1.9,1.86,2.71.64.71,1.39,1.34,2.2,1.87-1.76.44-3.62.41-5.37-.11ZM129.77,52.64c-2.06-1.02-3.73-2.72-4.7-4.79.11-.08.21-.17.32-.27l4.37-3.79,4.38,3.79c.11.1.21.19.32.27-.92,1.97-2.42,3.56-4.34,4.62-.12.07-.23.12-.36.18ZM137.18,53.3c-1.74.51-3.59.55-5.35.11,1.72-1.15,3.12-2.73,4.04-4.57,1.78,1.05,3.81,1.62,5.89,1.65-1.24,1.32-2.82,2.3-4.58,2.81ZM143.27,48.39c-.07.11-.12.23-.2.34-2.29.26-4.6-.28-6.55-1.49.04-.13.09-.27.12-.4l1.63-5.56,5.75.82c.13.02.27.03.41.06.29,2.15-.11,4.3-1.16,6.22ZM149.66,45.27c-1.19,1.38-2.72,2.41-4.44,2.98.83-1.9,1.14-3.98.92-6.04,2.06-.07,4.08-.69,5.85-1.79-.33,1.8-1.13,3.46-2.33,4.84ZM145.84,40.54c-.03-.13-.08-.27-.11-.4l-1.64-5.56,5.28-2.41c.12-.07.24-.12.38-.19,1.48,1.75,2.33,3.97,2.4,6.27-1.79,1.45-4.02,2.26-6.3,2.29ZM155.83,31.77c-.26,1.81-1,3.51-2.13,4.93-.33-2.05-1.19-3.97-2.49-5.58,1.7-1.19,3.06-2.78,3.95-4.66.7,1.68.92,3.52.67,5.31Z"/>
      <g>
        <path class="cls-1" d="M94.09,0c-.63,0-1.15.52-1.15,1.15v15.61c0,4.68-3.79,8.48-8.46,8.48s-8.48-3.79-8.48-8.48c0-5.94-4.84-10.77-10.78-10.77s-10.77,4.84-10.77,10.74v.03c-.01,5.95,4.83,10.78,10.77,10.78,3.29,0,6.43-1.53,8.48-4.13v1.66c0,2.47-1.08,4.81-2.95,6.42-.49.41-.53,1.14-.12,1.62.22.26.53.41.88.41.27,0,.53-.1.74-.29,2.39-2.04,3.76-5.03,3.76-8.17v-1.66c2.03,2.6,5.17,4.13,8.48,4.13,5.94,0,10.77-4.84,10.77-10.78V1.15c0-.63-.51-1.15-1.15-1.15ZM65.21,25.24c-4.67,0-8.48-3.79-8.48-8.48s3.81-8.46,8.48-8.46,8.48,3.79,8.48,8.46-3.81,8.48-8.48,8.48Z"/>
        <path class="cls-1" d="M39.66,5.99c-.63,0-1.15.51-1.15,1.15v9.62c0,4.68-3.81,8.48-8.48,8.48s-8.48-3.79-8.48-8.48c0-5.94-4.84-10.77-10.77-10.77S0,10.83,0,16.76s4.84,10.78,10.78,10.78c4.05,0,7.8-2.32,9.62-5.94,1.83,3.62,5.57,5.94,9.63,5.94,5.95,0,10.78-4.84,10.78-10.78V7.14c0-.64-.52-1.15-1.15-1.15ZM10.78,25.24c-4.68,0-8.48-3.79-8.48-8.48s3.79-8.46,8.48-8.46,8.46,3.79,8.46,8.46-3.79,8.48-8.46,8.48Z"/>
        <path class="cls-1" d="M46.61,13.13v11.95c0,2.47-1.08,4.81-2.95,6.43-.23.2-.37.48-.4.79-.02.31.07.6.28.84.22.25.54.4.87.4.27,0,.54-.1.75-.28,2.39-2.05,3.75-5.03,3.75-8.17v-11.95c0-.64-.52-1.15-1.15-1.15s-1.15.52-1.15,1.15Z"/>
        <path class="cls-1" d="M49.9,8.13c0-1.18-.96-2.14-2.14-2.14s-2.14.96-2.14,2.14.96,2.14,2.14,2.14,2.14-.96,2.14-2.14Z"/>
        <path class="cls-1" d="M7.79,4.28c1.18,0,2.14-.96,2.14-2.14S8.97,0,7.79,0s-2.14.96-2.14,2.14.96,2.14,2.14,2.14Z"/>
        <path class="cls-1" d="M11.63,2.14c0,1.18.96,2.14,2.14,2.14s2.14-.96,2.14-2.14S14.95,0,13.77,0s-2.14.96-2.14,2.14Z"/>
        <path class="cls-1" d="M30.75,31.47c0,1.13.92,2.06,2.06,2.06s2.06-.92,2.06-2.06-.92-2.06-2.06-2.06-2.06.92-2.06,2.06Z"/>
        <path class="cls-1" d="M29.11,31.47c0-1.13-.92-2.06-2.06-2.06s-2.06.92-2.06,2.06.92,2.06,2.06,2.06,2.06-.92,2.06-2.06Z"/>
      </g>
      <g>
        <path class="cls-1" d="M50.47,40.18c-.61,0-1.11.5-1.11,1.11v5.06c0,2.18-1.77,3.95-3.95,3.95s-3.95-1.77-3.95-3.95v-5.06c0-.61-.5-1.11-1.11-1.11s-1.11.5-1.11,1.11v5.06c0,2.18-1.77,3.95-3.95,3.95s-3.95-1.77-3.95-3.95v-5.06c0-.61-.5-1.11-1.11-1.11s-1.11.5-1.11,1.11v5.06c0,3.4,2.77,6.17,6.17,6.17,2.03,0,3.9-.99,5.06-2.65,1.16,1.66,3.03,2.65,5.06,2.65,3.4,0,6.17-2.77,6.17-6.17v-5.06c0-.61-.5-1.11-1.11-1.11Z"/>
        <path class="cls-1" d="M20.72,40.18c-3.39,0-6.17,2.77-6.17,6.17s2.77,6.17,6.17,6.17c1.45,0,2.85-.5,3.96-1.43v.32c0,.62.49,1.11,1.11,1.11s1.1-.49,1.1-1.11v-5.06c0-3.39-2.76-6.17-6.17-6.17ZM20.72,50.31c-2.17,0-3.95-1.78-3.95-3.96s1.78-3.95,3.95-3.95,3.96,1.78,3.96,3.95-1.78,3.96-3.96,3.96Z"/>
        <path class="cls-1" d="M79.58,40.21c-.61,0-1.11.5-1.11,1.11v5.06c0,2.18-1.77,3.95-3.95,3.95s-3.95-1.77-3.95-3.95v-5.06c0-.61-.5-1.11-1.11-1.11s-1.11.5-1.11,1.11v5.06c0,3.4,2.77,6.17,6.17,6.17,1.42,0,2.79-.49,3.89-1.38-.16.89-.62,1.7-1.31,2.29-.22.19-.36.46-.38.76s.07.58.26.81c.21.25.52.39.84.39.26,0,.52-.09.72-.27,1.37-1.17,2.15-2.88,2.15-4.68v-9.14c0-.61-.5-1.11-1.11-1.11Z"/>
        <path class="cls-1" d="M11.23,50.31h-5.06c-2.18,0-3.95-1.77-3.95-3.95v-5.06c0-.61-.5-1.11-1.11-1.11s-1.11.5-1.11,1.11v5.06c0,3.4,2.77,6.17,6.17,6.17h5.06c.61,0,1.11-.5,1.11-1.11s-.5-1.11-1.11-1.11Z"/>
        <path class="cls-1" d="M66.13,51.42c0,.61-.49,1.11-1.1,1.11h-10.12c-.61,0-1.1-.49-1.1-1.11,0-.31.13-.59.33-.79l8.22-8.22h-7.45c-.61,0-1.1-.5-1.1-1.11s.49-1.11,1.1-1.11h10.12c.61,0,1.1.49,1.1,1.11,0,.31-.13.59-.33.79l-8.22,8.22h7.45c.61,0,1.1.49,1.1,1.11Z"/>
        <path class="cls-1" d="M89.09,40.18c-3.41,0-6.18,2.77-6.18,6.17s2.77,6.17,6.18,6.17c1.44,0,2.84-.5,3.95-1.43v.32c0,.62.5,1.11,1.11,1.11s1.11-.49,1.11-1.11v-5.06c0-3.39-2.77-6.17-6.17-6.17ZM89.09,50.31c-2.19,0-3.96-1.78-3.96-3.96s1.78-3.95,3.96-3.95,3.95,1.78,3.95,3.95-1.78,3.96-3.95,3.96Z"/>
      </g>
    </g>
  </g>
</svg>