<?xml version="1.0" encoding="UTF-8"?>
<svg id="Layer_2" data-name="Layer 2" xmlns="http://www.w3.org/2000/svg" viewBox="0 0 141.99 48.41">
  <defs>
    <style>
      .cls-1 {
        fill: #626370;
      }
    </style>
  </defs>
  <g id="Layer_1-2" data-name="Layer 1">
    <g>
      <g>
        <path class="cls-1" d="M80.86,21.98v-5.69s-.33-.77-.39-.85c-.56-.64-1.71-.28-2.14.35-.61.89-.11,4.36-.26,5.66-.03.23-.02.4-.24.54h-2.26v-5.38c0-.35-.49-1.33-.89-1.45-3.2-.96-1.7,5.13-2.14,6.68-.15.22-2.28.3-2.58-.09v-8.65h2.49v.93c1.43-1.47,3.95-1.63,5.06.31,1.23-1.8,4.34-2.03,5.41.05.55,1.07.6,5.74.44,7.05-.03.23-.02.4-.24.54h-2.26Z"/>
        <path class="cls-1" d="M106.73,9.82v4.67h4.67v-4.67h2.49v12.15h-2.49v-4.99h-4.29c-.1,0-.24.13-.39,0v4.99h-2.42c-.22-.14-.22-.31-.24-.54-.28-2.38-.15-7.18,0-9.67.04-.64.28-1.27.16-1.95h2.49Z"/>
        <path class="cls-1" d="M93.02,18.24h-5.92c.46,2.57,2.61,1.92,4.41,1.24l1.02,1.47c-2.85,2.5-7.67,1.24-8.06-2.8-.68-7.07,9.78-6.91,8.55.1ZM90.52,16.52c-.15-2.27-3.03-1.99-3.43,0h3.43Z"/>
        <path class="cls-1" d="M53.28,9.82l2.5,4.99c.11.08.42-.4.5-.51.85-1.34,1.56-3.05,2.31-4.47h2.96c.03.28-.17.49-.29.73-.88,1.68-3.61,5.42-4,6.9-.23.89.13,3.99-.14,4.38l-2.44.07-.08-.16c-.24-1.34.19-3.18-.13-4.45-.37-1.47-2.95-4.9-3.76-6.42-.1-.19-.27-.8-.37-1.05h2.96Z"/>
        <path class="cls-1" d="M134.16,18.24h-5.92c.09,1.49,1.29,2.07,2.69,1.83s1.68-1.43,2.75.88c-1.44,1.21-3.58,1.67-5.36.98-.2-.08-1.94-1.38-2.07-1.54-.08-.1-.64-2.13-.66-2.39-.33-3.71,2.93-6.21,6.38-4.67.78.35,2.18,1.81,2.18,2.65v2.26ZM131.66,16.52c-.19-2.18-3.08-2.09-3.43,0h3.43Z"/>
        <path class="cls-1" d="M62.63,18.24c.27,1.38,1.16,2.03,2.56,1.86,1.56-.2,1.87-1.53,3.05.95-1.84.92-3.24,1.66-5.3.86-2.34-.9-3.05-2.91-2.81-5.29.49-4.81,7.97-5.07,8.55.01.06.48.15,1.28-.22,1.62h-5.84ZM62.63,16.52h3.58c-.35-2.25-2.99-2-3.58,0Z"/>
        <path class="cls-1" d="M96.76,13.09v.93c1.47-1.52,4.4-1.63,5.39.46.08.17.38.93.38,1.02v6.47h-2.49v-5.22c0-.06-.2-.88-.25-1.01-.18-.5-.84-.8-1.35-.75-2.72.24-.86,5.36-1.75,6.98h-2.26l-.16-8.88h2.49Z"/>
        <path class="cls-1" d="M139.43,19.93c.08-.29.07-.6-.13-.84-.69-.8-3.61-.56-4.14-2.56-1.02-3.87,3.97-4.33,6.41-2.81.19.3-.73,1.43-.97,1.7-.75-.18-2.24-1.03-2.87-.23-.82,1.03,1.82,1.34,2.46,1.62.76.33,1.61.95,1.75,1.83.64,4.06-4.94,4.43-7.31,2.46l1.02-1.76c1.23.45,2.5,1.39,3.78.59Z"/>
        <path class="cls-1" d="M125.43,12.94v2.49c-.74-.03-1.77.01-2.32.56-1.03,1.01-.47,4.07-.63,5.45-.03.23-.02.4-.24.54h-2.26v-8.88h2.34c.09.31-.2,1.11.15,1.25.41-1.15,1.86-1.5,2.96-1.4Z"/>
        <rect class="cls-1" x="115.77" y="13.09" width="2.49" height="8.88"/>
        <path class="cls-1" d="M115.81,9.87c1.1-1.35,3.62.17,2.36,1.66-1.17,1.39-3.45-.32-2.36-1.66Z"/>
      </g>
      <g>
        <path class="cls-1" d="M138.05,30.7h2.18v5.69c0,1.22-1.2,2.44-2.41,2.57s-6.65.14-7.46-.33c-.27-.16-.51-.61-.8-.61-1.36,1.06-3.38,1.45-4.99.79-.47-.19-1.24-.93-1.71-.88-.16.02-.81.56-1.11.7-1.23.56-4.85.39-6.38.34-.25,0-.47-.05-.69-.17-.55,3.47-4.37,4.41-7.32,3.35-2.79-1-2.85-4.85-2.66-7.33.03-.34.12-1.35.42-1.45.08-.03,1.56-.17,1.71-.17.18,0,.26.06.34.22-.67,3.01-1.17,7.62,3.34,6.9.78-.12,1.99-.9,1.99-1.75v-7.4h2.18v4.91c0,.51.43.66.86.7.94.09,4.67.12,5.37-.25,1.84-.96.8-4.81,3.98-5.84,2.42-.79,5.26.17,5.66,2.93.19,1.34-.53,2.99,1.36,3.16,1.03.09,4.19.14,5.11-.04.38-.08.92-.37.93-.8l.12-5.24ZM127.55,32.79c-3.37-2.03-4.25,4.94-.87,4.39,1.87-.3,2.13-3.64.87-4.39Z"/>
        <path class="cls-1" d="M108.96,28.88c1.32-1.11,3.3.83,1.66,1.89-1.38.9-2.75-.98-1.66-1.89Z"/>
      </g>
      <path class="cls-1" d="M56.35,27.32c1.36,1.15-.97,3.11-1.99,1.6-.88-1.32.88-2.53,1.99-1.6Z"/>
      <path class="cls-1" d="M136.78,42.36l-1.97-.16c-1.13-2.94,3.54-2.62,1.97.16Z"/>
      <path class="cls-1" d="M139.43,42.36c-.89.01-2.12.29-2.17-.99-.09-2.12,3.74-1.34,2.17.99Z"/>
      <g>
        <path class="cls-1" d="M89.12,36.78c-.75-1.54.02-3.36,1.6-3.93,2.88-1.04,4.9,1.06,4.47,3.93h1.4c.46-3.97-2.08-6.46-6.05-5.35-.69.19-1.9,1.28-2.14.37-.38-1.44,2.25-2.36,3.3-2.48,5.41-.6,7.07,2.81,7.07,7.55,0,.9-.05.32-.15.65-.12.44-.04.98-.47,1.37l-15.34.07c-.35-.05-1.08-.44-1.33-.69-.2-.2-.78-1.36-.78-1.56v-10.36c.46.09,2-.23,2.16.26l.02,9.02c-.09.38.56,1.17.86,1.17h5.38ZM93.15,36.76c1.23-2.29-2.31-3.32-2.42-1.12-.07,1.25,1.55,1.23,2.42,1.12Z"/>
        <path class="cls-1" d="M78.21,30.7v5.53c0,.19-.6,1.48-.78,1.71-.4.53-.99.9-1.65,1-4.09-.09-8.22.16-12.31.02-.25,0-.47-.05-.69-.17-.23,3.07-2.28,4.52-5.28,3.72l-.02-2.01c.91.04,1.53.4,2.34-.23.13-.1.62-.68.62-.79v-8.49h2.34v5.38c0,.13.5.46.69.4,3.52-.3,7.63.38,11.07,0,.81-.09,1.32-.45,1.32-1.32v-4.75h2.34Z"/>
        <path class="cls-1" d="M54.37,30.7c.48.1,2.15-.24,2.32.26-.05,2.2.14,4.5.03,6.69-.05,1.05-.16,2.78-.71,3.65-.89,1.39-2.91,1.69-4.37,1.26l-.07-2.04c.88.45,2.8-.07,2.8-1.17v-8.65Z"/>
        <path class="cls-1" d="M76.29,40.1c1.94-.12,1.84,3-.58,2.22-1.02-.33-.81-2.14.58-2.22Z"/>
        <path class="cls-1" d="M73.02,40.24c1.18-.35,2.1.31,1.73,1.57-.33,1.14-2.87.64-2.43-.87.05-.18.52-.65.71-.7Z"/>
      </g>
      <g>
        <path class="cls-1" d="M41.86,24.34c0,9.93-8.05,17.98-17.98,17.98S5.91,34.27,5.91,24.34,13.96,6.36,23.89,6.36s17.98,8.05,17.98,17.98ZM15.41,16.83h-5.3c-.52,1.71-1.49,3.31-1.56,5.14.51.03.96-.15,1.47-.16,3.13-.1,7.57-.27,10.61,0s6.44,5.27,8.72,7.18c.24.2.62.55.88.68,1.58.85,1.34-.21,2.6-.65,2.31-.79,4.19,1.03,4.48,3.23,4.08-6.89,2.11-16-4.39-20.54-2.07-1.45-4.48-2.34-7-2.66-.71-.09-2.28-.28-2.91-.14-1.46.33-4.05,4.09-4.47,5.58l4.76-.04c.25-.05.25-.8.4-1.12,1.59-3.47,6.99-2.05,6.3,1.94-.21,1.23-1.01,2.3-2.26,2.57-1.85.39-2.68-.2-3.99-1.33-1.95.26-3.92.36-5.89.31l-1.22,4.03-2.07.18c-.37-.05.61-3.87.84-4.21ZM11.98,14.5h4.21c.35-1.64,1.38-3.01,2.18-4.44.12-.37-2.31.83-2.5.93-1.15.64-2.27,1.63-3.19,2.57-.13.13-.88.79-.7.94ZM27.83,14.67c0-.61-.49-1.1-1.1-1.1s-1.1.49-1.1,1.1.49,1.1,1.1,1.1,1.1-.49,1.1-1.1ZM9.34,29.92h5.77l-.62-4.52,2.26.15c.05.59.44,4.29.8,4.38,2.27.27,3.51-.19,4.73-2.12l.23-.08,1.47,1.51c-.87,1.35-2.14,2.8-3.82,3-.51.06-1.07-.05-1.54.02-.2.03-.28-.08-.23.23.14.93,1.71,3.41,2.34,4.2.22.27.92,1.07.98,1.14.34.34,1.71,1.57,2.05,1.76,1.17.68,5.44-.66,6.74-1.23,1.53-.67,3.17-1.72,4.26-2.99-2.14.31-3.68-.85-4.08-2.93-4.07-.85-7.1-7.95-11.11-8.29-2.75-.24-6.42-.02-9.2.16-.64.04-1.29-.04-1.93.02-.22,1.92.34,3.79.92,5.6ZM34.98,32.16c0-.59-.47-1.06-1.06-1.06s-1.06.47-1.06,1.06.47,1.06,1.06,1.06,1.06-.47,1.06-1.06ZM19.93,39.27c-1.79-2.16-3.18-4.47-4.2-7.09l-4.99.08c1.82,3.49,5.34,6.16,9.19,7.01Z"/>
        <path class="cls-1" d="M44.73,11.36l1.69-.45.14.87c0,.07-.26.05-.28.18-.14.7-.65,4.61-1.03,4.72l-.28-.02-4-2.74c-.1-.16-.18-.31-.08-.5.19-.38.96-.36.85-.69-.18-.52-2.38-2.85-2.92-3.36C23.03-5.64-2.11,9.18,3.93,30.27c5.04,17.61,28.83,20.42,38.1,4.69,1.65-2.8,1.87-4.86,2.84-7.75.54-1.62,2.77-1.11,2.8.45.02.91-.61,3.14-.89,4.1-4.08,13.55-19.97,20.43-32.82,14.5C-3.87,38.04-4.89,12.31,12.45,2.88c11.37-6.18,25.23-2,32.28,8.47Z"/>
        <path class="cls-1" d="M35.62,18.76c2.56,2.57-.15,6.95-3.68,5.78-.46-.15-.86-.5-1.33-.64l-3.12,1.65-1.78-1.48,4.02-2.13c-.68-3.4,3.5-5.58,5.89-3.19ZM34.39,21.21c0-.71-.57-1.28-1.28-1.28s-1.28.57-1.28,1.28.57,1.28,1.28,1.28,1.28-.57,1.28-1.28Z"/>
      </g>
    </g>
  </g>
</svg>