<?xml version="1.0" encoding="UTF-8"?>
<svg id="Layer_2" data-name="Layer 2" xmlns="http://www.w3.org/2000/svg" viewBox="0 0 147.35 84.88">
  <defs>
    <style>
      .cls-1 {
        fill: #626370;
      }
    </style>
  </defs>
  <g id="Layer_1-2" data-name="Layer 1">
    <g>
      <path class="cls-1" d="M128.14,84.88l-1.12-.51.13-.6,1.18.46c.97.21,2.18-.09,2.3-1.24.01-.13.06-.87-.14-.78-1.37,1.52-3.67.71-3.82-1.36-.15-1.95,1.97-3.24,3.5-2.01.18.14.26.47.46.31v-.66s.64,0,.64,0v4.72c0,.48-.5,1.07-.9,1.3-.25.14-.54.18-.73.37h-1.49ZM128.55,79.01c-1.79.24-1.63,3.76.67,3.37.68-.12,1.42-1.01,1.38-1.7-.06-1-1.07-1.8-2.06-1.67Z"/>
      <path class="cls-1" d="M147.35,82.4v.35c-.15.15-.25.33-.5.32-1.12-.04-.24-1.79.5-.67Z"/>
      <path class="cls-1" d="M25.17.07c-1.31,6.59,2.91,13.25,9.28,15.15,1.24.37,2.52.54,3.81.59,2.54.1,5.16-.05,7.7-.03.16-.11-.07-1.03-.08-1.28-.19-3.92.73-7.61,2.74-10.95.76-1.26,1.66-2.37,2.62-3.48l.18.04c-1.45,7.32,4.06,14.71,11.42,15.56-.04-.99-.19-1.94-.14-2.95.18-4.23,1.83-8.58,4.61-11.77.11-.13.87-1,.99-.89-1.57,7.29,4,14.69,11.31,15.6.06,0,.04-.65.04-.75-.06-1.28-.14-2.3,0-3.61.38-3.55,1.85-7,4.04-9.78.15-.19,1.28-1.52,1.38-1.53.15,0,.06.14.05.18-1.19,5.74,2.11,11.74,7.28,14.26,4.48,2.19,8.94.75,13.65,2.1,9.75,2.78,15.28,12.33,13.8,22.27-1.3,8.74-9.48,14.85-18.24,13.72-9.51-1.22-15.9-10.29-13.89-19.69l-.1-.15h-49.77c-14.46-.9-23.1-16.91-15.31-29.43.53-.85,1.68-2.49,2.41-3.12.09-.08.12-.09.24-.07ZM93.82,32.69c-.07.06.49.72.57.81,3.72,4.5,10.05,6.51,15.74,5.32.63-.13,1.33-.33,1.91-.57.05-.17-.82-1.17-.99-1.34-2.31-2.47-5.72-4.05-9.11-4.22-2.66-.14-5.45.11-8.12,0Z"/>
      <path class="cls-1" d="M.57,75.34c.05-.17.98-.15,1.12-.02l2.61,4.66.21.07,2.56-4.68c.23-.25.86-.15,1.17-.07v7.66h-1.13v-5.39h-.21c0,.13-.05.24-.1.36-.46.88-1.28,2.55-1.83,3.28-.27.37-.87.4-1.15.04-.64-1.15-1.32-2.29-1.94-3.45-.02-.04-.02-.29-.16-.16-.03.03-.06.23-.05.3.04,1.4.21,3.43.06,4.78-.01.1,0,.18-.11.24H.57v-7.62Z"/>
      <path class="cls-1" d="M65.03,82.97v-7.66h2.94c.14,0,.99.3,1.17.39,2.81,1.33,2.69,5.88-.25,6.99-.18.07-.86.28-.99.28h-2.87ZM66.16,76.3v5.64l.11.11h1.21c.13,0,.85-.21,1.01-.27,1.82-.76,2-3.7.54-4.89-.23-.19-.91-.58-1.19-.58h-1.67Z"/>
      <path class="cls-1" d="M78.57,75.31c.1-.15,2.68-.06,3.07.02,2.51.48,2.6,3.7.33,4.56l1.85,3.08h-1.24l-1.67-2.79c-.15-.19-1.13-.17-1.19,0-.07.88.03,1.77.03,2.65,0,.08,0,.09-.08.14h-1.1v-7.66ZM79.81,76.23l-.11.11v2.62l.11.11h1.28s.52-.17.58-.2c.94-.43,1.01-1.94.05-2.42-.09-.04-.58-.22-.63-.22h-1.28Z"/>
      <path class="cls-1" d="M35.31,82.97h-1.24l-1.74-2.87c-.12-.08-1-.09-1.14.07v2.8h-1.13v-7.66c.93-.08,2.15-.17,3.07.02,2.19.43,2.62,3.13.8,4.31-.14.09-.47.12-.47.31l1.85,3.02ZM31.31,76.23l-.11.11v2.62l.11.11h1.28s.5-.18.57-.21c.99-.51.99-2.01-.04-2.45-.09-.04-.54-.18-.6-.18h-1.21Z"/>
      <path class="cls-1" d="M57.15,82.97l2.77-7.55c.16-.23.89-.06,1.17-.12l2.87,7.66h-1.17c-.2-.27-.64-2.06-.86-2.12l-2.79.02c-.3.12-.61,1.79-.89,2.09h-1.1ZM61.62,79.85l-1.13-3.12-1.06,3.12h2.2Z"/>
      <path class="cls-1" d="M9.29,82.97l2.8-7.59,1.14-.08,2.94,7.66h-1.28l-.75-2.05h-2.89c-.23.15-.67,1.7-.75,2.05h-1.21ZM11.56,79.85h2.02s.14.12.18-.04c.01-.06,0-.13-.01-.2l-1.08-2.89-1.1,3.12Z"/>
      <path class="cls-1" d="M91.12,82.97h-1.17l-.74-2.01c-.22-.19-.45-.04-.68-.04-.78,0-1.56-.02-2.33,0l-.79,2.06h-1.17l2.88-7.66c.3.06,1.06-.12,1.23.12l2.77,7.55ZM86.76,79.85c.67,0,1.35,0,2.02,0l-.99-3-.18-.05-1.01,2.89.06.2c.05.05.09-.04.11-.04Z"/>
      <path class="cls-1" d="M22.12,82.97l2.84-7.65h1.17s2.87,7.65,2.87,7.65h-1.21l-.76-2.06c-.77,0-1.55.01-2.33.01-.17,0-.54-.14-.67.05-.19.29-.38,1.19-.53,1.58-.06.15-.1.31-.21.43h-1.17ZM24.46,79.85h2.02s.05.09.11.04c.09-.06.07-.1.06-.2-.08-.45-.75-2.27-.96-2.73-.04-.09-.13-.2-.23-.23l-.99,3.12Z"/>
      <path class="cls-1" d="M45.67,82.97h-1.17l-.89-2.1-2.88.03-.74,2.06h-1.21l2.94-7.66,1.14.07,2.8,7.59ZM41.06,79.85h2.2l-1.03-3.12c-.13-.01-.14.09-.18.18-.38.93-.61,2-.99,2.94Z"/>
      <path class="cls-1" d="M77.15,75.31c-.04.21.11.91-.12.98h-3.29v2.24l.11.11h2.69c.21.25.1.7.04.99h-2.73l-.11.11v2.23c.07-.02.15.07.18.07h3.23v.92h-4.54v-7.66h4.54Z"/>
      <path class="cls-1" d="M55.21,81.66c.55-.56.34-1.3-.31-1.66-1.03-.57-2.7-.51-3.1-1.93-.78-2.75,2.8-3.64,4.64-2.37l-.35.92c-.83-.56-3.25-.82-3.26.63-.01,1.79,3.44,1.13,3.8,3.15.47,2.71-3.17,3.28-4.92,2.16-.07-.14.13-1,.24-1.02.82.51,2.53.86,3.27.12Z"/>
      <path class="cls-1" d="M20.26,81.66c.71-.74.21-1.41-.57-1.76-1.08-.48-2.5-.5-2.86-1.89-.72-2.74,2.83-3.56,4.66-2.31l-.39.94c-.85-.64-3.28-.82-3.23.68s3.04,1.2,3.69,2.7c.26.6.18,1.22-.11,1.79-.73,1.44-2.83,1.48-4.18,1-.89-.32-.59-.5-.28-1.28.81.51,2.54.89,3.27.12Z"/>
      <path class="cls-1" d="M94.17,76.3v6.56c-.13.17-1.1.14-1.18.04-.04-.05.04-.09.04-.11v-6.38s-.12-.14-.17-.15c-.6.03-1.33.1-1.92.04-.74-.07-.26-.37-.43-.89l.11-.14,5.91-.03.09.06c.06.09.09.89-.08,1h-2.38Z"/>
      <path class="cls-1" d="M47.87,81.97h3.12l.05.89-.09.1h-4.29v-7.66c.22-.07,1.13-.19,1.18.1l.03,6.56Z"/>
      <path class="cls-1" d="M118.14,76.94v6.03h-.71s-.04-.71-.04-.71c-.53.44-.96.84-1.7.84-3.02,0-2.94-5.1.42-4.66.17.02.43.12.58.2.29.16.43.47.74.57v-2.27c.25-.09.46-.09.71,0ZM115.43,79.01c-1.83.25-1.68,3.74.54,3.45.77-.1,1.49-1.03,1.46-1.79-.05-.96-1.03-1.79-2-1.66Z"/>
      <path class="cls-1" d="M112.4,82.97h-.71s0-.78,0-.78l-.6.57c-2.07,1.05-3.84-.73-3.18-2.89.52-1.67,2.75-1.96,3.78-.58.03-.22-.08-.64.1-.79.08-.07.61-.06.61.11v4.36ZM109.68,79.01c-1.6.2-1.64,2.9-.28,3.37.92.31,1.73-.11,2.11-.98.53-1.23-.51-2.56-1.82-2.39Z"/>
      <path class="cls-1" d="M137.34,76.88c.95-.14,2.13.03,2.78.81l-.38.5c-.38-.27-.68-.56-1.15-.67-1.98-.49-3.27,1.35-2.82,3.18s2.64,2.33,3.91,1l.42.35c.13.25-.73.7-.93.78-2.63,1.04-4.84-1.28-4.04-3.9.29-.96,1.19-1.89,2.22-2.04Z"/>
      <path class="cls-1" d="M145.5,80.74c0,1.31-1.06,2.37-2.37,2.37s-2.37-1.06-2.37-2.37,1.06-2.37,2.37-2.37,2.37,1.06,2.37,2.37ZM144.88,80.75c0-.96-.78-1.74-1.74-1.74s-1.74.78-1.74,1.74.78,1.74,1.74,1.74,1.74-.78,1.74-1.74Z"/>
      <path class="cls-1" d="M121.61,78.53c.03-.11.57-.1.61-.04l.03.85c.08.09.64-.55.76-.63.61-.4,1.71-.45,2.22.11.7.77.15,3.02.41,4.03-.03.18-.55.08-.69.1v-3.08c0-.05-.12-.33-.17-.4-.43-.76-1.47-.53-1.96.05-.1.12-.57.9-.57.99v2.45h-.64v-4.43Z"/>
      <path class="cls-1" d="M104.81,77.51h-1.99l-.02,5.36c-.03.18-.55.08-.69.1v-5.35l-.11-.11h-1.88l.07-.61,4.44-.03.17.12v.52Z"/>
      <path class="cls-1" d="M104.95,78.53c.03-.11.57-.1.61-.04l.07.86c.15,0,.38-.46.51-.57.47-.4,1.83-.73,1.29.29-.47-.18-.9.02-1.24.35-.11.11-.6.86-.6.96v2.59h-.59s-.1-.11-.1-.11c0-.03.05-.05.05-.07v-4.25Z"/>
      <rect class="cls-1" x="119.56" y="78.45" width=".64" height="4.52"/>
      <circle class="cls-1" cx="119.86" cy="77.1" r=".47"/>
      <g>
        <path class="cls-1" d="M0,66.73c.29-1.11.85-2.22,2.04-2.53,3.27-.85,4.44,4.43,1.73,5.42-1.09.4-2.77.21-3.39-.89-.16-.29-.2-.6-.38-.86v-1.13ZM2.32,65.19c-1.78.26-2.13,3.3-.09,3.53,1.47.16,2.55-.46,2.14-2.07-.25-1-.99-1.61-2.05-1.45Z"/>
        <path class="cls-1" d="M95.8,60.63v6.35c0,.36.51.62.82.67.73.1,2.35.06,3.12,0,.31-.02.75-.06.95-.33.02-.03.15-.33.15-.35v-1.49c.06-.1.14-.1.24-.11.23-.03,1-.03,1.21,0,.08.01.13.04.18.11v1.7s.16.25.21.29c.37.32,1.71.25,1.71-.36v-1.63c.06-.1.14-.1.24-.11.23-.03,1-.03,1.21,0,.08.01.13.04.18.11v1.56c0,.83,1.84.83,1.84,0v-1.56c.06-.1.14-.1.24-.11.23-.03,1-.03,1.21,0,.08.01.13.04.18.11v1.63s.24.3.3.34c.37.26,1.36.27,1.76.09.6-.27.61-.96.84-1.5,1.45-3.38,5.72-2.17,5.24,1.55-.28,2.17-3.18,2.99-4.7,1.68-.14-.12-.37-.48-.5-.5l-.4.52c-.82.81-3.1.63-3.5-.6-.36.29-.37.68-.87.9-.92.4-2.25.17-2.67-.83-.11-.03-.33.41-.46.53-.79.79-2.67.61-3.09-.53-.33.21-.45.55-.82.74-.16.08-.52.21-.69.24-.93.13-3.78.1-4.59-.27-.48-.22-.85-.58-1.04-1.09-.05-.14-.2-.68-.2-.79v-6.95c.11-.18.28-.04.46-.03.41,0,.83-.01,1.24,0ZM114.5,66.18c-.37.06-1.08.61-1.17.96-.1.37.67.55.95.58.6.07,2.29.13,1.98-.85-.2-.62-1.21-.78-1.76-.69Z"/>
        <path class="cls-1" d="M65.88,60.63v6.2c0,.1.16.44.25.53.33.34,1.34.38,1.75.19.14-.06.48-.47.48-.58v-1.6h1.52l.11.11v1.49c0,.22.32.69.59.6.87-1.23,1.7-2.58,3.05-3.34,2.77-1.57,5.24.28,4.74,3.34.43.11,1.48.19,1.8-.13.04-.04.24-.37.24-.39v-6.31c0-.16.21-.11.25-.11h1.45v6.56c0,.42-.42,1.37-.71,1.7-.93,1.07-3.09,1.24-4.14.26-.31.18-.63.35-.97.45-1.03.3-4.49.29-5.63.18-.84-.08-1.2-.5-1.67-1.13-.42,1.48-2.94,1.36-3.94.64-.29-.21-.82-.97-.82-1.31v-7.3c.11-.18.28-.04.46-.03.39,0,.78-.01,1.17,0ZM72.05,67.65h3.72c.2,0,.89-.22,1.05-.36.54-.47-.13-1.22-.65-1.38-1.19-.38-2.59.23-3.49,1-.08.07-.72.67-.64.75Z"/>
        <path class="cls-1" d="M11.77,67.68c.06.44.4.89.85.99.68.15,2.08.02,2.78-.13,1.36-.29,2.57-1.02,3.81-1.61.02-.14-.09-.2-.19-.27-.92-.66-2.54-1.3-3.65-1.05-.37.08-.71.33-.96.39-.3.07-.59-.45-.48-.69.23-.49,1.82-.88,2.34-.85,1.3.08,2.15.92,3.23,1.46.98.49,1.67.21,2.69.39-.09.29.07.83-.1,1.06-.12.15-.81.03-1.03.07.1,1.26,1.25,1.41,2.3,1.27.82-.11.99-.72,1.04-1.44.02-.28-.08-1.59-.04-1.67.1-.2.69-.21.82-.04v1.99s.09.41.1.46c.28.82,1.33.79,2.06.71.45-.05,1.03-.49,1.03-.96v-6.81l.12-.1c.06-.02.13,0,.2-.01.18-.02.43-.03.54.11v6.88c0,.13.33.58.46.67.4.29,1.4.28,1.87.16s.75-.43.8-.91c.2-2.08-.26-4.63,0-6.67,0-.06,0-.13.03-.18l.74-.06.08.31c-.28,1.89.49,5.9-.3,7.51-.73,1.47-3.46,1.56-4.21.05-.71,1.46-3.28,1.46-3.97,0-.61,1.12-2.16,1.34-3.25.84-.92-.42-.97-1.25-1.15-2.12-.18,0-.34-.02-.52.04-.36.12-1.22.8-1.66,1.04-1.56.84-4.84,1.95-6.41.86-.25-.17-.73-.83-.73-1.12v-7.3l.12-.09c.09-.02.18-.02.27-.02.15,0,.3-.02.39.11v6.74Z"/>
        <path class="cls-1" d="M38.16,63.9l1.33.42c-.33,1.32-.74,2.82.98,3.23.8.19,4.04.18,4.86,0,2.07-.45.88-2.34.76-3.74l1.44-.35c.15.04.34.78.38.97.45,1.94.39,4.21-1.75,5.01-1.29.48-5.6.5-6.86-.02-2.17-.89-2.02-3.75-1.14-5.54Z"/>
        <path class="cls-1" d="M133.24,60.99l.29.67-.14.21c-.44.37-3.87,2.18-3.97,2.41-.03.06-.03.13.05.17.15.1.43.19.61.3.93.56,2.37,1.45,2.46,2.65.08,1.09-.54,1.9-1.55,2.21-.8.25-3.28.29-4.03-.03-.6-.26-.95-.81-1.09-1.43-.1-.02-.09-.01-.15.05-.41.44-.64.72-1.31.8-3.26.41-3.81-3.26-.98-4.59.76-.36,1.57-.49,2.35-.73l.08-.81.67-.09c.11.05.1.14.12.24.16,1.45-.18,3.25,0,4.69.07.55.48.97,1.03,1.03.78.08,2.97.08,3.62-.28.31-.17.57-.48.5-.86-.21-1.11-2.45-2-3.31-2.58l-.07-1.13,4.56-2.83.26-.05ZM125.8,64.67c-1.02.11-2.77.62-3.24,1.61-.73,1.53,1.38,1.94,2.48,1.49.21-.08.76-.43.76-.66v-2.45Z"/>
        <path class="cls-1" d="M143.67,67.83c.18,1.19,2.32,1.21,2.59.18.18-.69-.26-1.68-.39-2.37.02-.09.74-.31.84-.24.4,1.33.85,3.54-.76,4.23-.64.27-1.74.24-2.32-.19-.28-.21-.29-.58-.6-.64-.62,1.53-3.44,1.29-3.81-.36h-2.65c.19,2.33-1.46,4.24-3.86,4.04-.84-.07-.68-.41-.47-1.1,1.1.16,2.53-.08,3.14-1.11.7-1.2.2-2.57-.12-3.8-.04-.25.74-.34.81-.28l.41,1.19,2.58-.02.1-1.11c.07-.11.71-.13.82.04v1.7c0,.16.39.56.57.64.43.19,1.53.19,1.91-.15.07-.06.36-.59.36-.63v-1.56l.12-.1c.06-.02.13,0,.2-.01.1,0,.54-.02.54.11.05.48-.07,1.09,0,1.56Z"/>
        <path class="cls-1" d="M56.94,66.51h1.24l.08.1c-.22,1.34,2.23,1.3,2.93.92,1.03-.56-.34-1.87-.84-2.33-.18-.17-1.32-1.02-1.33-1.13l1.09-1.52c1.79,1.09,3.33,3.11,2.83,5.31-.44,1.94-2.64,2.33-4.32,1.9-1.53-.39-1.91-1.84-1.67-3.25Z"/>
        <path class="cls-1" d="M51.2,70.35c.62.09,1.18.09,1.78-.1,2.31-.73,1.01-3.61.7-5.26l1.56-.44c.53,1.68,1.01,3.64.47,5.38s-2.14,2.81-4.01,2.49c-.15-.03-.6-.08-.64-.21-.05-.16.07-1.8.14-1.86Z"/>
        <path class="cls-1" d="M88.01,72.25l.13-1.91c.82.14,1.94.08,2.59-.5,1.26-1.12.11-3.45-.03-4.85.04-.12,1.36-.5,1.48-.44.17.09.41,1.26.46,1.53.24,1.18.42,2.29.14,3.48-.54,2.31-2.52,3.42-4.78,2.68Z"/>
        <rect class="cls-1" x="83.75" y="60.59" width="1.7" height="9.19"/>
        <rect class="cls-1" x="49.5" y="60.59" width="1.7" height="9.19"/>
        <path class="cls-1" d="M7.78,70.67c1.31-1.31.35-3.67.16-5.25.01-.06.75-.33.84-.07.11.3.22,1,.28,1.35.29,1.67.49,3.67-.94,4.91-.72.63-2.24,1.12-3.18.77-.24-.09-.13-.99.07-1.04.89.19,2.11-.01,2.77-.67Z"/>
        <path class="cls-1" d="M116.37,62.54l-2.66.69c-.18-.03-.19-.67-.17-.83l2.69-.71.14.85Z"/>
        <path class="cls-1" d="M43.45,62.56c1.24-.28,1.32,1.57.16,1.45-.93-.1-.85-1.29-.16-1.45Z"/>
        <circle class="cls-1" cx="41.87" cy="63.27" r=".75"/>
        <circle class="cls-1" cx="18.9" cy="70.42" r=".62"/>
        <circle class="cls-1" cx="124.93" cy="61.38" r=".58"/>
        <path class="cls-1" d="M26,64.08c-.52.63-1.43-.28-.8-.83.53-.47,1.24.31.8.83Z"/>
        <circle class="cls-1" cx="24" cy="63.7" r=".58"/>
        <circle class="cls-1" cx="1.93" cy="62.33" r=".58"/>
        <circle class="cls-1" cx="123.32" cy="61.38" r=".57"/>
        <circle class="cls-1" cx="3.52" cy="62.33" r=".57"/>
        <circle class="cls-1" cx="143.26" cy="62.99" r=".55"/>
        <circle class="cls-1" cx="143.97" cy="64.37" r=".55"/>
        <circle class="cls-1" cx="142.52" cy="64.36" r=".55"/>
      </g>
    </g>
  </g>
</svg>