<?xml version="1.0" encoding="UTF-8"?>
<svg id="Layer_2" data-name="Layer 2" xmlns="http://www.w3.org/2000/svg" viewBox="0 0 70.63 92.74">
  <defs>
    <style>
      .cls-1 {
        opacity: .1;
      }

      .cls-1, .cls-2, .cls-3 {
        fill: #626370;
      }

      .cls-4 {
        opacity: .75;
      }

      .cls-3 {
        opacity: .2;
      }
    </style>
  </defs>
  <g id="Layer_1-2" data-name="Layer 1">
    <g>
      <g>
        <polygon class="cls-2" points="48.35 52.16 54.88 58.68 51.52 62.05 41.22 72.34 35.32 78.25 35.28 78.22 35.3 78.25 15.74 58.69 27.57 46.87 35.32 39.13 48.35 52.16"/>
        <path class="cls-2" d="M70.62,39.63c-.13,2.19-1.02,4.34-2.7,6.01h0S35.31,13.04,35.31,13.04l-13.04,13.04L2.71,45.65h-.01c-3.6-3.6-3.6-9.44,0-13.05l16.59-16.59,9.5-9.5h.01s6.51-6.52,6.51-6.52h.01s0,0,0,0l.03.04,6.48,6.48h0l26.09,26.09c1.93,1.93,2.82,4.5,2.7,7.02Z"/>
      </g>
      <g>
        <g>
          <g>
            <g>
              <path class="cls-2" d="M70.62,39.63c-.13,2.19-1.02,4.34-2.7,6.01h0S35.31,13.04,35.31,13.04l-13.04,13.04L2.71,45.65h0s0,0,0,0c-3.6-3.6-3.6-9.43,0-13.04l16.59-16.59,9.5-9.5h.01s6.51-6.52,6.51-6.52h.01s.03.04.03.04l6.48,6.48h0l26.09,26.09c1.93,1.93,2.82,4.5,2.7,7.02Z"/>
              <polygon class="cls-2" points="48.35 52.16 48.35 52.17 35.32 65.21 22.28 52.17 22.27 52.16 27.57 46.87 35.32 39.13 48.35 52.16"/>
            </g>
            <polygon class="cls-2" points="54.88 58.68 51.52 62.05 41.22 72.34 35.32 78.24 35.32 78.25 35.32 78.25 35.28 78.22 15.74 58.69 22.27 52.16 22.28 52.17 35.32 65.21 48.35 52.17 48.35 52.16 54.88 58.68"/>
          </g>
          <g class="cls-4">
            <rect class="cls-2" x="2.7" y="45.64" width="0" height="0"/>
            <polygon class="cls-2" points="35.32 9.78 35.32 13.04 35.31 13.04 35.31 13.04 22.27 26.08 2.7 45.64 35.31 0 35.32 9.78"/>
            <polygon class="cls-2" points="67.92 45.64 35.32 13.04 35.31 13.04 35.32 9.78 35.32 .01 35.32 0 35.35 .04 67.92 45.64"/>
            <polygon class="cls-2" points="54.86 58.69 41.22 72.34 35.32 78.25 35.32 78.24 48.35 52.17 54.86 58.69"/>
            <polygon class="cls-2" points="35.3 78.25 15.74 58.69 22.27 52.17 35.28 78.22 35.3 78.25"/>
          </g>
          <polygon class="cls-1" points="35.31 39.13 35.31 65.21 48.35 52.17 35.31 39.13"/>
          <g>
            <path class="cls-2" d="M15.6,86.54v6.04c1.39,0,2.51-1.13,2.51-2.52v-6.04c-1.39,0-2.51,1.12-2.51,2.51Z"/>
            <path class="cls-2" d="M27.2,87.19c-1.32-.32-1.63-.51-1.63-.97s.35-.68.93-.68c.89,0,1.12.47,1.19.92h2.43c-.12-1.35-1.13-2.6-3.61-2.6s-3.44,1.2-3.44,2.64c0,1.15.51,2.08,3.03,2.69,1.35.32,1.73.53,1.73,1.1,0,.5-.35.76-1.11.76-.81,0-1.33-.32-1.47-1.06h-2.44c.19,1.65,1.44,2.75,3.81,2.75,2.51,0,3.75-1.12,3.75-2.72,0-1.22-.52-2.17-3.16-2.83Z"/>
            <path class="cls-2" d="M40.12,89.77c-.11.48-.39,1.21-1.39,1.21-1.32,0-1.66-1.34-1.66-2.7,0-1.49.41-2.65,1.64-2.65.92,0,1.28.56,1.4,1.18h2.49c-.17-1.48-1.31-2.94-3.83-2.94-2.94,0-4.28,2.08-4.28,4.5s1.35,4.38,4.16,4.38c2.35,0,3.66-1.19,3.98-2.98h-2.5Z"/>
            <path class="cls-2" d="M50.61,83.86c-2.87,0-4.4,1.98-4.4,4.44s1.39,4.44,4.27,4.44,4.39-2.03,4.39-4.45c0-2.56-1.56-4.43-4.26-4.43ZM50.56,90.94c-1.24,0-1.76-1.09-1.76-2.67s.51-2.6,1.73-2.6c1.31,0,1.77,1.08,1.77,2.64,0,1.46-.43,2.62-1.73,2.62Z"/>
          </g>
        </g>
        <polygon class="cls-3" points="35.32 39.13 35.3 52.16 22.28 52.17 22.27 52.17 22.27 52.16 35.32 39.13"/>
      </g>
    </g>
  </g>
</svg>