<?xml version="1.0" encoding="UTF-8"?>
<svg id="Layer_2" data-name="Layer 2" xmlns="http://www.w3.org/2000/svg" viewBox="0 0 54.61 75.4">
  <defs>
    <style>
      .cls-1 {
        fill: #626370;
      }
    </style>
  </defs>
  <g id="Layer_1-2" data-name="Layer 1">
    <g>
      <g>
        <path class="cls-1" d="M54.57,75.4H.04v-.21c-.03-.44-.04-.88-.04-1.32V27.31C0,12.25,12.25,0,27.31,0s27.31,12.25,27.31,27.31v46.56c0,.44-.01.88-.03,1.32v.21ZM.47,74.95h53.68c.01-.36.02-.73.02-1.09V27.31C54.17,12.49,42.12.44,27.31.44S.44,12.49.44,27.31v46.56c0,.37,0,.73.02,1.09Z"/>
        <path class="cls-1" d="M52.75,73.64H1.86v-.21c-.03-.42-.04-.84-.04-1.26V27.79C1.82,13.44,13.25,1.76,27.31,1.76s25.49,11.68,25.49,26.04v44.38c0,.42-.01.84-.03,1.26v.21ZM2.28,73.2h50.05c.01-.34.02-.68.02-1.03V27.79c0-14.11-11.24-25.59-25.05-25.59S2.26,13.68,2.26,27.79v44.38c0,.34,0,.69.02,1.03Z"/>
      </g>
      <g>
        <path class="cls-1" d="M44.62,52.62c-.4-.32-.86-.74-1.34-1.2.09-.46.28-2.07-1.13-3.38-.51-.48-1.08-1.04-1.61-1.58-.51-4.08-1.06-6.24-1.64-6.38-.12-.03-.21.02-.26.07-.34.17-.46.99-.49,1.87-.14-.03-.34-.05-.53.08-.26.18-.38.57-.35,1.16-.19,1.43.33,2.25.5,2.46-.68,1.52.38,2.95.65,3.28-.7.94-.99,2.73-1.21,4.04-.11.63-.2,1.18-.3,1.42-.13.29-.2.31-.2.31,0,0-.03-.02-.04-.05-.02-.05-.05-.1-.07-.15,0,0,0,0,0,0-1.05-2.51-2.16-3.85-3.3-3.99-.94-.11-1.53.65-1.55.68l-.08.11.13.06c1.83.81,1.82,3.42,1.82,3.45.1,3.67,3.58,5.9,4.13,6.23-.68,3.22-3.18,5.68-3.21,5.71l-.06.06.04.07c.73,1.39,1.72,2.26,2.95,2.6.42.11.83.16,1.23.16,1.71,0,3.15-.86,3.22-.91l.06-.03v-.07c-.26-3.9,1.04-5.98,1.06-6.01.17-.33,4.04-8.13,1.6-10.08ZM38.75,40.35h.03s.02-.04.02-.04c0,0,.02-.02.05-.01.12.03.74.47,1.44,5.9-.92-.94-1.69-1.77-1.84-1.93-.13-1.55-.13-3.76.3-3.92ZM37.75,42.29c.14-.1.31-.07.4-.04,0,.67.03,1.33.06,1.75l-.71-.77c-.02-.48.07-.81.25-.94ZM37.47,43.53l.86.93c.23.24,1.05,1.14,2.01,2.11,0,.02,0,.04,0,.05h.04c.53.54,1.1,1.1,1.62,1.58,1.22,1.13,1.17,2.48,1.09,3.03-2.15-2.1-4.69-5.09-5.06-5.53h0s-.05-.06-.05-.06c0,0-.63-.72-.52-2.11ZM41.74,68.66c-.36.2-2.3,1.22-4.22.69-1.15-.32-2.08-1.13-2.78-2.42.39-.4,2.62-2.8,3.23-5.84l.02-.08-.07-.04s-3.98-2.25-4.08-6.08c0-.11.01-2.66-1.82-3.59.18-.19.64-.57,1.26-.49.72.09,1.86.83,3.12,3.85,0,.03.04.12.09.2.37.78.59,1.02.6,1.03,0,0,.07.06.15,0,.07-.06,0-.15,0-.15,0,0-.17-.19-.46-.76.15-.06.26-.26.33-.42.11-.27.2-.8.32-1.47.21-1.28.5-3,1.15-3.9.47.52,2.68,2.94,3.29,3.91.87,1.37-.25,2.56-.61,2.89-.88.8-.92,3.44-.92,3.56,0,0,0,.08.1.08s.12-.07.12-.07c0-.03.05-2.66.85-3.4.65-.59,1.15-1.49.94-2.45.46.42.94.49,1.2.49.12,0,.2-.01.21-.02,0,0,.09-.02.07-.12-.01-.11-.12-.1-.12-.1-.04,0-.87.16-1.55-.8l-.02-.02c-.03-.06-.05-.1-.09-.16-.65-1.03-2.93-3.52-3.35-3.98h0s-.03-.03-.03-.03c-.02-.02-.03-.03-.04-.04h0s0,0,0,0c-.01-.02-1.33-1.45-.72-3.01.7.82,4.39,5.14,6.56,6.87,2.31,1.85-1.62,9.73-1.65,9.8-.06.08-1.33,2.12-1.09,6.06Z"/>
        <path class="cls-1" d="M12.31,63.08s1.5,1.98,1.6,5.89v.07s.06.03.06.03c.08.04,1.59.77,3.29.62.4-.04.81-.12,1.21-.27,1.2-.45,2.11-1.41,2.7-2.86l.03-.08-.06-.05s-2.75-2.25-3.71-5.39c.51-.37,3.78-2.92,3.55-6.57,0-.03-.25-2.63,1.5-3.6l.12-.07-.09-.1s-.68-.73-1.61-.54c-1.12.24-2.11,1.68-2.92,4.27,0,0,0,0,0,0-.02.06-.04.1-.06.15-.01.02-.03.05-.04.05,0,0-.08,0-.23-.29-.13-.23-.26-.77-.43-1.39-.34-1.29-.79-3.04-1.57-3.91.24-.35,1.17-1.87.35-3.32.15-.23.59-1.09.28-2.5-.02-.59-.18-.97-.46-1.13-.2-.11-.4-.08-.54-.03-.11-.87-.3-1.68-.66-1.82-.05-.05-.15-.09-.27-.05-.56.2-.92,2.39-1.06,6.5-.48.59-.99,1.19-1.46,1.72-1.29,1.44-.96,3.02-.82,3.47-.44.5-.85.96-1.22,1.31-2.26,2.17,2.3,9.58,2.5,9.9ZM15.2,44.3c-.13.17-.82,1.07-1.65,2.09.21-5.47.78-5.97.9-6.01.03,0,.05,0,.05,0l.02.03h.03c.44.13.64,2.33.65,3.88ZM16.06,43.19l-.64.83c0-.42-.03-1.09-.1-1.75.09-.03.26-.08.41,0,.2.11.31.43.34.92ZM15.79,45.63l-.04.06h0c-.33.47-2.59,3.68-4.54,5.97-.13-.54-.3-1.88.81-3.12.47-.53.99-1.14,1.47-1.73h.04s0-.03,0-.05c.86-1.05,1.61-2.02,1.81-2.28l.77-1c.24,1.38-.32,2.14-.32,2.15ZM12.49,62.95c-.04-.07-4.66-7.57-2.53-9.61,2-1.92,5.29-6.55,5.91-7.43.75,1.49-.43,3.04-.44,3.06h0s0,0,0,0c0,0-.02.02-.03.04l-.03.03h0c-.37.49-2.42,3.18-2.98,4.26-.03.07-.05.1-.07.17l-.02.02c-.59,1.02-1.44.94-1.48.94,0,0-.1,0-.11.11,0,.1.08.11.08.11.01,0,.09,0,.21,0,.26-.02.73-.14,1.15-.6-.12.97.46,1.82,1.16,2.35.87.66,1.15,3.28,1.15,3.31,0,0,.02.07.13.06s.09-.08.09-.08c-.01-.11-.3-2.74-1.24-3.46-.39-.3-1.61-1.38-.87-2.82.53-1.03,2.5-3.64,2.93-4.19.73.84,1.17,2.53,1.5,3.78.17.66.31,1.18.45,1.44.08.16.21.34.37.39-.23.59-.38.79-.39.79,0,0-.05.1.02.15.08.05.15,0,.15,0,0-.01.21-.27.5-1.08.05-.09.07-.18.07-.21.98-3.11,2.04-3.96,2.76-4.11.61-.13,1.09.2,1.29.37-1.74,1.09-1.5,3.63-1.49,3.74.24,3.82-3.48,6.39-3.52,6.42l-.07.05.02.08c.88,2.98,3.31,5.16,3.74,5.53-.57,1.35-1.43,2.24-2.55,2.66-1.86.7-3.89-.14-4.27-.31-.12-3.94-1.57-5.86-1.64-5.94Z"/>
        <g>
          <path class="cls-1" d="M42.02,31.99s-1.48,1.31-2.75,1.94c.93-1.46.69-3.62.68-3.72l-.02-.21-.16.14c-1.23,1.1-3.17,2.01-3.76,2.27.09-.76.17-1.7.24-2.85l.04-.58-.25.53s-1.01,2.12-2.92,3.5c.62-2.91-.23-4.89-.53-5.17-.08-.07-.15-.07-.19-.06-.03.01-.09.04-.1.13-.04.23-.29,1.05-1.68,1.81-1.08.59-1.71,2.02-1.93,2.57-.29-.54-1.06-2.15-1.32-4.37l-.06-.47-.16.45s-.68,1.91-1.43,3.47c-.44-.46-2.09-2.18-2.64-2.67-.59-.52-.7-1.36-.7-1.37l-.11-.84-.11.84s-.15,1.1-.76,2.18c-.51.89-.51,2.07-.49,2.57-1.05-.75-2.01-1.23-2.45-1.43-1.45-.67-1.62-1.57-1.62-1.58l-.07-.48-.14.46c-.02.06-.32,1.09-.11,2.68-1.62-.48-2.95-1.83-2.96-1.84l-.11-.11-.07.14c-.47.96-.19,2.54-.06,3.13-2.02-1.03-2.43-2.32-2.43-2.33l-.21.06c2.65,11.25,13.16,11.78,15.08,11.78.19,0,.29,0,.3,0h.22s.06.04.06.04l.04-.03c.09,0,.38.03.85.03,2.85,0,11.73-.8,14.98-10.47l.13-.4-.31.28ZM39.75,30.46c.04.63.05,2.51-.88,3.65-.12.04-.24.09-.35.12-1.05.25-2.56,1.16-3.37,1.84.09-.19.19-.37.27-.57.02-.03.29-.65.55-2.81.36-.16,2.4-1.07,3.77-2.22ZM30.72,29.92c1.3-.71,1.67-1.47,1.77-1.85.29.4,1.04,2.33.37,5.13-1.94,1.3-3.13,2.39-3.67,3.37.08-1.24-.04-2.58-.37-4,.05-.15.7-2,1.9-2.65ZM27.21,28.4c.36,2.39,1.29,4.02,1.4,4.2.41,1.78.5,3.45.27,4.94-.31,1.96-1.13,3.25-1.76,4,1.07-2.35.64-5.36.64-5.36-.04,3.29-.96,5.32-.96,5.32v-2.7c-.11,2.59-.44,3.42-.44,3.42l-.58-.87c-.44-.48-1.04-2.96-1.04-2.96-.11,1.11.2,2.02.49,2.61-2.69-3.66-.54-7.39-.02-8.17.79-1.2,1.68-3.49,2.03-4.44ZM21.59,29.62c.38-.67.59-1.34.69-1.77.11.31.3.71.65,1.02.56.5,2.36,2.38,2.68,2.71-.21.43-.43.82-.63,1.14-.23.34-.76,1.23-1.08,2.43-.75-1.2-1.78-2.17-2.77-2.91-.02-.22-.11-1.64.45-2.63ZM13.51,30.16c.37.36,1.59,1.42,3.05,1.82.08.48.19,1,.39,1.57.07.2.15.41.24.62-1.4-.19-2.61-.52-3.61-.99-.06-.26-.45-1.97-.06-3.02ZM24.56,42.27c-4.03-.83-6.46-3.76-6.46-3.76l1.38,2.14c-.65-.33-3.58-2.53-3.58-2.53l3.25,2.81c-3.15-1.36-6.52-4.05-8.03-9.35.38.52,1.08,1.2,2.32,1.78,1.06.5,2.35.85,3.84,1.04v-.02c1.01,2.26,3.27,5.23,8.34,7.94-.25,0-.61-.02-1.05-.05ZM25.74,42.14c-.3-.31-.75-.83-1.07-1.45-.61-.59-1.66-1.68-2.24-2.73,0,0,.63,1.92,2.59,3.7,0,0-3.33-2.14-5.73-5.89,0,0,1.36,2.62,3.69,4.69-3.63-2.53-5.17-5.09-5.81-6.96-.64-1.87-.51-3.36-.4-4.02.19.36.62.92,1.61,1.37.9.41,3.94,1.95,5.47,4.61-.21.92-.28,2-.02,3.14-.71-1.2-1.84-2.41-1.84-2.41l2.04,3.08c.12.35.29.71.49,1.07.05.12.1.24.16.35.04.04.09.09.13.12.33.5.75,1.01,1.27,1.51-.11-.06-.21-.12-.32-.18ZM26.35,42.29c-.06-.05-.1-.1-.15-.16l.18.13s-.02.02-.03.02ZM26.68,42.32s0-.01.01-.02c.04-.03.09-.08.14-.12,3.51-.84,5.25-4.05,5.25-4.05-3.18,3.72-4.63,3.75-4.63,3.75,1.26-.72,3.05-3.18,3.69-4.09-.72.93-2.59,2.66-3.56,3.55.59-.79,1.24-2.01,1.51-3.75,0,0,0,0,0,0h0c.1-1.16,1.35-2.5,3.93-4.22,1.54-1.03,2.54-2.54,2.97-3.29-.29,4.25-.77,5.32-.77,5.33-2.47,5.69-6.8,6.73-8.55,6.92ZM30.07,42.12c1.64-.31,3.77-.92,5.1-2.05l-4.7,1.69s3.25-1.66,5.1-3.48c1.85-1.81,0-.16,0-.16,0,0-4.38,3.32-7.45,4.2-.11,0-.24.01-.34.02,1.93-.45,4.93-1.77,7.03-5.65h0c.28-.49,2.36-1.94,3.74-2.26,1.11-.26,2.63-1.46,3.28-2.01-2.51,6.96-8.05,9.07-11.78,9.69Z"/>
          <path class="cls-1" d="M31.14,37.78c.1-.13.18-.25.23-.34,0,0-.09.13-.23.34Z"/>
        </g>
      </g>
      <g>
        <g>
          <circle class="cls-1" cx="13.53" cy="23.21" r=".27"/>
          <ellipse class="cls-1" cx="13.53" cy="23.21" rx="1.54" ry=".04"/>
          <ellipse class="cls-1" cx="13.53" cy="23.21" rx=".04" ry="1.54"/>
        </g>
        <g>
          <circle class="cls-1" cx="23.4" cy="23.21" r=".27"/>
          <ellipse class="cls-1" cx="23.4" cy="23.21" rx="1.54" ry=".04"/>
          <ellipse class="cls-1" cx="23.4" cy="23.21" rx=".04" ry="1.54"/>
        </g>
        <g>
          <circle class="cls-1" cx="34.49" cy="21.4" r=".36"/>
          <ellipse class="cls-1" cx="34.49" cy="21.4" rx="2.06" ry=".05"/>
          <ellipse class="cls-1" cx="34.49" cy="21.4" rx=".05" ry="2.06"/>
        </g>
        <g>
          <circle class="cls-1" cx="42.41" cy="24.76" r=".31"/>
          <ellipse class="cls-1" cx="42.41" cy="24.76" rx="1.73" ry=".04"/>
          <ellipse class="cls-1" cx="42.41" cy="24.76" rx=".04" ry="1.73"/>
        </g>
        <g>
          <circle class="cls-1" cx="31.84" cy="14.93" r=".5"/>
          <ellipse class="cls-1" cx="31.84" cy="14.93" rx="2.84" ry=".06"/>
          <ellipse class="cls-1" cx="31.84" cy="14.93" rx=".06" ry="2.84"/>
        </g>
        <g>
          <circle class="cls-1" cx="20.52" cy="16.49" r=".37"/>
          <ellipse class="cls-1" cx="20.52" cy="16.49" rx="2.07" ry=".05"/>
          <ellipse class="cls-1" cx="20.52" cy="16.49" rx=".05" ry="2.07"/>
        </g>
      </g>
    </g>
  </g>
</svg>