<?xml version="1.0" encoding="UTF-8"?>
<svg id="Layer_2" data-name="Layer 2" xmlns="http://www.w3.org/2000/svg" viewBox="0 0 135.35 60.94">
  <defs>
    <style>
      .cls-1 {
        fill: #626370;
      }
    </style>
  </defs>
  <g id="Layer_1-2" data-name="Layer 1">
    <g>
      <path class="cls-1" d="M64.74,25.85c1.88-.42,3.47,1.88,2.04,3.59s-3.98.01-3.7-1.7c.11-.67.96-1.73,1.66-1.88Z"/>
      <g>
        <path class="cls-1" d="M123.99,55.32c-.89.89,1.38,5.54-2.4,5.58-1.05.01-1.79-.58-2-1.62-.38-1.89-.25-9.46-.05-11.6.74-7.85,8.44-5.46,13.96-5.61,1.19.14,1.55.75,1.65,1.86.44,4.82-.35,10.29,0,15.18-.17,1.63-1.75,2.16-3.14,1.59-1.92-.79-.38-5.01-1.48-5.55-.55-.26-6.18-.2-6.54.16ZM124.26,50.65h6.37l.33-.33v-3.52c0-.16-.53-.5-.78-.54-1.16-.22-4.96-.12-5.88.64-.62.52-.79,3.15-.04,3.75Z"/>
        <path class="cls-1" d="M61.56,55.32c-.92,2.15,1.12,5.52-2.44,5.53-1.07,0-1.74-.5-1.96-1.57-.38-1.89-.25-9.45-.05-11.6.74-7.87,8.43-5.45,13.96-5.61,1.19.14,1.55.75,1.65,1.86.44,4.82-.35,10.29,0,15.18-.28,2.44-3.79,2.43-4.17-.02-.15-.99.41-3.46-.51-3.89-.64-.3-6.09-.29-6.49.11ZM61.83,50.65h6.37l.33-.33v-3.52c-.27-.31-.6-.47-1-.54-1.11-.17-4.73-.15-5.58.55-.67.55-1.09,3.57-.12,3.83Z"/>
        <path class="cls-1" d="M30.92,55.08h-6.75c-.47.29-.14,3.48-.26,4.24-.34,2.12-3.84,2.29-4.17-.42-.31-2.56-.22-8.57,0-11.21.69-7.85,8.46-5.46,13.96-5.61,1.05,0,1.54.94,1.65,1.87.56,4.69-.39,10.53-.06,15.34-.38,1.52-1.47,1.75-2.91,1.47-2.06-.39-.73-4.34-1.47-5.68ZM30.95,46.25h-5.17c-1.64,0-2.41,3.07-1.66,4.3l6.51.22c.16-.02.54-.41.54-.46v-3.52c0-.07-.29-.33-.22-.55Z"/>
        <path class="cls-1" d="M4.57,42.08h6.27c1.62,0,4.08,1.74,4.66,3.25,1.37,3.59.03,10.05.49,13.99-.29,1.55-2.2,1.83-3.46,1.29-.5-.21-.68-1.23-.72-1.71-.2-2.21.5-10.65-.41-11.9-.09-.12-1.15-.75-1.23-.75h-5.28l-.33.33v12.53c0,.13-.65,1.34-.81,1.44-.44.27-1.86.3-2.37.2-.98-.19-1.16-1.66-1.22-2.51-.49-6.61.31-13.91.1-20.58.28-1.59,2.64-2.09,3.65-.98,1.21,1.33.33,3.78.65,5.39Z"/>
        <path class="cls-1" d="M104.59,59.11c-.02.08-.66,1.32-.71,1.37-.75.73-3.64.43-3.63-1.2l.05-15.9c.3-.63.85-1.18,1.56-1.29,5.72.16,13.54-2.36,14.17,5.81.15,1.89.27,10.32-.18,11.71-.56,1.75-3.22,1.77-3.91.07-.53-3.61.38-8.02-.11-11.54-.09-.67-1.02-1.88-1.63-1.88h-5.28l-.33.33v12.53Z"/>
        <path class="cls-1" d="M80.66,44.68c2.49.8,6.49-1.12,5.68,3.21-.41,2.17-5.05.52-5.6,1.65l-.16,10.18c-.37,1.6-3.8,1.9-4.13-1.05s-.37-16.1.32-18.58c.99-3.55,4.64-4.34,7.93-3.95,1.62.19,2.23,1.95,1.52,3.29-1.01,1.9-3.63-.09-5.05,1.77-.77,1.01-.54,2.32-.51,3.5Z"/>
        <path class="cls-1" d="M49.16,46.5c-1.09-.43-5.03-.51-5.58.63l-.16,11.93c-.22,2.12-3.55,2.5-4.18.54-.41-1.27-.36-10.62-.17-12.36.37-3.45,2.76-5.14,6.04-5.39,1.42-.11,5.41.04,6.77.28.8.14,1.34.55,1.47,1.39.15.94.14,5.14-.33,5.79-.51.71-1.56.78-2.35.63-1.74-.35-1.42-2.03-1.51-3.43Z"/>
        <path class="cls-1" d="M92.99,60.49c-.81-.77-.47-2.03-.48-2.9-.06-3.08.35-7.2-.03-10.1-.24-1.84-1.33-.88-1.93-1.8-.44-.67-.47-2-.12-2.71.74-1.54,5.85-1.74,6.24.55l.02,15.38c.22,1.88-2.76,2.47-3.69,1.59Z"/>
        <circle class="cls-1" cx="94.38" cy="38.25" r="2.14"/>
      </g>
      <path class="cls-1" d="M59.46,25.85c2.86-.64,3.38,3.94.81,4.35s-3.59-3.73-.81-4.35Z"/>
      <g>
        <path class="cls-1" d="M71.18,10.97c.33-3.02,2.37-4.91,5.38-5.17,3.42-.3,8.38-.39,9.74,3.46.74,2.09.76,10.71.49,13.14-.17,1.54-.57,1.97-2.08,2.1-6.63.56-14.26-.3-20.95-.17l-1.26-.94c-.36.73-.7,1.01-1.54,1.11-1.7.2-6.68.21-8.34-.02-.79-.11-1.24-.35-1.56-1.08l-1.26.94c-5.21-.01-11.15.58-16.33.17-4-.32-5.33-2.8-5.6-6.5-.37-5.11.26-10.65.02-15.81.32-2.3,3.21-2.81,4.11-.63.45,5.23-.44,11.06.05,16.22.04.4.24,1.42.43,1.72.06.1,1.15.81,1.22.81h14.84l.26-13.25c.67-1.98,4.13-1.42,4.13.39v12.64c1.97.19,4.77.47,6.72.23,1.39-.17.79-1.65.84-2.5.17-3.11-.29-7.59.15-10.36.35-2.19,3.39-2.25,4.16-.23.39,3.75-.49,8.47,0,12.1.04.29.28.98.56.98h5.5l.33-.33c.23-2.88-.3-6.19,0-9.01ZM82.39,20.32c.4,0,.29-7.39.23-8.03-.24-2.59-3.14-2.28-5.19-2.09-1.09.1-1.94.46-2.09,1.65-.16,1.29-.17,5.57.02,6.81.08.53,1.06,1.66,1.42,1.66h5.61Z"/>
        <path class="cls-1" d="M111.07,20.32c.72-.22.12-2.19.1-2.74-.07-2.23-.11-4.77.33-6.94,1.07-5.21,5.19-4.91,9.65-4.86l.32-.33c-.33-1.92,1.75-2.54,3.19-1.8,1.17.59.6,1.78,1,2.07,4.44,0,9-.07,9.48,5.47.25,2.91.27,8.55,0,11.45-.07.78-.2,1.3-.95,1.69l-28.41.17c-.79.14-1.06,2.41-1.55,3.28-1.44,2.54-5.05,2.79-7.69,2.44-2.04-.27-2.25-3.73.06-4.14,1.55-.27,3.91.51,4.22-1.72.68-4.88-.47-11.21,0-16.26.16-1.67.96-2.57,2.74-2.29.71.11,1.66,1.26,1.66,1.86v12.31l.33.33h5.5ZM121.3,10.2h-4.29c-.66,0-1.33,1.02-1.41,1.66-.19,1.35-.15,4.74-.02,6.15.29,3.1,3.2,2.29,5.5,2.19.1-.06.44-.6.44-.66v-8.79c0-.07-.29-.33-.22-.55ZM130.97,20.1v-8.24c0-.52-.81-1.65-1.43-1.65h-3.85c-.18,1.53-.6,9.06.11,9.89.34.4,4.99.27,5.17,0Z"/>
        <path class="cls-1" d="M90.27,4.74l-1.8-.74c-.42-2.29-.37-3.46,2.16-3.68,1.58-.14,3.65-.07,3.83,1.89-.48,6.41.71,13.93.02,20.2-.33,2.97-3.81,2.61-4.17.65l-.04-18.32Z"/>
        <path class="cls-1" d="M52.21.81c1.98,1.93-1.39,5.32-3.24,2.91-1.62-2.11,1.32-4.78,3.24-2.91Z"/>
        <path class="cls-1" d="M80.35,3.77c-2.08,2.02-5.11-1.33-2.91-3.24s4.67,1.53,2.91,3.24Z"/>
      </g>
    </g>
  </g>
</svg>