<?xml version="1.0" encoding="UTF-8"?>
<svg id="Layer_2" data-name="Layer 2" xmlns="http://www.w3.org/2000/svg" viewBox="0 0 141.42 60.27">
  <defs>
    <style>
      .cls-1 {
        fill: #626370;
      }

      .cls-2 {
        opacity: .16;
      }
    </style>
  </defs>
  <g id="Layer_1-2" data-name="Layer 1">
    <g>
      <g>
        <path class="cls-1" d="M41.77,39.84c-.04,2.93-.62,5.82-1.86,8.48-2.79,5.96-8.66,10.1-14.98,11.94-.01,0-.02,0-.03,0,0,0,0,0,.01,0,7.22-4.74,9.99-9.97,9.32-18v.05c0,1.22-1.1,6.23-3.32,9.13h0s0,0,0,0h0s-.01.02-.01.02c-.15.2-.3.38-.46.55-.47.51-.94.98-1.39,1.39-2.34,2.14-4.47,3.04-6.92,3.47-.02,0-.03,0-.05,0-.15.03-.31.05-.46.08-.4.06-.81.11-1.23.15-.13.01-.26.02-.39.03-.24.02-.47.03-.7.04h0c-1.1.03-2.17-.05-3.21-.25h0c-3.56-.68-6.68-2.68-8.76-5.9-1.17-1.83-1.81-3.79-2.06-5.82,0-.02,0-.05,0-.08-.1-.85-.14-1.71-.1-2.58.06-1.92.42-3.86.96-5.74v-.02c.22-.74.45-1.47.72-2.19.55-1.51,1.4-3.05,2.32-4.46,0,0,0-.01,0-.01.31-.47.63-.94.95-1.38,0,0-.01,0-.02,0-.03,0-.1.02-.21.06-1.09.39-5.79,2.68-8.05,13.93-.08.37-.15.76-.22,1.16-.07.39-.14.8-.2,1.22,0,0-5.08-13.53,4.15-23.69,0,0,0,0,0,0,.37-.41.76-.81,1.18-1.2C17.56,9.98,20.07,6.96,20.43,0h0s0,0,0,0c0,0,0,0,0,0,0,0,0,0,0,0,0,0,.02.02.04.05.02.04.05.08.07.11.03.05.06.1.1.16,3.24,5.12,4.45,12,3.28,17.86-.54,2.71-1.68,5.27-2.65,7.85-1.04,2.77-2.06,5.55-2.79,8.41-.32,1.26-.57,2.54-.71,3.84-.1,1.01-.12,2.03-.02,3.04.08.76.24,1.52.54,2.22.23.52.54,1.02.97,1.4h0c.39.34.92.59,1.45.59h.02c.59,0,1.16-.2,1.68-.47.88-.47,1.71-1.16,2.42-1.87.83-.82,1.54-1.75,2.15-2.75.61-1,1.1-2.08,1.49-3.19.19-.55.35-1.1.49-1.67.95-3.87.75-7.93.29-11.89-.45-3.89-1.14-7.76-1.21-11.67,0-.07,0-.15,0-.22,0,0,0,.01.01.02,0,0,.02.02.04.04.54.62,1.08,1.25,1.61,1.88,1.31,1.54,2.59,3.1,3.79,4.72,2.36,3.14,4.45,6.46,5.95,10.07,1.22,2.92,2.02,6.07,2.23,9.22.05.68.07,1.36.06,2.04Z"/>
        <path class="cls-1" d="M5.55,21.44c.37-.41.76-.81,1.18-1.2C17.56,9.98,20.07,6.96,20.43,0h0s0,0,0,0c0,0,0,0,0,0,0,0,0,0,0,0,0,0,0,.02.01.03.04.08.12.26.2.52h0c.71,2.22,1.86,10.5-15.11,20.86Z"/>
        <path class="cls-1" d="M12.61,25.88s-1.22,1.07-2.53,2.88c0,0-.01,0-.02,0-.03,0-.1.02-.21.06-1.09.39-5.79,2.68-8.05,13.93-.08.37-.15.76-.22,1.16-.07.39-.14.8-.2,1.22,0,0,.03-19.39,11.22-19.25Z"/>
        <path class="cls-1" d="M41.77,39.84c-.04,2.93-.62,5.82-1.86,8.48-2.79,5.96-8.66,10.1-14.98,11.94-.01,0-.02,0-.03,0,0,0,0,0,.01,0,.5-.26,16.29-8.59,16.86-20.42Z"/>
        <path class="cls-1" d="M28.93,44.29c-6.99,4.57-9.56.81-9.64.69.39.33.92.59,1.45.59h.02c.59,0,1.16-.2,1.68-.47.88-.47,1.71-1.16,2.42-1.87.83-.82,1.54-1.75,2.15-2.75.61-1,1.1-2.08,1.49-3.19.19-.55.35-1.1.49-1.67.95-3.87.75-7.93.29-11.89-.45-3.89-1.14-7.76-1.21-11.67,0-.07,0-.15,0-.22,0,0,0,.01.01.02,6.88,11.18,12.59,24.74.85,32.42Z"/>
        <g class="cls-2">
          <path class="cls-1" d="M28.93,44.29c-6.99,4.57-9.56.81-9.64.69.39.33.92.59,1.45.59h.02c.59,0,1.16-.2,1.68-.47.88-.47,1.71-1.16,2.42-1.87.83-.82,1.54-1.75,2.15-2.75.61-1,1.1-2.08,1.49-3.19.19-.55.35-1.1.49-1.67.95-3.87.75-7.93.29-11.89-.45-3.89-1.14-7.76-1.21-11.67,0-.07,0-.15,0-.22,0,0,0,.01.01.02,6.88,11.18,12.59,24.74.85,32.42Z"/>
        </g>
        <g class="cls-2">
          <path class="cls-1" d="M5.55,21.44c.37-.41.76-.81,1.18-1.2C17.56,9.98,20.07,6.96,20.43,0h0s0,0,0,0c0,0,0,0,0,0,0,0,0,0,0,0,0,0,0,.02.01.03.04.08.12.26.2.52h0c.71,2.22,1.86,10.5-15.11,20.86Z"/>
        </g>
        <g class="cls-2">
          <path class="cls-1" d="M12.61,25.88s-1.22,1.07-2.53,2.88c0,0-.01,0-.02,0-.03,0-.1.02-.21.06-1.09.39-5.79,2.68-8.05,13.93-.08.37-.15.76-.22,1.16-.07.39-.14.8-.2,1.22,0,0,.03-19.39,11.22-19.25Z"/>
        </g>
        <g class="cls-2">
          <path class="cls-1" d="M41.77,39.84c-.04,2.93-.62,5.82-1.86,8.48-2.79,5.96-8.66,10.1-14.98,11.94-.01,0-.02,0-.03,0,0,0,0,0,.01,0,.5-.26,16.29-8.59,16.86-20.42Z"/>
        </g>
      </g>
      <g>
        <path class="cls-1" d="M67.82,21.89v15.18h0c-1.99,0-3.6-1.61-3.6-3.6v-5.29l-4.47,6.1-4.45-6.1v5.29c0,1.99-1.61,3.6-3.6,3.6h0v-15.18h3.42l4.65,6.75,4.62-6.75h3.43ZM77.83,25.15v2.64h6.81v3.14h-6.81v2.89h7.89v3.25h-11.4v-15.18h11.43v3.26h-7.91ZM101.68,37.08l-3.37-4.86-3.36,4.86h-4.34l5.34-7.63-5.2-7.55h4.33l3.23,4.75,3.23-4.75h4.34l-5.2,7.55,5.33,7.63h-4.33ZM121,34.17h-6.42l-1.07,2.9h-3.71l5.61-15.18h4.73l5.61,15.18h-3.71l-1.06-2.9ZM119.85,31.03l-2.05-5.69-2.07,5.69h4.12ZM141.42,25.15h-4.84v11.92h-3.6v-11.92h-4.83v-3.26h10.01c1.8,0,3.26,1.46,3.26,3.26h0Z"/>
        <path class="cls-1" d="M54.13,45.69c-.68,0-1.25-.23-1.71-.68-.46-.46-.68-1.02-.68-1.7s.23-1.24.68-1.69c.45-.45,1.02-.68,1.71-.68s1.25.23,1.7.68c.45.45.68,1.01.68,1.69s-.23,1.24-.68,1.7c-.45.46-1.02.68-1.7.68h0ZM54.13,45.04c.49,0,.89-.17,1.2-.5.31-.34.47-.75.47-1.24s-.16-.88-.47-1.21c-.31-.33-.71-.5-1.2-.5s-.89.16-1.21.49c-.31.33-.47.73-.47,1.21s.16.9.47,1.24c.31.34.72.5,1.21.5h0ZM57.48,41.01h.72v4.58h-.72v-4.58ZM62.5,44.94v.65h-3.12v-4.58h.72v3.93h2.41ZM64.09,41.66v1.37h2.2v.63h-2.2v1.93h-.72v-4.58h3.25v.65h-2.54ZM67.46,41.01h.72v4.58h-.72v-4.58ZM70.06,41.66v1.3h2.27v.61h-2.27v1.37h2.59v.65h-3.29v-4.58h3.3v.64h-2.6ZM76.82,44.94v.65h-3.12v-4.58h.72v3.93h2.41ZM79.56,41.02c.67,0,1.21.21,1.62.64.4.43.6.97.6,1.65s-.2,1.22-.6,1.65c-.4.43-.94.64-1.62.64h-1.87v-4.58h1.87ZM79.55,44.96c.47,0,.84-.16,1.11-.47s.41-.71.41-1.2-.14-.87-.41-1.18-.65-.46-1.11-.46h-1.14v3.3h1.14ZM87.92,45.6l-.46-.49c-.42.39-.89.58-1.43.58-.39,0-.73-.12-1.01-.37-.28-.25-.42-.56-.42-.95,0-.26.08-.51.23-.75s.37-.43.66-.6c-.27-.3-.4-.6-.4-.88,0-.38.13-.68.38-.89.26-.22.58-.33.99-.33.35,0,.65.1.89.3.24.2.39.44.45.73l-.62.18c-.05-.18-.13-.33-.26-.44s-.28-.16-.47-.16c-.2,0-.36.06-.49.17-.13.12-.19.26-.19.44s.12.4.35.64l1.28,1.36c.15-.26.25-.52.31-.78l.61.17c-.08.38-.23.74-.46,1.08l.91.97h-.85ZM86.1,45.07c.33,0,.64-.13.92-.41l-1.12-1.19c-.41.24-.61.52-.61.86,0,.2.07.37.22.52.15.14.34.21.58.21h0ZM95.97,43.47c0,.67-.21,1.21-.64,1.61-.43.4-.98.6-1.65.6s-1.27-.23-1.73-.68c-.46-.46-.69-1.02-.69-1.7s.23-1.23.69-1.69c.46-.45,1.02-.68,1.7-.68.52,0,.98.13,1.37.38s.65.58.8.99l-.67.18c-.12-.27-.31-.49-.57-.65-.26-.16-.57-.24-.93-.24-.49,0-.89.17-1.21.5-.31.33-.47.73-.47,1.2s.16.89.48,1.22c.32.33.74.5,1.27.5.44,0,.79-.12,1.07-.35s.43-.55.46-.95h-1.6s0-.61,0-.61h2.32v.36ZM99.67,44.48h-2.18l-.44,1.11h-.74l1.81-4.58h.91l1.81,4.58h-.74l-.44-1.11ZM99.43,43.86l-.84-2.17-.85,2.17h1.69ZM103.26,45.69c-.51,0-.95-.13-1.32-.4-.37-.27-.62-.59-.75-.98l.67-.2c.11.28.28.51.54.69.25.18.55.27.89.27.3,0,.55-.07.75-.22.19-.14.29-.31.29-.5,0-.15-.05-.28-.17-.39-.11-.11-.3-.2-.56-.28l-1.15-.37c-.69-.21-1.03-.59-1.03-1.12,0-.35.15-.64.45-.89.3-.25.68-.37,1.13-.37s.87.11,1.21.33c.34.22.58.49.72.81l-.66.2c-.11-.21-.27-.39-.49-.52-.22-.13-.48-.19-.77-.19-.25,0-.46.06-.62.18-.16.12-.25.26-.25.43,0,.13.05.24.14.33.09.09.24.16.45.22l1.12.36c.4.12.7.28.9.46s.3.43.3.76c0,.39-.17.72-.5.99s-.76.4-1.29.4h-.02ZM109.78,45.69c-.51,0-.95-.13-1.32-.4-.37-.27-.62-.59-.75-.98l.67-.2c.11.28.28.51.54.69.25.18.55.27.89.27.3,0,.55-.07.75-.22.19-.14.29-.31.29-.5,0-.15-.05-.28-.17-.39-.11-.11-.3-.2-.56-.28l-1.15-.37c-.69-.21-1.03-.59-1.03-1.12,0-.35.15-.64.45-.89.3-.25.68-.37,1.13-.37s.87.11,1.21.33c.34.22.58.49.72.81l-.66.2c-.11-.21-.27-.39-.49-.52-.22-.13-.48-.19-.77-.19-.25,0-.46.06-.62.18-.16.12-.25.26-.25.43,0,.13.05.24.14.33.09.09.24.16.45.22l1.12.36c.4.12.7.28.9.46s.3.43.3.76c0,.39-.17.72-.5.99s-.76.4-1.29.4h-.02ZM113.29,41.66v1.3h2.26v.61h-2.26v1.37h2.59v.65h-3.29v-4.58h3.3v.64h-2.6ZM118.8,43.89h-1.16v1.7h-.71v-4.58h2.18c.46,0,.82.15,1.09.44s.41.63.41,1.01c0,.31-.09.6-.28.86-.19.26-.45.43-.79.52l1.18,1.76h-.82l-1.11-1.7ZM117.64,43.26h1.43c.26,0,.47-.08.62-.24.16-.16.24-.35.24-.57s-.08-.41-.23-.57-.35-.24-.6-.24h-1.45v1.61ZM125.6,41.01l-1.83,4.58h-.76l-1.83-4.58h.78l1.43,3.7,1.43-3.7h.77ZM126.38,41.01h.72v4.58h-.72v-4.58ZM130.45,45.69c-.68,0-1.25-.23-1.71-.68s-.68-1.02-.68-1.7.23-1.24.68-1.69,1.02-.68,1.7-.68c.55,0,1.02.14,1.41.42s.65.62.78,1.02l-.69.17c-.1-.27-.28-.5-.55-.67-.27-.18-.58-.27-.94-.27-.49,0-.89.16-1.2.49-.31.33-.46.73-.46,1.21s.15.89.46,1.22c.31.34.71.5,1.2.5.36,0,.67-.09.94-.26.26-.18.45-.4.54-.67l.69.18c-.13.4-.39.73-.77,1.01-.38.28-.85.41-1.39.41h0ZM134.29,41.66v1.3h2.26v.61h-2.26v1.37h2.59v.65h-3.29v-4.58h3.3v.64h-2.6ZM139.57,45.69c-.51,0-.95-.13-1.32-.4-.37-.27-.62-.59-.75-.98l.67-.2c.11.28.28.51.54.69.25.18.55.27.89.27.3,0,.55-.07.75-.22.19-.14.29-.31.29-.5,0-.15-.05-.28-.17-.39-.11-.11-.3-.2-.56-.28l-1.15-.37c-.69-.21-1.03-.59-1.03-1.12,0-.35.15-.64.45-.89.3-.25.68-.37,1.13-.37s.87.11,1.21.33c.34.22.58.49.72.81l-.66.2c-.11-.21-.27-.39-.49-.52-.22-.13-.48-.19-.77-.19-.25,0-.46.06-.62.18-.16.12-.25.26-.25.43,0,.13.05.24.14.33.09.09.24.16.45.22l1.12.36c.4.12.7.28.9.46s.3.43.3.76c0,.39-.17.72-.5.99s-.76.4-1.29.4h-.02Z"/>
      </g>
    </g>
  </g>
</svg>