<?xml version="1.0" encoding="UTF-8"?>
<svg id="Layer_2" data-name="Layer 2" xmlns="http://www.w3.org/2000/svg" viewBox="0 0 96.19 45.1">
  <defs>
    <style>
      .cls-1 {
        fill: #626370;
      }
    </style>
  </defs>
  <g id="Layer_1-2" data-name="Layer 1">
    <g>
      <g>
        <path class="cls-1" d="M2.89,1.62h3.78S.04,16.99.04,16.99V4.46c0-1.57,1.27-2.84,2.84-2.84Z"/>
        <g>
          <path class="cls-1" d="M95.64,17.19c.27,1.27.43,2.83.43,3.22,0,.68-.52,1.24-1.16,1.24s-1.16-.55-1.16-1.24c0-.39.16-1.94.42-3.22-.31-.22-.5-.58-.5-.99,0-.49.28-.92.7-1.11v-7.02l-5.95,2.29c-1.71-3.13-5.04-5.25-8.86-5.25s-6.98,2.02-8.72,5.03l-6.47-2.48c-.32-.13-.31-.57,0-.68L79.82.02c.08-.02.16-.02.25,0l15.38,6.94c.32.11.33.56,0,.68h-.01v7.44c.41.19.7.62.7,1.11,0,.41-.19.77-.51.99Z"/>
          <path class="cls-1" d="M86.4,8.91s-.01.03-.04.04c-.02.01-.04.03-.03.06.04.21.11.4.22.58-.04.03-.11-.05-.13.05-.02.06-.03.11.02.16-.04,0-.09-.03-.06.04.01.03.03.05-.02.07-.05,0-.04.05-.02.08.06.09.12.18.18.27,0,.01.03.03.03.03.15-.06.18.14.3.15.01,0,.02.02.01.03-.07.1.02.13.07.17.07.05.1.11.06.19-.03.08,0,.13.06.18.05.04.1.09.02.15-.03.02-.03.05,0,.07.13.09.09.24.13.36-.25-.25-.56-.43-.76-.73-.05-.07-.08-.14-.12-.22,0-.02-.02-.04,0-.05.08-.11,0-.21-.03-.31-.03-.14-.14-.26-.08-.41,0-.02-.01-.03-.03-.05-.06-.08-.18-.1-.18-.22,0-.01-.03-.01-.04,0-.02.02-.04.05-.02.08,0,.01.02.02.04.03.04.03.09.05.06.13-.02.05.03.12.04.18-.11.03-.13-.07-.19-.15-.04.09-.11.16-.1.23,0,.12.05.24.11.35,0,.02.02.05.06.02.02-.02.04-.01.06,0,.03.03,0,.04-.02.05-.03.05-.07.09-.11.13-.02.02-.02.06-.06.04-.05-.03.02-.05,0-.08-.07.01-.15.03-.23.05.05.08.01.11-.06.14-.12.05-.23.13-.33.21-.03.02-.03.05-.03.08,0,.11,0,.22-.01.32,0,.19-.07.35-.13.53-.02.05.03.11.07.09.1-.06.12,0,.15.07,0,0,.01.01.02.02.03-.02,0-.06.04-.07.03.02,0,.06.04.08.02-.05.06-.07.06-.14,0-.05.06-.07.11-.06.06.02.12.04.17.06.05.02.06.02.03.08-.01.03.02.03.02.03.11.05.15.15.15.26,0,.13.08.23.14.34.03.05.05.11.05.17.02.36-.01.71-.08,1.06-.02.13-.13.2-.2.3-.02.03-.07,0-.11-.02-.08-.04-.12-.02-.11.07,0,.04,0,.08-.05.08h-.01s0,.03-.02.02c-.02,0-.02-.03-.02-.05-.01,0-.02.01-.04.02,0,0,0,.01,0,.02.06.03.09.07.03.13-.05.05-.02.1,0,.15.03.06.02.11-.02.15-.05.05-.09.12-.13.17-.07.1-.06.15.05.19.02,0,.05.02.07.03.01,0,.02.01.02.03.12.1.23.21.28.37.02.07.02.14.01.22,0,.02,0,.05-.04.04-.03,0-.05.01-.04.04,0,.05-.02.05-.06.04-.02,0-.03-.01-.04.02-.02.06-.11.06-.13.13,0,.03-.04.02-.04,0,.02-.07-.08-.11-.04-.19.05-.09,0-.15-.07-.2-.03-.02-.05-.03-.04-.07.01-.05.05-.04.08-.03-.03-.05-.05-.1-.08-.15,0,0-.02,0-.03,0-.09-.03-.17.05-.26,0,0-.06.03-.1.11-.12-.08-.02-.08-.06-.07-.11.02-.08-.02-.07-.08-.09-.17-.04-.25.08-.34.17-.03.03-.07.07-.1.1-.01-.03.02-.05.02-.07,0,0,0-.01,0-.01-.04,0-.08,0-.05-.06.02-.03.02-.07.05-.1.04-.07,0-.11-.04-.14-.05-.04-.07.01-.1.03-.07.04-.09.12-.13.19-.07.1-.11.22-.25.25-.07,0-.03.07-.03.11,0,.04.03.05.06.04.11-.02.16.03.19.12.02.06.05.09.1.02.1-.16.26-.13.41-.12.05,0,.03.04.04.06,0,.03,0,.04-.04.05-.11,0-.16.08-.21.17-.04.08-.07.16-.13.23-.08.1-.06.14.07.16.07,0,.11.04.13.1.06.15.13.28.28.36-.05,0-.09.01-.16.02.07.04.12.08.17.11.04.02.04.04,0,.07-.05.04-.1.08-.15.14.09-.03.17-.03.26.02,0,.04-.04.05-.06.09.03,0,.09-.02.06.04-.01.03-.07.04-.04.1-.07.04,0,.08,0,.12-.1.05-.09.05-.12.15,0,.05-.03.1-.04.16-.01.05-.03.09-.1.05.02.05.05.09,0,.12-.02.01-.01.04,0,.05.04.08-.03.1-.06.14-.03.03-.04.08-.06.12,0,0,0,.03,0,.03-.09,0-.09.05-.11.12-.02.07-.11.07-.15.13-.02.02-.07.01-.04.07.02.03-.14.15-.18.13-.07-.04-.12.01-.16.03-.08.03-.15.04-.21-.03-.04.04.06.11-.03.14-.03,0-.07,0-.05.06,0,0,0,.02,0,.02-.07-.04-.1.07-.16.05,0,0-.03,0-.04,0-.02.09-.11.08-.17.11-.06.02-.08.05-.07.11,0,.03.04.11-.04.1-.06,0-.06-.08-.08-.13,0-.01.01-.03.02-.04.02-.03.03-.06,0-.09-.04-.03-.06,0-.08.02-.07.07-.09-.04-.15-.04,0,.04-.03.07-.07.07,0,0-.02,0-.02,0-.02,0-.04.02-.06.02-.03.05-.06.11-.14.1-.05,0-.04.06-.05.09,0,.03,0,.06-.04.08-.14.11-.15.21-.04.35.12.15.23.3.41.38.09.04.15.13.17.24.01.07.02.15.05.21.06.15-.05.27-.04.41,0,.02-.03.03-.05.04-.08.05-.16.09-.23.14-.03.02-.05.02-.08.02-.08,0-.14.06-.13.15-.03,0-.05-.02-.08-.03-.01.04.07.07.02.1-.07.05-.14.14-.25.1,0-.06.04-.12.04-.18,0-.04-.02-.08-.09-.11,0,0,0-.02,0-.03-.07.02-.16,0-.2-.07,0,0-.01-.01-.02-.02-.11-.01-.12-.02-.11-.14h0s0,0,0,0c-.01,0-.01.05-.04,0,0-.02-.02-.04-.04-.06-.08-.05-.17-.1-.27-.08-.05,0-.06-.01-.04-.05.03-.09,0-.08-.08-.07-.09,0-.11.04-.1.13,0,.02,0,.05,0,.07,0,.04,0,.07-.04.1,0,0-.01.02-.02.03,0,.06-.04.11-.07.15-.05.08-.02.15-.02.23,0,.05.04.04.06.03.06-.02.07,0,.08.06,0,.03.02.06.02.09.03.15.08.27.26.28.05,0,.08.05.12.08.02,0,.03.02.04.04.05.04.09.07.13.11.08.06.12.14.11.24,0,.12-.01.25.09.35.01.01.05.04.02.06-.04.02-.06.09-.12.06-.14-.07-.28-.14-.4-.23-.07-.05-.1-.15-.14-.23-.05-.12-.07-.25-.09-.37,0-.01-.01-.03-.02-.04-.08-.09-.16-.18-.23-.26-.03-.03-.05-.08-.12,0,.04-.16.06-.28.09-.4-.08,0-.05-.06-.04-.09s.03-.07.05-.1c.01-.03.03-.06-.01-.08-.03-.01-.03-.04-.02-.07.04-.1,0-.19-.05-.27-.14-.22-.1-.24-.11-.45,0-.04.04-.11-.06-.09-.02,0-.03-.03-.03-.04-.02-.04-.03-.07-.06-.13-.02.08.01.19-.11.15,0,.1-.14.03-.15.12,0,.01-.02.04-.04,0-.02-.04-.04-.04-.06,0,0,.02-.02,0-.04,0-.02-.02-.04-.04-.05-.04-.07,0-.05-.04-.04-.07.08-.18.02-.35-.02-.53-.02.03-.03.04-.04.07-.02-.03-.05-.06-.07-.1h.1c-.02-.07-.05-.12-.12-.14-.08-.02-.15-.12-.17-.21,0-.02,0-.05,0-.05.1.02.04-.05.05-.08h-.02s0,.05-.05.06c-.05.01-.04-.02-.04-.04-.03-.06-.05-.12-.08-.18-.01-.03-.03-.05-.07-.06-.01,0-.02,0-.03,0-.05,0-.08.01-.06.08,0,.02,0,.04-.02.05-.03-.01-.01-.05-.03-.07-.02.03-.04.06-.06.09,0,0,0,0,0,0s0,0,0,0c-.01,0-.03-.01-.04,0-.05.02-.09.04-.13,0t-.05.01c-.05-.12-.08.02-.13,0,0-.02-.01-.05-.02-.08-.04.02-.05.08-.1.08-.08,0-.12.03-.11.14.01.07-.08.14-.16.15-.16.04-.28.12-.4.23-.08.07-.2.11-.3.16-.02.01-.06.02-.06.04,0,.1-.07.08-.12.09-.03,0-.07,0-.09.03-.04.06-.09.1-.16.07-.02,0-.03.01-.04.03-.02.04-.04.07-.03.12.03.18.02.35-.09.51-.05.07-.02.16-.02.23,0,.03.01.06-.04.06-.1,0-.12.06-.13.13,0,.03,0,.03-.06.03s-.08.02-.11.07c-.04.08-.09.08-.16.02-.09-.09-.15-.19-.16-.31-.05-.35-.18-.67-.29-1-.12-.32-.08-.65-.1-.98,0-.04.02-.07.04-.1.03-.05.04-.09.02-.14-.02-.03-.02-.06.01-.08,0,0,.02,0,0-.03-.03-.06-.03-.06.03-.11-.05-.04-.09-.05-.11.03-.03.13-.09.16-.23.15-.02,0-.04,0-.05-.02-.08-.12-.15-.25-.23-.37.09-.01.18.06.25-.03-.04-.03-.08-.03-.12-.03-.08-.01-.16-.13-.16-.22,0,0,0-.02,0-.03,0,0-.01-.02-.02-.03-.08-.03-.14-.07-.12-.17,0-.01,0-.04,0-.04-.09-.03-.08-.09-.07-.16,0-.05-.02-.05-.05-.06-.14-.03-.28-.07-.43-.09-.17-.03-.31-.1-.44-.21,0-.01-.03,0-.04-.02-.07-.08-.16-.14-.24-.2-.06-.05-.09-.1-.08-.17,0-.19,0-.19-.18-.19-.13,0-.21-.06-.25-.19-.03-.11-.06-.22-.15-.31-.02-.02-.02-.06-.02-.09,0-.1,0-.2,0-.31,0-.05.03-.12-.07-.13-.02,0-.02-.04-.03-.06,0-.03-.01-.05-.04-.01-.02.02-.03,0-.03-.02,0-.04-.01-.08-.02-.12-.03.02.02.07-.03.08-.02.07-.07.13-.06.21,0,.02,0,.04-.02.05,0,0,0,.02,0,.03.02.04.01.07,0,.11-.01.06,0,.13.02.19.03.09.04.18,0,.28-.03.09-.02.19,0,.29,0,0,0-.02,0-.02,0-.07.03-.13.06-.19.05.03.07.06.04.11-.02.04-.04.09-.06.14,0,.02-.01.05-.01.07,0,.02,0,.03.01.05.02.05.03.09.11.08.05,0,.09.05.13.08.04.03.07.03.11,0,.09-.06.19-.1.29-.16.02.06,0,.11,0,.17,0,.04.01.08-.02.12.01.08.04.16.11.21.14.09.16.24.19.39.01.07-.21.27-.28.24-.04-.01-.06.02-.07.04-.01.02-.02.05-.02.07,0,.11-.03.17-.15.11-.04-.02-.06.03-.07.05-.03.07-.08.07-.14.04-.03-.02-.06-.01-.07.01-.04.08-.1.08-.17.05-.04-.02-.09-.02-.14-.04-.02,0-.03,0-.04-.02-.03,0-.08-.02-.09.03-.03.12-.11.07-.18.06-.08,0-.16-.03-.24-.05,0,0-.01,0-.02,0-.16.09-.29-.04-.44-.07-.05,0-.08-.02-.12,0-.08-.05-.19-.07-.19-.19,0-.09,0-.17,0-.26,0-.13.02-.26.07-.38,0-.02,0-.03,0-.05,0,0,0-.01-.01-.02-.01-.33-.02-.67-.09-1,0-.05,0-.1.01-.15.03-.11.06-.22.08-.33,0-.08,0-.16-.02-.24-.01-.04-.02-.09,0-.13.08-.23.06-.47.09-.7,0-.04,0-.08-.04-.11-.02-.01-.03-.03-.03-.05,0-.11-.02-.23.04-.34.02-.03.02-.06.02-.09.01-.03,0-.07.03-.1.03-.05.05-.1.08-.15.05.04.09.09.14.13.01,0,.02.01.04.02.05-.08.14-.13.21-.2.01,0,.03-.02.04-.03.04-.04.09-.07.13-.11.03-.03.07-.04.11,0,0,0,0,0,0,0,0,0,0,0,0,0,0-.06-.05-.03-.06-.05.04-.11.09-.21.18-.29.02-.02.04-.03,0-.08-.06-.07-.12-.06-.18-.08-.05-.02-.08-.06-.07-.12,0-.04,0-.08,0-.12,0-.06.01-.17-.1-.06-.02.02-.04,0-.05-.02,0-.01,0-.03,0-.05.03-.08,0-.17,0-.25,0-.05.02-.08.03-.11.03-.08.06-.15.08-.24,0,.02.01.03.02.06.02-.07.06-.11.1-.15.01-.01.04-.03.02-.05-.05-.07.02-.08.05-.1.04-.03.08-.02.09.04,0,0,0,0,0,.02.06.13.08.14.19.01.03.17.14.19.28.2.07,0,.14.12.13.2-.02.18.05.32.17.44.07.08.16.07.25.07,0,0,0-.01,0-.02.06-.1.13-.2.08-.33,0-.02,0-.04.02-.06h0c.05-.03.08,0,.09.05.03.11.13.19.11.32,0,0,.02.02.03.03.03.02.1.03.1.08,0,.09.06.17,0,.26.01.04.02.09.03.13.01,0,.02.02.04,0,.08-.03.11-.02.09.08-.01.04,0,.09,0,.13,0,0,0,.01.01.02.03.05.06.1-.04.11-.02,0-.04.01-.05.03-.04.07-.11.1-.17.14.01.04,0,.07-.04.09,0,0,0,0,0,0-.05.17.07.28.13.41.04.08.14.1.22.13.04.01.05-.02.06-.04.04-.08.08-.16.12-.24,0-.02.02-.05.01-.07-.02-.06-.05-.11.02-.15.01,0,0-.03-.01-.05-.03-.08,0-.15.07-.18.04-.02.05,0,.07.02.02.04.04.07.09.05.04-.01.03-.06.03-.09,0-.02,0-.05,0-.08,0-.03,0-.06.03-.08,0,0-.01,0-.02,0-.02,0-.05,0-.08,0-.05,0-.08-.05-.04-.09.06-.06.04-.12,0-.18-.02-.03-.02-.07,0-.11.02-.06.05-.13.03-.2,0-.03.02-.07.04-.06.07.03.1-.03.14-.05.07-.04.11.02.17.05.01-.05.05-.07.09-.1.08-.07.08-.09.02-.16-.02-.02-.05-.04-.05-.08,0-.09.04-.17.11-.23.08-.06.1-.14.1-.23,0-.09.06-.15.11-.21.03-.04.08,0,.12,0,.2.04.21.04.21.24,0,.01,0,.03,0,.04.03.01.04-.03.07-.03,0,.09.04.13.13.08.03-.02.05,0,.07.02,0,.01.03.03.03.03.12-.03.12.05.13.13,0,.03.02.05.05.03.06-.04.1,0,.14.02.04.03.07.02.1-.01.03-.04.06-.07.03-.12-.02-.03-.05-.07-.05-.11.05,0,.12,0,.13-.06h0c-.07.07-.12.07-.18.01-.09-.09-.09-.13-.03-.21.03-.04.08-.06.12-.09.03-.02.06-.03.05-.07,0-.04-.05-.04-.08-.04-.19,0-.28-.14-.2-.32.02-.04.06-.05.1-.04.05,0,.1.02.15.03.12.02.17-.03.14-.14-.02-.09.01-.14.12-.17.08-.02.13-.07.19-.12.14-.14.27-.31.42-.44.13-.12.23-.26.34-.39.04-.05.09-.06.15-.06.15-.02.31-.05.46-.09.13-.03.25-.08.27-.24,0-.06.02-.06.06-.04.01.05.03.1.05.16.05-.05.15-.05.13-.16,0-.01,0-.04-.02-.04-.09-.03-.04-.08,0-.12.05-.08.1-.16.22-.18.07-.01.1-.08.15-.12.02-.02.03-.05.06-.05,0,0,0,0,.01,0,0,0,.01-.01.02-.02,0,0,0,0,0-.01h0s.03-.04.06-.03c0,0,.02.01.02.02-.01.03-.04.05-.07.05.1.07.1.07,0,.16,0,0-.01.01-.02.02v.15c0-.1.1-.11.18-.15.02.08-.1.2.09.22-.02-.05-.03-.09-.05-.15.05,0,.09.05.12-.03.01-.04.07,0,.09.03.05.05.09.12.18.09-.04-.07-.11-.12-.06-.22.02-.04.03-.07.09-.06.09,0,.17,0,.26,0,.04,0,.06,0,.05-.05-.01-.09.04-.14.13-.17.09-.03.19,0,.25-.09,0-.01.05,0,.07,0,.08.05.13-.01.2-.02.1-.02.1-.13.17-.17.02,0,.03-.04.05-.03.02,0,.05.02.07.03.02.03-.04.02-.04.03.02.07.13-.03.1.09,0,0,.04,0,.05,0,.1-.05.18-.02.25.05.05.05.06.12,0,.17-.07.07-.13.13-.2.19-.03.03-.06.05-.05.11.06-.06.17-.02.17-.14,0-.03.05-.03.08-.02.05.02.12.03.13.11.06-.07.12-.11.2-.1.03,0,.06-.02.08.04.01.05.1.02.15.02.07,0,.12-.01.11-.1,0-.07.02-.07.07-.04.04.02.08.03.13.02.07-.02.12-.01.13.08.02.09.11.15.28.21.01-.06-.02-.12,0-.18.06.04.12.06.18-.01.01-.02.04,0,.06,0,.03,0,.11.08.08-.04,0-.02.06,0,.08-.04-.05-.04-.12-.08-.09-.17,0-.01,0-.03.01-.04.13-.03.25-.06.38-.09.03,0,.08-.02.08.05,0,.02.03.01.05.01.05,0,.1,0,.15,0,.05,0,.08-.02.11-.06.08-.13.14-.15.28-.11.08.02.15.05.24.08-.07-.09,0-.13.05-.17.03-.03.08-.04.07-.09,0-.03.02-.02.04-.02.03,0,.05.02.07,0,.03-.02.1,0,.1-.05,0-.05-.06-.04-.09-.04-.05,0-.08-.04-.12-.07.08-.03.14-.07.14-.16,0-.03.03-.03.06-.04.14-.05.28-.1.42-.14.02,0,.05-.02.07,0,.05.02.07,0,.08-.05h0c-1.12-1.01-2.49-1.74-4.01-2.09-.65-.15-1.34-.23-2.04-.23-4.99,0-9.04,4.05-9.04,9.04s4.05,9.04,9.04,9.04h.03c.72,0,1.43-.09,2.1-.25-.05-.03-.1-.07-.15-.1-.04-.03-.06-.06-.08-.1-.11-.19-.24-.35-.44-.46,0-.03-.02-.06-.02-.08-.01-.11-.07-.19-.18-.22-.05-.01-.08-.05-.11-.09-.08-.12-.17-.23-.3-.29-.09-.05-.13-.12-.15-.22.14.02.28.04.41.07.09.02.17.07.17.19,0,.03.03.03.04.04.17.08.34.17.46.32.05.06.04-.03.07-.03.05.04.1.09.16.13.04.03.07.06.14.06.08.01.15.09.23.14-.04.03-.07.07-.09.13.04,0,.08.02.12.03.07.01.11.03.11.12,0,.08.08.09.13.09.06,0,.11.02.15.07h0c0-.09-.06-.11-.14-.1,0-.09.08-.07.13-.08.05,0,.05.03.07.06.01.03.03.07.08.07.02,0,.03,0,.04.02.22-.08.43-.16.64-.25,0-.02,0-.03-.03-.03-.09,0-.12-.08-.12-.13,0-.06-.02-.07-.06-.08-.03-.12.03-.2.11-.27.02,0,.04,0,.05.02,0,0,0-.01.03-.02.06.03.14.03.2.04.05.01.06-.03.06-.06,0-.12.06-.19.18-.21.18-.03.25-.19.34-.32,0,0,0,0,0,0,0,0,0,0,.01,0,.05-.03.1-.1.17-.02t.08.01c0-.08,0-.16.08-.22.06-.04.07-.12.1-.18.02-.03.03-.06.05-.1.01.02.02.04.03.05.03,0,.02-.08.07-.05.05.03.11.05.07.12.1.05.21.01.3.06-.02.03-.06.05-.1.06-.07.03-.12.07-.02.13-.05.03-.1.05-.16.05-.03.01-.05.02-.08.02,0,0,.02,0,.03.01.02.02.03.04.05.07-.04.01-.08.02-.12.03.04.04.09.08.12.12,0,.01.04.02.05.04.4-.27.77-.58,1.11-.91-.03-.02,0-.06,0-.09.01-.07,0-.11-.07-.13-.01,0-.03-.01-.03,0-.03.1-.1.05-.15.04-.04,0-.05,0-.06.03-.01.04-.03.07-.04.11,0,.02-.02.02-.04.01,0,0-.02-.02-.02-.03,0-.07.17-.31.24-.32.05,0,.09.01.08.08.06-.03.07-.12.16-.11.02,0,.02-.02.02-.04,0-.02,0-.05.02-.05.13,0,.1-.1.09-.18.07.03.16.04.12.15,0,0,0,.02.01.03.03.03.05.06.07.08,1.49-1.61,2.4-3.77,2.4-6.13s-.85-4.37-2.24-5.96ZM72.67,13.22c.07.03.12.06.19.09-.07.02-.09.12-.17.06-.05-.04,0-.09-.02-.15ZM84.86,8.04s.02.09.03.14c-.05-.03-.1-.05-.11-.08,0-.02.04-.04.07-.06ZM83.33,9.07s-.02-.11.06-.09c.03,0,.09,0,.08.03-.01.06-.09.04-.14.06ZM83.44,8.64s.06,0,.06.04c0,.03-.02.05-.05.05-.06,0-.1-.02-.15-.06.05,0,.09-.02.14-.03ZM82.94,8.75s.08.02.13.03c-.04-.06-.03-.08.04-.07.02,0,.05,0,.08,0,.03,0,.07-.02.07.03,0,.04.03.1-.04.12-.07.02-.13.11-.22.04-.05-.04-.07-.07-.06-.14ZM80.98,8.5s.01-.03.03-.04c.04-.03.07-.06.11-.09.03.01.04.04.06.07.02.03,0,.06-.02.07-.04.02-.08.02-.13.02-.01,0-.04-.01-.05-.03ZM81.23,8.69c-.08.02-.17,0-.22-.09.07-.04.15-.1.22-.03.03.02.03.11,0,.12ZM81.41,8.76s-.09.03-.15.06c.02-.04.02-.07.04-.1,0-.02.02-.04.03-.06.03.04.1.01.11.07,0,.03-.01.03-.03.04ZM76.13,12.18s-.02-.09.05-.1.1.03.13.08c.02.04.04.08.06.12-.03,0-.05,0-.07.02-.06.03-.09.02-.1-.05,0-.03,0-.07-.06-.04-.02.01-.01-.03-.01-.04ZM74.13,12.35c.02.06.04.12.02.18-.04-.06-.01-.12-.02-.18ZM77.54,21.66c-.08.03-.1-.04-.13-.11-.06-.19-.02-.36.03-.53.01-.04.02-.03.03-.01.12.16.22.32.26.52.01.06-.1.14-.2.14ZM81.02,23.21s.04.05.05.08c-.03-.01-.07-.02-.08-.06,0,0,.02-.02.03-.02ZM80.73,22.79s.12.04.09.14c-.02-.01-.03-.02-.04-.03-.04-.03-.08-.05-.08-.1,0-.01.03-.02.04,0ZM82.85,22.36s-.03-.02-.04-.04c0-.03.02-.04.04-.04,0,0,.03.02.03.03,0,.02-.02.04-.03.05ZM83.27,19.44c-.05.11-.1.22-.22.29-.02,0-.03.01-.05,0-.05,0-.16-.12-.15-.17.02-.07.06-.13.14-.15.07-.02.14-.02.21-.04.06-.01.09.02.07.07ZM84.61,21.27c.05-.07.11-.14.16-.22-.02.09-.06.18-.16.22ZM87.21,12.94c0,.08-.03.14-.05.21,0-.07-.05-.16.05-.21ZM87.1,13.25s.02.04.02.05c0,.04,0,.08-.03.11-.02-.04-.02-.08-.01-.11,0-.02,0-.05.03-.05ZM86.83,13.45c.08.04.16,0,.18-.1.03.05.06.1.09.15.02.03,0,.04-.02.05-.06.07-.09.15-.08.24,0,.05,0,.07-.07.06-.07,0-.16-.06-.19.06,0,0-.02,0-.03,0-.02,0-.05-.03-.05.02,0,.04.02.05.06.05.02,0,.05,0,.07.03-.02.02-.04.04-.06.06-.03.04-.05.03-.08-.01-.04-.07-.09-.12-.05-.21.02-.04,0-.1.06-.12.03,0,0-.05,0-.07-.04-.11-.08-.22-.13-.35.11.05.2.09.29.13ZM85.91,12.24c-.07-.05-.1-.13-.14-.21-.02-.05,0-.09.02-.11.04-.03.05.03.06.05.17.24.39.43.6.62-.04,0-.08-.03-.12.02-.04.04-.01.08,0,.12.02.16.14.23.27.32-.1,0-.13.06-.11.14-.03-.06-.06-.12-.1-.18-.1-.18-.19-.36-.29-.54-.05-.09-.11-.18-.2-.24ZM84.85,18.35c.04-.09.09-.17.13-.26.01-.02.03-.05.06-.03.02.01.06.01.05.06-.04.19-.07.38-.11.58-.04-.04-.07-.07-.09-.1-.09-.1-.1-.12-.03-.25ZM84.98,20.88s-.09.07-.13.11c.01-.06.09-.09.06-.17,0,0,.05,0,.05-.04,0,0,.01,0,.02.02.01.03.03.05,0,.08ZM85.28,20.46s-.04.04-.07,0c-.04-.05-.06-.11-.11-.17.03,0,.06,0,.08,0,.1,0,.13.06.09.16ZM85.43,20.8c-.02-.1-.04-.17-.05-.26.09,0,.15.06.24,0,0,.13-.13.16-.19.26ZM85.67,20.7c-.03.07-.04.14-.02.21,0,.03-.01.05-.03.06-.03.02-.04,0-.05-.02-.04-.04-.09-.07-.01-.13.03-.02.04-.09.05-.13,0-.02,0-.04.03-.04.04,0,.05.02.03.05ZM85.67,20.22s.02.03,0,.04c-.03.01-.06.02-.08,0-.04-.03-.08-.07-.12-.11-.01.04.02.07,0,.1-.03,0-.05-.03-.08-.04-.04-.03-.08-.06-.12,0-.03.06-.09.03-.13.02-.04-.01,0-.05,0-.08,0-.03.03-.06-.01-.08-.04-.02-.04.01-.06.04-.01.03-.03,0-.05-.01-.02,0-.03-.02-.04-.04-.02-.05-.04-.1-.05-.15-.01-.05-.03-.12.06-.1.06,0,.04-.03.04-.06,0-.1,0-.21,0-.31,0-.03,0-.06.03-.07.07,0,.15-.02.22-.03.03,0,.03.02.03.04,0,.03-.02.05,0,.08.11.13.01.25-.04.36-.06.14-.04.25.08.31.01,0,.03.03.04,0,.06-.13.11-.06.16.02.03-.09.08-.08.14-.05-.04.03-.08.07-.03.12ZM85.7,20.8c.02-.08.03-.15.07-.23.02.09,0,.16-.07.23ZM85.79,20.84s-.04-.01-.03-.04c.01-.04.04-.06.08-.06.03,0,.04.02.04.04-.01.04-.06.04-.09.06ZM86.03,20.51s-.05-.01-.08,0c0,.04.02.08.04.11.02.04-.03.05-.04.07-.02.02-.03-.01-.04-.02-.02-.02-.04-.05-.06-.07-.04-.07-.03-.1.05-.11.01,0,.03,0,.04-.02,0-.02,0-.04-.02-.06-.02-.02-.04-.03-.06-.05-.02-.01-.03-.03-.06-.05.16-.07.27,0,.27.16,0,.03-.01.03-.04.03ZM86.28,16.29c-.01.07.02.16-.05.22-.03.02-.07,0-.11,0-.04,0-.03-.03-.03-.07,0-.09.05-.19-.02-.27-.01-.01-.01-.05-.05-.03-.02.02-.02.04,0,.06.01.02.05.03.02.06-.02.01-.04.03-.06.03-.02,0-.04-.04-.03-.06,0-.03-.06-.07,0-.1.06-.03.08-.12.15-.11.11,0,.18.11.18.23,0,.01,0,.02,0,.05ZM86.56,15.94c-.16-.04-.11.13-.18.17-.05-.01-.02-.11-.1-.09,0,0,.04-.16.06-.15.07.01.06-.05.08-.08.03-.04.07-.05.11-.04.04,0,.06.04.06.07,0,.04-.02.12-.04.12ZM87.19,15.22s-.01-.04-.04-.03c-.03,0-.02.03-.01.05.01.04.02.06-.04.07-.05.01,0,.07-.02.1-.03-.03-.06-.05-.06,0,0,.07-.07.08-.12.11,0,0-.02,0-.03,0h0c0-.05-.02-.05-.04-.05,0,.05-.06,0-.06.04,0,.03,0,.05.03.06.07.03.05.06.02.11-.02.02-.03.05-.04.08-.02.02,0,.08-.06.06-.04-.02-.09-.02-.09-.09,0-.11,0-.12-.11-.07-.02,0-.04.01-.05.03-.06.1-.2.13-.23.25,0,.02-.16.06-.18.04-.03-.03-.03-.06,0-.09.07-.1.13-.2.19-.3.04-.06.11-.06.17-.09.08-.04.19-.04.22-.11.03-.06,0-.16,0-.24,0-.04-.03-.09.03-.13.02.02,0,.04,0,.06,0,.03.03.03.05.04.03.01.03-.01.04-.03.08-.18.17-.36.11-.57-.01-.05,0-.09-.07-.13-.06-.04-.06-.14-.04-.21.01-.05.07,0,.11,0-.01-.02-.02-.03-.03-.04,0-.02-.05-.03-.01-.05.02-.02.05-.03.07,0,.09.14.24.25.23.45,0,.03.03.07,0,.09-.08.06-.03.11,0,.16.03.06.06.13.05.2,0,.03,0,.05.02.07.1.08.03.16,0,.26,0-.04,0-.06,0-.08Z"/>
        </g>
      </g>
      <rect class="cls-1" x=".03" y="25.59" width="96.16" height=".51"/>
      <g>
        <path class="cls-1" d="M2.47,28.07h.86l2.4,5.61h-1.13l-.52-1.28H1.66l-.5,1.28H.04l2.43-5.61ZM3.73,31.54l-.86-2.28-.87,2.28h1.73Z"/>
        <path class="cls-1" d="M8.23,30.93c-.18-.26-.43-.39-.74-.39-.13,0-.25.03-.37.09s-.18.17-.18.31c0,.12.05.2.15.25.1.05.23.1.38.13.15.04.32.08.49.11.18.04.34.1.49.18.15.08.28.19.38.34.1.14.15.34.15.59,0,.23-.05.42-.15.57-.1.16-.22.28-.38.38s-.33.16-.52.21c-.19.04-.39.06-.58.06-.3,0-.57-.04-.81-.13-.24-.08-.46-.24-.66-.46l.63-.59c.12.14.25.25.39.34.14.09.31.13.51.13.07,0,.14,0,.21-.02.07-.02.14-.04.2-.08.06-.04.11-.08.15-.14s.06-.12.06-.19c0-.13-.05-.23-.15-.29-.1-.06-.23-.11-.38-.15-.15-.04-.32-.08-.49-.11-.18-.03-.34-.09-.49-.17-.15-.08-.28-.18-.38-.32-.1-.14-.15-.33-.15-.57,0-.21.04-.39.13-.55s.2-.28.34-.38c.14-.1.3-.17.49-.22.18-.05.37-.07.56-.07.25,0,.5.04.75.13.25.09.45.24.6.45l-.63.57Z"/>
        <path class="cls-1" d="M9.55,28.58c0-.15.06-.29.17-.4s.26-.17.43-.17.32.05.44.16c.12.11.18.24.18.41s-.06.3-.18.41c-.12.11-.26.16-.44.16s-.32-.06-.43-.17c-.11-.11-.17-.25-.17-.4ZM9.68,29.88h.94v3.8h-.94v-3.8Z"/>
        <path class="cls-1" d="M14.04,33.15h-.02c-.14.22-.31.38-.52.48-.21.1-.44.14-.69.14-.17,0-.34-.02-.51-.07-.17-.05-.31-.12-.44-.21-.13-.1-.23-.21-.31-.36-.08-.14-.12-.31-.12-.5,0-.21.04-.38.11-.53s.17-.27.3-.36c.12-.1.27-.18.43-.23.16-.06.33-.1.51-.13.18-.03.35-.05.53-.06.18,0,.35-.01.5-.01h.24v-.1c0-.24-.08-.42-.24-.53-.16-.12-.37-.18-.62-.18-.2,0-.39.04-.56.11-.17.07-.32.17-.45.29l-.5-.5c.21-.22.46-.38.74-.47.28-.09.57-.14.87-.14.27,0,.49.03.68.09.18.06.34.14.46.23.12.09.21.2.28.33s.11.25.14.38c.03.13.05.25.05.37,0,.12,0,.22,0,.31v2.19h-.85v-.52ZM13.98,31.97h-.2c-.13,0-.28,0-.44.02-.16.01-.32.04-.46.08s-.27.1-.37.18-.15.18-.15.32c0,.09.02.17.06.23.04.06.09.11.15.15.06.04.13.07.21.09.08.02.16.03.24.03.33,0,.57-.08.72-.23.15-.16.23-.37.23-.64v-.21Z"/>
        <path class="cls-1" d="M17.87,28.07h.99v2.23h2.61v-2.23h.99v5.61h-.99v-2.47h-2.61v2.47h-.99v-5.61Z"/>
        <path class="cls-1" d="M23.38,31.78c0-.3.05-.57.16-.82.11-.25.25-.46.44-.63.18-.17.4-.31.65-.4s.52-.14.8-.14.55.05.8.14c.25.09.47.23.65.4.18.17.33.38.44.63.11.25.16.52.16.82s-.05.57-.16.82-.25.46-.44.63c-.18.17-.4.31-.65.4-.25.1-.52.14-.8.14s-.55-.05-.8-.14c-.25-.09-.47-.23-.65-.4-.18-.17-.33-.38-.44-.63-.11-.25-.16-.52-.16-.82ZM24.33,31.78c0,.15.02.29.07.43.05.14.12.26.22.36s.21.19.35.25c.14.06.29.09.46.09s.33-.03.46-.09c.14-.06.25-.15.35-.25.1-.11.17-.23.22-.36.05-.14.07-.28.07-.43s-.02-.29-.07-.43c-.05-.14-.12-.26-.22-.36-.1-.11-.21-.19-.35-.25-.14-.06-.29-.09-.46-.09s-.33.03-.46.09c-.14.06-.25.15-.35.25s-.17.23-.22.36c-.05.14-.07.28-.07.43Z"/>
        <path class="cls-1" d="M28.34,29.88h.94v.6h.02c.1-.22.25-.39.45-.51.19-.12.42-.18.67-.18.06,0,.11,0,.17.02.06.01.11.02.17.04v.92c-.08-.02-.16-.04-.23-.05-.08-.01-.15-.02-.22-.02-.22,0-.4.04-.53.12s-.24.18-.31.28c-.07.11-.12.21-.14.32-.02.11-.04.19-.04.24v2.04h-.94v-3.8Z"/>
        <path class="cls-1" d="M31.23,28.58c0-.15.06-.29.17-.4s.26-.17.43-.17.32.05.44.16c.12.11.18.24.18.41s-.06.3-.18.41c-.12.11-.26.16-.44.16s-.32-.06-.43-.17c-.11-.11-.17-.25-.17-.4ZM31.37,29.88h.94v3.8h-.94v-3.8Z"/>
        <path class="cls-1" d="M33.09,32.8l2.02-2.15v-.02h-1.93v-.76h3.07v.86l-2.05,2.18h2.14v.76h-3.26v-.88Z"/>
        <path class="cls-1" d="M36.92,31.78c0-.3.05-.57.16-.82.11-.25.25-.46.44-.63.18-.17.4-.31.65-.4s.52-.14.8-.14.55.05.8.14c.25.09.47.23.65.4.18.17.33.38.44.63.11.25.16.52.16.82s-.05.57-.16.82-.25.46-.44.63c-.18.17-.4.31-.65.4-.25.1-.52.14-.8.14s-.55-.05-.8-.14c-.25-.09-.47-.23-.65-.4-.18-.17-.33-.38-.44-.63-.11-.25-.16-.52-.16-.82ZM37.86,31.78c0,.15.02.29.07.43.05.14.12.26.22.36s.21.19.35.25c.14.06.29.09.46.09s.33-.03.46-.09c.14-.06.25-.15.35-.25.1-.11.17-.23.22-.36.05-.14.07-.28.07-.43s-.02-.29-.07-.43c-.05-.14-.12-.26-.22-.36-.1-.11-.21-.19-.35-.25-.14-.06-.29-.09-.46-.09s-.33.03-.46.09c-.14.06-.25.15-.35.25s-.17.23-.22.36c-.05.14-.07.28-.07.43Z"/>
        <path class="cls-1" d="M41.8,29.88h.9v.61h.02c.09-.19.23-.36.41-.5.18-.14.43-.21.75-.21.25,0,.47.04.64.13.18.08.32.2.43.33.11.14.19.3.24.48.05.18.07.37.07.56v2.4h-.94v-1.92c0-.11,0-.22-.02-.35s-.04-.25-.08-.36c-.04-.11-.11-.21-.21-.28-.09-.08-.22-.11-.39-.11s-.29.03-.4.08c-.11.05-.2.12-.27.21-.07.09-.12.19-.15.31-.03.12-.05.24-.05.36v2.08h-.94v-3.8Z"/>
        <path class="cls-1" d="M48.56,30.68h-.78v-.81h.78v-.54c0-.26.02-.5.06-.72s.11-.4.21-.55c.1-.15.25-.27.43-.35.18-.08.42-.12.72-.12.1,0,.21,0,.31.01.1,0,.2.02.29.04l-.06.81c-.07-.02-.13-.03-.2-.04s-.13-.02-.2-.02c-.13,0-.24.02-.31.06-.08.04-.14.1-.19.17-.04.07-.07.15-.09.25-.01.1-.02.2-.02.3v.69h.87v.81h-.87v2.99h-.94v-2.99Z"/>
        <path class="cls-1" d="M50.82,31.78c0-.3.05-.57.16-.82.11-.25.25-.46.44-.63.18-.17.4-.31.65-.4s.52-.14.8-.14.55.05.8.14c.25.09.47.23.65.4.18.17.33.38.44.63.11.25.16.52.16.82s-.05.57-.16.82-.25.46-.44.63c-.18.17-.4.31-.65.4-.25.1-.52.14-.8.14s-.55-.05-.8-.14c-.25-.09-.47-.23-.65-.4-.18-.17-.33-.38-.44-.63-.11-.25-.16-.52-.16-.82ZM51.76,31.78c0,.15.02.29.07.43.05.14.12.26.22.36s.21.19.35.25c.14.06.29.09.46.09s.33-.03.46-.09c.14-.06.25-.15.35-.25.1-.11.17-.23.22-.36.05-.14.07-.28.07-.43s-.02-.29-.07-.43c-.05-.14-.12-.26-.22-.36-.1-.11-.21-.19-.35-.25-.14-.06-.29-.09-.46-.09s-.33.03-.46.09c-.14.06-.25.15-.35.25s-.17.23-.22.36c-.05.14-.07.28-.07.43Z"/>
        <path class="cls-1" d="M55.76,29.88h.94v.6h.02c.1-.22.25-.39.45-.51.19-.12.42-.18.67-.18.06,0,.11,0,.17.02.06.01.11.02.17.04v.92c-.08-.02-.16-.04-.23-.05-.08-.01-.15-.02-.22-.02-.22,0-.4.04-.53.12s-.24.18-.31.28c-.07.11-.12.21-.14.32-.02.11-.04.19-.04.24v2.04h-.94v-3.8Z"/>
        <path class="cls-1" d="M60.79,28.07h3.69v.9h-2.7v1.38h2.56v.9h-2.56v1.52h2.84v.9h-3.84v-5.61Z"/>
        <path class="cls-1" d="M68.47,33.11h-.02c-.14.24-.32.41-.55.51-.23.1-.48.15-.75.15-.29,0-.56-.05-.78-.15-.23-.1-.42-.24-.59-.42-.16-.18-.29-.39-.37-.63-.08-.24-.13-.5-.13-.78s.04-.54.13-.78c.09-.24.21-.45.37-.63.16-.18.35-.32.58-.42s.47-.15.74-.15c.17,0,.33.02.47.06.14.04.26.08.37.14.1.06.19.12.27.19.07.07.13.13.18.19h.02v-2.67h.94v5.99h-.9v-.57ZM66.24,31.78c0,.15.02.29.07.43.05.14.12.26.22.36s.21.19.35.25c.14.06.29.09.46.09s.33-.03.46-.09c.14-.06.25-.15.35-.25.1-.11.17-.23.22-.36.05-.14.07-.28.07-.43s-.02-.29-.07-.43c-.05-.14-.12-.26-.22-.36-.1-.11-.21-.19-.35-.25-.14-.06-.29-.09-.46-.09s-.33.03-.46.09c-.14.06-.25.15-.35.25s-.17.23-.22.36c-.05.14-.07.28-.07.43Z"/>
        <path class="cls-1" d="M73.85,33.68h-.9v-.61h-.02c-.09.19-.23.36-.41.49-.18.14-.43.21-.75.21-.25,0-.47-.04-.64-.12-.18-.08-.32-.19-.43-.33-.11-.14-.19-.3-.24-.48-.05-.18-.07-.37-.07-.56v-2.4h.94v1.93c0,.11,0,.22.02.35.01.13.04.25.08.36.04.11.11.21.2.29.09.08.22.11.39.11.16,0,.29-.03.4-.08s.2-.12.27-.21c.07-.09.12-.19.15-.31.03-.12.05-.24.05-.36v-2.08h.94v3.8Z"/>
        <path class="cls-1" d="M77.46,31.02c-.11-.12-.23-.21-.35-.28-.12-.07-.24-.1-.37-.1-.17,0-.33.03-.46.09-.14.06-.25.15-.35.25s-.17.23-.22.36c-.05.14-.07.28-.07.43s.02.29.07.43c.05.14.12.26.22.36s.21.19.35.25c.14.06.29.09.46.09.3,0,.54-.12.73-.36l.63.68c-.09.09-.2.18-.33.25-.12.07-.25.12-.37.17-.13.04-.25.07-.36.09-.12.02-.22.03-.3.03-.28,0-.55-.05-.8-.14-.25-.09-.47-.23-.65-.4-.18-.17-.33-.38-.44-.63-.11-.25-.16-.52-.16-.82s.05-.57.16-.82c.11-.25.25-.46.44-.63.18-.17.4-.31.65-.4s.52-.14.8-.14c.24,0,.48.05.73.14s.46.24.64.44l-.65.66Z"/>
        <path class="cls-1" d="M80.99,33.15h-.02c-.14.22-.31.38-.52.48-.21.1-.44.14-.69.14-.17,0-.34-.02-.51-.07-.17-.05-.31-.12-.44-.21-.13-.1-.23-.21-.31-.36-.08-.14-.12-.31-.12-.5,0-.21.04-.38.11-.53s.17-.27.3-.36c.12-.1.27-.18.43-.23.16-.06.33-.1.51-.13.18-.03.35-.05.53-.06.18,0,.35-.01.5-.01h.24v-.1c0-.24-.08-.42-.24-.53-.16-.12-.37-.18-.62-.18-.2,0-.39.04-.56.11-.17.07-.32.17-.45.29l-.5-.5c.21-.22.46-.38.74-.47.28-.09.57-.14.87-.14.27,0,.49.03.68.09.18.06.34.14.46.23.12.09.21.2.28.33s.11.25.14.38c.03.13.05.25.05.37,0,.12,0,.22,0,.31v2.19h-.85v-.52ZM80.93,31.97h-.2c-.13,0-.28,0-.44.02-.16.01-.32.04-.46.08s-.27.1-.37.18-.15.18-.15.32c0,.09.02.17.06.23.04.06.09.11.15.15.06.04.13.07.21.09.08.02.16.03.24.03.33,0,.57-.08.72-.23.15-.16.23-.37.23-.64v-.21Z"/>
        <path class="cls-1" d="M82.37,30.68v-.81h.78v-1.1h.94v1.1h1.04v.81h-1.04v1.66c0,.19.04.34.11.45.07.11.21.17.42.17.08,0,.18,0,.28-.03.1-.02.18-.05.24-.09v.8c-.1.05-.22.08-.37.1-.14.02-.27.03-.38.03-.25,0-.46-.03-.62-.08s-.29-.14-.38-.25c-.09-.11-.15-.25-.19-.42-.03-.17-.05-.36-.05-.59v-1.74h-.78Z"/>
        <path class="cls-1" d="M85.71,28.58c0-.15.06-.29.17-.4s.26-.17.43-.17.32.05.44.16c.12.11.18.24.18.41s-.06.3-.18.41c-.12.11-.26.16-.44.16s-.32-.06-.43-.17c-.11-.11-.17-.25-.17-.4ZM85.84,29.88h.94v3.8h-.94v-3.8Z"/>
        <path class="cls-1" d="M87.65,31.78c0-.3.05-.57.16-.82.11-.25.25-.46.44-.63.18-.17.4-.31.65-.4s.52-.14.8-.14.55.05.8.14c.25.09.47.23.65.4.18.17.33.38.44.63.11.25.16.52.16.82s-.05.57-.16.82-.25.46-.44.63c-.18.17-.4.31-.65.4-.25.1-.52.14-.8.14s-.55-.05-.8-.14c-.25-.09-.47-.23-.65-.4-.18-.17-.33-.38-.44-.63-.11-.25-.16-.52-.16-.82ZM88.59,31.78c0,.15.02.29.07.43.05.14.12.26.22.36s.21.19.35.25c.14.06.29.09.46.09s.33-.03.46-.09c.14-.06.25-.15.35-.25.1-.11.17-.23.22-.36.05-.14.07-.28.07-.43s-.02-.29-.07-.43c-.05-.14-.12-.26-.22-.36-.1-.11-.21-.19-.35-.25-.14-.06-.29-.09-.46-.09s-.33.03-.46.09c-.14.06-.25.15-.35.25s-.17.23-.22.36c-.05.14-.07.28-.07.43Z"/>
        <path class="cls-1" d="M92.6,29.88h.9v.61h.02c.09-.19.23-.36.41-.5.18-.14.43-.21.75-.21.25,0,.47.04.64.13.18.08.32.2.43.33.11.14.19.3.24.48.05.18.07.37.07.56v2.4h-.94v-1.92c0-.11,0-.22-.02-.35s-.04-.25-.08-.36c-.04-.11-.11-.21-.21-.28-.09-.08-.22-.11-.39-.11s-.29.03-.4.08c-.11.05-.2.12-.27.21-.07.09-.12.19-.15.31-.03.12-.05.24-.05.36v2.08h-.94v-3.8Z"/>
      </g>
      <g>
        <path class="cls-1" d="M9.41,1.62h3.33l9.32,21.62h-4.4l-2.02-4.95H6.26l-1.95,4.95H0L9.41,1.62ZM14.29,15l-3.33-8.8-3.39,8.8h6.72Z"/>
        <path class="cls-1" d="M24.79,1.62h3.85v8.61h11.06V1.62h3.85v21.62h-3.85v-9.53h-11.06v9.53h-3.85V1.62Z"/>
        <path class="cls-1" d="M47.27,1.62h14.32v3.48h-10.48v5.31h10.49v3.49h-10.49s0,5.85,0,5.85h10.49s0,1.26,0,1.26c0,1.23-.99,2.22-2.22,2.22h-12.12s0-21.62,0-21.62Z"/>
      </g>
      <path class="cls-1" d="M7.03,43.06h-.17c-.65,0-1.16-.26-1.51-.81-.29.54-.79.81-1.5.81-.5,0-.91-.15-1.23-.44-.3-.27-.48-.62-.55-1.03h-.49c-.24,0-.4.07-.48.22-.05.1-.08.29-.07.55l.04,2.73H.09l-.05-3.25c0-.81.41-1.23,1.24-1.23h.89c.24-.72.77-1.08,1.61-1.08.47,0,.87.14,1.2.43.29.25.47.57.56.96.19.84.69,1.25,1.5,1.22v.91ZM4.59,41.31c0-.29-.09-.53-.25-.71-.14-.16-.32-.23-.53-.23s-.37.08-.5.23c-.14.18-.22.41-.22.71s.09.53.25.71c.14.16.32.23.52.23.41,0,.73-.35.73-.95ZM11.96,43.06h-.84c-.28,0-.53-.12-.73-.36-.1-.13-.19-.26-.24-.4-.16.46-.65.75-1.17.76h-2.14v-.91h1.77c.18,0,.34-.05.49-.15.2-.12.29-.29.29-.51l-.02-1.85h.99c0,.35,0,.83.03,1.46,0,.33.09.59.29.79.16.18.33.26.52.26h.75v.91ZM9.44,44.49h-.91v-.95h.91v.95ZM10.8,44.49h-.91v-.95h.91v.95ZM13.96,42.15v.91h-2.18v-.91h2.18ZM17.26,42.15v.91h-3.49v-.91h3.49ZM19.26,42.15v.91h-2.18v-.91h2.18ZM23.07,43.06h-.79c-.41,0-.81-.33-.95-.76-.18.45-.66.76-1.18.76h-1.07v-.91h.69c.39,0,.78-.26.78-.66l-.04-4.52h.99c0,.69.04,3.84.05,4.12.02.61.42,1.05.81,1.05h.71v.91ZM29.06,43.06h-1.93c-.39,0-.71-.15-.96-.45-.56.3-1.1.45-1.62.45h-1.64v-.91h1.63c.35,0,.71-.08,1.08-.23-.69-.81-1.38-1.25-2.07-1.28v-.77c.7-.51,1.48-.76,2.36-.76,1.05,0,2.04.38,2.69,1.02-.39.74-.91,1.39-1.57,1.93.12.07.3.09.56.09h1.49v.91ZM27.32,40.4c-.34-.25-.8-.37-1.4-.37-.38,0-.73.07-1.04.22.53.14,1.03.53,1.5,1.17.39-.29.7-.63.93-1.01ZM31.06,42.15v.91h-2.18v-.91h2.18ZM35.43,43.06h-.92c-.28,0-.53-.12-.73-.36-.1-.13-.19-.26-.24-.4-.16.46-.65.75-1.17.76h-1.49v-.91h1.11c.18,0,.34-.05.49-.15.2-.12.29-.29.29-.51l-.02-1.85h.99c0,.35,0,.83.03,1.46,0,.33.09.59.29.79.16.18.33.26.52.26h.84v.91ZM32.99,38.88h-.91v-.95h.91v.95ZM34.36,38.88h-.91v-.95h.91v.95ZM38.1,42.15v.91h-2.83v-.91h2.83ZM43.18,43.06h-1.45c-.42,0-.81-.33-.95-.76-.18.45-.66.76-1.18.76h-1.68v-.91h.69c.39,0,1.4-.26,1.4-.66l-.04-4.52h.99c0,.69.04,3.84.05,4.12.02.61.41,1.05.81,1.05h1.36v.91ZM45.27,41.84c0,.75-.45,1.22-1.27,1.22h-1v-.91h.64c.37,0,.64-.22.64-.65,0-.58,0-1.33-.02-2.25,0-1.04-.02-1.8-.02-2.26h.99c0,.43,0,1.24.02,2.43,0,1.01.02,1.82.02,2.42ZM50.74,43.06h-1.16c-.26,0-.49-.09-.67-.27-.21-.2-.32-.48-.32-.83l-.03-4.96h1l.04,4.56c0,.34.17.59.43.59h.71v.91ZM52.78,42.15v.91h-2.22v-.91h2.22ZM54.78,42.15v.91h-2.18v-.91h2.18ZM59.71,43.06h-1.49c-.28,0-.53-.12-.73-.36-.1-.13-.19-.26-.24-.4-.16.46-.65.75-1.17.76h-1.49v-.91h1.11c.18,0,.34-.05.49-.15.2-.12.29-.29.29-.51l-.02-1.85h.99c0,.35,0,.83.03,1.46,0,.33.09.59.29.79.16.18.33.26.52.26h1.41v.91ZM56.54,44.49h-.91v-.95h.91v.95ZM57.9,44.49h-.91v-.95h.91v.95ZM61.71,42.15v.91h-2.18v-.91h2.18ZM63.71,42.15v.91h-2.18v-.91h2.18ZM70.64,41.66c0,1-.45,1.52-1.35,1.54-.58,0-1-.23-1.25-.74-.21.48-.61.73-1.21.74-.47,0-.84-.16-1.1-.49v.36h-2.2v-.91h1.22c0-1.26-.02-2-.03-2.24h1v1.4c.03.28.11.51.27.66.16.17.36.25.61.25.39,0,.57-.22.57-.64,0-.13,0-.69,0-1.68h.99c0,.26,0,.68.02,1.27,0,.35.09.61.27.79.16.17.36.25.61.25.39,0,.58-.21.58-.63,0,.03,0-.62,0-1.96h1v2.01ZM73.75,35.61c-.03.22-.09.39-.22.52-.14.16-.31.23-.52.23-.13,0-.31-.04-.54-.12-.23-.08-.39-.13-.48-.13-.18,0-.29.1-.33.32h-.34c.05-.42.3-.75.67-.75.14,0,.33.05.56.13.24.08.39.13.46.13.23,0,.35-.11.37-.33h.37ZM73.06,43.06h-.99l-.05-6.06h.99l.05,6.06ZM82.39,43.06h-1.34c-.29,1.27-1.25,2.03-2.57,2.03-.79,0-1.44-.25-1.95-.77-.54-.53-.8-1.25-.8-2.14v-1.19h.99v1.1c0,.54.17,1,.51,1.38.35.38.76.57,1.26.57.71,0,1.22-.33,1.52-.98-.07,0-.2,0-.37,0h-.32c-.47,0-.86-.18-1.16-.52-.28-.33-.42-.71-.4-1.15.02-.61.24-1.08.64-1.41.34-.27.72-.38,1.12-.36,1.08.08,1.62.57,1.62,1.48v1.04h1.24v.91ZM79.31,38.88h-.91v-.95h.91v.95ZM80.13,42.16c0-.76-.02-1.18-.02-1.26,0-.08-.05-.19-.14-.33-.11-.16-.27-.24-.47-.24-.44,0-.73.38-.75,1,0,.46.31.82.72.82h.67ZM80.68,38.88h-.91v-.95h.91v.95ZM85.71,42.15v.91h-3.49v-.91h3.49ZM87.71,42.15v.91h-2.18v-.91h2.18ZM89.71,42.15v.91h-2.18v-.91h2.18ZM93.26,42.24c0,.55-.27.82-.85.82h-2.89v-.91h2.34c.24,0,.37-.14.38-.43v-.26h-.81c-.46,0-.85-.18-1.15-.53-.28-.33-.42-.71-.4-1.15.02-.61.24-1.07.64-1.4.33-.27.71-.39,1.12-.37,1.07.08,1.6.58,1.61,1.49v2.73ZM92.24,40.56c0-.77,0-1.19,0-1.26,0-.08-.05-.19-.14-.32-.11-.17-.27-.25-.47-.25-.44,0-.73.39-.76,1,0,.46.31.83.73.83h.66ZM92.11,37.54h-.91v-.95h.91v.95ZM95.92,36.43h-1.68l.22-.46h.41c-.06-.08-.08-.18-.08-.29,0-.38.27-.67.62-.67.2,0,.36.08.5.26l-.23.35c-.08-.08-.16-.12-.25-.12-.11,0-.17.08-.17.22,0,.17.12.25.36.25h.31v.46ZM95.63,43.06h-.99l-.05-6.06h.99l.05,6.06Z"/>
    </g>
  </g>
</svg>