<?xml version="1.0" encoding="UTF-8"?>
<svg id="Layer_2" data-name="Layer 2" xmlns="http://www.w3.org/2000/svg" viewBox="0 0 114.69 49.16">
  <defs>
    <style>
      .cls-1 {
        fill: #626370;
      }
    </style>
  </defs>
  <g id="Layer_1-2" data-name="Layer 1">
    <g>
      <path class="cls-1" d="M22.73,37.8v-1.65h-11.36c-1.52,0-2.96.3-4.28.83s-2.52,1.32-3.54,2.29c-.09-.48-.14-.96-.14-1.47,0-1.65.5-3.18,1.36-4.44.04-.05.07-.1.11-.15h0c1.44-2.03,3.81-3.36,6.49-3.36,1.96,0,3.9-.52,5.6-1.48,1.71-.97,3.19-2.39,4.24-4.22,3.14-5.44,1.27-12.39-4.16-15.52-.83-.48-1.7-.85-2.59-1.1-.59-.16-1.18-.28-1.77-.35l-1.94,3.36c1.55-.12,3.14.21,4.59,1.04,3.81,2.2,5.11,7.06,2.91,10.87-2.2,3.81-7.06,5.11-10.87,2.92-3.81-2.2-5.11-7.06-2.91-10.87.15-.26,4.12-7.04,4.12-7.04-.77.19-1.51.46-2.22.81h-.02c-1.96.97-3.67,2.5-4.84,4.53C-.04,15.48-.36,18.57.38,21.36c.22.86.55,1.69.97,2.47.56,1.05,1.29,2.02,2.18,2.87.56.53,1.18,1.01,1.86,1.43,0,0,0,0-.01,0-1.37.85-2.54,1.97-3.44,3.3v.02C.72,33.27,0,35.45,0,37.8c0,1.74.39,3.38,1.09,4.85-.55,1.16-.91,2.43-1.04,3.77-.03.33-.04.66-.05.99H0v1.76h3.41v-1.66c0-.5.05-1,.14-1.47,1.42,1.35,3.19,2.33,5.16,2.81.85.21,1.74.32,2.66.32,5.68,0,10.38-4.16,11.23-9.6.09-.57.14-1.17.14-1.77h0ZM16.37,43.99c-1.37,1.11-3.11,1.77-5,1.77-2.57,0-4.85-1.22-6.3-3.11,1.45-1.88,3.73-3.09,6.3-3.09h7.76c-.41,1.77-1.4,3.32-2.76,4.43"/>
      <path class="cls-1" d="M13.65,14.51c-.33-.19-.68-.34-1.04-.44-1.1-.31-2.26-.2-3.25.29h0c-.78.39-1.47,1.01-1.94,1.82-.63,1.09-.76,2.33-.46,3.45.09.34.22.68.39.99.22.42.52.81.87,1.15.26.24.55.46.86.64,2.18,1.26,4.98.51,6.24-1.67,1.26-2.18.52-4.97-1.67-6.24M14.33,19.21c-.25,0-.44-.2-.44-.44,0-1.45-1.18-2.64-2.64-2.64-.25,0-.44-.19-.44-.44s.19-.44.44-.44c1.94,0,3.52,1.58,3.52,3.52,0,.24-.2.44-.44.44"/>
      <rect class="cls-1" x="9.64" y="1.88" width="6.31" height="3.42" transform="translate(3.29 12.87) rotate(-60)"/>
      <path class="cls-1" d="M112.73,17.43c-1.08,0-1.96.88-1.96,1.96s.88,1.96,1.96,1.96,1.96-.88,1.96-1.96-.88-1.96-1.96-1.96M112.73,21.17c-.99,0-1.78-.8-1.78-1.79s.8-1.79,1.78-1.79,1.79.8,1.79,1.79-.8,1.79-1.79,1.79"/>
      <path class="cls-1" d="M113.14,19.72c.1-.04.19-.09.27-.17.14-.14.21-.31.21-.52,0-.19-.07-.35-.21-.47-.14-.12-.31-.18-.52-.18h-.88v1.98h.3v-.6h.47l.49.6h.39l-.52-.64ZM112.32,19.46v-.77h.58c.13,0,.24.04.32.11.07.06.11.14.11.24,0,.12-.04.22-.12.3-.08.08-.18.12-.3.12h-.58Z"/>
      <path class="cls-1" d="M39.25,25.91c-1.19-1.19-2.63-1.79-4.3-1.79-.17,0-.34,0-.5.03l2.6-4.26h0l-2.17-1.25-.72,1.25h0l-4.14,6.76c-.77,1.06-1.15,2.24-1.15,3.56,0,1.68.6,3.11,1.79,4.3,1.18,1.19,2.61,1.79,4.3,1.79s3.11-.6,4.3-1.79c1.18-1.18,1.77-2.62,1.77-4.3s-.59-3.12-1.77-4.3M37.5,32.75c-.7.7-1.55,1.06-2.54,1.06s-1.85-.35-2.55-1.06c-.71-.7-1.07-1.55-1.07-2.55s.35-1.85,1.07-2.55c.7-.7,1.55-1.06,2.55-1.06s1.84.35,2.54,1.06c.7.7,1.05,1.55,1.05,2.55s-.35,1.85-1.05,2.55"/>
      <path class="cls-1" d="M60.77,28c0,2.38-.84,4.41-2.52,6.1-1.68,1.68-3.71,2.52-6.1,2.52s-4.4-.84-6.09-2.52c-1.68-1.68-2.52-3.71-2.52-6.1s.84-4.4,2.52-6.09c1.68-1.68,3.71-2.52,6.09-2.52,1.17,0,2.29.23,3.35.68,1.08.45,2.03,1.1,2.84,1.93l-.88.86c-.7-.72-1.51-1.28-2.42-1.66-.92-.39-1.88-.58-2.88-.58-2.04,0-3.78.72-5.21,2.17-1.44,1.44-2.17,3.18-2.17,5.21s.72,3.78,2.17,5.22c1.44,1.44,3.18,2.15,5.21,2.15s3.78-.72,5.22-2.15c1.43-1.44,2.15-3.17,2.15-5.19h-7.38v-1.24h8.53c.01.14.03.29.04.44.03.27.04.53.04.77"/>
      <path class="cls-1" d="M60.77,28c0,2.38-.84,4.41-2.52,6.1-1.68,1.68-3.71,2.52-6.1,2.52s-4.4-.84-6.09-2.52c-1.68-1.68-2.52-3.71-2.52-6.1s.84-4.4,2.52-6.09c1.68-1.68,3.71-2.52,6.09-2.52,1.17,0,2.29.23,3.35.68,1.08.45,2.03,1.1,2.84,1.93l-.88.86c-.7-.72-1.51-1.28-2.42-1.66-.92-.39-1.88-.58-2.88-.58-2.04,0-3.78.72-5.21,2.17-1.44,1.44-2.17,3.18-2.17,5.21s.72,3.78,2.17,5.22c1.44,1.44,3.18,2.15,5.21,2.15s3.78-.72,5.22-2.15c1.43-1.44,2.15-3.17,2.15-5.19h-7.38v-1.24h8.53c.01.14.03.29.04.44.03.27.04.53.04.77Z"/>
      <path class="cls-1" d="M74.55,25.01c-1.18-1.29-2.68-1.93-4.49-1.93s-3.3.64-4.49,1.93c-.2.22-.39.44-.56.69v-2.01h-1.23v12.3h1.23v-6.16c0-1.62.48-2.95,1.45-4,.94-1.02,2.14-1.53,3.59-1.53s2.65.51,3.59,1.53c.22.24.41.49.58.75l1.03-.67c-.21-.32-.44-.62-.7-.9"/>
      <path class="cls-1" d="M74.55,25.01c-1.18-1.29-2.68-1.93-4.49-1.93s-3.3.64-4.49,1.93c-.2.22-.39.44-.56.69v-2.01h-1.23v12.3h1.23v-6.16c0-1.62.48-2.95,1.45-4,.94-1.02,2.14-1.53,3.59-1.53s2.65.51,3.59,1.53c.22.24.41.49.58.75l1.03-.67c-.21-.32-.44-.62-.7-.9Z"/>
      <path class="cls-1" d="M89.42,23.71v2.26c-.22-.32-.48-.62-.76-.89-1.32-1.32-2.91-1.97-4.78-1.97s-3.47.66-4.79,1.97c-1.32,1.33-1.98,2.92-1.98,4.79s.66,3.46,1.98,4.78c1.33,1.33,2.92,1.99,4.79,1.99s3.46-.66,4.78-1.99c.28-.27.53-.57.76-.89v2.27h1.23v-12.31h-1.23ZM89.42,29.86c0,1.53-.54,2.83-1.62,3.91-1.09,1.08-2.4,1.62-3.92,1.62s-2.83-.54-3.92-1.62c-1.08-1.08-1.62-2.38-1.62-3.91s.54-2.84,1.62-3.92c1.09-1.08,2.39-1.62,3.92-1.62s2.83.54,3.92,1.62c1.08,1.08,1.62,2.38,1.62,3.91h0Z"/>
      <path class="cls-1" d="M89.42,23.71v2.26c-.22-.32-.48-.62-.76-.89-1.32-1.32-2.91-1.97-4.78-1.97s-3.47.66-4.79,1.97c-1.32,1.33-1.98,2.92-1.98,4.79s.66,3.46,1.98,4.78c1.33,1.33,2.92,1.99,4.79,1.99s3.46-.66,4.78-1.99c.28-.27.53-.57.76-.89v2.27h1.23v-12.31h-1.23ZM89.42,29.86c0,1.53-.54,2.83-1.62,3.91-1.09,1.08-2.4,1.62-3.92,1.62s-2.83-.54-3.92-1.62c-1.08-1.08-1.62-2.38-1.62-3.91s.54-2.84,1.62-3.92c1.09-1.08,2.39-1.62,3.92-1.62s2.83.54,3.92,1.62c1.08,1.08,1.62,2.38,1.62,3.91h0Z"/>
      <path class="cls-1" d="M113.23,24.94c-.99-1.23-2.35-1.85-4.07-1.85s-3.09.62-4.08,1.85c-.33.42-.61.91-.84,1.45-.23-.55-.51-1.03-.85-1.45-.99-1.23-2.35-1.85-4.08-1.85s-3.08.62-4.07,1.85c-.08.1-.16.2-.23.31v-1.55h-1.23v12.3h1.23v-6.17c0-1.76.39-3.14,1.18-4.13.75-.92,1.79-1.38,3.13-1.38s2.38.46,3.12,1.38c.79.99,1.18,2.38,1.18,4.16v6.15h1.24v-6.15c0-1.78.39-3.17,1.18-4.16.74-.92,1.77-1.38,3.11-1.38s2.38.46,3.13,1.38c.79.99,1.18,2.38,1.18,4.16v6.15h1.23v-6.15c0-2.07-.48-3.7-1.46-4.92"/>
      <path class="cls-1" d="M113.23,24.94c-.99-1.23-2.35-1.85-4.07-1.85s-3.09.62-4.08,1.85c-.33.42-.61.91-.84,1.45-.23-.55-.51-1.03-.85-1.45-.99-1.23-2.35-1.85-4.08-1.85s-3.08.62-4.07,1.85c-.08.1-.16.2-.23.31v-1.55h-1.23v12.3h1.23v-6.17c0-1.76.39-3.14,1.18-4.13.75-.92,1.79-1.38,3.13-1.38s2.38.46,3.12,1.38c.79.99,1.18,2.38,1.18,4.16v6.15h1.24v-6.15c0-1.78.39-3.17,1.18-4.16.74-.92,1.77-1.38,3.11-1.38s2.38.46,3.13,1.38c.79.99,1.18,2.38,1.18,4.16v6.15h1.23v-6.15c0-2.07-.48-3.7-1.46-4.92Z"/>
    </g>
  </g>
</svg>