<?xml version="1.0" encoding="UTF-8"?>
<svg id="Layer_2" data-name="Layer 2" xmlns="http://www.w3.org/2000/svg" viewBox="0 0 67.27 110.25">
  <defs>
    <style>
      .cls-1 {
        fill: #626370;
      }
    </style>
  </defs>
  <g id="Layer_1-2" data-name="Layer 1">
    <g>
      <path class="cls-1" d="M30.87,110.25c-.02-.5-.24-1.03-.28-1.52-.01-.17-.01-.21.18-.17l.25,1.2.39-.85.39.85.25-1.13.24.03-.35,1.59h-.21l-.32-.92-.32.92h-.21Z"/>
      <path class="cls-1" d="M27.98,110.25c-.08-.07-.48-.36-.35-.49s.29.2.37.24c.12.05.45.09.55.02l.06-.38c-.19-.09-.83-.21-.9-.41-.28-.81,1.06-.86,1.12-.27.04.41-.29-.1-.31-.11-.27-.2-.86,0-.54.32.26.26,1.6.28.57,1.09h-.57Z"/>
      <path class="cls-1" d="M42.96,110.25c-.21-.15-.39-.17-.35-.49.3-.07.19.24.46.28.11.02.51-.01.53-.11.11-.54-.88-.33-.97-.87-.09-.61,1.08-.67,1.17-.11.06.35-.4-.17-.46-.18-.28-.05-.65.09-.39.39.23.26,1.56.26.57,1.09h-.57Z"/>
      <path class="cls-1" d="M36.95,110.25v-1.7h1.06v.21s-.85,0-.85,0v.45c.02.12.74-.07.85.15.03.17-.14.1-.25.1-.2,0-.4,0-.6,0v.53c.01.08.68.03.81.04.21.01.09.12.03.21h-1.06Z"/>
      <path class="cls-1" d="M18.93,110.25h-.21c-.05-.15-.08-.41-.24-.43-.42-.05-.72-.03-.82.43h-.21c.17-.45.32-1.14.55-1.53.2-.35.34-.1.45.14.19.4.36.95.48,1.39ZM17.94,109.69c.19-.01.43.07.56-.1l-.32-.67c-.13.24-.26.5-.25.78Z"/>
      <path class="cls-1" d="M14.62,110.25c-.11-.44.84-1.15.85-1.45l-.85-.04v-.21h1.1c.06,0,.12.14.09.23-.04.16-.95,1.14-.84,1.25.22.01.45-.02.67,0s.18-.03.17.21h-1.2Z"/>
      <path class="cls-1" d="M22.68,110.25c.04-.54.6-.92.85-1.38.02-.14,0-.09-.1-.1-.14-.02-.71.03-.74,0-.03-.07.06-.21.11-.21h1.1c.09.4-.84,1.17-.85,1.45.21.08.46.02.68.04s.18-.03.17.21h-1.2Z"/>
      <path class="cls-1" d="M34.05,110.25v-1.7h1.06v.21s-.85,0-.85,0v.5s.78,0,.78,0v.21s-.78.04-.78.04v.53c.22.01.45-.02.68,0s.18-.03.17.21h-1.06Z"/>
      <path class="cls-1" d="M12.99,110.25h-.21c-.1-.52-.48-.47-.92-.39l-.14.39h-.21c.12-.44.28-.99.48-1.39.12-.23.25-.51.45-.14.23.4.35,1.1.55,1.53ZM12.5,109.69c.01-.28-.12-.54-.25-.78l-.32.67c.13.17.37.09.56.1Z"/>
      <path class="cls-1" d="M40.2,110.25v-1.48s-.5,0-.5,0v-.21h1.17s.14.15.11.21h-.49s-.07,1.48-.07,1.48h-.21Z"/>
      <path class="cls-1" d="M8.89,110.25c-.08-.12-.07-.25-.07-.39,0-.22-.05-1.28.11-1.31l.18.11v1.38h.85s-.07.21-.07.21h-.99Z"/>
      <path class="cls-1" d="M20.7,110.25c.02-.53-.03-1.06,0-1.59,0-.16.04-.1.18-.1l.04,1.7h-.21Z"/>
      <g>
        <g>
          <path class="cls-1" d="M49.96,35.27c-.11.02-.08-.13-.1-.21-.17-.67-.25-1.35-.46-2.01-1.9-6.15-10.38-7.56-15.57-9.59-4.67-1.83-7.09-6.27-8.13-10.95-.91-4.08-.9-8.36-.4-12.5.12-.02.07.16.07.25.25,6.22,2.98,12.2,7.92,16.04,2.64,2.05,5.86,3.23,8.64,5.14,4.48,3.09,8.9,7.96,8.03,13.84Z"/>
          <path class="cls-1" d="M26.78,20.64l.65,1.22c1.09,1.73,2.65,3.19,4.46,4.16,3.23,1.73,6.78,1.47,10.15,2.85,4.52,1.85,8.9,6.65,4.95,11.38-3.43,4.1-8.83,2.43-12.5-.36-4.13-3.13-6.21-8.92-7.12-13.87-.32-1.76-.56-3.59-.59-5.38Z"/>
          <g>
            <path class="cls-1" d="M67.27,35.2l-2.42.37c-6.71,1.4-7.61,8.68-13.1,12.06-8.78,5.42-17.04-.08-22.29-7.33-.37-.52-1.55-2.1-1.71-2.6-.01-.04-.02-.12.03-.1.25.22.52.43.79.62,5.03,3.6,13.78,8.04,19.32,3.16.74-.65,1.29-1.49,1.98-2.19,4.54-4.66,11.26-5.61,17.39-3.99Z"/>
            <path class="cls-1" d="M38.86,50.11l-.74.14c-3.59-.01-6.89-1.01-9.81-3.06-.2-.14-.63-.56-.79-.62-.13-.05-.09.05-.11.1-.6,2.01-1.7,3.27-3.87,3.62-4.74.78-7.41-3.25-7.22-7.58.12-2.78,2.32-6.31-.42-8.52.63-.04,1.24-.05,1.87,0,1.53.13,3.25.58,4.66,1.21,5.01,2.25,5.87,6.57,9.34,10.24,1.84,1.95,4.43,3.96,7.1,4.45Z"/>
          </g>
        </g>
        <path class="cls-1" d="M27.84,98.52h7.1c.07,0,.57-.19.68-.24,1.31-.65,1.46-3.18.49-4.17-1.17-1.19-3.14-.7-4.55-.89-.92-.13-1.42-1.37-.93-2.11.99.95,2.73.47,4.03.56,3.67.25,4.95,3.77,3.5,6.86h2.72s.29-.15.31-.18c.26-.24.33-1.11.36-1.48.1-1.63.1-3.95,0-5.59-.03-.57-.11-1.18-.5-1.62-.11-.12-.44-.28-.41-.41.98-1.44,2.73-.77,2.89.91.21,2.34-.16,4.98,0,7.35-.14,1.33-.85,2.54-2.29,2.65-.94.07-2.73.08-3.59-.23-.17-.06-.36-.26-.51-.26-.26,0-1.14.57-1.56.49-2.33-.12-4.83.17-7.14,0-.4-.03-1.39-.42-1.47-.41-.21.02-.67.41-1,.41h-3.57v1.31c0,.49-.42,1.48-.74,1.87-1.11,1.37-4.46,1.21-4.56-.92.81.45,2.01.69,2.79.07.15-.12.46-.49.46-.67v-1.66c-1.52-.04-3.17.34-4.24-1.03-1.16-1.49-1.09-5.56.46-6.82.96-.78,3.33-.84,4.42-.32,2,.95,1.27,4.75,1.41,6.54h3c.34,0,.57-.75.6-1.03.21-2.14-.16-4.61,0-6.79-.02-.26-.09-.54-.23-.76-.1-.17-.63-.58-.63-.64.83-1.58,2.89-.75,2.89.92-.1,2.3.17,4.78.01,7.06-.03.41-.15.83-.21,1.23ZM20.34,98.52v-4.28c0-.08-.24-.52-.32-.6-.48-.49-1.63-.49-2.11,0-.78.82-.78,3.9.17,4.62.05.04.43.25.45.25h1.8Z"/>
        <path class="cls-1" d="M11.7,92.12c.36.36.49.97.38,1.46-2.48-1.07-4.6.73-4.52,3.28.01.09,1.62-.17,1.8-.18,2.72-.03,4.48,1.54,3.41,4.33-1.25,3.28-6.09,3.73-9.04,3.07-1.85-.41-2.95-1.49-3.49-3.3-.43-1.47-.42-4.5,1.33-5.1.53-.18,1.38-.11,1.58.51.08.26-.15.32-.28.5-1.18,1.66-1.3,4.43.73,5.47,1.61.82,4.89.75,6.36-.36,1.12-.84,1.77-3.02-.05-3.41-1.03-.22-2.07.22-3.03.13-1.02-.1-1.01-1.81-.95-2.58.15-1.76,1.35-3.6,3.09-4.12.77-.23,2.07-.32,2.68.29Z"/>
        <path class="cls-1" d="M46.55,88.5c1.27-.22,1.83.74,1.93,1.86.23,2.78-.17,5.88,0,8.69-.13,1.49-1.9,1.56-2.05-.07-.24-2.66.29-5.8,0-8.41-.07-.61-.47-.87-.84-1.28.15-.39.55-.72.96-.79Z"/>
        <g>
          <path class="cls-1" d="M25.36,50.82c-1.1,2.05-1.28,4.53-1.06,6.82.13,1.39.53,2.75.76,4.12.49,2.96.69,6.01.81,9.02.31.19.61.28.9.51.63.49.92,1.18,1,1.97v13.43c-.28,1.76-2.85,1.59-2.89-.22v-12.36c-.09-.9-.58-1.46-1.27-1.99-.05-.19.54-.79.71-.91.33-.23.69-.26,1.04-.43-.74-6.62-2.28-12.97-5.08-19-.09-.18-.29-.45-.34-.58-.04-.1.01-.12.11-.11.25.04.84.36,1.18.45,1,.26,2.23.33,3.19-.1l.96-.63Z"/>
          <g>
            <path class="cls-1" d="M9.74,85.52h6.18c.07,0,.48-.22.57-.28,1.19-.86,1.32-3.65,1.17-4.98s-.72-2.79-1.9-3.58c.54-1.54,2.69-1.47,3.67-.38,2.25,2.47,1.37,9.67-1.96,11.19-1.37.62-5.24.53-6.84.43-.87-.05-1.67-.23-2.41-.71-.42.17-.81.4-1.25.52-1.09.29-3.95.31-5.11.19-1.01-.1-1.23-1.09-.85-1.91.18-.39.52-.46.92-.49,1.37-.12,2.55.21,3.9-.41,2.11-.97,2.53-3.9,1.54-5.81-.39-.77-1.53-1.9-2.44-1.45-.84.41-1.07,1.28-1.06,2.15-1.34.34-2.88.1-2.88-1.59,0-2.59,3.8-3.28,5.77-2.67,3.31,1.02,4.55,4.41,3.82,7.61-.18.78-.49,1.45-.84,2.16Z"/>
            <path class="cls-1" d="M20.11,72.04c.25.21.24.97-.1,1.09-1.33.23-2.9.14-4.19.55-.32.1-.58.5-.79-.13-.25-.74.36-1.22,1.07-1.11-1.5-1.29-1.04-3.72.87-4.26,1.07-.3,2.91-.24,2.66,1.32-.11.74-1.22.73-1.33.42-.08-.23.01-.45-.22-.7-.68-.73-1.18.38-1.21.99-.07,1.4,1.02,1.86,2.23,1.81.32-.01.71-.23,1,.02Z"/>
            <circle class="cls-1" cx="5.82" cy="72.12" r="1.72"/>
          </g>
          <g>
            <path class="cls-1" d="M45.19,85.52c.65-.13.84-1.25.88-1.8.24-3.2-.11-6.79-.09-10.02-.09-.35-.22-.62-.44-.9-.13-.16-.74-.65-.74-.74.49-1.24,2.16-1.55,3.18-.77.83.63,1.01,1.61,1.07,2.61.16,2.8.14,6.52,0,9.33-.12,2.42-.91,4.51-3.64,4.7-1.45.1-3.63.09-5.09,0-.89-.06-1.62-.29-2.39-.71-.33.15-.63.34-.98.45-1.17.37-3.99.37-5.25.27-.74-.06-1.11-.47-1.1-1.24s.38-1.1,1.1-1.17c1.64-.15,3.16.31,4.59-.85,1.79-1.45,1.8-5.05-.04-6.46-1.55-1.19-2.67.2-2.61,1.79-1.04.24-2.43.27-2.79-.98-.42-1.46.61-2.56,1.88-3.08,2.83-1.15,5.95.12,7.27,2.84,1.05,2.16.57,4.69-.48,6.74h5.69Z"/>
            <circle class="cls-1" cx="35.57" cy="72.12" r="1.72"/>
          </g>
        </g>
      </g>
      <circle class="cls-1" cx="4.73" cy="109.51" r=".26"/>
      <circle class="cls-1" cx="47.87" cy="109.49" r=".26"/>
    </g>
  </g>
</svg>