<?xml version="1.0" encoding="utf-8"?>
<!-- Generator: Adobe Illustrator 29.4.0, SVG Export Plug-In . SVG Version: 9.03 Build 0)  -->
<svg version="1.1" id="Layer_1" xmlns="http://www.w3.org/2000/svg" xmlns:xlink="http://www.w3.org/1999/xlink" x="0px" y="0px"
	 viewBox="0 0 261.5 76" style="enable-background:new 0 0 261.5 76;" xml:space="preserve">
<style type="text/css">
	.st0{fill:#F0047F;}
	.st1{fill:#FFFFFF;}
	.st2{fill:#E6E6E6;}
</style>
<g>
	<g>
		<path class="st0" d="M63.7,10.3c-5.6-5.9-16.2-7.2-26.9-7.3C26.2,3.1,15.6,4.4,10,10.3c-5.9,5.6-7.2,16.2-7.4,26.9
			C2.8,47.8,4.1,58.4,10,64c5.6,5.9,16.2,7.2,26.9,7.3c10.6-0.1,21.3-1.5,26.9-7.3c5.9-5.6,7.2-16.2,7.3-26.9
			C70.9,26.5,69.6,15.9,63.7,10.3z M18,50.1c-1.5,1-3.4,1.6-5.3,1.6l5.4-13.6l3.9-9.8c1.4-3.5,4.7-5.7,8.4-5.7h0.3l-9.2,23.1
			C20.8,47.5,19.6,49,18,50.1z M34.4,45.7c-0.7,1.8-2,3.3-3.5,4.3c-1.5,1-3.4,1.6-5.3,1.6L31,38.1l3.9-9.8c1.4-3.5,4.7-5.7,8.5-5.7
			h0.2L34.4,45.7z M61,39.2h-6.6v6.6h-4.2v-6.6h-6.6V35h6.6v-6.6h4.2V35H61V39.2z"/>
		<polygon class="st1" points="61,35 61,39.2 54.4,39.2 54.4,45.8 50.2,45.8 50.2,39.2 43.6,39.2 43.6,35 50.2,35 50.2,28.4 
			54.4,28.4 54.4,35 		"/>
		<path class="st1" d="M43.6,22.6l-9.2,23.1c-0.7,1.8-2,3.3-3.5,4.3c-1.5,1-3.4,1.6-5.3,1.6L31,38.1l3.9-9.8
			c1.4-3.5,4.7-5.7,8.5-5.7H43.6z"/>
		<path class="st1" d="M30.7,22.6l-9.2,23.1c-0.7,1.8-2,3.3-3.5,4.3c-1.5,1-3.4,1.6-5.3,1.6l5.4-13.6l3.9-9.8
			c1.4-3.5,4.7-5.7,8.4-5.7H30.7z"/>
	</g>
	<path class="st2" d="M107.6,17.6c-6.3,0-10.9,4.5-10.9,11.3c0,6.9,4.1,11.1,11.5,11.1c3.7,0,6.6-0.8,9-2.2l-0.9-3.7
		c-2.5,1.3-4.7,1.8-7.3,1.8c-4.1,0-6.4-1.8-6.9-5.4h16c0.1-0.4,0.1-1,0.1-1.6C118.1,21.2,113.5,17.6,107.6,17.6z M102,27.3
		c0.4-3.7,2.4-5.6,5.5-5.6c3.1,0,4.9,1.9,5.3,5.6H102z M143.1,17.6c-6.3,0-10.9,4.5-10.9,11.3c0,6.9,4.1,11.1,11.5,11.1
		c3.7,0,6.6-0.8,9-2.2l-0.9-3.7c-2.5,1.3-4.7,1.8-7.3,1.8c-4.1,0-6.4-1.8-6.9-5.4h16c0.1-0.4,0.1-1,0.1-1.6
		C153.6,21.2,149,17.6,143.1,17.6z M137.5,27.3c0.4-3.7,2.4-5.6,5.5-5.6c3.1,0,4.9,1.9,5.3,5.6H137.5z M193,17.6
		c-6.3,0-10.9,4.5-10.9,11.3c0,6.9,4.1,11.1,11.5,11.1c3.7,0,6.6-0.8,9-2.2l-0.9-3.7c-2.5,1.3-4.7,1.8-7.3,1.8
		c-4.1,0-6.4-1.8-6.9-5.4h16c0.1-0.4,0.1-1,0.1-1.6C203.5,21.2,198.9,17.6,193,17.6z M187.4,27.3c0.4-3.7,2.4-5.6,5.5-5.6
		c3.1,0,4.9,1.9,5.3,5.6H187.4z M122.5,10.3h5.4v29.8h-5.4V10.3z M174.1,17.6h6l-9.7,22.4h-5.4l-9.3-22.4h6.3l5.8,16.3L174.1,17.6z
		 M229.8,26.8v13.3h-5.4V27.1c0-3.8-1.4-4.9-4.1-4.9c-2.6,0-4.5,1-6.1,3.8c-0.6,1.1-0.9,2.4-0.9,3.7v10.3h-5.4V17.6h5.4v4.2
		c2.1-3.2,5-4.2,8.3-4.2C226.3,17.6,229.8,19.5,229.8,26.8z M256.6,31.6h-8.5v8.5h-5.4v-8.5h-8.5v-5.4h8.5v-8.5h5.4v8.5h8.5V31.6z
		 M106.7,48.3h1.3v11.9h-1.3v-9.4l-3.7,7h-1.3L98,51.1v9.2h-1.3V48.3H98v0l4.4,8.2L106.7,48.3z M118,51.4h1.3v8.9H118v-1.9
		c-0.8,1.3-1.9,2-3.4,2c-2.4,0-4.3-1.6-4.3-4.6c0-3,1.9-4.7,4.3-4.7c1.5,0,2.7,0.7,3.4,2V51.4z M118,55.8c-0.3-1.9-1.7-3.5-3.4-3.5
		c-1.7,0-3,1.1-3,3.5c0,2.2,1.3,3.4,3,3.4C116.5,59.3,117.7,57.8,118,55.8z M127.3,51.4l-0.3,1.1c-0.2-0.1-0.5-0.1-0.7-0.1
		c-1.3,0-2.3,1.3-3,3v4.9h-1.3v-8.9h1.3v2.1c0.7-1.2,1.7-2.2,3-2.2C126.7,51.2,127,51.3,127.3,51.4z M135.9,60.3h-1.7l-4-4.1v4.1
		h-1.3V48.3h1.3v7.2l3.8-4.2h1.6l-4.1,4.3L135.9,60.3z M144.6,55.8c0,0.2,0,0.4,0,0.5h-7c0.1,2,1.3,3,3.3,3c1,0,1.9-0.1,3-0.8l0.3,1
		c-0.8,0.5-2.1,0.9-3.4,0.9c-2.8,0-4.6-1.6-4.6-4.5c0-3,2-4.7,4.3-4.7C142.8,51.2,144.6,52.7,144.6,55.8z M137.5,55.2h5.7
		c-0.2-1.9-1.3-2.8-2.8-2.8C138.9,52.4,137.8,53.3,137.5,55.2z M152.2,59.9c-0.7,0.4-1.4,0.6-2.4,0.6c-1.5,0-2.7-0.9-2.7-3.1v-4.8
		h-1.6v-1.1h1.6v-2.7h1.3v2.7h3.3v1.1h-3.3v4.6c0,1.6,0.7,2.2,1.7,2.2c0.6,0,1.2-0.2,1.8-0.5L152.2,59.9z M154.3,47.8
		c0.5,0,1,0.4,1,0.9c0,0.5-0.4,0.9-1,0.9s-0.9-0.4-0.9-0.9C153.3,48.2,153.7,47.8,154.3,47.8z M153.6,60.3v-8.9h1.3v8.9H153.6z
		 M165.5,54.8v5.5h-1.3v-5.4c0-1.8-0.8-2.5-1.9-2.5c-1.5,0-2.5,1-3.3,3v4.8h-1.3v-8.9h1.3v2.1c0.9-1.6,2.1-2.3,3.5-2.3
		C164,51.2,165.5,52,165.5,54.8z M175.3,51.4h1.3v8.7c0,2.4-2.1,3.9-4.5,3.9c-1.3,0-2.9-0.4-3.9-1.1l0.3-1.2
		c1.1,0.8,2.6,1.2,3.7,1.2c1.7,0,3.2-1,3.2-2.6v-1.8c-0.8,1.3-1.9,1.9-3.4,1.9c-2.4,0-4.3-1.6-4.3-4.5c0-3,1.9-4.6,4.3-4.6
		c1.5,0,2.7,0.7,3.4,2V51.4z M175.3,55.8c-0.3-1.9-1.7-3.5-3.4-3.5c-1.7,0-3,1-3,3.4c0,2.2,1.3,3.3,3,3.3
		C173.8,59.1,175,57.8,175.3,55.8z M183.1,59.6l0.4-1.3c0.7,0.4,1.8,0.8,2.9,0.8c1.8,0,2.7-0.9,2.7-2.1c0-2.8-5.8-1.3-5.8-5.5
		c0-2.1,1.6-3.4,3.8-3.4c1.1,0,2.4,0.3,3.1,0.9l-0.6,1.1c-0.6-0.4-1.5-0.7-2.5-0.7c-1.6,0-2.4,0.9-2.4,2c0,3.3,5.8,1.6,5.8,5.5
		c0,2.1-1.8,3.5-4,3.5C185.3,60.4,183.8,60.1,183.1,59.6z M196.5,51.2c2.1,0,4.7,1.4,4.7,4.6c0,3.1-2.4,4.7-4.7,4.7
		c-2.2,0-4.5-1.4-4.5-4.6C191.9,52.8,194.3,51.2,196.5,51.2z M196.5,59.3c1.8,0,3.3-1.1,3.3-3.4c0-2.3-1.6-3.5-3.3-3.5
		c-1.5,0-3.3,1-3.3,3.4C193.2,58.2,194.8,59.3,196.5,59.3z M203.3,60.3V48.3h1.3v11.9H203.3z M213.7,51.4h1.3v8.9h-1.3v-2
		c-0.9,1.5-2,2.2-3.5,2.2c-1.5,0-2.9-0.7-2.9-3.5v-5.5h1.3v5.4c0,1.8,0.8,2.5,1.9,2.5c1.5,0,2.4-1,3.2-3V51.4z M223.4,59.9
		c-0.7,0.4-1.4,0.6-2.4,0.6c-1.5,0-2.7-0.9-2.7-3.1v-4.8h-1.6v-1.1h1.6v-2.7h1.3v2.7h3.3v1.1h-3.3v4.6c0,1.6,0.7,2.2,1.7,2.2
		c0.6,0,1.2-0.2,1.8-0.5L223.4,59.9z M225.4,47.8c0.5,0,1,0.4,1,0.9c0,0.5-0.4,0.9-1,0.9s-0.9-0.4-0.9-0.9
		C224.5,48.2,224.9,47.8,225.4,47.8z M224.8,60.3v-8.9h1.3v8.9H224.8z M232.8,51.2c2.1,0,4.7,1.4,4.7,4.6c0,3.1-2.4,4.7-4.7,4.7
		c-2.2,0-4.5-1.4-4.5-4.6C228.3,52.8,230.7,51.2,232.8,51.2z M232.9,59.3c1.8,0,3.3-1.1,3.3-3.4c0-2.3-1.6-3.5-3.3-3.5
		c-1.5,0-3.3,1-3.3,3.4C229.6,58.2,231.1,59.3,232.9,59.3z M247.5,54.8v5.5h-1.3v-5.4c0-1.8-0.8-2.5-1.9-2.5c-1.5,0-2.5,1-3.3,3v4.8
		h-1.3v-8.9h1.3v2.1c0.9-1.6,2.1-2.3,3.5-2.3C246,51.2,247.5,52,247.5,54.8z M249.5,59.8l0.4-1.2c0.8,0.4,1.6,0.6,2.6,0.6
		c1.2,0,2.1-0.3,2.1-1.4c0-2.3-4.9-0.4-4.9-4.1c0-1.5,1.2-2.6,3.2-2.6c0.9,0,1.9,0.2,2.7,0.7l-0.3,1.2c-0.7-0.4-1.5-0.7-2.3-0.7
		c-1.1,0-2,0.4-2,1.4c0,2.5,4.9,0.6,4.9,4.1c0,1.6-1.6,2.6-3.4,2.6C251.4,60.4,250.1,60.1,249.5,59.8z"/>
</g>
</svg>
