<?xml version="1.0" encoding="UTF-8"?>
<svg xmlns="http://www.w3.org/2000/svg" version="1.1" xmlns:xlink="http://www.w3.org/1999/xlink" viewBox="0 0 245.95 104.37">
  <defs>
    <style>
      .cls-1 {
        fill: url(#linear-gradient);
      }
    </style>
    <linearGradient id="linear-gradient" x1="7.97" y1="52.18" x2="237.98" y2="52.18" gradientUnits="userSpaceOnUse">
      <stop offset="0" stop-color="#ff512f"/>
      <stop offset="1" stop-color="#dd2476"/>
    </linearGradient>
  </defs>
  <!-- Generator: Adobe Illustrator 28.7.1, SVG Export Plug-In . SVG Version: 1.2.0 Build 142)  -->
  <g>
    <g id="Layer_1">
      <path class="cls-1" d="M25.45,63.82c-.53.09-1.06.21-1.56.37.51-.15,1.03-.28,1.56-.37ZM46.76,74.86c-.15-4.05-1.54-7.77-3.82-10.82-.1-.12-.18-.25-.28-.35-.1-.13-.18-.23-.28-.36-.1-.1-.18-.23-.28-.34-.03-.03-.05-.08-.08-.1-.15-.18-.28-.34-.43-.48-.1-.1-.21-.21-.31-.31l-.15-.15c-1.77-1.75-3.82-3.15-6.18-4.18-.31-.13-.58-.26-.89-.39-.1-.05-.21-.08-.31-.13-.08-.03-.15-.05-.26-.08-1.56-.53-3.21-.84-4.89-.95-.1,0-.23,0-.34-.03h-.8c-.51,0-1,.03-1.51.05-.28.03-.53.05-.82.08-.1,0-.23.03-.34.05-.1.03-.21.03-.31.05-1.56.26-3.08.69-4.54,1.33-2.38,1.02-4.44,2.43-6.2,4.18-1.75,1.75-3.15,3.79-4.18,6.16-.49,1.1-.88,2.25-1.13,3.4-.03.18-.08.36-.1.54-.03.08-.03.18-.05.26-.03.13-.05.26-.08.41-.02.17-.04.33-.07.51-.03.15-.03.31-.05.46-.08.79-.1,1.59-.1,2.41,0,.23.03.46.03.7.08,1.54.35,3.05.79,4.49.05.13.08.25.13.35.03.1.05.18.08.26.15.44.34.88.52,1.28,1.02,2.34,2.43,4.41,4.18,6.16s3.84,3.1,6.22,4.13c1.11.49,2.24.85,3.41,1.11.21.05.39.07.59.12.21.03.38.08.58.1h.05c.31.05.62.08.93.1.15.03.3.03.48.05h.03c.15,0,.31.03.46.03h1.69c.23,0,.48-.03.71-.05.18-.03.39-.03.57-.05h.08c.15-.03.28-.03.44-.05,1.07-.15,2.12-.38,3.12-.69,1.82-.57,3.52-1.38,5.08-2.43,1.05-.7,2.05-1.49,2.95-2.39,2-2.28.57-5.95-2.48-6.21h-.67c-.39.03-.74.13-1.07.26-.28.13-.57.26-.8.46-2.3,2.48-5.18,3.71-8.67,3.71-1.26,0-2.51-.18-3.71-.58-.03,0-.03-.03-.05-.03h-.03c-3.57-1.18-6.36-4-7.54-7.57h26.98c2.05,0,3.74-1.67,3.74-3.71-.03-.28-.03-.52-.03-.77ZM16.06,71.81s0,.03-.02.05v-.05h.02c.39-1.16.96-2.24,1.68-3.23,0,0,0-.03.03-.03.05-.08.13-.15.18-.22.03-.05.08-.1.1-.13.05-.08.1-.13.15-.21.08-.08.13-.18.2-.26.08-.1.18-.21.26-.31.1-.1.21-.21.31-.34.08-.08.18-.15.26-.25.79-.74,1.69-1.38,2.67-1.87-.53.28-1.04.59-1.52.95-.24.18-.49.38-.72.59.36-.31.75-.59,1.14-.85.12-.09.24-.15.36-.23.2-.12.4-.23.59-.34.2-.1.4-.21.61-.3.25-.11.5-.22.76-.32.25-.09.51-.19.77-.27.51-.15,1.03-.28,1.56-.37.02,0,.03,0,.05,0,.15-.02.31-.04.46-.06.25-.04.51-.06.77-.08h.03c.17,0,.34-.02.52-.02h.12c.81.03,1.61.1,2.36.26-.2-.04-.4-.09-.6-.12.19.03.37.06.55.09.13.03.23.05.34.08h.04c4.03.95,7.26,3.97,8.55,7.84h-22.57ZM26.32,63.7c-.43.03-.86.1-1.28.18-.24.05-.48.1-.71.16-.13.03-.26.06-.38.1-.11.03-.21.06-.32.09-.02,0-.03,0-.04.02-.28.09-.57.19-.83.31-.28.11-.56.24-.83.39,0,0-.02,0-.03,0-.53.28-1.04.59-1.52.95-.24.18-.49.38-.72.59.36-.31.75-.59,1.14-.85.12-.09.24-.15.36-.23.2-.12.4-.23.59-.34.2-.1.4-.21.61-.3.25-.12.5-.22.76-.32.25-.1.52-.19.77-.27.51-.16,1.03-.28,1.56-.37.02,0,.03,0,.05,0,.15-.02.31-.04.46-.06.25-.04.51-.06.77-.08-.14,0-.28.02-.41.03ZM29.16,63.8c-.58-.09-1.16-.14-1.76-.14.81.03,1.61.1,2.36.26-.2-.04-.4-.09-.6-.12ZM104.24,74.86c-.15-4.05-1.54-7.77-3.83-10.82-.1-.12-.18-.25-.28-.35-.1-.13-.17-.23-.28-.36-.1-.1-.18-.23-.28-.34-.03-.03-.05-.08-.08-.1-.15-.18-.28-.34-.44-.48-.1-.1-.21-.21-.31-.31l-.15-.15c-1.76-1.75-3.82-3.15-6.17-4.18-.31-.13-.59-.26-.9-.39-.1-.05-.21-.08-.3-.13-.08-.03-.18-.05-.26-.08-1.56-.53-3.18-.84-4.9-.95-.1,0-.23,0-.34-.03h-.79c-.52,0-1,.03-1.51.05-.28.03-.57.05-.83.08-.09,0-.22.03-.33.05-.1.03-.21.03-.31.05-1.56.26-3.08.69-4.54,1.33-2.38,1.02-4.44,2.43-6.21,4.18-1.75,1.75-3.15,3.79-4.18,6.16-.49,1.1-.87,2.25-1.13,3.4-.05.18-.08.36-.1.54-.03.08-.03.18-.05.26-.03.13-.05.26-.08.41-.03.17-.05.33-.08.51-.03.15-.03.31-.05.46-.08.79-.1,1.59-.1,2.41,0,.23.03.46.03.7.08,1.54.36,3.05.8,4.49.05.13.08.25.13.35.03.1.05.18.08.26.15.44.33.88.51,1.28,1.02,2.34,2.43,4.41,4.18,6.16s3.83,3.13,6.21,4.15c1.1.49,2.24.85,3.41,1.11.21.04.38.07.58.12.21.03.39.08.59.1h.05c.31.05.61.08.92.1.15.03.31.03.49.05h.03c.15,0,.31.03.46.03h1.71c.23,0,.49-.03.72-.05.18-.03.39-.03.57-.05h.07c.15-.03.28-.03.44-.05,1.07-.15,2.13-.38,3.13-.69,1.82-.57,3.52-1.38,5.08-2.43,1.05-.7,2.05-1.49,2.94-2.39,2-2.28.57-5.95-2.48-6.21h-.66c-.39.03-.72.13-1.08.26-.28.13-.56.26-.79.46-2.3,2.48-5.18,3.71-8.67,3.71-1.26,0-2.51-.18-3.72-.58-.03,0-.03-.03-.05-.03h-.03c-3.56-1.18-6.35-4-7.53-7.56h26.97c2.05,0,3.75-1.67,3.75-3.71-.03-.31-.03-.54-.03-.8ZM73.53,71.86c.79-2.41,2.33-4.49,4.36-5.92.1-.08.21-.13.28-.21.13-.1.28-.18.41-.26.13-.07.23-.12.36-.2,1.75-1.01,3.74-1.56,5.9-1.56,1.36,0,2.66.23,3.87.64.08.03.15.05.23.08,1.49.55,2.84,1.39,3.98,2.45,1.14,1.07,2.09,2.35,2.74,3.78.04.1.09.21.12.31.05.15.13.31.18.46.05.15.1.28.15.44h-22.58ZM180.46,74.86c-.15-4.05-1.54-7.77-3.82-10.82-.1-.12-.18-.25-.28-.35-.1-.13-.18-.23-.28-.36-.1-.1-.18-.23-.28-.34-.03-.03-.05-.08-.08-.1-.15-.18-.28-.34-.44-.48-.1-.1-.21-.21-.31-.31l-.15-.15c-1.77-1.75-3.82-3.15-6.18-4.18-.3-.13-.58-.26-.89-.39-.1-.05-.21-.08-.31-.13-.08-.03-.18-.05-.26-.08-1.56-.53-3.2-.84-4.89-.95-.1,0-.23,0-.34-.03h-.79c-.52,0-1.01.03-1.51.05-.28.03-.54.05-.83.08-.1,0-.23.03-.34.05-.1.03-.2.03-.3.05-1.56.26-3.08.69-4.54,1.33-2.39,1.02-4.44,2.43-6.21,4.18-1.75,1.75-3.15,3.79-4.18,6.16-.49,1.1-.88,2.25-1.13,3.4-.05.18-.08.36-.1.54-.03.08-.03.18-.05.26-.03.13-.05.26-.08.41-.03.17-.05.33-.08.51-.03.15-.03.31-.05.46-.08.79-.1,1.59-.1,2.41,0,.23.03.46.03.7.08,1.54.36,3.05.79,4.49.05.13.08.25.13.35.03.1.05.18.08.26.15.44.34.88.52,1.28,1.02,2.34,2.43,4.41,4.18,6.16,1.75,1.75,3.82,3.13,6.21,4.15,1.1.49,2.23.85,3.4,1.11.21.04.39.07.59.12.21.03.39.08.59.1h.05c.3.05.61.08.92.1.15.03.31.03.49.05h.03c.15,0,.3.03.46.03h1.72c.23,0,.49-.03.72-.05.17-.03.38-.03.56-.05h.08c.15-.03.28-.03.44-.05,1.07-.15,2.12-.38,3.13-.69,1.81-.57,3.51-1.38,5.07-2.43,1.06-.7,2.05-1.49,2.95-2.39,2-2.28.57-5.95-2.48-6.21h-.67c-.35.03-.71.13-1.07.26-.28.13-.57.26-.79.46-2.31,2.48-5.18,3.71-8.67,3.71-1.26,0-2.52-.18-3.72-.58-.03,0-.03-.03-.05-.03h-.03c-3.56-1.18-6.35-4-7.54-7.56h26.98c2.05,0,3.74-1.67,3.74-3.71-.03-.31-.03-.54-.03-.8ZM149.74,71.89v-.03c.13-.36.26-.69.39-1.02.05-.1.1-.21.15-.31.1-.21.18-.39.28-.57.08-.15.18-.3.26-.46.66-1.13,1.54-2.16,2.54-3,0,0,.02-.02.03-.03.13-.11.26-.21.4-.32.94-.7,1.98-1.29,3.09-1.71,1.29-.48,2.69-.74,4.15-.74.97,0,1.92.13,2.82.33.13.03.26.05.35.1.15.05.31.08.44.13,3.62,1.16,6.49,4.01,7.67,7.62h-22.57ZM177.54,9.35c-4.97,0-9.46,3.03-11.3,7.67l-5.18,13.02-7.23,18.15c2.61,0,5.07-.79,7.13-2.17,2.05-1.41,3.69-3.39,4.67-5.79l12.25-30.87h-.34ZM26.32,63.7c-.43.03-.86.1-1.28.18-.24.05-.48.1-.71.16-.13.03-.26.06-.38.1-.11.03-.21.06-.32.09-.02,0-.03,0-.04.02-.28.09-.57.19-.83.31-.28.11-.56.24-.83.39,0,0-.02,0-.03,0-.53.28-1.04.59-1.52.95-.24.18-.49.38-.72.59.36-.31.75-.59,1.14-.85.12-.09.24-.15.36-.23.2-.12.4-.23.59-.34.2-.1.4-.21.61-.3.25-.12.5-.22.76-.32.25-.1.52-.19.77-.27.51-.16,1.03-.28,1.56-.37.02,0,.03,0,.05,0,.15-.02.31-.04.46-.06.25-.04.51-.06.77-.08-.14,0-.28.02-.41.03ZM29.16,63.8c-.58-.09-1.16-.14-1.76-.14.81.03,1.61.1,2.36.26-.2-.04-.4-.09-.6-.12ZM17.78,68.5s-.03.03-.03.05c.05-.08.13-.15.18-.22-.05.05-.1.09-.15.17ZM88.49,64.24c-1.2-.38-2.41-.58-3.64-.58-1.31,0-2.54.21-3.72.58-.52.17-1.01.39-1.48.63,1.56-.77,3.31-1.19,5.18-1.19,1.36,0,2.66.23,3.87.64-.08-.03-.13-.05-.21-.08ZM157.33,64.24c-1.2.39-2.28.95-3.26,1.67-.22.18-.46.36-.69.57.13-.11.26-.21.4-.32,2.01-1.56,4.53-2.48,7.27-2.5-1.28,0-2.52.21-3.72.58ZM161.06,63.66c.5,0,.98.04,1.45.1-.48-.07-.97-.1-1.45-.1ZM160.46,9.35c-5,0-9.51,3.08-11.33,7.75l-15.26,39.07-10.92,28.94-7.31-20.82c-1.72-4.87-6.31-8.12-11.49-8.12l13.48,35.31c.83,2.12,2.85,3.51,5.13,3.51,1.1,0,2.17-.34,3.08-.95.89-.59,1.59-1.46,1.99-2.48l14.18-35.38,18.64-46.82h-.21ZM222,66.99c-3.13-6.56-9.87-10.81-17.15-10.81s-13.98,4.26-17.11,10.84c-1,2.16-1.59,4.44-1.74,6.8v17.49c0,2.05,1.66,3.71,3.71,3.71,1.02,0,1.95-.4,2.61-1.07.67-.67,1.07-1.59,1.07-2.61v-16.98c.36-5.99,5.42-10.69,11.47-10.69s11,4.69,11.38,10.66v16.98c0,2.05,1.67,3.71,3.71,3.71h.03c2.05,0,3.72-1.67,3.72-3.71v-17.49c-.1-2.36-.72-4.67-1.72-6.83ZM59.88,59.96v31.26c0,1.05-.41,1.99-1.1,2.69-.7.67-1.64,1.1-2.69,1.1-2.11,0-3.8-1.69-3.8-3.79v-31.26c0-1.05.43-1.99,1.12-2.68s1.63-1.11,2.68-1.11c.56,0,1.08.12,1.56.34,1.32.59,2.24,1.92,2.24,3.46ZM237.98,40.83v5.59h-8.84v8.84h-5.59v-8.84h-8.84v-5.59h8.84v-8.84h5.59v8.84h8.84Z"/>
    </g>
  </g>
</svg>