<svg xmlns="http://www.w3.org/2000/svg" id="Layer_1" version="1.1" viewBox="119.7 221.2 596.9 153.4">
  <!-- Generator: Adobe Illustrator 29.4.0, SVG Export Plug-In . SVG Version: 2.1.0 Build 152)  -->
  <defs>
    <style>
      .st0 {
        fill: #fff;
      }

      .st1 {
        fill: blue;
      }

      .st2 {
        fill: #e6e6e6;
      }
    </style>
  </defs>
  <g>
    <g>
      <path class="st1" d="M256.6,237.7c-12.6-13.2-36.4-16.1-60.2-16.5-23.8.3-47.6,3.3-60.2,16.5-13.2,12.6-16.2,36.4-16.5,60.2.3,23.8,3.3,47.6,16.5,60.2,12.6,13.2,36.4,16.1,60.2,16.5,23.8-.3,47.6-3.3,60.2-16.5,13.2-12.6,16.1-36.4,16.5-60.2-.3-23.8-3.3-47.7-16.5-60.2ZM154.2,326.9c-3.4,2.3-7.6,3.6-12,3.6l12.1-30.4,8.7-21.9c3.1-7.8,10.6-12.8,18.9-12.8h.6l-20.6,51.8c-1.7,4-4.4,7.3-7.8,9.7ZM190.9,317.2c-1.7,4-4.4,7.3-7.8,9.7-3.4,2.3-7.6,3.6-12,3.6l12.1-30.4,8.7-21.9c3.1-7.8,10.6-12.8,19-12.8h.6l-20.5,51.8ZM250.5,302.6h-14.9v14.8h-9.4v-14.8h-14.9v-9.4h14.9v-14.8h9.4v14.8h14.9v9.4Z"/>
      <polygon class="st0" points="250.5 293.2 250.5 302.6 235.7 302.6 235.7 317.4 226.3 317.4 226.3 302.6 211.5 302.6 211.5 293.2 226.3 293.2 226.3 278.4 235.7 278.4 235.7 293.2 250.5 293.2"/>
      <path class="st0" d="M211.5,265.3l-20.5,51.8c-1.7,4-4.4,7.3-7.8,9.7-3.4,2.3-7.6,3.6-12,3.6l12.1-30.4,8.7-21.9c3.1-7.8,10.6-12.8,19-12.8h.6Z"/>
      <path class="st0" d="M182.6,265.3l-20.6,51.8c-1.7,4-4.4,7.3-7.8,9.7-3.4,2.3-7.6,3.6-12,3.6l12.1-30.4,8.7-21.9c3.1-7.8,10.6-12.8,18.9-12.8h.6Z"/>
    </g>
    <path class="st2" d="M355.1,254.2c-14.2,0-24.5,10-24.5,25.4s9.1,24.8,25.7,24.8,14.9-1.9,20.1-5l-2-8.3c-5.6,3-10.5,4-16.3,4-9.2,0-14.3-4.1-15.5-12.2h35.8c.2-1,.3-2.3.3-3.7,0-17.1-10.4-25.1-23.5-25.1ZM342.5,275.8c1-8.2,5.3-12.4,12.4-12.4s11,4.1,11.8,12.4h-24.2ZM434.6,254.2c-14.2,0-24.5,10-24.5,25.4s9.1,24.8,25.7,24.8,14.9-1.9,20.1-5l-2-8.3c-5.6,3-10.5,4-16.3,4-9.2,0-14.3-4.1-15.5-12.2h35.8c.2-1,.3-2.3.3-3.7,0-17.1-10.4-25.1-23.5-25.1ZM422.1,275.8c1-8.2,5.3-12.4,12.4-12.4s11,4.1,11.8,12.4h-24.2ZM546.5,254.2c-14.2,0-24.5,10-24.5,25.4s9.1,24.8,25.7,24.8,14.9-1.9,20.1-5l-2-8.3c-5.6,3-10.5,4-16.3,4-9.2,0-14.3-4.1-15.5-12.2h35.8c.2-1,.3-2.3.3-3.7,0-17.1-10.4-25.1-23.5-25.1ZM533.9,275.8c1-8.2,5.3-12.4,12.4-12.4s11,4.1,11.8,12.4h-24.2ZM388.3,237.7h12.2v66.8h-12.2v-66.8ZM504,254.2h13.5l-21.6,50.2h-12.1l-20.8-50.2h14.1l13.1,36.5,13.9-36.5ZM628.9,274.7v29.8h-12.1v-29c0-8.5-3.2-11-9.2-11s-10.1,2.3-13.7,8.6c-1.4,2.5-2.1,5.4-2.1,8.2v23.2h-12.2v-50.2h12.2v9.5c4.7-7.1,11.1-9.5,18.7-9.5s18.3,4.1,18.3,20.4ZM688.8,285.4h-19v19h-12.2v-19h-19v-12.2h19v-19h12.2v19h19v12.2Z"/>
  </g>
  <g>
    <path class="st0" d="M352,323v3.4h-8.5v22.9h-3.9v-22.9h-8.5v-3.4h20.9Z"/>
    <path class="st0" d="M354.4,340.8c.4,3.9,2.7,5.8,6.9,5.8s4.3-.4,6.7-1.7l.7,2.8c-1.9,1.3-4.8,2.1-7.9,2.1-6.5,0-10.3-3.7-10.3-10.1s4.3-10.5,9.8-10.5,9.4,3.3,9.4,10.3,0,1-.1,1.3h-15.2ZM354.4,338.1h11.3c-.4-3.9-2.4-5.7-5.5-5.7s-5.3,1.9-5.8,5.7Z"/>
    <path class="st0" d="M389.1,348c-1.5,1.1-3.6,1.8-6.5,1.8-5.3,0-10-3.5-10-10.1s4.9-10.5,10.1-10.5,4.8.6,6.5,1.9l-1.1,3.1c-1.5-1-2.8-1.7-5.2-1.7s-6.3,2.5-6.3,7,2.9,7,6.3,7,3.7-.3,5.5-1.4l.8,2.9Z"/>
    <path class="st0" d="M411.3,337.4v12h-3.7v-11.7c0-3.6-1.5-5.2-3.9-5.2s-5,2.2-6.8,6.3v10.5h-3.7v-26.3h3.7v10.9c1.9-3.2,4.5-4.7,7.6-4.7s6.8,1.9,6.8,8.2Z"/>
    <path class="st0" d="M434.9,337.4v12h-3.7v-11.6c0-3.6-1.5-5.2-3.9-5.2s-5.1,2-6.8,6.3v10.6h-3.7v-19.7h3.7v4.2c1.9-3.1,4.5-4.7,7.6-4.7s6.8,1.9,6.8,8.1Z"/>
    <path class="st0" d="M449.5,329.2c5.2,0,10.6,3.4,10.6,10.2s-5.2,10.4-10.7,10.4-10.3-3.4-10.3-10.2,5.2-10.4,10.4-10.4ZM449.6,346.5c3.6,0,6.6-2.3,6.6-6.9s-3.1-7.1-6.6-7.1-6.6,2.2-6.6,7,3,7.1,6.5,7.1Z"/>
    <path class="st0" d="M464.5,349.4v-26.3h3.7v26.3h-3.7Z"/>
    <path class="st0" d="M483,329.2c5.2,0,10.6,3.4,10.6,10.2s-5.2,10.4-10.7,10.4-10.3-3.4-10.3-10.2,5.2-10.4,10.4-10.4ZM483.1,346.5c3.6,0,6.6-2.3,6.6-6.9s-3.1-7.1-6.6-7.1-6.6,2.2-6.6,7,3,7.1,6.5,7.1Z"/>
    <path class="st0" d="M513.6,329.7h3.7v19.5c0,5.1-4.5,8.4-10.4,8.4s-6.8-.9-9-2.5l.6-3.4c2.4,1.6,5.8,2.5,8.4,2.5s6.6-1.8,6.6-5.4v-3.6c-1.7,2.7-4.1,3.9-7.3,3.9-5.2,0-9.6-3.3-9.6-9.9s4.3-10.1,9.6-10.1,5.6,1.4,7.3,4v-3.5ZM513.6,339.5h0c-.8-4.1-3.6-7-7-7s-6,2-6,6.7,2.6,6.7,6.1,6.7,6.1-2.5,6.9-6.4Z"/>
    <path class="st0" d="M536.2,329.7h4.2l-11.1,27.5h-4l3.3-7.6-8.1-19.9h4.3l5.7,15.4,5.6-15.4Z"/>
    <path class="st0" d="M551.3,347.9l.9-3.5c1.8,1.1,4.4,2,6.9,2,3.6,0,5.5-1.8,5.5-4.1,0-5.7-13-2.5-13-11.8s3.7-7.8,8.9-7.8,5.8.8,7.3,2l-1.2,3.3c-1.5-.9-3.7-1.8-6.1-1.8-3.4,0-5,1.8-5,3.9,0,6.4,13,3.2,13,12s-4.2,7.8-9.4,7.8-5.9-.7-7.8-1.9Z"/>
    <path class="st0" d="M581.9,329.2c5.2,0,10.6,3.4,10.6,10.2s-5.2,10.4-10.7,10.4-10.3-3.4-10.3-10.2,5.2-10.4,10.4-10.4ZM582,346.5c3.6,0,6.6-2.3,6.6-6.9s-3.1-7.1-6.6-7.1-6.6,2.2-6.6,7,3,7.1,6.5,7.1Z"/>
    <path class="st0" d="M596.9,349.4v-26.3h3.7v26.3h-3.7Z"/>
    <path class="st0" d="M620.3,329.7h3.7v19.7h-3.7v-4c-1.8,3-4.3,4.4-7.5,4.4s-6.7-1.9-6.7-8.1v-11.9h3.7v11.6c0,3.6,1.5,5.2,3.9,5.2s5-2,6.6-6.1v-10.6Z"/>
    <path class="st0" d="M642.9,348.5c-1.6.8-3.3,1.3-5.6,1.3-3.7,0-6.4-2.1-6.4-7v-10.1h-3.5v-3h3.5v-5.7h3.7v5.7h7.3v3h-7.3v9.3c0,3.4,1.5,4.5,3.5,4.5s2.7-.3,4-1l.8,3Z"/>
    <path class="st0" d="M647.7,321.3c1.3,0,2.5,1,2.5,2.4s-1.1,2.5-2.5,2.5-2.5-1-2.5-2.5,1.1-2.4,2.5-2.4ZM645.8,349.4v-19.7h3.7v19.7h-3.7Z"/>
    <path class="st0" d="M664.4,329.2c5.2,0,10.6,3.4,10.6,10.2s-5.2,10.4-10.7,10.4-10.3-3.4-10.3-10.2,5.2-10.4,10.4-10.4ZM664.4,346.5c3.6,0,6.6-2.3,6.6-6.9s-3.1-7.1-6.6-7.1-6.6,2.2-6.6,7,3,7.1,6.5,7.1Z"/>
    <path class="st0" d="M697.5,337.4v12h-3.7v-11.6c0-3.6-1.5-5.2-3.9-5.2s-5.1,2-6.8,6.3v10.6h-3.7v-19.7h3.7v4.2c1.9-3.1,4.5-4.7,7.6-4.7s6.8,1.9,6.8,8.1Z"/>
    <path class="st0" d="M701.6,348.2l.8-3.2c1.7,1,4,1.7,6.2,1.7s4.3-.7,4.3-2.7c0-4.5-11-.7-11-8.7s2.8-6,7.7-6,4.7.6,6.4,1.6l-.8,3.2c-1.7-1-3.6-1.6-5.5-1.6s-4,.9-4,2.7c0,5,10.9,1.2,10.9,8.7s-3.6,6.1-8.1,6.1-5.4-.8-6.9-1.6Z"/>
  </g>
</svg>