<?xml version="1.0" encoding="UTF-8"?>
<svg id="Layer_2" data-name="Layer 2" xmlns="http://www.w3.org/2000/svg" viewBox="0 0 189.27 56.19">
  <defs>
    <style>
      .cls-1 {
        fill: #626370;
      }
    </style>
  </defs>
  <g id="Layer_1-2" data-name="Layer 1">
    <g>
      <path class="cls-1" d="M54.94,28.72c0,15.17-12.3,27.47-27.47,27.47S0,43.89,0,28.72,12.3,1.26,27.47,1.26s27.47,12.3,27.47,27.47ZM44.84,8.79C37.49,2.39,27.14.53,17.99,4.05,3.15,9.76-3.43,27.13,4.18,41.27c7.58,14.07,26.04,18.32,38.97,8.75,1.39-1.03,2.64-2.21,3.81-3.49-.3-.07-.59.27-.85.39-4.27,1.88-8.4,1.52-11.61-2.06-1.66-1.85-2-4.21-3.88-5.9-.17-.16-1.09-.81-1.12-.91-.15-.5.59-.38.86-.43,3.92-.76,7.77-4.95,9.39-8.47.45-.99,1.09-2.74-.75-2.45-2.04.32-5.73,4.31-6.98,5.98-3.55,4.71-5.62,9.5-8.13,14.77-.14.28-.85,1.79-1.05,1.82-.49-.18-1-.18-.87-.86s.65-1.64.87-2.31c.65-1.89,1.19-3.82,1.93-5.68l4.17-12.79c-.12-.18-1.72.12-2.03.18-.98.17-2.51.4-3.42.7-.41.14-.46.22-.52.65-.32,2.2-.7,3.37-1.84,5.3-1.25,2.1-5.18,5.98-7.75,5.83-1.22-.07-2.27-1.05-2.37-2.29-.14-1.7,2.18-4.37,3.38-5.48,2.22-2.06,4.83-3.37,7.65-4.46.23-.19-.16-1.87-.25-2.23-1.02-3.75-3.99-6.55-5.99-9.77-.72-1.16-1.75-2.88-1.42-4.28.37-1.55,1.93-1.72,3.28-1.77,2.67-.1,4.92.55,7.14,2.02.26-.24.09-.56.12-.88.12-1.11,1.01-1.83,1.92-2.35,1.98-1.13,3.36-.57,4.24,1.45.08.18.13.79.37.88.88-.17,1.6-.82,2.52-.94.26-.03,1.19-.02,1.38.13.36.29.08,1.58.11,2.07.07,1.14.71,2.19-.42,3.14-.23.2-.96.48-1.09.62-.2.23.03.52.03.74.01.43-.72,1.11-.94,1.53s-.44,1.52-.88,1.61c-.49.09-.94-.14-1.38-.3-.47.49-.68,1.06-1.43,1.21-1.04.21-1.05-.94-1.03-1.69-.41.01-.74.32-1.15.44-.81.24-3.28.45-3.2-.87.03-.56.88-1.36,1.18-1.93.18-.33.38-1.06.57-1.29.21-.26.65-.15.5-.78-.79.16-.85-.82-1.13-1.31-.7-1.21-3.93-2.3-5.28-2.64-1.12-.29-2.84-.51-3.51.67-.54.94.14,2.46.58,3.35,1.76,3.6,4.71,7.02,5.81,10.88.18.63.19,1.27.34,1.91.18.13,1.37-.37,1.66-.44.81-.2,1.62-.25,2.41-.38.69-.11,1.93-.47,2.57-.45.73.02.35.89.22,1.37-1.08,3.73-2.48,7.64-3.71,11.34-.11.34-.83,2.06-.76,2.23.04.11.12.2.25.18.3-.97.87-1.84,1.35-2.73,2.37-4.42,7.81-12.91,12.92-14.25,1.85-.49,2.53.44,2.35,2.19-.4,3.8-5.31,9.07-8.65,10.67-.69.33-1.49.58-2.2.86-.2.33.78,1.15,1,1.42.88,1.11,1.38,2.3,2.12,3.46,4.11,6.41,12.06,4.97,15.66-1.05,6.47-10.81,4.03-25.11-5.4-33.32ZM30.64,11.47c.27-.27-.34-1.56-.64-1.77-.53-.37-2.12-.41-2.75-.26-.77.19-1.53.72-1.75,1.51-.12.45-.28,1.09.1,1.43.79.69.7.45,1.16,1.48.02.05-.02.16.12.11.08-.03.61-.7.78-.86.65-.6,1.47-1.01,2.26-1.38.17-.08.63-.19.71-.26ZM31.38,11.74l-.71,1.63c.09.2.33.19.46.32.22.22.42.87.74,1.2.2.2,1.3.85,1.55.86s1.07-.48,1.26-.67c.97-.91.37-1.37.12-2.36-.18-.71-.06-2.05-1.14-1.93l-2.29.94ZM27.79,17.38c-.2-.88-.67-1.28-.54-2.28.09-.67,1.1-1.76,1.76-1.89.36-.07.81.06,1.15-.17.14-.09.56-.65.35-.82-.2-.14-1.29.43-1.53.57-.16.09-.41.26-.56.37-.67.49-1.97,1.81-1.77,2.69.05.22.88,1.81,1.14,1.54ZM25.8,13.87c.38.44.61-.06.25-.45-.06-.06-.35-.23-.4-.22-.21.01.08.6.14.67ZM30.17,19.03c-.15-.19-.55-.42-.75-.68-.58-.76-.61-1.14-.8-2-.05-.24-.28-.51-.35-.81-.08-.34-.02-.69-.06-1.03-.56.42-.64,1.05-.36,1.68.36.83.89,1.52,1.02,2.48.04.27,0,1.75.28,1.8.53-.07,1.48-.88,1.03-1.43ZM32.8,17.89c.23-.36.85-.95.53-1.36-.12-.16-.88-.4-1.15-.56-.5-.31-.68-.85-1.22-.96-.11.05-.46.9-.62,1.09-.22.26-.71.29-.7.62,0,.2.51.35.61.56.24.49.29,1.38.6,1.78.16.21.96.59,1.19.45s.29-.84.41-1.14c.08-.21.24-.33.33-.48ZM26.5,16.89c-.21-.31.07-.79-.34-.83-.2.88-1.94,2.49-.3,2.9.28.07,1.03.15,1.31.1.11-.02.94-.31.98-.35.32-.44-.86-.93-1.13-1.21-.1-.1-.45-.51-.51-.61ZM30.04,18.16c.12-.18-.35-.83-.46-.7-.04.31.11.69.46.7ZM22.12,29.03c-.18-.13-3.42,1.45-3.85,1.69-1.76.98-5.86,3.96-5.52,6.24.08.51.37.71.87.76,3.32.32,7.44-3.78,8.23-6.83.07-.26.4-1.77.27-1.86Z"/>
      <g>
        <g>
          <path class="cls-1" d="M152.49,39.63c-.83,1.02-2.17,1.32-3.38,1.62l2.61,6.7c.38.68.86.64,1.45.96.07.04.4.18.29.29l-5.4-.07-.03-.24.78-.28c.04-.09.06-.19.07-.3.07-.81-1.11-3.59-1.47-4.5-.21-.53-.56-1.52-.83-1.96-.12-.19-.28-.1-.46-.02-2.13.94-2.15,3.56-1.98,5.56.03.38.2.96.51,1.2.12.09,1.15.37.97.62-.14.03-.27.09-.42.08-.74-.01-1.66-.25-2.41-.24-.36,0-2.3.37-2.45.15,0-.42.4-.36.69-.51.58-.31.47-.74.63-1.31v-13.2c-.1-.59-.16-1.07-.76-1.33-.27-.12-.86-.08-.56-.45,1.02-.07,2.05-.05,3.07-.12,2.94-.18,5.32-.65,7.98,1.03,2.19,1.38,2.77,4.26,1.11,6.32ZM149.47,40.02c3.14-2.89-.98-9.29-4.58-7.1-.33.2-.63.65-.67,1.03-.2,1.67.01,4.14,0,5.9,0,.41-.09.86-.08,1.32,0,.5.16,1.06.08,1.59.18.19.67-.64.82-.78.24-.23,1.15-.82,1.46-.95,1-.43,2.07-.18,2.98-1.02Z"/>
          <path class="cls-1" d="M164.06,47.86c-1.96,2.09-5.65,2.36-7.93.65-3.77-2.84-3.1-10.59,1.82-11.84,1.93-.49,4.13-.21,5.67,1.09,2.76,2.33,2.86,7.51.44,10.1ZM160.49,37.6c-1.49-1.15-2.98-.67-3.72.99-1.14,2.56.07,7.93,2.17,9.85.87.79,2.43,1.06,3.25.07,2-2.41.72-9.05-1.69-10.91Z"/>
          <path class="cls-1" d="M183.13,47.86c1.66,1.66,3.81,1.16,5.24-.49.15-.17.32-.54.45-.64s.4,0,.41.11c.04.44-1.75,2-2.19,2.23-1.71.91-4.43.77-6.01-.38-3.76-2.77-3.28-10.62,1.52-12.03,2.06-.6,6.41.08,6.69,2.73.47,4.36-4.42,2.53-6.81,3.44-.58.22-.93.49-.95,1.15-.03,1.05.9,3.13,1.65,3.88ZM181.4,42.69c.46-.09.74-.49,1.19-.71.93-.45,2.08-.51,2.97-.99,2.19-1.18.61-5.11-2.05-3.91-1.83.82-2.22,3.86-2.1,5.62Z"/>
          <path class="cls-1" d="M177.13,41.72c-.04.13-.28.27-.43.12-.1-.1-.21-.86-.3-1.1-.54-1.54-1.51-3.07-3.12-3.64-3.77-1.33-5.56,3.63-1.65,5.22,1.6.65,5.44,1.16,6,3.08.52,1.75-.3,3.17-1.95,3.82-1.78.7-3.65.5-5.44-.08-.68-.22-1.73-.9-2.37-.59-.29.14-.71.85-.78.24-.11-.99.01-2.38,0-3.42,0-.41-.19-.75.08-1.19l.34.07c.14.32.14.76.25,1.07.15.42.99,1.75,1.3,2.12.89,1.08,2.1,1.88,3.56,1.7,1.86-.23,2.97-3.1,1.9-4.6-1.58-2.21-8.12-1.53-8.06-4.82.06-3.07,4.72-3.69,6.99-3.03.73.21,2.15,1.15,2.82.95.22-.07.51-.7.83-.33v4.42Z"/>
        </g>
        <g>
          <path class="cls-1" d="M105.41,47.93s.31.53.33.56c.2.22,1.19.51,1.49.49.49-.02,1.26-.77,1.27-1.29-.2-2.81.3-6.07,0-8.83-.1-.9-.62-1.02-1.39-1.29v-.23s3.81-.05,3.81-.05c.05.03.15.99.15,1.17,0,.24-.14,1.31.04,1.36l.75-1.19c1.1-1.66,2.98-2.5,4.98-2.13,1.49.28,2.28,1.91,2.38,3.28.19,2.5-.31,5.58,0,7.99.04.31.2.68.47.85s.78.17.77.59h-5.2c0-.42.33-.29.62-.43.68-.31.73-.94.78-1.63.11-1.66.19-6.87-.4-8.22-.27-.62-.54-.93-1.19-1.14-2.03-.65-3.62,1.83-3.91,3.55-.26,1.59-.18,3.42-.18,5.02,0,.45-.02,1.68.23,2.02.27.37,1.06.34,1.17.81-.11.16-1.33-.07-1.59-.08-1.25-.04-2.49.09-3.73.08s-2.42-.13-3.58-.08c-.53.03-1.49.3-1.96.1-.11-.05-.12-.02-.1-.17.17-.05.38-.12.53-.21.11-.06.6-.35.67-.42.11-.12.25-.85.27-1.05-.14-2.66.19-5.51,0-8.15-.05-.74-.23-1.6-1.17-1.51,0,.34.22.59.31.9.48,1.8-1.16,3.4-2.88,2.34-1.35-.84-.01-1.18.08-2.04.14-1.29-1.12-1.54-2.13-1.43-1.18.13-2.34,1.77-2.71,2.8-.66,1.8-.43,4.1-.43,6.01,0,.53-.1,1.04,0,1.62.04.23.21.48.38.63.16.14,1.16.5,1.01.66-.51.18-1.01-.05-1.51-.08-.57-.03-1.22-.02-1.79,0-.48.01-1.27.19-1.71.17-.14,0-.27-.03-.27-.2,0-.26.81-.34,1.02-.69.09-.15.21-.74.23-.93.25-2.83-.19-6.05,0-8.92-.11-.74-.77-.55-1.2-.97l.04-.2,3.6-.12c.24.18.11,2.23.21,2.65.34-.4.42-.9.71-1.34,1.61-2.49,4.5-2.71,6.86-1.14l3.75-.14c.01.06.09.15.09.18v10.48Z"/>
          <path class="cls-1" d="M130.17,37.02c-.04.18.02.12.1.17,1,.62,1.45.61,2.14,1.74,1.85,3.05.36,6.44-2.8,7.72-1.48.6-2.93.21-4.4.49-.13.02-1.04.47-1.07.52-.04.07,0,.21-.01.3,1.38-.07,2.76-.07,4.16-.07s2.97-.22,4.06.9c1.47,1.51.13,3.13-1.29,3.98-1.5.9-4.38,1.48-6.12,1.33-.96-.08-2.98-.62-3.55-1.42-1.05-1.47.7-1.93,1.9-1.67,1.3.29.53,1.39,1.54,2.11,1.32.94,4.52.2,5.7-.81.81-.69.59-1.66-.48-1.84-2.17-.36-5.6.58-7.57-.19-.72-.28-1.08-.93-.79-1.69.31-.83,1.67-1.34,2.46-1.58.15-.05.66-.02.61-.25-1.15-.56-2.32-1.25-2.96-2.39-1.66-2.96-.27-6.61,2.98-7.6,1.76-.54,3.45-.19,5.22-.13.99.03-.02-.52-.15-.71-.23-.31-.26-1.35-.18-1.72.28-1.34,2.85-1.58,3.45-.31.29.61.27,1.78-.25,2.27-.28.26-1.35.72-1.73.76-.35.03-.58-.14-.95.09ZM128.35,37.75c-1.31-1.11-3.12-1.19-4.11.36-1.28,2-.17,5.92,1.51,7.48,2.15,2,4.57.75,4.81-2.02.16-1.84-.78-4.62-2.2-5.83Z"/>
          <path class="cls-1" d="M87.2,48.77c-1.48,1.18-4.23,1.28-5.54-.23-.09-.1-.66-1.03-.78-.89-.1.3.02.63,0,.89-.06,1.05-.11,2.14-.08,3.18,0,.41-.03,1.04.27,1.37.18.2,1.45.5,1.21.85h-5.32c-.22-.31.62-.52.78-.62.57-.33.62-.74.66-1.36.23-3.26-.07-6.96-.09-10.25,0-.84.16-1.76.08-2.64-.1-1.11-.44-1.15-1.36-1.59l.04-.2,3.52-.02c.56.16.14,1.26.21,1.69.11.15.71-1.01.79-1.11,1.42-1.86,4.39-1.91,6-.29,2.6,2.61,2.54,8.87-.4,11.21ZM85.35,47.78c1.9-2.08,1.6-7.9-.7-9.59-1.52-1.12-3.42.46-3.73,2.01-.22,1.08-.04,3.48-.03,4.7,0,.18-.09.35-.08.54.03,2.57,2.44,4.64,4.55,2.34Z"/>
          <path class="cls-1" d="M75.84,36.98c0,.11.09.26-.07.39l-.3.02c-.34-.84-.8-1.91-1.37-2.63-1.07-1.34-2.87-2.43-4.64-2.23-2.99.34-4.31,2.91-2.23,5.3s8.66,3.88,9.31,7.15c.99,5.05-6.51,5.18-9.68,4.09-.71-.24-1.3-.81-2.19-.53-.29.09-.4.53-.77.43l.08-4.81c.09,0,.22-.03.29,0,.11.06.89,1.95,1.09,2.29,1.26,2.2,3.21,3.21,5.76,2.55,1.35-.35,2.4-1.56,2.55-2.96.6-5.66-9.69-5.9-10.23-10.01s5.26-4.39,8.08-3.74c.81.19,2.92,1.15,3.61.85.18-.08.33-.36.46-.39.11-.03.26.04.26.1,0,1.35.06,2.77,0,4.11Z"/>
          <circle class="cls-1" cx="104.12" cy="34.47" r="1.87"/>
        </g>
      </g>
      <g>
        <path class="cls-1" d="M167.04,15.83c-.7-1-1.3-1.82-1.59-3.02-.68-2.78-.12-4.97,2.1-6.83.3-.25,1.38-.84,1.43-1.13.04-.23-.02-.52,0-.77.11-.87,1.16-1.71,1.75-2.29.11-.02.24.15.29.23.3.5.58,1.32.86,1.86.07.13.16.25.28.35.24.1,1.9-.49,2.31-.56,2.22-.43,4.77.58,5.95,2.55,2.32,3.87.87,9.67-3.68,10.98-1.31.38-4.96.44-6.29.16-.37-.08-.83-.36-1.2-.35-.48,0-1.3.51-1.86.47-3.14-.17-6.51.22-9.63,0-.71-.05-1.52-.24-2.17-.55-.29.06-.17,2.09-.19,2.45-.15,2.54-1.6,4.24-4.16,4.61-.19.03-1.06.08-1.18.03-.83-.4.91-1.05,1.17-1.2.87-.53,1.76-1.27,1.84-2.35.22-2.86-.27-6.12-.39-9-.04-.97-.21-2.69-.07-3.57.08-.49.79-.77,1.12-1.05.1-.09.15-.26.27-.35.48-.4,1.28-1.1,1.4,0,.24,2.16-.27,4.85,0,6.98.23,1.78,1.86,2.21,3.37,2.3,1.88.11,3.86.05,5.74.08.84.02,1.69-.02,2.53,0ZM173.93,5.06c-.39.05-.82.14-.89.57.13.95.53,1.85.67,2.79.35,2.48-.45,4.91-2.01,6.82-.31.38-.98.6.13.73,1.19.14,3.97.13,5.09-.17,3.18-.85,3.08-6.73,1.44-8.85-1.11-1.44-2.6-2.13-4.43-1.9ZM169.5,6.45c-.26.06-.73.51-.91.72-1.23,1.42-1.05,3.9-.42,5.55.12.32.93,1.94,1.14,2.04.68.33,1.29-1,1.49-1.5.6-1.44.63-3.05.31-4.58-.16-.74-.6-2.46-1.61-2.23Z"/>
        <path class="cls-1" d="M147.61,15.88c-1.43,1.4-3.84,1.97-5.71,1.23-3.76-1.48-4.61-6.81-2.1-9.78,1.49-1.76,3.56-2.58,5.84-1.96,4.47,1.23,5.01,7.52,1.97,10.51ZM140.76,8.56c-1.79,2.58.93,8.25,4.29,6.89,3.2-1.29,2.17-8.37-2.04-8.17-.76.04-1.83.66-2.26,1.27Z"/>
        <path class="cls-1" d="M186.57,22.32c-.51.61-1.44,1.17-2.2,1.41-.46.14-1.65.42-2.03.14-.53-.4.33-.54.57-.67,2.46-1.35,2.72-2.33,2.62-5.07-.12-3.28-.64-6.55-.54-9.85.06-.39.5-.54.77-.78.29-.27,1.14-1.22,1.5-1.18.26.03.41.32.44.56.26,2.23-.26,4.88.08,7.14-.21,2.63.6,6.18-1.2,8.31Z"/>
        <circle class="cls-1" cx="186.25" cy="1.97" r="1.47"/>
        <circle class="cls-1" cx="145.84" cy="1.53" r="1.45"/>
        <circle class="cls-1" cx="142.03" cy="1.53" r="1.44"/>
      </g>
      <g>
        <path class="cls-1" d="M69.27,7.55c-1.98,1.4-2.71,4.42-1.41,6.52.9,1.45,2.37,1.68,3.98,1.76,2.6.13,5.25-.08,7.84-.09,1.82,0,5.83.46,7.34-.34,1.63-.87.93-2.89.85-4.35-.04-.64-.08-1.48-.08-2.1,0-.96.42-1.35,1.09-1.94.94-.83,1.51-1.13,1.63.47.14,1.82-.21,4-.08,5.9.2,2.86,3.19,2.26,5.17,2.28,1.67.02,4.68.58,6.01-.58.82-.72.73-1.81.62-2.78-.15-1.28-.48-2.82-.21-4.11.09-.43,1.23-1.36,1.62-1.64.52-.37.84-.4.97.32s.04,1.92.04,2.7c0,3.43.35,6.01-3.34,7.45-.47.18-.95.33-1.44.42-3.15-.22-6.9.72-9.69-1.08-.23-.15-.64-.62-.84-.61-.29.06-.37.35-.57.52-.49.41-2.36,1.12-3.02,1.17h-16.46c-5,.61-4.7,7.46-.8,9.5,1.65.86,4.03.82,5.63-.17.48-.29,1.05-1.31,1.76-.86.38.24.21,1.63.01,2.01-.42.82-2.02,1.31-2.88,1.39-4.65.46-9.04-.91-9.72-6.11-.38-2.9,1.26-5.86,3.86-7.13.06-.21-.69-.87-.85-1.08-1.65-2.14-1.76-4.87-.34-7.17,1.57-2.55,5.64-3.22,8.34-2.45.96.28,1.69.6,1.79,1.7.22,2.4-1.33.42-2.16.06-1.32-.57-3.46-.44-4.65.4Z"/>
        <path class="cls-1" d="M112.24,16.99c-.02,1.3,0,2.63-.24,3.91-.53,1.53-1.85,2.59-3.4,2.96-.4.09-1.8.32-1.91-.19,0-.38.43-.34.69-.48.87-.46,2.34-1.41,2.51-2.45.15-.92.06-3.01.02-4.02-.1-2.51-.49-5.01-.55-7.52-.01-.47-.06-1.19.2-1.59l1.98-1.67c.45-.12.66.21.7.62.21,2.3-.29,5.13,0,7.37s4.47,1.94,6.17,1.91c1.15-.02,2.92.04,3.93-.49.88-.46,1.12-1.34,1.07-2.27-.09-1.44-.19-2.9-.23-4.35-.06-2.24-.11-4.49-.06-6.74.06-.26,1.15-1.11,1.42-1.37s.51-.88,1.04-.43c.3.26.15.49.16.77.06,3.64-.05,7.46-.23,11.1-.08,1.61.08,3.22-1.41,4.33-1.95,1.46-4.93,1.09-7.23,1.07-.86-.01-1.89.08-2.72,0-.3-.03-1.83-.53-1.9-.47Z"/>
        <path class="cls-1" d="M130.45.97c.18-.18.89-.94,1.02-.96.36-.07.52.35.56.65.16,1.17-.06,2.47-.07,3.64-.03,3.41-.01,6.77-.15,10.17-.02.51.13,1.71-.19,2.06-.04.04-.83.61-.9.65-.24.13-.81.25-.91-.09l-.33-7.2c.17-2.47-.3-5.17-.08-7.61.05-.58.67-.93,1.06-1.31Z"/>
        <path class="cls-1" d="M84.59,19.57c.58-.1.96.06,1.3.53.97,1.33-.59,3.2-2.01,2.01-.96-.81-.41-2.35.71-2.54Z"/>
        <circle class="cls-1" cx="96.7" cy="21.03" r="1.42"/>
        <path class="cls-1" d="M80.78,19.65c.98-.16,1.92,1.02,1.47,1.93-.42.85-1.39,1.12-2.14.49-.9-.76-.46-2.23.67-2.42Z"/>
      </g>
    </g>
  </g>
</svg>