<?xml version="1.0" encoding="UTF-8"?>
<svg id="Layer_2" data-name="Layer 2" xmlns="http://www.w3.org/2000/svg" viewBox="0 0 152.36 45.58">
  <defs>
    <style>
      .cls-1 {
        fill: #626370;
      }
    </style>
  </defs>
  <g id="Layer_1-2" data-name="Layer 1">
    <g>
      <path class="cls-1" d="M17.19,39.34c.2-.24.39-.62,1.41-.87,0,0,34.74-11.8,80.96-9.44,0,0,2.62-.1,1.91,1.05-.42.67-1.2.72-2.68.79,0,0-.5.08-2.47.06,0,0,4.73,1.83-13.93,1.45,0,0,1.65,1.68-5.21,1.2,0,0-19.13-.87-57.8,6.14,0,0-3.04.66-2.19-.38h0Z"/>
      <path class="cls-1" d="M119.5,23.54c-1.18-.72-4.45-7.28-4.45-7.28-.75-1.14-2.05.24-2.05.24-.88.68-2.08,2.79-2.71,4.06-.83,1.42-.62-.44-.62-.44.04-.5.2-1.3.76-1.67,0,0,.43.36.92-1.31,0,0,.92-2.19-1.35-2.78,0,0-1.64-1.37-2.76,1.95,0,0-1.53,4.8-.92,7.79,0,0,.29,3.51,3.25.76.3-.27.61-.7.95-1.17.6-.94.77-1.28,1.2-2.27.73-1.7,2-3.24,2.23-3.49-.17,1.99,2.14,7.26,2.14,7.26.8,2.68,2.11,2.59,2.11,2.59,6.71.22,1.3-4.24,1.3-4.24ZM27.45,38.32c-.15-.21-.3-.42-.46-.64,0,0-.35-.52-.9-1.37-2.02-3.08-6.79-10.46-7.39-12.34,0,0-.33-.91-.79-1.43.48-.01,1.02-.02,1.64-.06,0,0,4-.07,5.68-3.16.46-.84,1.35-3.74-2.09-7.39,0,0-4.34-5.16-14.22-5.82,0,0-2.67-1.26-7.75,2.95,0,0-1.92,1.53-.84,1.89.49.16.83.15,1.28.03,0,0,8.26-2.8,18.51,3.09,0,0,4.04,2.56,1.53,5.11,0,0-1,1.11-3.55,1.51,0,0-.6.12-1.8.24,0,0-.59.05-1.41.09,0,0-1.03-.01-1.14.3-.05.18.13.26.69.52-1.07.13-1.47.28-1.72.56,0,0-.21.25-.11.52.67,1.76,3.51,8.56,9.76,14.4.51.48,1.04.95,1.59,1.41,0,0,.07.05.19.14.83.64,4.17,3.08,5,2.36.26-.23-.54-1.32-1.7-2.91ZM13.72,12.94c-.19-.36-.62-.16-1.64,1.49,0,0-8.74,14.76-10.5,21.76,0,0-1.94,4.83.66,6.57,0,0,.58.91,1.28,1.07.2,1.05.57,2.02,1.29,1.69.25-.12.29-.98.26-1.81h.01c-.01-.7.06-1.31.14-1.79.06-.2.12-.4.17-.64,0,0,.04-.15.11-.43.03-.09.05-.14.05-.14h-.02c.8-3.15,4.8-18.61,8-25.16,0,0,.74-1.6.19-2.61ZM41.46,25.08s-.02-.09-.09-.15c-.19-.14-1.13.29-2.05.85-.15.08-.29.16-.41.23-.34.21-.67.42-.8.54,0,0-.6.47-.53-.6v-.04c.01-.24.05-.54.07-.86,0,0,.82-3.28,1.17-4.19,0,0,.2-.86.5-1.85,0,0,1.4-1.45-1.16-1.92,0,0-1.23-3.01-2.55,1.73-.09-.49-.54-1.24-1.23-1.53-.14-.08-.33-.14-.6-.16-.1-.01-.17.01-.4-.02,0,0-1.23-.42-2.54,1.22-1.4,1.55-5.48,6.44-4.55,10.54,0,0,.5,2.12,2.39,2.11,0,0,2.49.03,4.38-1.76,0,0,.56-.5,1.17-1.24.02.25.06.53.13.8.01.06.03.11.04.16,0,0,.07.48.46.84.29.26.75.46,1.48.36.08-.01.15-.03.23-.06,0,0,2.64-.63,2.58-1.76-.04-.55.16-.66.16-.66,0,0,.17-.09.11-.29,0,0,2.11-1.41,2.04-2.29ZM34.25,25.92c-.07.25-.25.48-.4.72-.22.35-.43.74-.99,1.1,0,0-2.89,1.77-2.79-.73,0,0,.1-1.38.58-2.67,0,0,1.33-3.38,3.39-5.35.19-.19.35-.21.46-.06.28.39.33.84.55,1.21.06.09.12.19.19.29-.25,1.27-.88,3.67-.99,5.49ZM87.08,16.53c-.87-.54-1.85-2.57-1.09-3.53.34-.42,1.02-.79.92-1.38-.22-1.32-2.51,0-2.94,1.57-.85,2.36-3.42,3.88-3.42,3.88-.41.37-.51,1.34-.51,1.34-.08,1.74,1.04.51,1.04.51,1.59-1.24,2.73-2.12,2.73-2.12,3.02,5.53-1.59,7.02-1.59,7.02-.6.23-.75.52-.75.87.01.47.78.52.78.52,7.08.14,7.65-4.14,7.65-4.14.33-1.89-1.64-3.71-2.82-4.54ZM102.22,20.18s-.56-2.51-1.19-3.47c0,0-.56-1.12-1.26-.69,0,0-.66.3-.44,1.49,0,0-.06.04.28,1.01,0,0,.8,2.43.33,2.5,0,0-.23.03-.48.27-.15.14-.45.47-.77.69,0,0-2.24,1.51-1.74-.62,0,0,.3-1.28.62-2.07,0,0,1.25-3.51,2.63-5.39,0,0,1.35-1.61-.29-1.48-.11,0-.35.08-.47.02,0,0-.86-.74-2.1.89,0,0-4.91,7.3-4.89,9.74,0,0-.21,2.24,2.35,2.15,0,0,2.56-.15,4.41-1.67,0,0,1.18-1.18,1.87-1.31,0,0,1.67.17,1.14-2.06ZM66.5,5.5c-.88-.09-1.69.64-1.84,1.65-.09.43-.09.77-.12,1.24-.02.41-.55,1.89-.08,2.01.46.12,1.89-.77,2.58-1.29.48-.3.84-.85.91-1.52.11-1.06-.53-1.99-1.45-2.09ZM74.13,14.16c-1.14-2.44-1.94-.38-1.94-.38-.76,2.12-5.54,7.5-6.49,8.46-3.99,3.46-2.61,1.3-2.93-.25,0,0,.17-2.82.96-3.46,0,0,.42.19.74-1.52,0,0,.97-2.22-1.6-2.64,0,0-1.76-1.2-2.56,2.2,0,0-1.51,6.43.55,9.37,0,0,1.06,1.93,6.45-3.33v-.02c1.87-1.85,4.72-5.19,4.72-5.19,3.02,5.53-1.58,7.02-1.58,7.02-1.72,1.12.03,1.38.03,1.38,7.08.15,7.64-4.13,7.64-4.13.17-3.08-3.99-7.51-3.99-7.51ZM56.43,1.17s-2.3-2.9-1.91.45c0,0,.31,6.97-.84,15.66-.13-.34-.31-.69-.55-1.02,0,0-2.01-2.68-4.26-1.94,0,0-2.87.91-4.53,5.24,0,0-1.17,2.99-.84,5.25,0,0-.11,5.92,7.1,1.73,0,0,.76-.46,1.66-1.37-.18.74-.46,1.22-.49,1.99,0,0-.26,1.56.46,1.95.27.15.57-.06,1.2-1.58,0,0,5.13-13.14,5.4-18.57,0,0,1.8-2.69-2.4-7.79ZM52.91,22.06c-1.09,1.52-3.39,4.15-5.42,2.77,0,0-.53-.35-.49-1.94,0,0,.15-2.76,2.02-4.97,0,0,.52-.66.95-.74.14-.03.37.18.48,1.02.02.21-.57.25-.36.91,0,0,1,2.53,3.1,1.39-.08.52-.18,1.04-.28,1.56Z"/>
      <path class="cls-1" d="M104.61,29.3c1.41.09,3,.11,5.2.32,1.14.11,2.91.11,3.16.85.23.68-.63,1.38-2.17,1.68-.78.15-1.27.28-1.97.25-.83-.03-2.61.04-2.66-.92-.04-.6-1.2-.59-1.98-.62-1.55-.06-1.4-.5-1.06-1.03.2-.32.63-.53,1.48-.53h0Z"/>
      <g>
        <path class="cls-1" d="M133.18,20.02c-.14-.1-.39-.13-.77-.13h-3.98v1.72h4.1c.71,0,.85-.23.85-.62v-.43c0-.27-.05-.44-.2-.54ZM133.12,17.61c-.11-.28-.55-.3-.64-.3h-4.05v1.55h4.01c.07,0,.14,0,.2,0,.45-.06.51-.31.51-.54v-.55c0-.06-.01-.11-.03-.15ZM133.18,20.02c-.14-.1-.39-.13-.77-.13h-3.98v1.72h4.1c.71,0,.85-.23.85-.62v-.43c0-.27-.05-.44-.2-.54ZM132.64,18.85c.45-.06.51-.31.51-.54v-.55c0-.06-.01-.11-.03-.15-.11-.28-.55-.3-.64-.3h-4.05v1.55h4.01c.07,0,.14,0,.2,0ZM137.12,18.78v2.83h1.16c.06-.23.1-.46.12-.68.14-1.18-.45-1.82-1.28-2.15ZM151.54,4.97h-25.63c-.45,0-.81.37-.81.82v25.62c0,.45.37.82.82.82h25.62c.45,0,.82-.37.82-.82V5.78c0-.45-.37-.82-.82-.81ZM135.94,22.64v-6.35h1.18v5.32h4.64v.58c-.08.15-.17.3-.27.45h-5.55ZM127.26,16.29h5.29c.41,0,.73.07.97.19.68.29.8.91.8,1.32v.52s0,.07-.01.1c-.03.36-.22.64-.51.81.5.2.75.61.75,1.24v.71c0,.89-.75,1.46-1.92,1.46h-5.37v-6.35ZM150.16,20.95c0,.87-.31,1.32-.87,1.54-.11.06-.24.09-.38.12-.3.07-.66.09-1.06.09h-2.85c-.32,0-.61-.02-.86-.07-.43-.07-.77-.22-1.01-.48-.11-.14-.2-.3-.26-.5-.06-.19-.09-.43-.09-.7v-4.66h1.17v4.65c0,.25.03.46.23.59.16.1.43.15.88.15h2.82c.23,0,.41,0,.56-.04.5-.1.55-.35.55-.7v-4.65h1.17v4.66ZM132.64,18.85c.45-.06.51-.31.51-.54v-.55c0-.06-.01-.11-.03-.15-.11-.28-.55-.3-.64-.3h-4.05v1.55h4.01c.07,0,.14,0,.2,0ZM132.53,21.61c.71,0,.85-.23.85-.62v-.43c0-.27-.05-.44-.2-.54-.14-.1-.39-.13-.77-.13h-3.98v1.72h4.1ZM133.12,17.61c-.11-.28-.55-.3-.64-.3h-4.05v1.55h4.01c.07,0,.14,0,.2,0,.45-.06.51-.31.51-.54v-.55c0-.06-.01-.11-.03-.15ZM133.18,20.02c-.14-.1-.39-.13-.77-.13h-3.98v1.72h4.1c.71,0,.85-.23.85-.62v-.43c0-.27-.05-.44-.2-.54ZM133.12,17.61c-.11-.28-.55-.3-.64-.3h-4.05v1.55h4.01c.07,0,.14,0,.2,0,.45-.06.51-.31.51-.54v-.55c0-.06-.01-.11-.03-.15ZM133.18,20.02c-.14-.1-.39-.13-.77-.13h-3.98v1.72h4.1c.71,0,.85-.23.85-.62v-.43c0-.27-.05-.44-.2-.54Z"/>
        <path class="cls-1" d="M136.59,10.48c-1.1-.78-2.59.15-3.51.84-.99.74-2.08,1.89-2.67,3.08-.15.3.05.52.36.14.66-1.06,1.55-1.9,2.35-2.54.72-.59,1.99-1.38,2.93-.89,1.15.61.22,2.58-.2,3.31-.42.73-.92,1.39-1.42,2.06.17-.61.31-1.23.41-1.86.08-.55-.64-.63-.76-.11-.15.67-.34,1.33-.56,1.97.68.29.8.91.8,1.32v.52s0,.07-.01.1c.48-.02,1.06-.01,1.63.06v-.95c-.4-.04-.8-.05-1.18-.05.7-1.01,1.44-1.97,2.01-3.09.6-1.17,1.07-3.02-.18-3.91ZM143.33,11.44c-1.44,2.11-2.03,3.17-3.14,5.62-.3.64-.7,1.47-1.07,2.47-.06-.16-.14-.31-.23-.46-.4-.68-1.04-1.08-1.77-1.3v1.01c.83.33,1.42.97,1.28,2.15-.02.22-.06.45-.12.68h1.13c.01-.07.03-.15.05-.22.83-3.33,2.17-6.05,4.2-9.61.18-.3-.13-.63-.33-.34ZM148.91,22.61c.13.07.28.01.38-.12-.11.06-.24.09-.38.12ZM148.99,20.11c-.11-.78-.16-1.57-.26-2.39-.06-.45-.51-.51-.68-.17-.68,1.39-1.35,2.9-2.21,4.13h1.05c.46-.85.86-1.76,1.21-2.53.05.77.13,1.68.34,2.49.5-.1.55-.35.55-.7v-.83ZM144.83,22.88c-.44.42-.63.22-.69-.25-.43-.07-.77-.22-1.01-.48-.02,1.14.21,2.07.93,2.18.8.12,1.55-.6,2.22-1.63h-1.28c-.05.06-.11.12-.17.18ZM144.18,21.53c.08-.82.27-1.71.32-1.99.18-.93.45-1.87.49-2.85.03-.61-.6-.72-.75-.19-.09.31-.18.62-.29.93v3.51c0,.25.03.46.23.59ZM142.78,20.2c-.17.37-.35.73-.53,1.08-.15.31-.32.61-.49.91-.08.15-.17.3-.27.45-.25.4-.52.79-.8,1.15-.23.31-.69.8-1.05.52-.06-.05-.13-.12-.18-.23-.21-.38-.24-.93-.21-1.44h-1.32c-.23.53-.54,1.02-.9,1.38-.54.55-.98,1.02-2.07,1.66-1.48.85-6.85,2.5-6.74-.97.01-.21.05-.41.08-.62.09-.58-.05-.88-.27-.38-.61,1.35-.37,2.94,1,3.62,1.35.66,3.02.34,4.39-.05,1.51-.43,2.8-1.15,3.99-2.31.36-.35.69-.79.97-1.26.02.16.05.32.09.48.03.12.07.24.12.35.26.61.57.94.9,1.04.14.04.27.04.4.03.04,0,.09-.02.12-.03.42-.1.87-.6,1.05-.82l.18-.21c.6-.7,1.12-1.78,1.63-2.9-.06-.19-.09-.43-.09-.7v-.75ZM133.12,17.61c-.15.42-.31.83-.48,1.24.45-.06.51-.31.51-.54v-.55c0-.06-.01-.11-.03-.15ZM132.41,19.89h-.2c-.25.57-.5,1.14-.73,1.72h1.05c.21-.53.42-1.04.65-1.59-.14-.1-.39-.13-.77-.13ZM131.04,22.64c-.26.61-.53,1.28-.55,1.91-.02.46.2.6.48.2.41-.57.82-1.4,1.13-2.11h-1.06Z"/>
        <path class="cls-1" d="M141.49,22.64h.27v-.45c-.08.15-.17.3-.27.45Z"/>
      </g>
    </g>
  </g>
</svg>