<?xml version="1.0" encoding="UTF-8"?>
<svg id="Layer_2" data-name="Layer 2" xmlns="http://www.w3.org/2000/svg" viewBox="0 0 194.58 43.71">
  <defs>
    <style>
      .cls-1 {
        fill: #626370;
      }
    </style>
  </defs>
  <g id="Layer_1-2" data-name="Layer 1">
    <g>
      <polygon class="cls-1" points="3.45 40.68 1.38 40.68 1.38 38.71 .35 38.71 .35 43.63 1.38 43.63 1.38 41.64 3.45 41.64 3.45 43.63 4.49 43.63 4.49 38.71 3.45 38.71 3.45 40.68"/>
      <path class="cls-1" d="M8.94,38.63c-1.51,0-2.62,1.15-2.62,2.54h0c0,1.41,1.09,2.54,2.6,2.54s2.62-1.16,2.62-2.54h0c0-1.41-1.09-2.54-2.6-2.54ZM10.46,41.19c0,.87-.62,1.58-1.51,1.58s-1.53-.72-1.53-1.59h0c0-.88.62-1.59,1.52-1.59s1.53.72,1.53,1.59h0Z"/>
      <polygon class="cls-1" points="14.43 38.71 13.39 38.71 13.39 43.63 16.91 43.63 16.91 42.69 14.43 42.69 14.43 38.71"/>
      <path class="cls-1" d="M20.51,38.71h-1.9v4.92h1.9c1.54,0,2.62-1.07,2.62-2.46h0c0-1.4-1.08-2.46-2.62-2.46ZM22.03,41.19c0,.89-.61,1.51-1.53,1.51h-.87v-3.04h.87c.91,0,1.53.63,1.53,1.52h0Z"/>
      <rect class="cls-1" x="25.01" y="38.71" width="1.04" height="4.92"/>
      <polygon class="cls-1" points="31.5 41.81 29.13 38.71 28.17 38.71 28.17 43.63 29.19 43.63 29.19 40.43 31.64 43.63 32.53 43.63 32.53 38.71 31.5 38.71 31.5 41.81"/>
      <path class="cls-1" d="M36.92,41.71h1.12v.75c-.29.21-.64.31-1.06.31-.9,0-1.53-.68-1.53-1.6h0c0-.87.64-1.59,1.45-1.59.57,0,.93.19,1.3.51l.66-.79c-.52-.43-1.04-.67-1.93-.67-1.49,0-2.57,1.15-2.57,2.54h0c0,1.47,1.05,2.54,2.58,2.54.9,0,1.58-.35,2.09-.78v-2.12h-2.13v.9Z"/>
      <path class="cls-1" d="M55.41,4.78c.75,0,1.37-.61,1.37-1.37s-.61-1.37-1.37-1.37-1.37.61-1.37,1.37.61,1.37,1.37,1.37ZM55.41,2.65c.42,0,.76.34.76.76s-.34.76-.76.76-.76-.34-.76-.76.34-.76.76-.76Z"/>
      <path class="cls-1" d="M62.07,14.55c-.75,0-1.37.61-1.37,1.37s.61,1.37,1.37,1.37,1.37-.61,1.37-1.37-.61-1.37-1.37-1.37ZM62.07,16.68c-.42,0-.76-.34-.76-.76s.34-.76.76-.76.76.34.76.76-.34.76-.76.76Z"/>
      <path class="cls-1" d="M37.54,4.78c.75,0,1.37-.61,1.37-1.37s-.61-1.37-1.37-1.37-1.37.61-1.37,1.37.61,1.37,1.37,1.37ZM37.54,2.65c.42,0,.76.34.76.76s-.34.76-.76.76-.76-.34-.76-.76.34-.76.76-.76Z"/>
      <path class="cls-1" d="M53.21,12.39l-1.52-4.48c.28-.42,1.41-1.88,3.72-1.91,2.32.03,3.45,1.49,3.72,1.91l-1.52,4.48h6.4c.46,0,.81-.16,1.06-.47.23-.29.34-.67.34-1.14v-3.91h-.6v3.91c0,.33-.07.59-.21.77-.08.1-.23.24-.58.24h-5.56l1.34-3.94-.06-.12c-.05-.09-1.3-2.29-4.32-2.33-3.01.04-4.26,2.24-4.31,2.33l-.07.12,1.34,3.94h-5.03V0h-.6v11.74s0,.03,0,.05h-1.48V2.85h-.6v8.94h-3.43v-2.37c0-.6-.08-1.15-.23-1.63-.16-.49-.39-.92-.7-1.28-.31-.36-.7-.64-1.16-.83-.45-.19-.97-.28-1.54-.28h-.44s0,.01,0,.01c-.44.03-.85.12-1.21.28-.46.19-.84.47-1.15.82-.31.35-.54.78-.7,1.28-.15.49-.23,1.04-.23,1.64s.08,1.49.23,1.96c.04.14.09.27.15.4H0v.6h31.11v.78H2.09v.6h29.02v10.34h-1.49v-4.83h-.6v11.82h1.08s2.66,0,2.66,0c.57,0,1.09-.09,1.54-.28.46-.19.85-.47,1.16-.83.3-.36.54-.78.7-1.28.15-.48.23-1.35.23-1.96s-.08-1.15-.23-1.64c-.16-.5-.39-.93-.7-1.28-.31-.35-.7-.63-1.15-.82-.42-.18-.91-.28-1.44-.29v.6c.44,0,.85.09,1.21.24.37.16.69.38.94.67.25.29.44.65.58,1.07.13.43.2.92.2,1.46s-.07,1.36-.2,1.78c-.13.41-.33.77-.58,1.07-.25.29-.56.51-.93.66-.38.16-.82.24-1.31.24h-2.03s-1.1,0-1.1,0v-5.78h1.49v5h1.64c.5,0,.9-.19,1.17-.56.24-.34.37-.79.37-1.35v-1.81c0-.55-.13-1.01-.37-1.34-.27-.37-.66-.55-1.16-.55h-1.04v-10.34h5.13v-.6h-5.13v-.78h3.57l-.28-.46c-.13-.21-.24-.46-.33-.72-.13-.41-.2-1.23-.2-1.78s.07-1.03.2-1.46c.13-.42.33-.78.58-1.07.25-.28.56-.51.93-.67.35-.15.76-.23,1.22-.24h.2c.49,0,.93.08,1.31.23.37.15.68.38.93.66.25.29.45.65.58,1.07.13.42.2.91.2,1.45v2.37h-1.48v-3.1c0-.55-.13-1.01-.37-1.35-.26-.37-.67-.56-1.17-.56h-.11c-.51,0-.9.18-1.16.55-.25.34-.37.79-.37,1.34v1.81c0,.55.13,1.01.37,1.35.26.37.67.56,1.17.56h1.04v1.38h6.74c.69,0,1.22-.18,1.56-.54.21-.22.36-.51.44-.85h5.94ZM32.75,24.72c.31,0,.53.1.68.3.17.23.25.56.25.99v1.81c0,.42-.09.76-.25.99-.15.21-.37.31-.68.31h-1.04v-4.4h1.04ZM38.52,11.79h-1.04c-.31,0-.53-.1-.68-.31-.17-.24-.25-.57-.25-1v-1.81c0-.42.09-.75.25-.99.15-.21.37-.3.68-.3h.11c.31,0,.53.1.68.31.17.24.25.57.25.99v3.1ZM46.39,12.82c-.23.23-.6.35-1.13.35h-6.14v-.78h7.52c-.06.17-.14.32-.25.43Z"/>
      <path class="cls-1" d="M66.89,10.17c0,.47-.06.9-.18,1.28-.11.36-.29.68-.51.93-.22.25-.49.45-.81.58-.33.14-.72.21-1.15.21h-8.62s-1.76-5.01-1.76-5.01c.5-.35,1.02-.54,1.55-.55.53.01,1.05.2,1.55.55l-1.28,3.83.57.19,1.41-4.23-.17-.13c-.66-.52-1.36-.79-2.08-.81h-.01c-.72.02-1.42.29-2.08.81l-.17.13,1.83,5.21h-6.77s0,.6,0,.6h16.02c.51.01.97-.07,1.38-.24.41-.17.76-.42,1.04-.75.27-.32.49-.7.63-1.15.14-.43.21-.92.21-1.46v-1.97h-.6v1.97Z"/>
      <polygon class="cls-1" points="64.67 31.1 65.28 31.1 65.28 19.89 66.76 19.89 66.76 31.1 67.36 31.1 67.36 19.29 64.67 19.29 64.67 31.1"/>
      <path class="cls-1" d="M44.35,23.84c-.31-.36-.7-.64-1.16-.83-.45-.18-.97-.28-1.54-.28h-.44s0,.01,0,.01c-.44.03-.85.12-1.21.28-.46.19-.84.47-1.15.82-.31.35-.54.78-.7,1.28-.16.49-.23,1.04-.23,1.64s.08,1.48.23,1.96c.16.49.39.92.7,1.28.31.36.7.64,1.16.83.45.19.97.28,1.54.28v-.6c-.49,0-.93-.08-1.31-.23-.37-.15-.68-.38-.93-.66-.25-.29-.45-.65-.58-1.07-.13-.42-.2-1.23-.2-1.78s.07-1.03.2-1.46c.13-.42.33-.78.58-1.07.25-.28.56-.51.93-.67.35-.15.76-.23,1.22-.24h.2c.49,0,.93.08,1.31.23.37.15.68.38.93.67.25.29.45.65.58,1.07.13.42.2.91.2,1.45v2.38h-1.49v-3.1c0-.55-.12-1.01-.37-1.35-.26-.37-.67-.56-1.17-.56h-.11c-.51,0-.9.18-1.17.55-.24.34-.37.79-.37,1.34v1.81c0,.56.13,1.01.37,1.35.26.37.67.56,1.17.56h1.04v1.39h.6v-1.39h1.49v1.38h.6v-4.36c0-.6-.08-1.15-.23-1.63-.16-.49-.39-.92-.7-1.28ZM42.59,29.12h-1.04c-.31,0-.53-.1-.68-.31-.17-.24-.25-.57-.25-1v-1.81c0-.42.08-.76.25-.99.15-.21.37-.3.68-.3h.11c.31,0,.53.1.68.31.17.24.26.57.26,1v3.1Z"/>
      <path class="cls-1" d="M53.27,23.84c-.31-.36-.7-.64-1.16-.83-.45-.19-.97-.28-1.54-.28h-.44s0,.01,0,.01c-.44.03-.85.12-1.21.28-.46.19-.84.47-1.15.82-.3.35-.54.78-.7,1.28-.15.49-.23,1.04-.23,1.64,0,.42.04.97.11,1.42.03.21.07.4.12.55.16.49.39.92.7,1.28.31.36.7.64,1.15.83.45.19.97.28,1.54.28h0s0,0,0,0v-.6c-.49,0-.93-.08-1.31-.23-.37-.15-.68-.38-.93-.66-.25-.29-.45-.65-.58-1.07-.09-.29-.15-.76-.18-1.21-.01-.2-.02-.4-.02-.57,0-.53.07-1.02.2-1.45.13-.42.33-.78.58-1.07.25-.28.56-.51.93-.67.35-.15.76-.23,1.22-.24h.2c.49,0,.93.08,1.31.23.37.15.68.38.93.66.25.29.45.65.58,1.07.13.42.2.91.2,1.45v2.37h-1.48v-3.1c0-.55-.13-1.01-.37-1.35-.26-.37-.67-.56-1.17-.56h-.11c-.51,0-.9.18-1.16.55-.18.25-.3.57-.35.95-.01.13-.02.26-.02.4v1.81c0,.55.12,1.01.37,1.35.26.37.67.56,1.17.56h1.04v2.42c0,.33-.07.59-.21.77-.02.02-.04.05-.07.07,0,0-.01.01-.02.01,0,0-.02.01-.03.02-.01,0-.02.02-.04.03,0,0-.01,0-.02.01-.02,0-.03.02-.05.02,0,0-.01,0-.02,0-.02,0-.04.01-.05.02,0,0-.02,0-.03,0-.02,0-.04,0-.06.01-.01,0-.02,0-.04,0-.02,0-.04,0-.06,0,0,0-.02,0-.04,0-.02,0-.04,0-.06,0h-1.13v.6h1.13c.06,0,.11,0,.17,0,.38-.04.68-.19.89-.47.23-.29.34-.67.34-1.14v-2.42s1.47,0,1.47,0v1.82c0,.47-.06.9-.18,1.28-.12.36-.29.68-.51.93-.22.25-.49.45-.81.58-.33.14-.72.21-1.15.21v.6h0c.51,0,.97-.08,1.38-.25.41-.17.76-.42,1.04-.74.27-.32.49-.71.62-1.15.14-.43.21-.92.21-1.46v-4.8c0-.6-.08-1.15-.23-1.63-.16-.49-.39-.92-.7-1.28ZM50.47,29.12c-.31,0-.53-.1-.68-.31-.17-.24-.26-.57-.26-1v-1.81c0-.16.01-.3.04-.44.04-.22.11-.4.22-.54.15-.21.37-.3.68-.3h.11c.31,0,.53.1.68.31.17.24.25.57.25.99v3.09s-1.04,0-1.04,0Z"/>
      <path class="cls-1" d="M83.12,19.57c-.4-.17-.9-.27-1.44-.28h-.21c-.57,0-1.09.09-1.54.28-.46.19-.85.47-1.16.83-.3.35-.54.78-.7,1.28-.15.48-.23,1.03-.23,1.63v12.22h.6v-8.55h1.49v4.14h.6v-4.13h3.81s0-1.97,0-1.97h-3.81v-2.42c0-.42.09-.76.26-1,.15-.21.37-.31.68-.31h.11c.16,0,.3.03.41.08.11.05.2.12.27.23.17.23.25.56.25.98h.6c0-.55-.13-1.01-.37-1.34-.13-.18-.3-.33-.5-.42-.19-.09-.42-.14-.66-.14h-.11c-.5,0-.9.19-1.17.56-.24.34-.37.79-.37,1.35v3.79h-1.49v-3.07c0-.54.07-1.02.2-1.45.13-.41.33-.77.58-1.07.25-.29.56-.51.93-.66.38-.16.82-.24,1.31-.24h.16c.47.01.92.1,1.26.24.37.16.69.38.93.67.25.29.45.65.58,1.07l.58-.18c-.16-.5-.39-.93-.7-1.28-.31-.36-.7-.63-1.15-.83ZM80.54,25.6h3.21v.77h-3.21v-.77Z"/>
      <path class="cls-1" d="M75.36,23.84c-.31-.36-.7-.64-1.16-.83-.45-.18-.97-.28-1.54-.28h-.44s0,.01,0,.01c-.44.03-.85.12-1.21.28-.46.19-.84.47-1.15.82-.31.35-.54.78-.7,1.28-.16.49-.23,1.04-.23,1.64s.08,1.48.23,1.96c.16.49.39.92.7,1.28.31.36.7.64,1.16.83.45.19.97.28,1.54.28v-.6c-.49,0-.93-.08-1.31-.23-.37-.15-.68-.38-.93-.66-.25-.29-.45-.65-.58-1.07-.13-.42-.2-1.23-.2-1.78s.07-1.03.2-1.46c.13-.42.33-.78.58-1.07.25-.29.56-.51.93-.67.35-.15.76-.23,1.22-.24h.2c.49,0,.93.08,1.31.23.37.15.68.38.93.67.25.29.45.65.58,1.07.13.42.2.91.2,1.45v2.38h-1.49v-3.1c0-.55-.12-1.01-.37-1.35-.26-.37-.67-.56-1.17-.56h-.11c-.51,0-.9.18-1.17.55-.24.34-.37.79-.37,1.34v1.81c0,.56.12,1.01.37,1.35.26.37.67.56,1.17.56h1.04v1.39h.6v-1.39h1.49v1.38h.6v-4.36c0-.6-.08-1.15-.23-1.63-.16-.49-.39-.92-.7-1.28ZM73.59,29.12h-1.04c-.31,0-.53-.1-.68-.31-.17-.24-.25-.57-.25-1v-1.81c0-.42.08-.76.25-.99.15-.21.37-.3.68-.3h.11c.31,0,.53.1.68.31.17.24.26.57.26,1v3.1Z"/>
      <path class="cls-1" d="M62.18,23.85c-.31-.36-.7-.64-1.15-.83-.45-.19-.97-.28-1.54-.28h-.45s0,.01,0,.01c-.21.01-.4.04-.59.09v-3.57h-2.69v11.84h.6v-4.34c0-.54.07-1.02.2-1.45.13-.42.33-.78.58-1.07.2-.22.43-.41.71-.55v7.42h.6v-5.09c0-.42.09-.75.25-.99.15-.21.37-.3.68-.3h.11c.31,0,.53.1.68.31.17.24.25.57.25.99v5.08h2.69v-4.36c0-.6-.08-1.15-.23-1.63-.15-.49-.39-.92-.7-1.28ZM57.85,23.03s0,0,0,0c-.46.19-.84.47-1.15.82-.12.14-.23.29-.33.45v-4.43h1.49v3.15ZM62.51,30.51h-1.48v-4.48c0-.55-.12-1.01-.37-1.35-.26-.37-.67-.56-1.17-.56h-.11c-.38,0-.69.1-.93.3v-.97c.26-.07.54-.11.85-.11h.2c.49,0,.93.08,1.31.23.37.15.68.38.93.67.25.29.44.65.58,1.07.13.42.2.91.2,1.45v3.76Z"/>
      <path class="cls-1" d="M7.12,30.38c.15-.48.23-1.03.23-1.63v-9.46h-2.69s0,10.18,0,10.18c0,.43-.09.76-.26,1-.15.21-.37.31-.68.31h-.11c-.31,0-.53-.1-.68-.3-.17-.23-.25-.56-.25-.99v-1.81h-.6v1.81c0,.55.13,1.01.37,1.34.27.37.66.55,1.16.55h.11c.5,0,.9-.19,1.17-.56.24-.34.37-.79.37-1.35v-9.59h1.49v8.87c0,.54-.07,1.02-.2,1.45-.13.41-.33.77-.58,1.07-.25.29-.56.51-.93.67-.38.16-.82.23-1.31.23h-.2c-.46-.01-.87-.09-1.22-.24-.37-.16-.69-.38-.94-.67-.25-.29-.44-.64-.58-1.07-.13-.43-.2-.92-.2-1.46v-.31h-.6v.31c0,.6.08,1.15.23,1.64.16.5.39.93.7,1.28.31.35.7.63,1.15.82.36.15.76.24,1.2.27h0s.45.01.45.01c.57,0,1.09-.1,1.54-.28.46-.19.85-.47,1.16-.83.3-.36.54-.78.7-1.28Z"/>
      <path class="cls-1" d="M10.31,27.25c-.75,0-1.37.61-1.37,1.37s.61,1.37,1.37,1.37,1.37-.61,1.37-1.37-.61-1.37-1.37-1.37ZM10.31,29.38c-.42,0-.76-.34-.76-.76s.34-.76.76-.76.76.34.76.76-.34.76-.76.76Z"/>
      <path class="cls-1" d="M25.29,27.25c-.75,0-1.37.61-1.37,1.37s.61,1.37,1.37,1.37,1.37-.61,1.37-1.37-.61-1.37-1.37-1.37ZM25.29,29.38c-.42,0-.76-.34-.76-.76s.34-.76.76-.76.76.34.76.76-.34.76-.76.76Z"/>
      <path class="cls-1" d="M130.02,23.84c-.31-.36-.7-.63-1.15-.83-.36-.15-.77-.24-1.21-.27h0s-.44-.01-.44-.01c-.57,0-1.09.09-1.54.28-.46.19-.85.47-1.16.83-.3.36-.54.78-.7,1.28-.15.48-.23,1.03-.23,1.63v8.4h.61v-5.42h1.48v5.42s.61,0,.61,0v-5.42h1.04c.5,0,.9-.19,1.16-.56.24-.34.37-.79.37-1.35v-1.8c0-.14,0-.27-.02-.4-.04-.38-.16-.7-.35-.95-.27-.36-.66-.55-1.17-.55h-.11c-.5,0-.9.19-1.17.56-.24.34-.37.79-.37,1.35v3.1h-1.48v-2.37c0-.54.07-1.02.2-1.45.13-.41.33-.77.58-1.07.25-.29.56-.51.93-.67.38-.16.82-.23,1.31-.23h.2c.46.01.87.09,1.22.24.37.16.69.38.93.67.25.29.45.64.58,1.06.13.43.2.92.2,1.45,0,.17,0,.37-.02.57-.03.45-.09.92-.18,1.2-.13.42-.33.77-.58,1.07-.25.29-.56.51-.93.67-.38.16-.82.23-1.31.23v.6h0c.57,0,1.09-.09,1.54-.28.46-.19.85-.47,1.16-.83.3-.36.54-.78.7-1.28.05-.15.09-.34.12-.55.07-.45.11-1,.11-1.42,0-.6-.08-1.15-.23-1.64-.16-.5-.39-.93-.7-1.28ZM126.28,26.03c0-.42.09-.76.25-.99.15-.21.37-.31.68-.31h.11c.31,0,.53.1.68.3.1.14.18.33.21.54.02.13.04.28.04.43v1.81c0,.42-.08.76-.25,1-.15.21-.37.31-.68.31h-1.04v-3.09Z"/>
      <path class="cls-1" d="M100.75,23.02c-.46.19-.85.47-1.15.83-.31.36-.54.78-.7,1.28-.16.48-.23,1.03-.23,1.63v4.36h2.69v-5.08c0-.42.09-.76.25-.99.15-.21.37-.31.68-.31h1.91v-.6h-1.91c-.5,0-.9.19-1.17.56-.24.34-.37.79-.37,1.35v4.48h-1.48v-3.76c0-.54.07-1.02.2-1.45.13-.41.33-.77.58-1.07.25-.29.56-.51.93-.66.38-.16.82-.24,1.31-.24h1.91s0-.6,0-.6h-1.91c-.57,0-1.09.1-1.54.28Z"/>
      <path class="cls-1" d="M112.19,23.84c-.31-.36-.7-.64-1.16-.83-.45-.19-.97-.28-1.54-.28h-.44s0,.01,0,.01c-.44.03-.85.12-1.21.28-.46.19-.85.47-1.15.82-.31.35-.54.78-.7,1.28-.15.48-.23,1.01-.23,1.59v.63c0,.59.08,1.13.23,1.6.16.49.39.92.7,1.28.31.36.7.64,1.16.83.45.19.97.28,1.54.28h.44s0-.01,0-.01c.44-.03.85-.12,1.21-.28.46-.19.84-.47,1.15-.82.31-.35.54-.78.7-1.28.15-.48.22-1.01.23-1.59v-.63c0-.59-.08-1.13-.23-1.6-.16-.49-.39-.92-.7-1.28ZM112.5,27.35c0,.52-.06.98-.19,1.4-.13.42-.33.78-.58,1.07-.25.28-.56.51-.93.67-.35.15-.76.23-1.22.24h-.2c-.49,0-.93-.08-1.31-.23-.37-.15-.68-.38-.93-.66-.25-.29-.45-.65-.58-1.07-.13-.39-.19-.84-.2-1.32v-.68c0-.52.06-1.02.19-1.44.13-.42.32-.78.58-1.06.25-.29.56-.51.93-.67.35-.15.76-.23,1.22-.24h.2c.49,0,.93.08,1.31.23.37.15.68.38.93.66.25.29.45.65.58,1.07.13.41.2.9.2,1.42v.63Z"/>
      <path class="cls-1" d="M111.02,26.57v-.54c0-.55-.12-1.01-.37-1.35-.26-.37-.67-.56-1.17-.56h-.11c-.51,0-.9.18-1.17.55-.18.25-.3.57-.35.95-.01.13-.02.26-.02.4v1.62h0v.4c0,.55.12,1.01.37,1.35.26.37.67.56,1.17.56h.11c.51,0,.9-.19,1.16-.55.19-.25.3-.57.35-.95.02-.13.02-.26.02-.4v-.7h0v-.78ZM110.42,28.06c0,.16-.01.3-.04.44-.04.22-.11.4-.22.54-.15.21-.37.3-.68.3h-.11c-.31,0-.53-.1-.68-.31-.17-.24-.25-.57-.25-1v-.68h0v-.63h0v-.71c0-.16.01-.3.03-.44.04-.22.11-.4.22-.54.15-.21.37-.3.68-.3h.11c.31,0,.53.1.68.31.17.24.26.57.26,1v1.61h0v.42Z"/>
      <path class="cls-1" d="M121.41,27.35c0,.52-.06.98-.19,1.4-.13.42-.33.78-.58,1.07-.25.28-.56.51-.93.67-.35.15-.76.23-1.22.24h-.2c-.49,0-.93-.08-1.31-.23-.37-.15-.68-.38-.93-.66-.25-.29-.45-.65-.58-1.07-.13-.39-.19-.84-.2-1.32v-4.1h1.47v4.71c0,.55.13,1.01.37,1.35.26.37.67.56,1.17.56h.11c.51,0,.9-.19,1.16-.55.19-.25.3-.57.35-.95.01-.13.02-.26.02-.4v-5.31h-.61v4.9h0v.42c0,.16-.01.3-.04.44-.04.22-.11.4-.21.54-.15.21-.37.3-.68.3h-.11c-.31,0-.53-.1-.68-.31-.17-.24-.25-.57-.25-1v-.68h0v-4.61h-.36s-2.11-.01-2.11-.01h0s-.22.01-.22.01v4.61c0,.59.08,1.13.23,1.6.16.49.39.92.7,1.28.31.36.7.64,1.16.83.45.19.97.28,1.54.28h.44s0-.01,0-.01c.44-.03.85-.12,1.21-.28.46-.19.84-.47,1.15-.82.31-.35.54-.78.7-1.28.15-.48.22-1.01.23-1.59v-4.61h-.61v4.61Z"/>
      <path class="cls-1" d="M96.15,19.74c-.31-.35-.7-.63-1.15-.82-.36-.15-.77-.25-1.21-.28h0s-1.43-.01-1.43-.01c-.57,0-1.09.1-1.54.28-.46.19-.85.47-1.16.83-.3.35-.54.78-.7,1.28-.15.48-.23,1.03-.23,1.63v4.69c0,.6.08,1.15.23,1.64.16.5.39.93.7,1.28.31.35.7.63,1.15.82.36.15.77.24,1.21.28h0s1.43.01,1.43.01c.57,0,1.09-.09,1.54-.28.46-.19.85-.47,1.16-.83.31-.36.54-.78.7-1.28.16-.48.23-1.03.23-1.63v-2.58h-3.9v.6h3.3v1.97c0,.54-.07,1.02-.2,1.45-.13.41-.33.77-.58,1.07-.25.29-.56.51-.93.67-.38.16-.82.24-1.31.24h-1.19c-.46-.01-.87-.09-1.22-.24-.37-.16-.69-.38-.93-.67-.25-.29-.45-.65-.58-1.07-.12-.37-.18-.78-.2-1.24h0v-4.91c0-.54.07-1.02.2-1.45.13-.42.33-.77.58-1.07.25-.29.56-.51.93-.67.38-.16.82-.23,1.31-.23h1.19c.46.01.87.09,1.22.24.37.16.69.38.93.67.25.29.45.65.58,1.07.12.37.18.78.2,1.24l-1.48.47v-1c0-.55-.13-1.01-.37-1.34-.27-.36-.66-.55-1.17-.55h-1.1c-.5,0-.9.19-1.17.56-.24.34-.37.79-.37,1.35v6.16c0,.55.13,1.01.37,1.34.27.36.66.55,1.17.55h1.1c.5,0,.9-.19,1.17-.56.24-.34.37-.79.37-1.35v-1.91h-1.81v.6h1.21v1.31c0,.42-.08.76-.25.99-.15.21-.37.31-.68.31h-1.1c-.31,0-.53-.1-.68-.3-.17-.23-.25-.56-.25-.99v-6.16c0-.42.09-.76.25-1,.15-.21.37-.31.68-.31h1.1c.31,0,.53.1.68.3.17.23.25.56.25.99v1.81l2.69-.84v-.22c0-.6-.08-1.15-.23-1.64-.16-.5-.39-.93-.7-1.28Z"/>
      <path class="cls-1" d="M149.97,11.79v-3.1c0-.42.09-.76.26-1,.15-.21.37-.31.68-.31h.11c.31,0,.53.1.68.3.17.23.25.56.25.99v1.82l2.69-.84v-.22c0-.6-.08-1.15-.23-1.64-.16-.5-.39-.93-.7-1.28-.31-.35-.7-.63-1.15-.82-.36-.15-.77-.24-1.21-.28h0s-.44-.01-.44-.01c-.57,0-1.09.09-1.54.28-.46.19-.85.47-1.16.83-.31.36-.54.78-.7,1.28-.15.48-.23,1.03-.23,1.63v2.37h-2.73v-2.51c0-.58-.08-1.11-.23-1.58-.16-.47-.39-.89-.7-1.24-.31-.35-.7-.61-1.16-.8-.45-.18-.97-.27-1.53-.27h-.45s0,.01,0,.01c-.43.03-.84.12-1.19.27-.46.19-.84.45-1.15.79-.31.34-.54.75-.7,1.24-.15.47-.23,1-.23,1.58s.08,1.44.23,1.9c.07.21.16.41.26.6,0,0,.22.42.44.63.33.33.7.61,1.16.8.45.18.96.27,1.53.27v-.6c-.49,0-.93-.08-1.31-.22-.37-.15-.68-.36-.93-.64-.25-.28-.44-.62-.58-1.02-.13-.4-.2-1.18-.2-1.71s.07-.98.2-1.39c.13-.4.33-.75.57-1.02.25-.27.57-.49.94-.64.35-.14.76-.22,1.22-.23h.2c.49,0,.93.08,1.31.23.37.15.68.36.93.64.25.28.44.62.58,1.02.13.41.2.87.2,1.39v2.51h-1.49v-3.21c0-.54-.12-.98-.37-1.31-.27-.36-.66-.54-1.16-.54h-.11c-.5,0-.9.18-1.16.53-.25.33-.37.77-.37,1.3v1.98c0,.54.12.98.37,1.31.27.36.66.54,1.16.54h1.07c.15.79.84,1.39,1.67,1.39h2.66v-.61h-2.66c-.5,0-.92-.33-1.05-.78h4.77v1.39h7.45v-.6h-6.85v-.78h6.85v-.6h-4.76ZM141.86,11.79h-1.04c-.31,0-.53-.1-.68-.3-.17-.22-.25-.55-.25-.95v-1.98c0-.4.09-.72.25-.94.15-.2.37-.29.68-.29h.11c.31,0,.53.1.68.29.17.23.25.55.25.95v3.21ZM149.73,7.34c-.24.34-.37.79-.37,1.35v3.1h-1.49v-2.37c0-.54.07-1.02.2-1.45.13-.41.33-.77.58-1.07.25-.29.56-.51.93-.66.38-.16.82-.24,1.31-.24h.2c.46.01.87.09,1.22.24.37.16.69.38.93.67.25.29.45.64.58,1.06.12.37.18.78.2,1.24l-1.48.47v-1c0-.55-.13-1.01-.37-1.34-.27-.36-.66-.55-1.16-.55h-.11c-.5,0-.9.19-1.17.56Z"/>
      <path class="cls-1" d="M194.35,7.71c-.16-.48-.39-.9-.7-1.24-.31-.34-.7-.61-1.15-.79-.36-.15-.75-.24-1.19-.26h0s-.45-.01-.45-.01c-.57,0-1.09.09-1.54.27-.46.18-.85.45-1.16.8-.31.34-.54.76-.7,1.24-.15.47-.23,1-.23,1.58v2.51h-3.4v-2.37c0-.6-.08-1.15-.23-1.63-.16-.49-.39-.92-.7-1.28-.31-.36-.7-.64-1.16-.83-.45-.19-.97-.28-1.54-.28h-.43s0,.01,0,.01c-.44.03-.85.12-1.21.27-.46.19-.85.47-1.15.82-.31.35-.54.78-.7,1.28-.15.49-.23,1.04-.23,1.64v.22l2.69.84v-1.82c0-.42.09-.75.26-.99.15-.21.36-.3.68-.3h.11c.31,0,.53.1.68.31.17.24.25.57.25,1v3.09h-7.67c.1-.18.19-.39.26-.6.15-.47.23-1.3.23-1.9s-.08-1.11-.23-1.58c-.16-.48-.39-.9-.7-1.24-.31-.34-.7-.61-1.15-.79-.36-.15-.76-.24-1.19-.26h0s-.45-.01-.45-.01c-.56,0-1.08.09-1.53.27-.46.18-.85.45-1.16.8-.31.34-.54.76-.7,1.24-.15.47-.23,1-.23,1.58v2.51h-2.78v-2.37c0-.6-.08-1.15-.23-1.63-.16-.49-.39-.92-.7-1.28-.31-.36-.7-.64-1.16-.83-.45-.19-.97-.28-1.54-.28h-.44c-.44.04-.85.13-1.21.29-.45.19-.84.47-1.15.82-.3.35-.54.78-.7,1.28-.15.49-.23,1.04-.23,1.64,0,.42.04.97.11,1.42.03.21.07.39.12.55.16.49.39.92.7,1.28.31.36.7.64,1.16.83.45.19.97.28,1.54.28h0s0,0,0,0v-.6c-.49,0-.93-.08-1.31-.23-.37-.15-.68-.38-.93-.66-.25-.3-.45-.65-.58-1.07-.09-.28-.16-.76-.18-1.21-.01-.2-.02-.4-.02-.57,0-.53.07-1.03.2-1.45.13-.42.32-.77.57-1.06.25-.28.56-.51.94-.67.35-.15.76-.23,1.21-.24h.2c.49,0,.93.08,1.31.23.37.15.68.38.93.66.25.29.45.65.58,1.07.13.42.2.91.2,1.45v2.37h-1.48v-3.09c0-.55-.13-1.01-.37-1.35-.26-.37-.66-.56-1.17-.56h-.11c-.51,0-.9.19-1.17.55-.18.25-.3.57-.35.95-.01.13-.02.26-.02.4v1.8c0,.55.13,1.01.37,1.35.27.37.67.56,1.17.56h1.04v2.42c0,.33-.07.59-.21.77-.02.02-.04.05-.07.07,0,0,0,0-.02.01,0,0-.02.02-.03.02-.01.01-.02.02-.04.03,0,0-.01,0-.02.01-.02,0-.03.01-.05.03,0,0-.01,0-.02,0-.02,0-.04.01-.05.02,0,0-.02,0-.03,0-.01,0-.04,0-.05,0-.01,0-.02,0-.04,0-.02,0-.04,0-.06,0h-.04s-.04,0-.07,0h-1.13v.6h1.13c.06,0,.11,0,.17,0,.38-.04.68-.19.89-.46.22-.29.34-.68.34-1.14v-2.42h1.48v1.82c0,.47-.06.9-.18,1.28-.12.36-.28.68-.51.93-.22.25-.49.45-.81.58-.33.14-.72.21-1.15.21v.6h0c.51,0,.98-.09,1.38-.25.41-.17.76-.42,1.04-.74.27-.32.49-.71.62-1.15.14-.43.21-.92.21-1.46v-.44h3.77c.83,0,1.52-.6,1.66-1.38h1.07c.5,0,.9-.18,1.16-.54.24-.33.37-.77.37-1.31v-1.98c0-.54-.13-.98-.37-1.3-.26-.35-.66-.53-1.16-.53h-.11c-.51,0-.9.18-1.16.54-.25.33-.37.77-.37,1.31v3.2h-1.49v-2.51c0-.51.07-.98.2-1.39.13-.4.32-.74.58-1.02.25-.28.56-.49.93-.64.38-.15.82-.23,1.31-.23h.2c.46.01.87.09,1.22.24.37.15.69.37.93.64.25.27.44.62.58,1.02.13.41.2.88.2,1.39s-.07,1.31-.2,1.71c-.13.4-.32.74-.58,1.02-.25.28-.56.49-.93.64-.38.15-.82.23-1.31.23v.6c.57,0,1.08-.09,1.53-.27.46-.18.85-.45,1.16-.8,0-.01.02-.02.03-.03h10.17v.78h-10.36v.6h15.36c.83,0,1.52-.6,1.66-1.38h1.07c.51,0,.9-.18,1.16-.54.24-.33.37-.77.37-1.31v-1.98c0-.54-.13-.98-.37-1.3-.27-.35-.66-.53-1.16-.53h-.11c-.51,0-.9.18-1.16.54-.25.33-.37.77-.37,1.31v3.2h-1.49v-2.51c0-.51.07-.98.2-1.39.13-.4.33-.74.58-1.02.25-.28.56-.49.93-.64.38-.15.82-.23,1.31-.23h.2c.46.01.87.09,1.22.24.37.15.69.37.93.64.25.27.44.62.57,1.02.13.41.2.88.2,1.39s-.07,1.31-.2,1.71c-.13.4-.32.74-.58,1.02-.24.28-.56.49-.93.64-.38.15-.82.23-1.31.23v.6c.57,0,1.09-.09,1.54-.27.46-.18.85-.45,1.16-.8,0-.01.01-.02.02-.03.18-.19.41-.61.41-.61.1-.18.19-.39.26-.6.15-.47.23-1.3.23-1.9s-.08-1.11-.23-1.58ZM160.1,11.78c-.31,0-.53-.1-.68-.31-.17-.24-.25-.57-.25-1v-1.81c0-.16,0-.3.04-.44.04-.22.11-.4.21-.54.15-.21.37-.3.68-.3h.11c.31,0,.53.1.68.31.17.24.25.57.25.99v3.09s-1.04,0-1.04,0ZM169.3,8.58c0-.41.08-.73.25-.95.15-.2.37-.29.68-.29h.11c.31,0,.53.09.68.29.17.22.25.54.25.94v1.98c0,.41-.08.73-.25.95-.15.2-.37.29-.68.29h-1.04v-3.2ZM168.65,12.39c-.13.45-.55.78-1.05.78h-3.77v-.78h4.82ZM183.23,11.78h-1.49v-3.09c0-.55-.12-1.01-.37-1.35-.26-.37-.67-.56-1.17-.56h-.11c-.51,0-.9.19-1.16.55-.24.34-.37.79-.37,1.34v1l-1.48-.46c.02-.45.09-.87.2-1.24.13-.42.33-.78.58-1.07.25-.29.56-.51.93-.67.35-.15.76-.23,1.22-.24h.2c.49,0,.93.08,1.31.23.37.16.68.38.93.66.25.3.45.65.58,1.07.13.42.2.91.2,1.45v2.37ZM189.92,8.58c0-.41.08-.73.25-.95.15-.2.37-.29.68-.29h.11c.31,0,.53.09.68.29.16.22.25.54.25.94v1.98c0,.41-.09.73-.25.95-.15.2-.37.29-.68.29h-1.04v-3.2ZM189.27,12.39c-.13.45-.55.78-1.05.78h-4.4v-.78h5.44Z"/>
      <path class="cls-1" d="M179.99,14.79c-.75,0-1.37.61-1.37,1.37s.61,1.37,1.37,1.37,1.37-.61,1.37-1.37-.61-1.37-1.37-1.37ZM179.99,16.92c-.42,0-.76-.34-.76-.76s.34-.76.76-.76.76.34.76.76-.34.76-.76.76Z"/>
      <path class="cls-1" d="M139.24,4.35c.75,0,1.37-.61,1.37-1.37s-.61-1.37-1.37-1.37-1.37.61-1.37,1.37.61,1.37,1.37,1.37ZM139.24,2.22c.42,0,.76.34.76.76s-.34.76-.76.76-.76-.34-.76-.76.34-.76.76-.76Z"/>
      <path class="cls-1" d="M142.5,4.35c.75,0,1.37-.61,1.37-1.37s-.61-1.37-1.37-1.37-1.37.61-1.37,1.37.61,1.37,1.37,1.37ZM142.5,2.22c.42,0,.76.34.76.76s-.34.76-.76.76-.76-.34-.76-.76.34-.76.76-.76Z"/>
      <path class="cls-1" d="M97.15,6.51c-.31-.36-.7-.64-1.16-.83-.45-.19-.97-.28-1.54-.28h-.44c-.44.04-.85.13-1.21.29-.45.19-.84.47-1.15.83-.31.35-.54.78-.7,1.28-.15.49-.23,1.04-.23,1.63v.22l2.69.84v-1.82c0-.43.08-.75.25-.99.16-.21.37-.3.68-.3h.11c.31,0,.53.1.68.31.17.24.25.57.25,1v3.1h-7.67c.1-.19.19-.39.26-.6.15-.47.23-1.3.23-1.9s-.08-1.11-.23-1.58c-.16-.48-.39-.9-.7-1.24-.31-.34-.7-.61-1.15-.79-.36-.15-.76-.24-1.2-.26h0s-.45-.01-.45-.01c-.57,0-1.08.09-1.54.27-.46.18-.85.45-1.16.8-.31.34-.54.76-.7,1.24-.15.47-.23,1-.23,1.58v2.52h-2.22v-2.37c0-.6-.08-1.15-.23-1.63-.16-.49-.39-.92-.7-1.28-.31-.36-.7-.64-1.16-.83-.32-.13-.66-.21-1.01-.25-.58-.07-1.2-.05-1.76.11-.29.09-.53.24-.78.4l1.1,1.67.49-.19c.09-.03.2-.04.31-.04h.11c.31,0,.53.1.68.31.17.24.26.57.26,1v3.09h-6.89v.61h7.49v-3.7c0-.55-.12-1.01-.36-1.35-.27-.37-.67-.56-1.17-.56h-.11c-.22,0-.41.04-.59.11l-.47-.74c.29-.1.62-.14.98-.15h.2c.49,0,.93.08,1.31.23.37.15.68.38.93.67.25.29.45.65.58,1.07.13.42.2.91.2,1.45v3.76h-6.98v.6h7.58s3.22,0,3.22,0c.83,0,1.52-.6,1.66-1.38h1.07c.51,0,.9-.18,1.16-.54.25-.33.37-.77.37-1.31v-1.98c0-.54-.12-.98-.37-1.3-.27-.35-.66-.53-1.16-.53h-.11c-.51,0-.9.18-1.16.54-.25.33-.37.77-.37,1.31v3.21h-1.48v-2.52c0-.51.07-.98.2-1.39.13-.4.33-.74.58-1.02.25-.28.56-.49.93-.64.38-.15.82-.23,1.31-.23h.2c.46.01.87.09,1.22.23.37.15.69.37.93.64.25.27.44.62.58,1.02.13.41.2.88.2,1.39s-.07,1.31-.2,1.71c-.13.4-.33.74-.58,1.02-.25.28-.56.49-.93.64-.38.15-.82.23-1.31.23v.6c.57,0,1.09-.09,1.54-.27.46-.18.85-.45,1.16-.8.01-.01.02-.02.02-.03h8.69v-3.7c0-.55-.13-1.01-.37-1.35-.26-.37-.67-.56-1.17-.56h-.11c-.51,0-.9.19-1.17.55-.24.33-.37.79-.37,1.34v1l-1.48-.46c.02-.45.08-.87.2-1.24.13-.42.32-.78.58-1.07.25-.29.56-.51.93-.67.35-.15.76-.23,1.22-.24h.2c.49,0,.93.07,1.31.23.37.16.68.38.93.66.25.3.45.65.58,1.07.14.42.21.91.21,1.45v3.76h-10.36v.6h10.96v-4.36c0-.6-.08-1.15-.23-1.63-.16-.49-.39-.92-.7-1.28ZM83.54,8.58c0-.41.09-.73.25-.95.15-.21.37-.3.68-.3h.11c.31,0,.53.09.68.29.17.22.25.54.25.94v1.98c0,.41-.08.73-.25.95-.15.21-.37.3-.68.3h-1.04v-3.21ZM82.9,12.39c-.13.45-.55.78-1.05.78h-3.22v-.78h4.26Z"/>
      <path class="cls-1" d="M99.89,11.79h0v.6h2.09v1.39h.6V0h-2.69v1.92h-1.1v.6h1.1v9.26ZM100.49,2.52h.74v-.6h-.74V.6h1.49v11.18h-1.49V2.52Z"/>
      <path class="cls-1" d="M134.71,6.53c-.31-.36-.7-.64-1.15-.83-.45-.19-.97-.28-1.54-.28h-.43s0,.01,0,.01c-.44.03-.85.12-1.21.27-.45.19-.84.47-1.15.82-.31.35-.54.78-.7,1.28-.15.49-.23,1.04-.23,1.63v.22l2.68.84v-1.81c0-.42.09-.75.25-.98.15-.21.37-.3.68-.3h.11c.31,0,.52.1.67.31.17.24.25.57.25.99v3.09h-7.65c.1-.19.19-.39.26-.6.15-.46.23-1.3.23-1.89s-.08-1.11-.23-1.58c-.16-.48-.39-.9-.7-1.24-.31-.34-.7-.61-1.15-.79-.36-.15-.75-.23-1.19-.26h0s-.45-.01-.45-.01c-.57,0-1.08.09-1.53.27-.46.18-.84.45-1.15.79-.3.34-.54.76-.7,1.23-.16.47-.23.99-.23,1.57v2.51h-2.63V.04h-.6v11.75h-1.48V2.88h-.6v9.52h2.08v1.38h4.23c.83,0,1.52-.6,1.66-1.38h1.07c.5,0,.89-.18,1.16-.54.25-.33.37-.77.37-1.3v-1.97c0-.54-.13-.97-.37-1.3-.27-.35-.66-.53-1.16-.53h-.11c-.5,0-.9.18-1.16.54-.25.33-.37.77-.37,1.3v3.2h-1.48v-2.51c0-.51.07-.98.2-1.38.13-.4.32-.74.57-1.02.25-.28.56-.49.93-.64.38-.15.82-.23,1.31-.23h.2c.46.01.87.09,1.22.23.37.15.68.37.93.64.25.27.44.62.57,1.02.13.41.2.88.2,1.39s-.07,1.3-.2,1.7c-.13.4-.32.74-.57,1.02-.25.28-.56.49-.93.64-.38.15-.82.23-1.31.23v.6c.57,0,1.08-.09,1.53-.27.46-.18.85-.45,1.15-.79,0,0,.01-.02.02-.03h8.66v-3.69c0-.55-.12-1.01-.37-1.34-.26-.37-.66-.56-1.16-.56h-.11c-.5,0-.9.18-1.16.55-.24.34-.37.78-.37,1.34v.99l-1.48-.46c.02-.45.08-.86.2-1.23.13-.42.33-.77.58-1.06.25-.28.56-.51.93-.66.35-.15.76-.23,1.21-.24h.2c.49,0,.93.07,1.3.23.37.15.68.37.93.66.25.29.45.65.58,1.06.13.42.2.91.2,1.44v3.75h-10.33v.6h10.93v-4.35c0-.6-.08-1.15-.23-1.63-.16-.49-.39-.92-.69-1.27ZM121.14,8.6c0-.4.08-.72.25-.95.15-.2.36-.3.68-.3h.11c.31,0,.53.09.68.29.16.22.25.53.25.94v1.97c0,.4-.08.72-.25.95-.15.2-.37.3-.68.3h-1.04v-3.2ZM120.5,12.4c-.13.45-.55.78-1.04.78h-3.63v-.78h4.67Z"/>
      <path class="cls-1" d="M107.42,16.41h0s.44.01.44.01c.57,0,1.08-.1,1.53-.28.46-.19.84-.47,1.15-.83.3-.35.54-.78.69-1.27.15-.48.23-1.03.23-1.63V2.98h-2.68s0,10.15,0,10.15c0,.42-.09.76-.25.99-.15.21-.37.31-.67.31h-.11c-.31,0-.53-.1-.68-.3-.17-.23-.25-.56-.25-.98v-1.8h-.6v1.8c0,.55.13,1,.37,1.34.27.36.66.55,1.16.55h.11c.5,0,.9-.19,1.16-.56.24-.34.37-.79.37-1.34V3.58h1.48v8.84c0,.53-.07,1.02-.2,1.44-.13.41-.33.77-.58,1.06-.25.29-.56.51-.93.66-.38.16-.82.23-1.3.23h-.2c-.46-.01-.87-.09-1.21-.24-.37-.16-.69-.38-.93-.67-.25-.29-.44-.64-.58-1.06-.13-.43-.2-.92-.2-1.45v-.31h-.6v.31c0,.59.08,1.14.23,1.63.16.5.39.93.7,1.28.31.35.7.63,1.15.82.36.15.76.24,1.21.27Z"/>
      <path class="cls-1" d="M130.64,14.78c-.75,0-1.36.61-1.36,1.36s.61,1.36,1.36,1.36,1.36-.61,1.36-1.36-.61-1.36-1.36-1.36ZM130.64,16.91c-.42,0-.76-.34-.76-.76s.34-.76.76-.76.76.34.76.76-.34.76-.76.76Z"/>
      <path class="cls-1" d="M16.2,23.63h2.96v7.7h.61v-9.41c0-.55-.13-1.01-.37-1.35-.26-.37-.67-.56-1.17-.56h-1.1c-.5,0-.9.2-1.17.56-.24.34-.37.79-.37,1.35v9.41h.61v-5.86h2.21v-.61h-2.21v-1.23ZM16.2,21.93c0-.43.08-.76.25-1,.15-.21.37-.31.68-.31h1.1c.31,0,.53.1.68.31.17.24.25.57.25,1v1.1h-2.96v-1.1Z"/>
      <path class="cls-1" d="M14.32,21.2c.13-.41.32-.77.58-1.07.25-.29.56-.51.93-.67.38-.15.82-.23,1.31-.23h.55v-.6h-.55c-.57,0-1.09.09-1.54.28-.46.19-.85.47-1.16.83-.3.36-.54.79-.7,1.28-.15.48-.23,1.03-.23,1.63v8.69h.61v-8.69c0-.54.07-1.03.2-1.45Z"/>
      <path class="cls-1" d="M21.85,31.33v-8.69c0-.6-.08-1.15-.23-1.63-.16-.49-.39-.92-.7-1.28-.31-.36-.7-.64-1.16-.83-.45-.18-.97-.28-1.54-.28h-.55v.6h.55c.49,0,.93.08,1.31.23.37.16.68.38.93.67.25.29.45.65.58,1.07.13.42.2.91.2,1.45v8.69h.61Z"/>
    </g>
  </g>
</svg>