<?xml version="1.0" encoding="UTF-8"?>
<svg id="Layer_2" data-name="Layer 2" xmlns="http://www.w3.org/2000/svg" viewBox="0 0 94.41 43.09">
  <defs>
    <style>
      .cls-1 {
        fill: #626370;
      }
    </style>
  </defs>
  <g id="Layer_1-2" data-name="Layer 1">
    <g>
      <path class="cls-1" d="M0,.95c.39-.27.84-.23,1.29-.25,4.87-.17,15.02-.58,19.22,1.38,6.72,3.14,7.74,13.81,1.64,18.01l-.15.49c4.56,1.85,5.67,7.76,4.91,12.13-.9,5.16-5,8.93-10.24,9.4-5.32.47-11.29-.35-16.68,0V.95ZM8.28,17.51h5.56c.77,0,2.35-1.01,2.85-1.65,1.39-1.78,1.2-5.94-.9-7.15-.26-.15-1.53-.66-1.71-.66h-5.8v9.47ZM8.28,34.78h6.74c.1,0,1.11-.48,1.29-.6,2.86-1.85,2.96-7.19-.06-8.91-.26-.15-1.53-.66-1.71-.66h-6.27v10.17Z"/>
      <g>
        <path class="cls-1" d="M82.58,0c.87.37,1.9.34,2.84.59,5.48,1.47,7.92,6.55,7.57,11.95h-7.81c1.1-6.33-9.16-7.29-8.97-1.09.13,4.13,6.37,5.35,9.36,6.72,3.27,1.5,6.2,3.31,7.69,6.74.63,1.46.8,2.9,1.14,4.42v1.66c-.35.96-.33,2.05-.59,3.08-.99,3.95-4.42,7.16-8.3,8.27-1.14.33-2.29.4-3.42.72-1-.06-2.09.09-3.08,0-1.61-.14-4.05-.77-5.53-1.45-4.57-2.1-6.72-7.49-6.07-12.27h7.81c.15,2.59.76,5.5,3.63,6.19,4.08.98,7.78-1.45,6.62-5.91-.94-3.61-7.9-5.13-10.97-6.78-10.68-5.77-8.05-21.52,4.26-22.84h3.79Z"/>
        <path class="cls-1" d="M59.27,42.12l-2.6-2.56c-7.39,5.77-23.75,4.22-26.51-5.95-1.59-5.88.69-11.79,6.03-14.79-5.69-5.67-3.47-15.5,4.27-17.97,9.48-3.03,19.8,3.41,16.38,14.02-1.24,3.86-3.7,4.83-7.08,6.18-.24.1-.41-.13-.32.37l6.62,6.51c.47-2.66,1.13-5.32.95-8.05h7.45c.56.99.44,2.96.36,4.15-.23,3.57-1.46,6.97-3.05,10.13l7.53,7.96h-10.06ZM49.96,11.36c0-2.54-2.06-4.6-4.6-4.6s-4.6,2.06-4.6,4.6,2.06,4.6,4.6,4.6,4.6-2.06,4.6-4.6ZM41.06,23.72c-2.69,1.3-3.43,5.4-2.29,7.91,1.71,3.77,6.85,4.53,10.45,3.5.69-.2,2.23-.61,1.67-1.42-.43-.61-1.87-2.05-2.49-2.72-2.33-2.52-4.93-4.83-7.34-7.27Z"/>
      </g>
    </g>
  </g>
</svg>