<?xml version="1.0" encoding="UTF-8"?>
<svg id="Layer_2" data-name="Layer 2" xmlns="http://www.w3.org/2000/svg" viewBox="0 0 136.44 52.41">
  <defs>
    <style>
      .cls-1 {
        fill: #626370;
      }
    </style>
  </defs>
  <g id="Layer_1-2" data-name="Layer 1">
    <g>
      <path class="cls-1" d="M21.91,10.83c-1.06,0-2.09.51-2.09,2.34s.96,2.28,1.88,2.28c.79,0,1.38-.31,1.83-.71v-3.4c-.42-.27-.97-.51-1.62-.51ZM44.17,11.67c-.55-.3-1.24-.45-2.05-.45s-1.48.15-2.02.45c-.45.28-.71.56-.77.88.62.53,1.54,1.31,2.79,2.34l2.78-2.34c-.06-.33-.3-.63-.73-.88ZM64.43,12.5c-.13-1.25-.83-1.85-1.91-1.85s-1.68.85-1.68,1.85c0,0-.04.69-.18,1.38-.06.28-.17.57-.32.85.37.38.96.77,1.92.77,1.62,0,2.15-.72,2.2-2.21.02-.32-.03-.79-.03-.79ZM64.43,12.5c-.13-1.25-.83-1.85-1.91-1.85s-1.68.85-1.68,1.85c0,0-.04.69-.18,1.38-.06.28-.17.57-.32.85.37.38.96.77,1.92.77,1.62,0,2.15-.72,2.2-2.21.02-.32-.03-.79-.03-.79ZM44.17,11.67c-.55-.3-1.24-.45-2.05-.45s-1.48.15-2.02.45c-.45.28-.71.56-.77.88.62.53,1.54,1.31,2.79,2.34l2.78-2.34c-.06-.33-.3-.63-.73-.88ZM21.91,10.83c-1.06,0-2.09.51-2.09,2.34s.96,2.28,1.88,2.28c.79,0,1.38-.31,1.83-.71v-3.4c-.42-.27-.97-.51-1.62-.51ZM21.91,10.83c-1.06,0-2.09.51-2.09,2.34s.96,2.28,1.88,2.28c.79,0,1.38-.31,1.83-.71v-3.4c-.42-.27-.97-.51-1.62-.51ZM44.17,11.67c-.55-.3-1.24-.45-2.05-.45s-1.48.15-2.02.45c-.45.28-.71.56-.77.88.62.53,1.54,1.31,2.79,2.34l2.78-2.34c-.06-.33-.3-.63-.73-.88ZM64.43,12.5c-.13-1.25-.83-1.85-1.91-1.85s-1.68.85-1.68,1.85c0,0-.04.69-.18,1.38-.06.28-.17.57-.32.85.37.38.96.77,1.92.77,1.62,0,2.15-.72,2.2-2.21.02-.32-.03-.79-.03-.79ZM64.43,12.5c-.13-1.25-.83-1.85-1.91-1.85s-1.68.85-1.68,1.85c0,0-.04.69-.18,1.38-.06.28-.17.57-.32.85.37.38.96.77,1.92.77,1.62,0,2.15-.72,2.2-2.21.02-.32-.03-.79-.03-.79ZM44.17,11.67c-.55-.3-1.24-.45-2.05-.45s-1.48.15-2.02.45c-.45.28-.71.56-.77.88.62.53,1.54,1.31,2.79,2.34l2.78-2.34c-.06-.33-.3-.63-.73-.88ZM21.91,10.83c-1.06,0-2.09.51-2.09,2.34s.96,2.28,1.88,2.28c.79,0,1.38-.31,1.83-.71v-3.4c-.42-.27-.97-.51-1.62-.51ZM21.91,10.83c-1.06,0-2.09.51-2.09,2.34s.96,2.28,1.88,2.28c.79,0,1.38-.31,1.83-.71v-3.4c-.42-.27-.97-.51-1.62-.51ZM29.92,24.56c-.19,0-.4.03-.63.1-.22.07-.44.19-.63.35-.2.17-.36.39-.5.66-.14.26-.21.6-.21,1.01,0,.27.03.54.09.8.06.27.16.53.29.78h2.59v-3.7h-1ZM40.72,24.69c-.55-.3-1.25-.45-2.06-.45s-1.49.15-2.04.45c-.45.28-.72.57-.77.89.62.53,1.54,1.32,2.81,2.36l2.79-2.36c-.05-.34-.3-.64-.73-.89ZM44.17,11.67c-.55-.3-1.24-.45-2.05-.45s-1.48.15-2.02.45c-.45.28-.71.56-.77.88.62.53,1.54,1.31,2.79,2.34l2.78-2.34c-.06-.33-.3-.63-.73-.88ZM64.43,12.5c-.13-1.25-.83-1.85-1.91-1.85s-1.68.85-1.68,1.85c0,0-.04.69-.18,1.38-.06.28-.17.57-.32.85.37.38.96.77,1.92.77,1.62,0,2.15-.72,2.2-2.21.02-.32-.03-.79-.03-.79ZM85.77,25.52c-.13-1.25-.83-1.86-1.91-1.86s-1.69.85-1.69,1.86c0,0-.03.69-.18,1.38-.06.28-.16.57-.32.85.38.38.96.78,1.93.78,1.62,0,2.15-.73,2.2-2.22.02-.32-.03-.79-.03-.79ZM85.77,25.52c-.13-1.25-.83-1.86-1.91-1.86s-1.69.85-1.69,1.86c0,0-.03.69-.18,1.38-.06.28-.16.57-.32.85.38.38.96.78,1.93.78,1.62,0,2.15-.73,2.2-2.22.02-.32-.03-.79-.03-.79ZM64.43,12.5c-.13-1.25-.83-1.85-1.91-1.85s-1.68.85-1.68,1.85c0,0-.04.69-.18,1.38-.06.28-.17.57-.32.85.37.38.96.77,1.92.77,1.62,0,2.15-.72,2.2-2.21.02-.32-.03-.79-.03-.79ZM44.17,11.67c-.55-.3-1.24-.45-2.05-.45s-1.48.15-2.02.45c-.45.28-.71.56-.77.88.62.53,1.54,1.31,2.79,2.34l2.78-2.34c-.06-.33-.3-.63-.73-.88ZM21.91,10.83c-1.06,0-2.09.51-2.09,2.34s.96,2.28,1.88,2.28c.79,0,1.38-.31,1.83-.71v-3.4c-.42-.27-.97-.51-1.62-.51ZM40.72,24.69c-.55-.3-1.25-.45-2.06-.45s-1.49.15-2.04.45c-.45.28-.72.57-.77.89.62.53,1.54,1.32,2.81,2.36l2.79-2.36c-.05-.34-.3-.64-.73-.89ZM29.92,24.56c-.19,0-.4.03-.63.1-.22.07-.44.19-.63.35-.2.17-.36.39-.5.66-.14.26-.21.6-.21,1.01,0,.27.03.54.09.8.06.27.16.53.29.78h2.59v-3.7h-1ZM21.91,10.83c-1.06,0-2.09.51-2.09,2.34s.96,2.28,1.88,2.28c.79,0,1.38-.31,1.83-.71v-3.4c-.42-.27-.97-.51-1.62-.51ZM29.92,24.56c-.19,0-.4.03-.63.1-.22.07-.44.19-.63.35-.2.17-.36.39-.5.66-.14.26-.21.6-.21,1.01,0,.27.03.54.09.8.06.27.16.53.29.78h2.59v-3.7h-1ZM40.72,24.69c-.55-.3-1.25-.45-2.06-.45s-1.49.15-2.04.45c-.45.28-.72.57-.77.89.62.53,1.54,1.32,2.81,2.36l2.79-2.36c-.05-.34-.3-.64-.73-.89ZM44.17,11.67c-.55-.3-1.24-.45-2.05-.45s-1.48.15-2.02.45c-.45.28-.71.56-.77.88.62.53,1.54,1.31,2.79,2.34l2.78-2.34c-.06-.33-.3-.63-.73-.88ZM64.43,12.5c-.13-1.25-.83-1.85-1.91-1.85s-1.68.85-1.68,1.85c0,0-.04.69-.18,1.38-.06.28-.17.57-.32.85.37.38.96.77,1.92.77,1.62,0,2.15-.72,2.2-2.21.02-.32-.03-.79-.03-.79ZM85.77,25.52c-.13-1.25-.83-1.86-1.91-1.86s-1.69.85-1.69,1.86c0,0-.03.69-.18,1.38-.06.28-.16.57-.32.85.38.38.96.78,1.93.78,1.62,0,2.15-.73,2.2-2.22.02-.32-.03-.79-.03-.79ZM85.77,25.52c-.13-1.25-.83-1.86-1.91-1.86s-1.69.85-1.69,1.86c0,0-.03.69-.18,1.38-.06.28-.16.57-.32.85.38.38.96.78,1.93.78,1.62,0,2.15-.73,2.2-2.22.02-.32-.03-.79-.03-.79ZM64.43,12.5c-.13-1.25-.83-1.85-1.91-1.85s-1.68.85-1.68,1.85c0,0-.04.69-.18,1.38-.06.28-.17.57-.32.85.37.38.96.77,1.92.77,1.62,0,2.15-.72,2.2-2.21.02-.32-.03-.79-.03-.79ZM44.17,11.67c-.55-.3-1.24-.45-2.05-.45s-1.48.15-2.02.45c-.45.28-.71.56-.77.88.62.53,1.54,1.31,2.79,2.34l2.78-2.34c-.06-.33-.3-.63-.73-.88ZM21.91,10.83c-1.06,0-2.09.51-2.09,2.34s.96,2.28,1.88,2.28c.79,0,1.38-.31,1.83-.71v-3.4c-.42-.27-.97-.51-1.62-.51ZM40.72,24.69c-.55-.3-1.25-.45-2.06-.45s-1.49.15-2.04.45c-.45.28-.72.57-.77.89.62.53,1.54,1.32,2.81,2.36l2.79-2.36c-.05-.34-.3-.64-.73-.89ZM29.92,24.56c-.19,0-.4.03-.63.1-.22.07-.44.19-.63.35-.2.17-.36.39-.5.66-.14.26-.21.6-.21,1.01,0,.27.03.54.09.8.06.27.16.53.29.78h2.59v-3.7h-1ZM21.91,10.83c-1.06,0-2.09.51-2.09,2.34s.96,2.28,1.88,2.28c.79,0,1.38-.31,1.83-.71v-3.4c-.42-.27-.97-.51-1.62-.51ZM29.92,24.56c-.19,0-.4.03-.63.1-.22.07-.44.19-.63.35-.2.17-.36.39-.5.66-.14.26-.21.6-.21,1.01,0,.27.03.54.09.8.06.27.16.53.29.78h2.59v-3.7h-1ZM40.72,24.69c-.55-.3-1.25-.45-2.06-.45s-1.49.15-2.04.45c-.45.28-.72.57-.77.89.62.53,1.54,1.32,2.81,2.36l2.79-2.36c-.05-.34-.3-.64-.73-.89ZM44.17,11.67c-.55-.3-1.24-.45-2.05-.45s-1.48.15-2.02.45c-.45.28-.71.56-.77.88.62.53,1.54,1.31,2.79,2.34l2.78-2.34c-.06-.33-.3-.63-.73-.88ZM64.43,12.5c-.13-1.25-.83-1.85-1.91-1.85s-1.68.85-1.68,1.85c0,0-.04.69-.18,1.38-.06.28-.17.57-.32.85.37.38.96.77,1.92.77,1.62,0,2.15-.72,2.2-2.21.02-.32-.03-.79-.03-.79ZM85.77,25.52c-.13-1.25-.83-1.86-1.91-1.86s-1.69.85-1.69,1.86c0,0-.03.69-.18,1.38-.06.28-.16.57-.32.85.38.38.96.78,1.93.78,1.62,0,2.15-.73,2.2-2.22.02-.32-.03-.79-.03-.79ZM85.77,25.52c-.13-1.25-.83-1.86-1.91-1.86s-1.69.85-1.69,1.86c0,0-.03.69-.18,1.38-.06.28-.16.57-.32.85.38.38.96.78,1.93.78,1.62,0,2.15-.73,2.2-2.22.02-.32-.03-.79-.03-.79ZM64.43,12.5c-.13-1.25-.83-1.85-1.91-1.85s-1.68.85-1.68,1.85c0,0-.04.69-.18,1.38-.06.28-.17.57-.32.85.37.38.96.77,1.92.77,1.62,0,2.15-.72,2.2-2.21.02-.32-.03-.79-.03-.79ZM44.17,11.67c-.55-.3-1.24-.45-2.05-.45s-1.48.15-2.02.45c-.45.28-.71.56-.77.88.62.53,1.54,1.31,2.79,2.34l2.78-2.34c-.06-.33-.3-.63-.73-.88ZM21.91,10.83c-1.06,0-2.09.51-2.09,2.34s.96,2.28,1.88,2.28c.79,0,1.38-.31,1.83-.71v-3.4c-.42-.27-.97-.51-1.62-.51ZM40.72,24.69c-.55-.3-1.25-.45-2.06-.45s-1.49.15-2.04.45c-.45.28-.72.57-.77.89.62.53,1.54,1.32,2.81,2.36l2.79-2.36c-.05-.34-.3-.64-.73-.89ZM29.92,24.56c-.19,0-.4.03-.63.1-.22.07-.44.19-.63.35-.2.17-.36.39-.5.66-.14.26-.21.6-.21,1.01,0,.27.03.54.09.8.06.27.16.53.29.78h2.59v-3.7h-1ZM21.91,10.83c-1.06,0-2.09.51-2.09,2.34s.96,2.28,1.88,2.28c.79,0,1.38-.31,1.83-.71v-3.4c-.42-.27-.97-.51-1.62-.51ZM29.92,24.56c-.19,0-.4.03-.63.1-.22.07-.44.19-.63.35-.2.17-.36.39-.5.66-.14.26-.21.6-.21,1.01,0,.27.03.54.09.8.06.27.16.53.29.78h2.59v-3.7h-1ZM40.72,24.69c-.55-.3-1.25-.45-2.06-.45s-1.49.15-2.04.45c-.45.28-.72.57-.77.89.62.53,1.54,1.32,2.81,2.36l2.79-2.36c-.05-.34-.3-.64-.73-.89ZM44.17,11.67c-.55-.3-1.24-.45-2.05-.45s-1.48.15-2.02.45c-.45.28-.71.56-.77.88.62.53,1.54,1.31,2.79,2.34l2.78-2.34c-.06-.33-.3-.63-.73-.88ZM64.43,12.5c-.13-1.25-.83-1.85-1.91-1.85s-1.68.85-1.68,1.85c0,0-.04.69-.18,1.38-.06.28-.17.57-.32.85.37.38.96.77,1.92.77,1.62,0,2.15-.72,2.2-2.21.02-.32-.03-.79-.03-.79ZM85.77,25.52c-.13-1.25-.83-1.86-1.91-1.86s-1.69.85-1.69,1.86c0,0-.03.69-.18,1.38-.06.28-.16.57-.32.85.38.38.96.78,1.93.78,1.62,0,2.15-.73,2.2-2.22.02-.32-.03-.79-.03-.79ZM85.77,25.52c-.13-1.25-.83-1.86-1.91-1.86s-1.69.85-1.69,1.86c0,0-.03.69-.18,1.38-.06.28-.16.57-.32.85.38.38.96.78,1.93.78,1.62,0,2.15-.73,2.2-2.22.02-.32-.03-.79-.03-.79ZM64.43,12.5c-.13-1.25-.83-1.85-1.91-1.85s-1.68.85-1.68,1.85c0,0-.04.69-.18,1.38-.06.28-.17.57-.32.85.37.38.96.77,1.92.77,1.62,0,2.15-.72,2.2-2.21.02-.32-.03-.79-.03-.79ZM44.17,11.67c-.55-.3-1.24-.45-2.05-.45s-1.48.15-2.02.45c-.45.28-.71.56-.77.88.62.53,1.54,1.31,2.79,2.34l2.78-2.34c-.06-.33-.3-.63-.73-.88ZM21.91,10.83c-1.06,0-2.09.51-2.09,2.34s.96,2.28,1.88,2.28c.79,0,1.38-.31,1.83-.71v-3.4c-.42-.27-.97-.51-1.62-.51ZM40.72,24.69c-.55-.3-1.25-.45-2.06-.45s-1.49.15-2.04.45c-.45.28-.72.57-.77.89.62.53,1.54,1.32,2.81,2.36l2.79-2.36c-.05-.34-.3-.64-.73-.89ZM29.92,24.56c-.19,0-.4.03-.63.1-.22.07-.44.19-.63.35-.2.17-.36.39-.5.66-.14.26-.21.6-.21,1.01,0,.27.03.54.09.8.06.27.16.53.29.78h2.59v-3.7h-1ZM21.91,10.83c-1.06,0-2.09.51-2.09,2.34s.96,2.28,1.88,2.28c.79,0,1.38-.31,1.83-.71v-3.4c-.42-.27-.97-.51-1.62-.51ZM29.92,24.56c-.19,0-.4.03-.63.1-.22.07-.44.19-.63.35-.2.17-.36.39-.5.66-.14.26-.21.6-.21,1.01,0,.27.03.54.09.8.06.27.16.53.29.78h2.59v-3.7h-1ZM33.42,38.18c-.52,0-.81.31-.81.81s.29.8.81.8.82-.3.82-.8-.29-.81-.82-.81ZM33.92,41.58h-1.38c-.18.15-.29.31-.29.55,0,.38.23.63,1.04.63.89,0,1.28-.3,1.28-.7,0-.33-.19-.48-.65-.48ZM40.72,24.69c-.55-.3-1.25-.45-2.06-.45s-1.49.15-2.04.45c-.45.28-.72.57-.77.89.62.53,1.54,1.32,2.81,2.36l2.79-2.36c-.05-.34-.3-.64-.73-.89ZM44.17,11.67c-.55-.3-1.24-.45-2.05-.45s-1.48.15-2.02.45c-.45.28-.71.56-.77.88.62.53,1.54,1.31,2.79,2.34l2.78-2.34c-.06-.33-.3-.63-.73-.88ZM64.43,12.5c-.13-1.25-.83-1.85-1.91-1.85s-1.68.85-1.68,1.85c0,0-.04.69-.18,1.38-.06.28-.17.57-.32.85.37.38.96.77,1.92.77,1.62,0,2.15-.72,2.2-2.21.02-.32-.03-.79-.03-.79ZM85.77,25.52c-.13-1.25-.83-1.86-1.91-1.86s-1.69.85-1.69,1.86c0,0-.03.69-.18,1.38-.06.28-.16.57-.32.85.38.38.96.78,1.93.78,1.62,0,2.15-.73,2.2-2.22.02-.32-.03-.79-.03-.79ZM85.77,25.52c-.13-1.25-.83-1.86-1.91-1.86s-1.69.85-1.69,1.86c0,0-.03.69-.18,1.38-.06.28-.16.57-.32.85.38.38.96.78,1.93.78,1.62,0,2.15-.73,2.2-2.22.02-.32-.03-.79-.03-.79ZM64.43,12.5c-.13-1.25-.83-1.85-1.91-1.85s-1.68.85-1.68,1.85c0,0-.04.69-.18,1.38-.06.28-.17.57-.32.85.37.38.96.77,1.92.77,1.62,0,2.15-.72,2.2-2.21.02-.32-.03-.79-.03-.79ZM44.17,11.67c-.55-.3-1.24-.45-2.05-.45s-1.48.15-2.02.45c-.45.28-.71.56-.77.88.62.53,1.54,1.31,2.79,2.34l2.78-2.34c-.06-.33-.3-.63-.73-.88ZM21.91,10.83c-1.06,0-2.09.51-2.09,2.34s.96,2.28,1.88,2.28c.79,0,1.38-.31,1.83-.71v-3.4c-.42-.27-.97-.51-1.62-.51ZM40.72,24.69c-.55-.3-1.25-.45-2.06-.45s-1.49.15-2.04.45c-.45.28-.72.57-.77.89.62.53,1.54,1.32,2.81,2.36l2.79-2.36c-.05-.34-.3-.64-.73-.89ZM29.92,24.56c-.19,0-.4.03-.63.1-.22.07-.44.19-.63.35-.2.17-.36.39-.5.66-.14.26-.21.6-.21,1.01,0,.27.03.54.09.8.06.27.16.53.29.78h2.59v-3.7h-1ZM33.92,41.58h-1.38c-.18.15-.29.31-.29.55,0,.38.23.63,1.04.63.89,0,1.28-.3,1.28-.7,0-.33-.19-.48-.65-.48ZM33.42,38.18c-.52,0-.81.31-.81.81s.29.8.81.8.82-.3.82-.8-.29-.81-.82-.81ZM21.91,10.83c-1.06,0-2.09.51-2.09,2.34s.96,2.28,1.88,2.28c.79,0,1.38-.31,1.83-.71v-3.4c-.42-.27-.97-.51-1.62-.51ZM29.92,24.56c-.19,0-.4.03-.63.1-.22.07-.44.19-.63.35-.2.17-.36.39-.5.66-.14.26-.21.6-.21,1.01,0,.27.03.54.09.8.06.27.16.53.29.78h2.59v-3.7h-1ZM33.42,38.18c-.52,0-.81.31-.81.81s.29.8.81.8.82-.3.82-.8-.29-.81-.82-.81ZM33.92,41.58h-1.38c-.18.15-.29.31-.29.55,0,.38.23.63,1.04.63.89,0,1.28-.3,1.28-.7,0-.33-.19-.48-.65-.48ZM40.72,24.69c-.55-.3-1.25-.45-2.06-.45s-1.49.15-2.04.45c-.45.28-.72.57-.77.89.62.53,1.54,1.32,2.81,2.36l2.79-2.36c-.05-.34-.3-.64-.73-.89ZM44.17,11.67c-.55-.3-1.24-.45-2.05-.45s-1.48.15-2.02.45c-.45.28-.71.56-.77.88.62.53,1.54,1.31,2.79,2.34l2.78-2.34c-.06-.33-.3-.63-.73-.88ZM44.13,39.94c-.62,0-.99.22-.99.74s.29.73.79.73c.44,0,.73-.19.99-.47v-.92c-.24-.05-.51-.08-.79-.08ZM64.43,12.5c-.13-1.25-.83-1.85-1.91-1.85s-1.68.85-1.68,1.85c0,0-.04.69-.18,1.38-.06.28-.17.57-.32.85.37.38.96.77,1.92.77,1.62,0,2.15-.72,2.2-2.21.02-.32-.03-.79-.03-.79ZM85.77,25.52c-.13-1.25-.83-1.86-1.91-1.86s-1.69.85-1.69,1.86c0,0-.03.69-.18,1.38-.06.28-.16.57-.32.85.38.38.96.78,1.93.78,1.62,0,2.15-.73,2.2-2.22.02-.32-.03-.79-.03-.79ZM85.77,25.52c-.13-1.25-.83-1.86-1.91-1.86s-1.69.85-1.69,1.86c0,0-.03.69-.18,1.38-.06.28-.16.57-.32.85.38.38.96.78,1.93.78,1.62,0,2.15-.73,2.2-2.22.02-.32-.03-.79-.03-.79ZM64.43,12.5c-.13-1.25-.83-1.85-1.91-1.85s-1.68.85-1.68,1.85c0,0-.04.69-.18,1.38-.06.28-.17.57-.32.85.37.38.96.77,1.92.77,1.62,0,2.15-.72,2.2-2.21.02-.32-.03-.79-.03-.79ZM44.17,11.67c-.55-.3-1.24-.45-2.05-.45s-1.48.15-2.02.45c-.45.28-.71.56-.77.88.62.53,1.54,1.31,2.79,2.34l2.78-2.34c-.06-.33-.3-.63-.73-.88ZM21.91,10.83c-1.06,0-2.09.51-2.09,2.34s.96,2.28,1.88,2.28c.79,0,1.38-.31,1.83-.71v-3.4c-.42-.27-.97-.51-1.62-.51ZM44.13,39.94c-.62,0-.99.22-.99.74s.29.73.79.73c.44,0,.73-.19.99-.47v-.92c-.24-.05-.51-.08-.79-.08ZM40.72,24.69c-.55-.3-1.25-.45-2.06-.45s-1.49.15-2.04.45c-.45.28-.72.57-.77.89.62.53,1.54,1.32,2.81,2.36l2.79-2.36c-.05-.34-.3-.64-.73-.89ZM29.92,24.56c-.19,0-.4.03-.63.1-.22.07-.44.19-.63.35-.2.17-.36.39-.5.66-.14.26-.21.6-.21,1.01,0,.27.03.54.09.8.06.27.16.53.29.78h2.59v-3.7h-1ZM33.92,41.58h-1.38c-.18.15-.29.31-.29.55,0,.38.23.63,1.04.63.89,0,1.28-.3,1.28-.7,0-.33-.19-.48-.65-.48ZM33.42,38.18c-.52,0-.81.31-.81.81s.29.8.81.8.82-.3.82-.8-.29-.81-.82-.81ZM21.91,10.83c-1.06,0-2.09.51-2.09,2.34s.96,2.28,1.88,2.28c.79,0,1.38-.31,1.83-.71v-3.4c-.42-.27-.97-.51-1.62-.51ZM29.92,24.56c-.19,0-.4.03-.63.1-.22.07-.44.19-.63.35-.2.17-.36.39-.5.66-.14.26-.21.6-.21,1.01,0,.27.03.54.09.8.06.27.16.53.29.78h2.59v-3.7h-1ZM33.42,38.18c-.52,0-.81.31-.81.81s.29.8.81.8.82-.3.82-.8-.29-.81-.82-.81ZM33.92,41.58h-1.38c-.18.15-.29.31-.29.55,0,.38.23.63,1.04.63.89,0,1.28-.3,1.28-.7,0-.33-.19-.48-.65-.48ZM40.72,24.69c-.55-.3-1.25-.45-2.06-.45s-1.49.15-2.04.45c-.45.28-.72.57-.77.89.62.53,1.54,1.32,2.81,2.36l2.79-2.36c-.05-.34-.3-.64-.73-.89ZM44.17,11.67c-.55-.3-1.24-.45-2.05-.45s-1.48.15-2.02.45c-.45.28-.71.56-.77.88.62.53,1.54,1.31,2.79,2.34l2.78-2.34c-.06-.33-.3-.63-.73-.88ZM44.13,39.94c-.62,0-.99.22-.99.74s.29.73.79.73c.44,0,.73-.19.99-.47v-.92c-.24-.05-.51-.08-.79-.08ZM53.9,38.25c-.62,0-1.23.34-1.23,1.57,0,1.3.57,1.61,1.11,1.61.51,0,.86-.26,1.14-.57v-2.26c-.27-.21-.58-.35-1.02-.35ZM64.43,12.5c-.13-1.25-.83-1.85-1.91-1.85s-1.68.85-1.68,1.85c0,0-.04.69-.18,1.38-.06.28-.17.57-.32.85.37.38.96.77,1.92.77,1.62,0,2.15-.72,2.2-2.21.02-.32-.03-.79-.03-.79ZM85.77,25.52c-.13-1.25-.83-1.86-1.91-1.86s-1.69.85-1.69,1.86c0,0-.03.69-.18,1.38-.06.28-.16.57-.32.85.38.38.96.78,1.93.78,1.62,0,2.15-.73,2.2-2.22.02-.32-.03-.79-.03-.79ZM85.77,25.52c-.13-1.25-.83-1.86-1.91-1.86s-1.69.85-1.69,1.86c0,0-.03.69-.18,1.38-.06.28-.16.57-.32.85.38.38.96.78,1.93.78,1.62,0,2.15-.73,2.2-2.22.02-.32-.03-.79-.03-.79ZM64.43,12.5c-.13-1.25-.83-1.85-1.91-1.85s-1.68.85-1.68,1.85c0,0-.04.69-.18,1.38-.06.28-.17.57-.32.85.37.38.96.77,1.92.77,1.62,0,2.15-.72,2.2-2.21.02-.32-.03-.79-.03-.79ZM44.17,11.67c-.55-.3-1.24-.45-2.05-.45s-1.48.15-2.02.45c-.45.28-.71.56-.77.88.62.53,1.54,1.31,2.79,2.34l2.78-2.34c-.06-.33-.3-.63-.73-.88ZM21.91,10.83c-1.06,0-2.09.51-2.09,2.34s.96,2.28,1.88,2.28c.79,0,1.38-.31,1.83-.71v-3.4c-.42-.27-.97-.51-1.62-.51ZM53.9,38.25c-.62,0-1.23.34-1.23,1.57,0,1.3.57,1.61,1.11,1.61.51,0,.86-.26,1.14-.57v-2.26c-.27-.21-.58-.35-1.02-.35ZM44.13,39.94c-.62,0-.99.22-.99.74s.29.73.79.73c.44,0,.73-.19.99-.47v-.92c-.24-.05-.51-.08-.79-.08ZM40.72,24.69c-.55-.3-1.25-.45-2.06-.45s-1.49.15-2.04.45c-.45.28-.72.57-.77.89.62.53,1.54,1.32,2.81,2.36l2.79-2.36c-.05-.34-.3-.64-.73-.89ZM29.92,24.56c-.19,0-.4.03-.63.1-.22.07-.44.19-.63.35-.2.17-.36.39-.5.66-.14.26-.21.6-.21,1.01,0,.27.03.54.09.8.06.27.16.53.29.78h2.59v-3.7h-1ZM33.92,41.58h-1.38c-.18.15-.29.31-.29.55,0,.38.23.63,1.04.63.89,0,1.28-.3,1.28-.7,0-.33-.19-.48-.65-.48ZM33.42,38.18c-.52,0-.81.31-.81.81s.29.8.81.8.82-.3.82-.8-.29-.81-.82-.81ZM21.91,10.83c-1.06,0-2.09.51-2.09,2.34s.96,2.28,1.88,2.28c.79,0,1.38-.31,1.83-.71v-3.4c-.42-.27-.97-.51-1.62-.51ZM29.92,24.56c-.19,0-.4.03-.63.1-.22.07-.44.19-.63.35-.2.17-.36.39-.5.66-.14.26-.21.6-.21,1.01,0,.27.03.54.09.8.06.27.16.53.29.78h2.59v-3.7h-1ZM33.42,38.18c-.52,0-.81.31-.81.81s.29.8.81.8.82-.3.82-.8-.29-.81-.82-.81ZM33.92,41.58h-1.38c-.18.15-.29.31-.29.55,0,.38.23.63,1.04.63.89,0,1.28-.3,1.28-.7,0-.33-.19-.48-.65-.48ZM40.72,24.69c-.55-.3-1.25-.45-2.06-.45s-1.49.15-2.04.45c-.45.28-.72.57-.77.89.62.53,1.54,1.32,2.81,2.36l2.79-2.36c-.05-.34-.3-.64-.73-.89ZM44.17,11.67c-.55-.3-1.24-.45-2.05-.45s-1.48.15-2.02.45c-.45.28-.71.56-.77.88.62.53,1.54,1.31,2.79,2.34l2.78-2.34c-.06-.33-.3-.63-.73-.88ZM44.13,39.94c-.62,0-.99.22-.99.74s.29.73.79.73c.44,0,.73-.19.99-.47v-.92c-.24-.05-.51-.08-.79-.08ZM53.9,38.25c-.62,0-1.23.34-1.23,1.57,0,1.3.57,1.61,1.11,1.61.51,0,.86-.26,1.14-.57v-2.26c-.27-.21-.58-.35-1.02-.35ZM64.43,12.5c-.13-1.25-.83-1.85-1.91-1.85s-1.68.85-1.68,1.85c0,0-.04.69-.18,1.38-.06.28-.17.57-.32.85.37.38.96.77,1.92.77,1.62,0,2.15-.72,2.2-2.21.02-.32-.03-.79-.03-.79ZM85.77,25.52c-.13-1.25-.83-1.86-1.91-1.86s-1.69.85-1.69,1.86c0,0-.03.69-.18,1.38-.06.28-.16.57-.32.85.38.38.96.78,1.93.78,1.62,0,2.15-.73,2.2-2.22.02-.32-.03-.79-.03-.79ZM85.77,25.52c-.13-1.25-.83-1.86-1.91-1.86s-1.69.85-1.69,1.86c0,0-.03.69-.18,1.38-.06.28-.16.57-.32.85.38.38.96.78,1.93.78,1.62,0,2.15-.73,2.2-2.22.02-.32-.03-.79-.03-.79ZM64.43,12.5c-.13-1.25-.83-1.85-1.91-1.85s-1.68.85-1.68,1.85c0,0-.04.69-.18,1.38-.06.28-.17.57-.32.85.37.38.96.77,1.92.77,1.62,0,2.15-.72,2.2-2.21.02-.32-.03-.79-.03-.79ZM44.17,11.67c-.55-.3-1.24-.45-2.05-.45s-1.48.15-2.02.45c-.45.28-.71.56-.77.88.62.53,1.54,1.31,2.79,2.34l2.78-2.34c-.06-.33-.3-.63-.73-.88ZM21.91,10.83c-1.06,0-2.09.51-2.09,2.34s.96,2.28,1.88,2.28c.79,0,1.38-.31,1.83-.71v-3.4c-.42-.27-.97-.51-1.62-.51ZM53.9,38.25c-.62,0-1.23.34-1.23,1.57,0,1.3.57,1.61,1.11,1.61.51,0,.86-.26,1.14-.57v-2.26c-.27-.21-.58-.35-1.02-.35ZM44.13,39.94c-.62,0-.99.22-.99.74s.29.73.79.73c.44,0,.73-.19.99-.47v-.92c-.24-.05-.51-.08-.79-.08ZM40.72,24.69c-.55-.3-1.25-.45-2.06-.45s-1.49.15-2.04.45c-.45.28-.72.57-.77.89.62.53,1.54,1.32,2.81,2.36l2.79-2.36c-.05-.34-.3-.64-.73-.89ZM29.92,24.56c-.19,0-.4.03-.63.1-.22.07-.44.19-.63.35-.2.17-.36.39-.5.66-.14.26-.21.6-.21,1.01,0,.27.03.54.09.8.06.27.16.53.29.78h2.59v-3.7h-1ZM33.92,41.58h-1.38c-.18.15-.29.31-.29.55,0,.38.23.63,1.04.63.89,0,1.28-.3,1.28-.7,0-.33-.19-.48-.65-.48ZM33.42,38.18c-.52,0-.81.31-.81.81s.29.8.81.8.82-.3.82-.8-.29-.81-.82-.81ZM21.91,10.83c-1.06,0-2.09.51-2.09,2.34s.96,2.28,1.88,2.28c.79,0,1.38-.31,1.83-.71v-3.4c-.42-.27-.97-.51-1.62-.51ZM29.92,24.56c-.19,0-.4.03-.63.1-.22.07-.44.19-.63.35-.2.17-.36.39-.5.66-.14.26-.21.6-.21,1.01,0,.27.03.54.09.8.06.27.16.53.29.78h2.59v-3.7h-1ZM33.42,38.18c-.52,0-.81.31-.81.81s.29.8.81.8.82-.3.82-.8-.29-.81-.82-.81ZM33.92,41.58h-1.38c-.18.15-.29.31-.29.55,0,.38.23.63,1.04.63.89,0,1.28-.3,1.28-.7,0-.33-.19-.48-.65-.48ZM40.72,24.69c-.55-.3-1.25-.45-2.06-.45s-1.49.15-2.04.45c-.45.28-.72.57-.77.89.62.53,1.54,1.32,2.81,2.36l2.79-2.36c-.05-.34-.3-.64-.73-.89ZM44.17,11.67c-.55-.3-1.24-.45-2.05-.45s-1.48.15-2.02.45c-.45.28-.71.56-.77.88.62.53,1.54,1.31,2.79,2.34l2.78-2.34c-.06-.33-.3-.63-.73-.88ZM44.13,39.94c-.62,0-.99.22-.99.74s.29.73.79.73c.44,0,.73-.19.99-.47v-.92c-.24-.05-.51-.08-.79-.08ZM53.9,38.25c-.62,0-1.23.34-1.23,1.57,0,1.3.57,1.61,1.11,1.61.51,0,.86-.26,1.14-.57v-2.26c-.27-.21-.58-.35-1.02-.35ZM64.43,12.5c-.13-1.25-.83-1.85-1.91-1.85s-1.68.85-1.68,1.85c0,0-.04.69-.18,1.38-.06.28-.17.57-.32.85.37.38.96.77,1.92.77,1.62,0,2.15-.72,2.2-2.21.02-.32-.03-.79-.03-.79ZM85.77,25.52c-.13-1.25-.83-1.86-1.91-1.86s-1.69.85-1.69,1.86c0,0-.03.69-.18,1.38-.06.28-.16.57-.32.85.38.38.96.78,1.93.78,1.62,0,2.15-.73,2.2-2.22.02-.32-.03-.79-.03-.79ZM85.77,25.52c-.13-1.25-.83-1.86-1.91-1.86s-1.69.85-1.69,1.86c0,0-.03.69-.18,1.38-.06.28-.16.57-.32.85.38.38.96.78,1.93.78,1.62,0,2.15-.73,2.2-2.22.02-.32-.03-.79-.03-.79ZM64.43,12.5c-.13-1.25-.83-1.85-1.91-1.85s-1.68.85-1.68,1.85c0,0-.04.69-.18,1.38-.06.28-.17.57-.32.85.37.38.96.77,1.92.77,1.62,0,2.15-.72,2.2-2.21.02-.32-.03-.79-.03-.79ZM44.17,11.67c-.55-.3-1.24-.45-2.05-.45s-1.48.15-2.02.45c-.45.28-.71.56-.77.88.62.53,1.54,1.31,2.79,2.34l2.78-2.34c-.06-.33-.3-.63-.73-.88ZM21.91,10.83c-1.06,0-2.09.51-2.09,2.34s.96,2.28,1.88,2.28c.79,0,1.38-.31,1.83-.71v-3.4c-.42-.27-.97-.51-1.62-.51ZM53.9,38.25c-.62,0-1.23.34-1.23,1.57,0,1.3.57,1.61,1.11,1.61.51,0,.86-.26,1.14-.57v-2.26c-.27-.21-.58-.35-1.02-.35ZM44.13,39.94c-.62,0-.99.22-.99.74s.29.73.79.73c.44,0,.73-.19.99-.47v-.92c-.24-.05-.51-.08-.79-.08ZM40.72,24.69c-.55-.3-1.25-.45-2.06-.45s-1.49.15-2.04.45c-.45.28-.72.57-.77.89.62.53,1.54,1.32,2.81,2.36l2.79-2.36c-.05-.34-.3-.64-.73-.89ZM29.92,24.56c-.19,0-.4.03-.63.1-.22.07-.44.19-.63.35-.2.17-.36.39-.5.66-.14.26-.21.6-.21,1.01,0,.27.03.54.09.8.06.27.16.53.29.78h2.59v-3.7h-1ZM33.92,41.58h-1.38c-.18.15-.29.31-.29.55,0,.38.23.63,1.04.63.89,0,1.28-.3,1.28-.7,0-.33-.19-.48-.65-.48ZM33.42,38.18c-.52,0-.81.31-.81.81s.29.8.81.8.82-.3.82-.8-.29-.81-.82-.81ZM21.91,10.83c-1.06,0-2.09.51-2.09,2.34s.96,2.28,1.88,2.28c.79,0,1.38-.31,1.83-.71v-3.4c-.42-.27-.97-.51-1.62-.51ZM29.92,24.56c-.19,0-.4.03-.63.1-.22.07-.44.19-.63.35-.2.17-.36.39-.5.66-.14.26-.21.6-.21,1.01,0,.27.03.54.09.8.06.27.16.53.29.78h2.59v-3.7h-1ZM33.42,38.18c-.52,0-.81.31-.81.81s.29.8.81.8.82-.3.82-.8-.29-.81-.82-.81ZM33.92,41.58h-1.38c-.18.15-.29.31-.29.55,0,.38.23.63,1.04.63.89,0,1.28-.3,1.28-.7,0-.33-.19-.48-.65-.48ZM40.72,24.69c-.55-.3-1.25-.45-2.06-.45s-1.49.15-2.04.45c-.45.28-.72.57-.77.89.62.53,1.54,1.32,2.81,2.36l2.79-2.36c-.05-.34-.3-.64-.73-.89ZM44.17,11.67c-.55-.3-1.24-.45-2.05-.45s-1.48.15-2.02.45c-.45.28-.71.56-.77.88.62.53,1.54,1.31,2.79,2.34l2.78-2.34c-.06-.33-.3-.63-.73-.88ZM44.13,39.94c-.62,0-.99.22-.99.74s.29.73.79.73c.44,0,.73-.19.99-.47v-.92c-.24-.05-.51-.08-.79-.08ZM53.9,38.25c-.62,0-1.23.34-1.23,1.57,0,1.3.57,1.61,1.11,1.61.51,0,.86-.26,1.14-.57v-2.26c-.27-.21-.58-.35-1.02-.35ZM64.43,12.5c-.13-1.25-.83-1.85-1.91-1.85s-1.68.85-1.68,1.85c0,0-.04.69-.18,1.38-.06.28-.17.57-.32.85.37.38.96.77,1.92.77,1.62,0,2.15-.72,2.2-2.21.02-.32-.03-.79-.03-.79ZM77.55,38.21c-.64,0-1.05.41-1.13,1.24h2.13c-.03-.9-.38-1.24-1-1.24ZM85.77,25.52c-.13-1.25-.83-1.86-1.91-1.86s-1.69.85-1.69,1.86c0,0-.03.69-.18,1.38-.06.28-.16.57-.32.85.38.38.96.78,1.93.78,1.62,0,2.15-.73,2.2-2.22.02-.32-.03-.79-.03-.79ZM85.77,25.52c-.13-1.25-.83-1.86-1.91-1.86s-1.69.85-1.69,1.86c0,0-.03.69-.18,1.38-.06.28-.16.57-.32.85.38.38.96.78,1.93.78,1.62,0,2.15-.73,2.2-2.22.02-.32-.03-.79-.03-.79ZM77.55,38.21c-.64,0-1.05.41-1.13,1.24h2.13c-.03-.9-.38-1.24-1-1.24ZM64.43,12.5c-.13-1.25-.83-1.85-1.91-1.85s-1.68.85-1.68,1.85c0,0-.04.69-.18,1.38-.06.28-.17.57-.32.85.37.38.96.77,1.92.77,1.62,0,2.15-.72,2.2-2.21.02-.32-.03-.79-.03-.79ZM44.17,11.67c-.55-.3-1.24-.45-2.05-.45s-1.48.15-2.02.45c-.45.28-.71.56-.77.88.62.53,1.54,1.31,2.79,2.34l2.78-2.34c-.06-.33-.3-.63-.73-.88ZM21.91,10.83c-1.06,0-2.09.51-2.09,2.34s.96,2.28,1.88,2.28c.79,0,1.38-.31,1.83-.71v-3.4c-.42-.27-.97-.51-1.62-.51ZM53.9,38.25c-.62,0-1.23.34-1.23,1.57,0,1.3.57,1.61,1.11,1.61.51,0,.86-.26,1.14-.57v-2.26c-.27-.21-.58-.35-1.02-.35ZM44.13,39.94c-.62,0-.99.22-.99.74s.29.73.79.73c.44,0,.73-.19.99-.47v-.92c-.24-.05-.51-.08-.79-.08ZM40.72,24.69c-.55-.3-1.25-.45-2.06-.45s-1.49.15-2.04.45c-.45.28-.72.57-.77.89.62.53,1.54,1.32,2.81,2.36l2.79-2.36c-.05-.34-.3-.64-.73-.89ZM29.92,24.56c-.19,0-.4.03-.63.1-.22.07-.44.19-.63.35-.2.17-.36.39-.5.66-.14.26-.21.6-.21,1.01,0,.27.03.54.09.8.06.27.16.53.29.78h2.59v-3.7h-1ZM33.92,41.58h-1.38c-.18.15-.29.31-.29.55,0,.38.23.63,1.04.63.89,0,1.28-.3,1.28-.7,0-.33-.19-.48-.65-.48ZM33.42,38.18c-.52,0-.81.31-.81.81s.29.8.81.8.82-.3.82-.8-.29-.81-.82-.81ZM21.91,10.83c-1.06,0-2.09.51-2.09,2.34s.96,2.28,1.88,2.28c.79,0,1.38-.31,1.83-.71v-3.4c-.42-.27-.97-.51-1.62-.51ZM29.92,24.56c-.19,0-.4.03-.63.1-.22.07-.44.19-.63.35-.2.17-.36.39-.5.66-.14.26-.21.6-.21,1.01,0,.27.03.54.09.8.06.27.16.53.29.78h2.59v-3.7h-1ZM33.42,38.18c-.52,0-.81.31-.81.81s.29.8.81.8.82-.3.82-.8-.29-.81-.82-.81ZM33.92,41.58h-1.38c-.18.15-.29.31-.29.55,0,.38.23.63,1.04.63.89,0,1.28-.3,1.28-.7,0-.33-.19-.48-.65-.48ZM40.72,24.69c-.55-.3-1.25-.45-2.06-.45s-1.49.15-2.04.45c-.45.28-.72.57-.77.89.62.53,1.54,1.32,2.81,2.36l2.79-2.36c-.05-.34-.3-.64-.73-.89ZM44.17,11.67c-.55-.3-1.24-.45-2.05-.45s-1.48.15-2.02.45c-.45.28-.71.56-.77.88.62.53,1.54,1.31,2.79,2.34l2.78-2.34c-.06-.33-.3-.63-.73-.88ZM44.13,39.94c-.62,0-.99.22-.99.74s.29.73.79.73c.44,0,.73-.19.99-.47v-.92c-.24-.05-.51-.08-.79-.08ZM53.9,38.25c-.62,0-1.23.34-1.23,1.57,0,1.3.57,1.61,1.11,1.61.51,0,.86-.26,1.14-.57v-2.26c-.27-.21-.58-.35-1.02-.35ZM64.43,12.5c-.13-1.25-.83-1.85-1.91-1.85s-1.68.85-1.68,1.85c0,0-.04.69-.18,1.38-.06.28-.17.57-.32.85.37.38.96.77,1.92.77,1.62,0,2.15-.72,2.2-2.21.02-.32-.03-.79-.03-.79ZM77.55,38.21c-.64,0-1.05.41-1.13,1.24h2.13c-.03-.9-.38-1.24-1-1.24ZM85.77,25.52c-.13-1.25-.83-1.86-1.91-1.86s-1.69.85-1.69,1.86c0,0-.03.69-.18,1.38-.06.28-.16.57-.32.85.38.38.96.78,1.93.78,1.62,0,2.15-.73,2.2-2.22.02-.32-.03-.79-.03-.79ZM85.77,25.52c-.13-1.25-.83-1.86-1.91-1.86s-1.69.85-1.69,1.86c0,0-.03.69-.18,1.38-.06.28-.16.57-.32.85.38.38.96.78,1.93.78,1.62,0,2.15-.73,2.2-2.22.02-.32-.03-.79-.03-.79ZM77.55,38.21c-.64,0-1.05.41-1.13,1.24h2.13c-.03-.9-.38-1.24-1-1.24ZM64.43,12.5c-.13-1.25-.83-1.85-1.91-1.85s-1.68.85-1.68,1.85c0,0-.04.69-.18,1.38-.06.28-.17.57-.32.85.37.38.96.77,1.92.77,1.62,0,2.15-.72,2.2-2.21.02-.32-.03-.79-.03-.79ZM44.17,11.67c-.55-.3-1.24-.45-2.05-.45s-1.48.15-2.02.45c-.45.28-.71.56-.77.88.62.53,1.54,1.31,2.79,2.34l2.78-2.34c-.06-.33-.3-.63-.73-.88ZM21.91,10.83c-1.06,0-2.09.51-2.09,2.34s.96,2.28,1.88,2.28c.79,0,1.38-.31,1.83-.71v-3.4c-.42-.27-.97-.51-1.62-.51ZM53.9,38.25c-.62,0-1.23.34-1.23,1.57,0,1.3.57,1.61,1.11,1.61.51,0,.86-.26,1.14-.57v-2.26c-.27-.21-.58-.35-1.02-.35ZM44.13,39.94c-.62,0-.99.22-.99.74s.29.73.79.73c.44,0,.73-.19.99-.47v-.92c-.24-.05-.51-.08-.79-.08ZM40.72,24.69c-.55-.3-1.25-.45-2.06-.45s-1.49.15-2.04.45c-.45.28-.72.57-.77.89.62.53,1.54,1.32,2.81,2.36l2.79-2.36c-.05-.34-.3-.64-.73-.89ZM29.92,24.56c-.19,0-.4.03-.63.1-.22.07-.44.19-.63.35-.2.17-.36.39-.5.66-.14.26-.21.6-.21,1.01,0,.27.03.54.09.8.06.27.16.53.29.78h2.59v-3.7h-1ZM33.92,41.58h-1.38c-.18.15-.29.31-.29.55,0,.38.23.63,1.04.63.89,0,1.28-.3,1.28-.7,0-.33-.19-.48-.65-.48ZM33.42,38.18c-.52,0-.81.31-.81.81s.29.8.81.8.82-.3.82-.8-.29-.81-.82-.81ZM21.91,10.83c-1.06,0-2.09.51-2.09,2.34s.96,2.28,1.88,2.28c.79,0,1.38-.31,1.83-.71v-3.4c-.42-.27-.97-.51-1.62-.51ZM29.92,24.56c-.19,0-.4.03-.63.1-.22.07-.44.19-.63.35-.2.17-.36.39-.5.66-.14.26-.21.6-.21,1.01,0,.27.03.54.09.8.06.27.16.53.29.78h2.59v-3.7h-1ZM33.42,38.18c-.52,0-.81.31-.81.81s.29.8.81.8.82-.3.82-.8-.29-.81-.82-.81ZM33.92,41.58h-1.38c-.18.15-.29.31-.29.55,0,.38.23.63,1.04.63.89,0,1.28-.3,1.28-.7,0-.33-.19-.48-.65-.48ZM40.72,24.69c-.55-.3-1.25-.45-2.06-.45s-1.49.15-2.04.45c-.45.28-.72.57-.77.89.62.53,1.54,1.32,2.81,2.36l2.79-2.36c-.05-.34-.3-.64-.73-.89ZM44.17,11.67c-.55-.3-1.24-.45-2.05-.45s-1.48.15-2.02.45c-.45.28-.71.56-.77.88.62.53,1.54,1.31,2.79,2.34l2.78-2.34c-.06-.33-.3-.63-.73-.88ZM44.13,39.94c-.62,0-.99.22-.99.74s.29.73.79.73c.44,0,.73-.19.99-.47v-.92c-.24-.05-.51-.08-.79-.08ZM53.9,38.25c-.62,0-1.23.34-1.23,1.57,0,1.3.57,1.61,1.11,1.61.51,0,.86-.26,1.14-.57v-2.26c-.27-.21-.58-.35-1.02-.35ZM64.43,12.5c-.13-1.25-.83-1.85-1.91-1.85s-1.68.85-1.68,1.85c0,0-.04.69-.18,1.38-.06.28-.17.57-.32.85.37.38.96.77,1.92.77,1.62,0,2.15-.72,2.2-2.21.02-.32-.03-.79-.03-.79ZM77.55,38.21c-.64,0-1.05.41-1.13,1.24h2.13c-.03-.9-.38-1.24-1-1.24ZM85.77,25.52c-.13-1.25-.83-1.86-1.91-1.86s-1.69.85-1.69,1.86c0,0-.03.69-.18,1.38-.06.28-.16.57-.32.85.38.38.96.78,1.93.78,1.62,0,2.15-.73,2.2-2.22.02-.32-.03-.79-.03-.79ZM85.77,25.52c-.13-1.25-.83-1.86-1.91-1.86s-1.69.85-1.69,1.86c0,0-.03.69-.18,1.38-.06.28-.16.57-.32.85.38.38.96.78,1.93.78,1.62,0,2.15-.73,2.2-2.22.02-.32-.03-.79-.03-.79ZM77.55,38.21c-.64,0-1.05.41-1.13,1.24h2.13c-.03-.9-.38-1.24-1-1.24ZM64.43,12.5c-.13-1.25-.83-1.85-1.91-1.85s-1.68.85-1.68,1.85c0,0-.04.69-.18,1.38-.06.28-.17.57-.32.85.37.38.96.77,1.92.77,1.62,0,2.15-.72,2.2-2.21.02-.32-.03-.79-.03-.79ZM44.17,11.67c-.55-.3-1.24-.45-2.05-.45s-1.48.15-2.02.45c-.45.28-.71.56-.77.88.62.53,1.54,1.31,2.79,2.34l2.78-2.34c-.06-.33-.3-.63-.73-.88ZM19.82,13.17c0,1.91.96,2.28,1.88,2.28.79,0,1.38-.31,1.83-.71v-3.4c-.42-.27-.97-.51-1.62-.51-1.06,0-2.09.51-2.09,2.34ZM53.9,38.25c-.62,0-1.23.34-1.23,1.57,0,1.3.57,1.61,1.11,1.61.51,0,.86-.26,1.14-.57v-2.26c-.27-.21-.58-.35-1.02-.35ZM44.13,39.94c-.62,0-.99.22-.99.74s.29.73.79.73c.44,0,.73-.19.99-.47v-.92c-.24-.05-.51-.08-.79-.08ZM40.72,24.69c-.55-.3-1.25-.45-2.06-.45s-1.49.15-2.04.45c-.45.28-.72.57-.77.89.62.53,1.54,1.32,2.81,2.36l2.79-2.36c-.05-.34-.3-.64-.73-.89ZM29.29,24.66c-.22.07-.44.19-.63.35-.2.17-.36.39-.5.66-.14.26-.21.6-.21,1.01,0,.27.03.54.09.8.06.27.16.53.29.78h2.59v-3.7h-1c-.19,0-.4.03-.63.1ZM33.92,41.58h-1.38c-.18.15-.29.31-.29.55,0,.38.23.63,1.04.63.89,0,1.28-.3,1.28-.7,0-.33-.19-.48-.65-.48ZM33.42,39.79c.53,0,.82-.3.82-.8s-.29-.81-.82-.81-.81.31-.81.81.29.8.81.8ZM0,0v52.41h116.46c11.03,0,19.98-8.94,19.98-19.98V0H0ZM66.31,22.92v.71h-3.4v-.71h.97v-.69c0-.52.16-.91.46-1.15s.7-.36,1.19-.36h.69v.71h-.47c-.14,0-.28,0-.41.03-.12.01-.23.05-.33.11-.1.05-.17.14-.23.24-.05.11-.08.25-.08.42v.69h1.61ZM22.83,7.15c.16-.15.37-.23.6-.23s.44.08.6.23c.16.14.24.32.24.51,0,.22-.08.4-.24.55s-.36.22-.6.22-.44-.07-.6-.22c-.17-.15-.25-.33-.25-.55,0-.19.08-.37.25-.51ZM20.45,7.15c.17-.15.37-.23.6-.23s.44.08.61.23c.17.14.25.32.25.51,0,.22-.08.4-.25.55s-.37.22-.61.22-.43-.07-.6-.22c-.16-.15-.24-.33-.24-.55,0-.19.08-.37.24-.51ZM18.05,28.25h5.33v-2.01c0-1.64-.81-2.44-2.14-2.44-.84,0-1.35.19-1.47.83h-.95v-1.35c.47-.18,1.21-.34,2.39-.34,2.25,0,3.72,1.24,3.72,3.29v3.07h-6.88v-1.05ZM25.4,36.74c0,.28-.22.5-.5.5s-.5-.22-.5-.5.22-.49.5-.49.5.22.5.49ZM23.35,41.92h-1.47v-.49l-1.47-2.19-.83.83v1.34h.66v.51h-2.19v-.51h.35c.12,0,.25-.15.25-.26v-4.09c0-.12-.13-.27-.25-.27h-.35v-.53h2.19v.53h-.66v2.5l1.96-2.06c.25-.26.18-.44-.1-.44h-.14v-.53h1.97v.53h-.23c-.14,0-.29.1-.45.27l-1.54,1.54,1.72,2.55c.09.13.22.26.36.26h.22v.51ZM25.9,41.92h-1.95v-.51h.32c.1,0,.22-.12.22-.23v-2.72c0-.1-.11-.23-.21-.23h-.36v-.55h1.28c.12,0,.16.1.16.37v3.13c0,.12.12.23.22.23h.32v.51ZM31.12,41.92h-1.94v-.51h.59v-2.44c0-.52-.24-.65-.67-.65s-.87.18-1.23.4v2.69h.59v.51h-2v-.51h.31c.11,0,.22-.12.22-.23v-2.72c0-.1-.11-.23-.22-.23h-.34v-.55h1.23c.12,0,.21.11.21.52v.11c.42-.39,1.01-.68,1.66-.68.61,0,1.11.22,1.11,1.05v2.5c0,.12.11.23.21.23h.27v.51ZM35.4,38.23h-.36c-.08,0-.18.06-.18.15.12.16.19.37.19.61,0,.78-.63,1.31-1.63,1.31-.32,0-.57-.05-.79-.13-.07.1-.11.22-.11.35,0,.21.14.3.4.3h1.19c.84,0,1.29.33,1.29,1.05,0,.84-.59,1.44-2.15,1.44-1.3,0-1.79-.42-1.79-1,0-.49.35-.76.74-.95-.19-.1-.34-.3-.34-.58,0-.34.18-.58.44-.79-.31-.22-.5-.57-.5-1,0-.8.62-1.36,1.62-1.36.19,0,.36.02.53.05h1.45v.55ZM32.15,29.3c-.58.95-1.24,1.59-1.8,1.89h-1.26v-.73c.72-.2,1.13-.56,1.6-1.16h-3.74c-.18-.36-.33-.75-.46-1.16-.11-.41-.17-.81-.17-1.2,0-.52.1-.99.3-1.41.2-.42.47-.78.81-1.08.34-.3.73-.53,1.18-.69.45-.17.92-.25,1.41-.25h2.54v4.75h3.94c.21,0,.42-.02.63-.06-.38-.3-1.29-1.06-2.76-2.3,0-.69.42-1.33,1.25-1.88.85-.57,1.86-.84,3.04-.84s2.17.27,3.03.85c.82.54,1.22,1.18,1.22,1.87-.17.13-1.1.9-2.79,2.3.21.04.45.06.66.06h4.23c.29,0,.48-.06.58-.19.1-.12.15-.35.15-.68v-1.07c0-.16-.2-.33-.38-.33h-.53v-.84h2.39v1.43c0,.24.03.46.08.67.04.21.13.38.23.53.11.16.26.27.44.35.19.09.41.13.68.13h.31c.27,0,.62-.06.72-.19.09-.12.14-.35.14-.68v-1.9c0-.15-.19-.31-.37-.31h-.54v-.83h2.4v2.31c0,.21.03.41.07.59.05.21.13.38.24.53.1.16.25.27.44.35.19.09.41.13.67.13h1.28v-3.59c0-.16-.2-.33-.37-.33h-.54v-.83h2.39v5.79h-2.36c-.52,0-.93-.14-1.24-.43-.31-.29-.52-.66-.61-1.11-.07.47-.26.84-.56,1.12-.3.28-.82.42-1.54.42h-.13c-.52,0-.94-.14-1.24-.43-.32-.29-.52-.66-.62-1.11-.03.24-.08.45-.17.64-.09.18-.22.34-.38.48-.16.14-.37.24-.62.31-.26.08-.56.11-.93.11h-4.49c-.5,0-1.27-.11-1.98-.56-.85.56-1.87.56-1.87.56h-4.6ZM39.7,41.98c-.64,0-.96-.14-1.18-.27-.06,0-.1.09-.12.21h-.62v-1.65h.64l.08.69c.29.27.58.43,1.19.43.65,0,1.07-.3,1.07-.93,0-.76-.56-.85-1.39-1.08-1-.27-1.49-.69-1.49-1.65,0-1.02.75-1.53,1.8-1.53.57,0,.86.15,1.02.23.06,0,.11-.09.12-.17h.59v1.49h-.62l-.08-.56c-.21-.2-.48-.39-1.03-.39-.59,0-1,.23-1,.84,0,.66.52.78,1.3.99,1.08.29,1.63.64,1.63,1.68s-.66,1.67-1.91,1.67ZM46.27,41.84c-.11.07-.31.13-.55.13-.47,0-.71-.19-.77-.57-.32.38-.73.57-1.3.57-.81,0-1.38-.42-1.38-1.26s.7-1.29,1.68-1.29c.38,0,.67.04.97.11v-.56c0-.54-.31-.73-.85-.73s-.88.19-1.11.4h-.4v-.68c.36-.17.88-.33,1.66-.33.99,0,1.58.32,1.58,1.26v2.26c0,.16.1.26.26.26h.21v.43ZM51.3,41.92h-1.22c-.12,0-.2-.1-.2-.49v-.11c-.44.39-.95.66-1.63.66-.59,0-1.14-.24-1.14-1.05v-2.48c0-.11-.11-.22-.22-.22h-.31v-.55h1.41v2.97c0,.55.28.69.68.69.44,0,.87-.19,1.2-.42v-2.69h-.6v-.55h1.48v3.5c0,.1.11.23.23.23h.32v.51ZM56.33,41.92h-1.22c-.1,0-.16-.12-.17-.58-.3.35-.76.63-1.41.63-.86,0-1.77-.49-1.77-2.12s1.01-2.22,1.86-2.22c.63,0,1.02.23,1.3.5v-1.34h-.61v-.53h1.32c.12,0,.17.08.17.21v4.71c0,.1.11.23.21.23h.32v.51ZM44.05,16.25c-.5,0-1.25-.12-1.96-.57-.85.57-1.86.57-1.86.57h-16.42c-.13,0-.22-.04-.26-.1-.01-.02-.01-.04-.02-.06v-.65c-.46.44-1.24.83-2.27.83-1.44,0-2.96-.67-2.96-3.07s1.65-3.29,3.08-3.29c1.04,0,1.73.32,2.21.79.09-.49.38-.72.57-.72h.86v5.23h14.96c.21-.01.41-.02.63-.06-.38-.29-1.29-1.05-2.74-2.28,0-.69.41-1.32,1.23-1.87.85-.56,1.85-.84,3.02-.84s2.16.28,3.01.85c.81.54,1.21,1.17,1.21,1.86-.16.13-1.09.89-2.77,2.28.21.04.45.05.66.05h12.96c.92-.01,2.18-.16,2.18-1.91v-.43c0-1.82,1.14-3.02,3.15-3.02s3.49,1.26,3.49,3.27-1.23,3.23-3.64,3.23c-1.33,0-2.11-.5-2.67-.84-.52.44-1.25.75-2.27.75h-13.38ZM63.55,36.82h-.32c-.12,0-.25.15-.25.27v2.81c0,1.44-.74,2.11-2.16,2.11s-2.21-.67-2.21-2.11v-2.81c0-.12-.13-.27-.26-.27h-.33v-.53h2.23v.53h-.71v3.13c0,1.13.56,1.42,1.37,1.42s1.37-.28,1.37-1.42v-3.13h-.71v-.53h1.98v.53ZM68.5,41.96h-1.94v-.52h.59v-2.43c0-.53-.24-.65-.67-.65s-.87.18-1.23.4v2.68h.59v.52h-2v-.52h.31c.11,0,.22-.12.22-.22v-2.73c0-.09-.11-.22-.22-.22h-.35v-.55h1.24c.13,0,.21.11.21.51v.12c.42-.39,1.01-.68,1.66-.68.61,0,1.11.22,1.11,1.05v2.5c0,.12.12.22.21.22h.27v.52ZM70.87,41.96h-1.94v-.52h.32c.1,0,.21-.12.21-.22v-2.73c0-.09-.1-.22-.21-.22h-.35v-.55h1.28c.11,0,.15.09.15.37v3.13c0,.12.12.22.23.22h.31v.52ZM69.37,36.78c0-.28.22-.5.51-.5.27,0,.5.22.5.5s-.23.49-.5.49c-.29,0-.51-.22-.51-.49ZM75.46,38.27h-.15c-.15,0-.26.09-.33.26l-1.4,3.43h-.8l-1.37-3.43c-.07-.16-.17-.26-.3-.26h-.16v-.55h1.86v.55h-.59l1.05,2.84h.02l.89-2.37c.1-.27.08-.47-.22-.47h-.2v-.55h1.7v.55ZM79.42,39.98h-3.02c.03.98.46,1.47,1.31,1.47.59,0,.87-.21,1.09-.48h.5v.6c-.33.22-.81.44-1.66.44-1.42,0-2.15-.83-2.15-2.16s.83-2.18,2.06-2.18,1.88.62,1.88,2.04c0,.12-.01.23-.01.27ZM82.98,38.44h-.17c-.65,0-1.02.15-1.33.42v2.58h.67v.52h-2.08v-.52h.31c.11,0,.22-.12.22-.22v-2.73c0-.09-.11-.22-.22-.22h-.34v-.55h1.24c.12,0,.2.1.2.56v.14c.3-.38.67-.74,1.26-.74.1,0,.18.02.24.04v.72ZM84.81,42.01c-.77,0-1.17-.13-1.48-.25v-.88h.53c.1.4.37.56.94.56s.94-.21.94-.65c0-.39-.3-.51-1.02-.62-.87-.13-1.32-.41-1.32-1.25,0-.79.6-1.25,1.62-1.25.67,0,1.08.09,1.39.21v.84h-.51c-.09-.32-.32-.47-.92-.47-.52,0-.82.21-.82.56,0,.37.22.5.96.61.97.15,1.43.41,1.43,1.25s-.57,1.34-1.74,1.34ZM83.71,29.36c-1.33,0-2.12-.5-2.67-.83-.52.43-1.26.74-2.28.74h-.8c-.45-.03-.81-.17-1.09-.43-.32-.29-.52-.66-.62-1.1-.03.22-.09.43-.17.62-.09.19-.21.35-.38.49-.16.13-.36.24-.61.31s-.56.11-.93.11h-1.98c-.52,0-.93-.15-1.24-.43-.32-.29-.52-.66-.62-1.1-.05.36-.17.67-.36.92-.2.25-.5.42-.91.52-.26.06-.96.09-.96.09h-6.09s-.51-.02-.55-.02c-1.96,0-3.16-.93-3.16-2.77,0-.94.32-1.57.61-1.94h.93v.58c-.34.22-.71.57-.71,1.34,0,1.08.79,1.7,2.33,1.76,0,0,.18.01.8.01h5.75c.3,0,.5-.06.59-.19.1-.12.14-.36.14-.7v-5.38c0-.14-.19-.34-.38-.34h-.4v-.8h2.13c.19,0,.27.11.27.33v5.41c0,.24.03.47.07.67.06.2.14.38.25.53.11.15.26.27.44.35.19.08.42.12.69.12h2.12c.3,0,.49-.06.59-.19.09-.12.14-.36.14-.7v-1.89h-.01v-3.47c0-.14-.19-.34-.38-.34h-.4v-.8h2.15c.19,0,.27.11.27.33v5.39c0,.22.02.43.07.63.04.2.12.38.23.54.11.15.26.28.45.37.18.09.41.13.68.13h.51c.92,0,2.48.03,2.48-1.92v-.43c.01-1.82,1.15-3.03,3.16-3.03s3.49,1.26,3.49,3.28c0,.46-.07.88-.2,1.25.05.13.11.26.18.36.21.32.59.48,1.14.48h2.3v-6.21c0-.15-.19-.34-.38-.34h-.4v-.8h2.15c.19,0,.27.11.27.32v8.08h-3.73c-.45-.03-.82-.18-1.1-.44-.3-.29-.49-.64-.59-1.07-.52,1.02-1.62,1.6-3.28,1.6ZM91.42,17.95c0-.21.08-.39.24-.53.16-.15.36-.22.61-.22.23,0,.43.07.6.22.16.14.24.32.24.53s-.08.39-.24.53c-.17.14-.37.21-.6.21-.25,0-.45-.07-.61-.21s-.24-.32-.24-.53ZM88.48,36.78c0,.27-.23.49-.5.49s-.5-.22-.5-.49.22-.5.5-.5.5.22.5.5ZM88.98,41.96h-1.95v-.52h.32c.1,0,.22-.12.22-.22v-2.73c0-.09-.11-.22-.22-.22h-.35v-.55h1.28c.11,0,.16.09.16.37v3.13c0,.12.11.22.22.22h.32v.52ZM91.48,41.91c-.15.06-.4.1-.7.1-.75,0-1.19-.26-1.19-1.06v-2.68h-.54v-.55h.54v-1.15h.88v1.15h.96v.55h-.96v2.59c0,.48.16.58.58.58h.43v.47ZM96.42,38.27h-.18c-.13,0-.25.1-.32.26l-1.34,3.1c-.39.9-.83,1.4-1.24,1.64h-.74v-.49c.47-.14.86-.44,1.17-.93l-1.43-3.32c-.06-.16-.17-.26-.3-.26h-.15v-.55h1.88v.55h-.63l1.09,2.6.87-2.13c.12-.28.1-.47-.2-.47h-.21v-.55h1.73v.55ZM94.25,21.68h-.4v-.8h2.15c.19,0,.27.11.27.33v8.09h-1.64v-7.28c0-.14-.19-.34-.38-.34ZM96.47,16.25h-27.58v-7.29c0-.14-.19-.34-.38-.34h-.4v-.8h2.15c.19,0,.27.11.27.33v7.06h23.67l-.49-2.46c-.32-1.15-1.33-1.9-2.58-1.9h-.15c-1.05,0-2.13.35-2.44.6l-.07.05h-.75v-.94l.13-.06c.55-.27,1.86-.56,3.2-.56h.19c.11.01.85.06,1.25.18.75.16,2.06.97,2.53,2.52l.54,2.33c.04.15.21.25.3.25h.61v1.03ZM129.55,32.44c0,7.21-5.87,13.08-13.08,13.08s-13.09-5.87-13.09-13.08V9.19c4.55-1.07,8.95-2.63,13.08-4.6,4.14,1.97,8.54,3.53,13.09,4.6v23.25ZM83.86,23.66c-1.04,0-1.69.85-1.69,1.86,0,0-.03.69-.18,1.38-.06.28-.16.57-.32.85.38.38.96.78,1.93.78,1.62,0,2.15-.73,2.2-2.22.02-.32-.03-.79-.03-.79-.13-1.25-.83-1.86-1.91-1.86ZM77.55,38.21c-.64,0-1.05.41-1.13,1.24h2.13c-.03-.9-.38-1.24-1-1.24ZM64.46,13.29c.02-.32-.03-.79-.03-.79-.13-1.25-.83-1.85-1.91-1.85s-1.68.85-1.68,1.85c0,0-.04.69-.18,1.38-.06.28-.17.57-.32.85.37.38.96.77,1.92.77,1.62,0,2.15-.72,2.2-2.21ZM52.67,39.82c0,1.3.57,1.61,1.11,1.61.51,0,.86-.26,1.14-.57v-2.26c-.27-.21-.58-.35-1.02-.35-.62,0-1.23.34-1.23,1.57ZM43.14,40.68c0,.52.29.73.79.73.44,0,.73-.19.99-.47v-.92c-.24-.05-.51-.08-.79-.08-.62,0-.99.22-.99.74ZM44.17,11.67c-.55-.3-1.24-.45-2.05-.45s-1.48.15-2.02.45c-.45.28-.71.56-.77.88.62.53,1.54,1.31,2.79,2.34l2.78-2.34c-.06-.33-.3-.63-.73-.88ZM41.45,25.58c-.05-.34-.3-.64-.73-.89-.55-.3-1.25-.45-2.06-.45s-1.49.15-2.04.45c-.45.28-.72.57-.77.89.62.53,1.54,1.32,2.81,2.36l2.79-2.36ZM33.29,42.76c.89,0,1.28-.3,1.28-.7,0-.33-.19-.48-.65-.48h-1.38c-.18.15-.29.31-.29.55,0,.38.23.63,1.04.63ZM32.61,38.99c0,.5.29.8.81.8s.82-.3.82-.8-.29-.81-.82-.81-.81.31-.81.81ZM29.29,24.66c-.22.07-.44.19-.63.35-.2.17-.36.39-.5.66-.14.26-.21.6-.21,1.01,0,.27.03.54.09.8.06.27.16.53.29.78h2.59v-3.7h-1c-.19,0-.4.03-.63.1ZM19.82,13.17c0,1.91.96,2.28,1.88,2.28.79,0,1.38-.31,1.83-.71v-3.4c-.42-.27-.97-.51-1.62-.51-1.06,0-2.09.51-2.09,2.34ZM33.42,38.18c-.52,0-.81.31-.81.81s.29.8.81.8.82-.3.82-.8-.29-.81-.82-.81ZM33.92,41.58h-1.38c-.18.15-.29.31-.29.55,0,.38.23.63,1.04.63.89,0,1.28-.3,1.28-.7,0-.33-.19-.48-.65-.48ZM29.92,24.56c-.19,0-.4.03-.63.1-.22.07-.44.19-.63.35-.2.17-.36.39-.5.66-.14.26-.21.6-.21,1.01,0,.27.03.54.09.8.06.27.16.53.29.78h2.59v-3.7h-1ZM40.72,24.69c-.55-.3-1.25-.45-2.06-.45s-1.49.15-2.04.45c-.45.28-.72.57-.77.89.62.53,1.54,1.32,2.81,2.36l2.79-2.36c-.05-.34-.3-.64-.73-.89ZM44.13,39.94c-.62,0-.99.22-.99.74s.29.73.79.73c.44,0,.73-.19.99-.47v-.92c-.24-.05-.51-.08-.79-.08ZM53.9,38.25c-.62,0-1.23.34-1.23,1.57,0,1.3.57,1.61,1.11,1.61.51,0,.86-.26,1.14-.57v-2.26c-.27-.21-.58-.35-1.02-.35ZM21.91,10.83c-1.06,0-2.09.51-2.09,2.34s.96,2.28,1.88,2.28c.79,0,1.38-.31,1.83-.71v-3.4c-.42-.27-.97-.51-1.62-.51ZM44.17,11.67c-.55-.3-1.24-.45-2.05-.45s-1.48.15-2.02.45c-.45.28-.71.56-.77.88.62.53,1.54,1.31,2.79,2.34l2.78-2.34c-.06-.33-.3-.63-.73-.88ZM64.43,12.5c-.13-1.25-.83-1.85-1.91-1.85s-1.68.85-1.68,1.85c0,0-.04.69-.18,1.38-.06.28-.17.57-.32.85.37.38.96.77,1.92.77,1.62,0,2.15-.72,2.2-2.21.02-.32-.03-.79-.03-.79ZM77.55,38.21c-.64,0-1.05.41-1.13,1.24h2.13c-.03-.9-.38-1.24-1-1.24ZM85.77,25.52c-.13-1.25-.83-1.86-1.91-1.86s-1.69.85-1.69,1.86c0,0-.03.69-.18,1.38-.06.28-.16.57-.32.85.38.38.96.78,1.93.78,1.62,0,2.15-.73,2.2-2.22.02-.32-.03-.79-.03-.79ZM85.77,25.52c-.13-1.25-.83-1.86-1.91-1.86s-1.69.85-1.69,1.86c0,0-.03.69-.18,1.38-.06.28-.16.57-.32.85.38.38.96.78,1.93.78,1.62,0,2.15-.73,2.2-2.22.02-.32-.03-.79-.03-.79ZM77.55,38.21c-.64,0-1.05.41-1.13,1.24h2.13c-.03-.9-.38-1.24-1-1.24ZM64.43,12.5c-.13-1.25-.83-1.85-1.91-1.85s-1.68.85-1.68,1.85c0,0-.04.69-.18,1.38-.06.28-.17.57-.32.85.37.38.96.77,1.92.77,1.62,0,2.15-.72,2.2-2.21.02-.32-.03-.79-.03-.79ZM53.9,38.25c-.62,0-1.23.34-1.23,1.57,0,1.3.57,1.61,1.11,1.61.51,0,.86-.26,1.14-.57v-2.26c-.27-.21-.58-.35-1.02-.35ZM44.13,39.94c-.62,0-.99.22-.99.74s.29.73.79.73c.44,0,.73-.19.99-.47v-.92c-.24-.05-.51-.08-.79-.08ZM44.17,11.67c-.55-.3-1.24-.45-2.05-.45s-1.48.15-2.02.45c-.45.28-.71.56-.77.88.62.53,1.54,1.31,2.79,2.34l2.78-2.34c-.06-.33-.3-.63-.73-.88ZM40.72,24.69c-.55-.3-1.25-.45-2.06-.45s-1.49.15-2.04.45c-.45.28-.72.57-.77.89.62.53,1.54,1.32,2.81,2.36l2.79-2.36c-.05-.34-.3-.64-.73-.89ZM33.92,41.58h-1.38c-.18.15-.29.31-.29.55,0,.38.23.63,1.04.63.89,0,1.28-.3,1.28-.7,0-.33-.19-.48-.65-.48ZM33.42,38.18c-.52,0-.81.31-.81.81s.29.8.81.8.82-.3.82-.8-.29-.81-.82-.81ZM29.92,24.56c-.19,0-.4.03-.63.1-.22.07-.44.19-.63.35-.2.17-.36.39-.5.66-.14.26-.21.6-.21,1.01,0,.27.03.54.09.8.06.27.16.53.29.78h2.59v-3.7h-1ZM21.91,10.83c-1.06,0-2.09.51-2.09,2.34s.96,2.28,1.88,2.28c.79,0,1.38-.31,1.83-.71v-3.4c-.42-.27-.97-.51-1.62-.51ZM33.42,38.18c-.52,0-.81.31-.81.81s.29.8.81.8.82-.3.82-.8-.29-.81-.82-.81ZM33.92,41.58h-1.38c-.18.15-.29.31-.29.55,0,.38.23.63,1.04.63.89,0,1.28-.3,1.28-.7,0-.33-.19-.48-.65-.48ZM29.92,24.56c-.19,0-.4.03-.63.1-.22.07-.44.19-.63.35-.2.17-.36.39-.5.66-.14.26-.21.6-.21,1.01,0,.27.03.54.09.8.06.27.16.53.29.78h2.59v-3.7h-1ZM40.72,24.69c-.55-.3-1.25-.45-2.06-.45s-1.49.15-2.04.45c-.45.28-.72.57-.77.89.62.53,1.54,1.32,2.81,2.36l2.79-2.36c-.05-.34-.3-.64-.73-.89ZM44.13,39.94c-.62,0-.99.22-.99.74s.29.73.79.73c.44,0,.73-.19.99-.47v-.92c-.24-.05-.51-.08-.79-.08ZM53.9,38.25c-.62,0-1.23.34-1.23,1.57,0,1.3.57,1.61,1.11,1.61.51,0,.86-.26,1.14-.57v-2.26c-.27-.21-.58-.35-1.02-.35ZM21.91,10.83c-1.06,0-2.09.51-2.09,2.34s.96,2.28,1.88,2.28c.79,0,1.38-.31,1.83-.71v-3.4c-.42-.27-.97-.51-1.62-.51ZM44.17,11.67c-.55-.3-1.24-.45-2.05-.45s-1.48.15-2.02.45c-.45.28-.71.56-.77.88.62.53,1.54,1.31,2.79,2.34l2.78-2.34c-.06-.33-.3-.63-.73-.88ZM64.43,12.5c-.13-1.25-.83-1.85-1.91-1.85s-1.68.85-1.68,1.85c0,0-.04.69-.18,1.38-.06.28-.17.57-.32.85.37.38.96.77,1.92.77,1.62,0,2.15-.72,2.2-2.21.02-.32-.03-.79-.03-.79ZM77.55,38.21c-.64,0-1.05.41-1.13,1.24h2.13c-.03-.9-.38-1.24-1-1.24ZM85.77,25.52c-.13-1.25-.83-1.86-1.91-1.86s-1.69.85-1.69,1.86c0,0-.03.69-.18,1.38-.06.28-.16.57-.32.85.38.38.96.78,1.93.78,1.62,0,2.15-.73,2.2-2.22.02-.32-.03-.79-.03-.79ZM85.77,25.52c-.13-1.25-.83-1.86-1.91-1.86s-1.69.85-1.69,1.86c0,0-.03.69-.18,1.38-.06.28-.16.57-.32.85.38.38.96.78,1.93.78,1.62,0,2.15-.73,2.2-2.22.02-.32-.03-.79-.03-.79ZM77.55,38.21c-.64,0-1.05.41-1.13,1.24h2.13c-.03-.9-.38-1.24-1-1.24ZM64.43,12.5c-.13-1.25-.83-1.85-1.91-1.85s-1.68.85-1.68,1.85c0,0-.04.69-.18,1.38-.06.28-.17.57-.32.85.37.38.96.77,1.92.77,1.62,0,2.15-.72,2.2-2.21.02-.32-.03-.79-.03-.79ZM53.9,38.25c-.62,0-1.23.34-1.23,1.57,0,1.3.57,1.61,1.11,1.61.51,0,.86-.26,1.14-.57v-2.26c-.27-.21-.58-.35-1.02-.35ZM44.13,39.94c-.62,0-.99.22-.99.74s.29.73.79.73c.44,0,.73-.19.99-.47v-.92c-.24-.05-.51-.08-.79-.08ZM44.17,11.67c-.55-.3-1.24-.45-2.05-.45s-1.48.15-2.02.45c-.45.28-.71.56-.77.88.62.53,1.54,1.31,2.79,2.34l2.78-2.34c-.06-.33-.3-.63-.73-.88ZM40.72,24.69c-.55-.3-1.25-.45-2.06-.45s-1.49.15-2.04.45c-.45.28-.72.57-.77.89.62.53,1.54,1.32,2.81,2.36l2.79-2.36c-.05-.34-.3-.64-.73-.89ZM33.92,41.58h-1.38c-.18.15-.29.31-.29.55,0,.38.23.63,1.04.63.89,0,1.28-.3,1.28-.7,0-.33-.19-.48-.65-.48ZM33.42,38.18c-.52,0-.81.31-.81.81s.29.8.81.8.82-.3.82-.8-.29-.81-.82-.81ZM29.92,24.56c-.19,0-.4.03-.63.1-.22.07-.44.19-.63.35-.2.17-.36.39-.5.66-.14.26-.21.6-.21,1.01,0,.27.03.54.09.8.06.27.16.53.29.78h2.59v-3.7h-1ZM21.91,10.83c-1.06,0-2.09.51-2.09,2.34s.96,2.28,1.88,2.28c.79,0,1.38-.31,1.83-.71v-3.4c-.42-.27-.97-.51-1.62-.51ZM33.42,38.18c-.52,0-.81.31-.81.81s.29.8.81.8.82-.3.82-.8-.29-.81-.82-.81ZM33.92,41.58h-1.38c-.18.15-.29.31-.29.55,0,.38.23.63,1.04.63.89,0,1.28-.3,1.28-.7,0-.33-.19-.48-.65-.48ZM29.92,24.56c-.19,0-.4.03-.63.1-.22.07-.44.19-.63.35-.2.17-.36.39-.5.66-.14.26-.21.6-.21,1.01,0,.27.03.54.09.8.06.27.16.53.29.78h2.59v-3.7h-1ZM40.72,24.69c-.55-.3-1.25-.45-2.06-.45s-1.49.15-2.04.45c-.45.28-.72.57-.77.89.62.53,1.54,1.32,2.81,2.36l2.79-2.36c-.05-.34-.3-.64-.73-.89ZM44.13,39.94c-.62,0-.99.22-.99.74s.29.73.79.73c.44,0,.73-.19.99-.47v-.92c-.24-.05-.51-.08-.79-.08ZM53.9,38.25c-.62,0-1.23.34-1.23,1.57,0,1.3.57,1.61,1.11,1.61.51,0,.86-.26,1.14-.57v-2.26c-.27-.21-.58-.35-1.02-.35ZM21.91,10.83c-1.06,0-2.09.51-2.09,2.34s.96,2.28,1.88,2.28c.79,0,1.38-.31,1.83-.71v-3.4c-.42-.27-.97-.51-1.62-.51ZM44.17,11.67c-.55-.3-1.24-.45-2.05-.45s-1.48.15-2.02.45c-.45.28-.71.56-.77.88.62.53,1.54,1.31,2.79,2.34l2.78-2.34c-.06-.33-.3-.63-.73-.88ZM64.43,12.5c-.13-1.25-.83-1.85-1.91-1.85s-1.68.85-1.68,1.85c0,0-.04.69-.18,1.38-.06.28-.17.57-.32.85.37.38.96.77,1.92.77,1.62,0,2.15-.72,2.2-2.21.02-.32-.03-.79-.03-.79ZM77.55,38.21c-.64,0-1.05.41-1.13,1.24h2.13c-.03-.9-.38-1.24-1-1.24ZM85.77,25.52c-.13-1.25-.83-1.86-1.91-1.86s-1.69.85-1.69,1.86c0,0-.03.69-.18,1.38-.06.28-.16.57-.32.85.38.38.96.78,1.93.78,1.62,0,2.15-.73,2.2-2.22.02-.32-.03-.79-.03-.79ZM85.77,25.52c-.13-1.25-.83-1.86-1.91-1.86s-1.69.85-1.69,1.86c0,0-.03.69-.18,1.38-.06.28-.16.57-.32.85.38.38.96.78,1.93.78,1.62,0,2.15-.73,2.2-2.22.02-.32-.03-.79-.03-.79ZM77.55,38.21c-.64,0-1.05.41-1.13,1.24h2.13c-.03-.9-.38-1.24-1-1.24ZM64.43,12.5c-.13-1.25-.83-1.85-1.91-1.85s-1.68.85-1.68,1.85c0,0-.04.69-.18,1.38-.06.28-.17.57-.32.85.37.38.96.77,1.92.77,1.62,0,2.15-.72,2.2-2.21.02-.32-.03-.79-.03-.79ZM53.9,38.25c-.62,0-1.23.34-1.23,1.57,0,1.3.57,1.61,1.11,1.61.51,0,.86-.26,1.14-.57v-2.26c-.27-.21-.58-.35-1.02-.35ZM44.13,39.94c-.62,0-.99.22-.99.74s.29.73.79.73c.44,0,.73-.19.99-.47v-.92c-.24-.05-.51-.08-.79-.08ZM44.17,11.67c-.55-.3-1.24-.45-2.05-.45s-1.48.15-2.02.45c-.45.28-.71.56-.77.88.62.53,1.54,1.31,2.79,2.34l2.78-2.34c-.06-.33-.3-.63-.73-.88ZM40.72,24.69c-.55-.3-1.25-.45-2.06-.45s-1.49.15-2.04.45c-.45.28-.72.57-.77.89.62.53,1.54,1.32,2.81,2.36l2.79-2.36c-.05-.34-.3-.64-.73-.89ZM33.92,41.58h-1.38c-.18.15-.29.31-.29.55,0,.38.23.63,1.04.63.89,0,1.28-.3,1.28-.7,0-.33-.19-.48-.65-.48ZM33.42,38.18c-.52,0-.81.31-.81.81s.29.8.81.8.82-.3.82-.8-.29-.81-.82-.81ZM29.92,24.56c-.19,0-.4.03-.63.1-.22.07-.44.19-.63.35-.2.17-.36.39-.5.66-.14.26-.21.6-.21,1.01,0,.27.03.54.09.8.06.27.16.53.29.78h2.59v-3.7h-1ZM21.91,10.83c-1.06,0-2.09.51-2.09,2.34s.96,2.28,1.88,2.28c.79,0,1.38-.31,1.83-.71v-3.4c-.42-.27-.97-.51-1.62-.51ZM33.42,38.18c-.52,0-.81.31-.81.81s.29.8.81.8.82-.3.82-.8-.29-.81-.82-.81ZM33.92,41.58h-1.38c-.18.15-.29.31-.29.55,0,.38.23.63,1.04.63.89,0,1.28-.3,1.28-.7,0-.33-.19-.48-.65-.48ZM29.92,24.56c-.19,0-.4.03-.63.1-.22.07-.44.19-.63.35-.2.17-.36.39-.5.66-.14.26-.21.6-.21,1.01,0,.27.03.54.09.8.06.27.16.53.29.78h2.59v-3.7h-1ZM40.72,24.69c-.55-.3-1.25-.45-2.06-.45s-1.49.15-2.04.45c-.45.28-.72.57-.77.89.62.53,1.54,1.32,2.81,2.36l2.79-2.36c-.05-.34-.3-.64-.73-.89ZM44.13,39.94c-.62,0-.99.22-.99.74s.29.73.79.73c.44,0,.73-.19.99-.47v-.92c-.24-.05-.51-.08-.79-.08ZM53.9,38.25c-.62,0-1.23.34-1.23,1.57,0,1.3.57,1.61,1.11,1.61.51,0,.86-.26,1.14-.57v-2.26c-.27-.21-.58-.35-1.02-.35ZM21.91,10.83c-1.06,0-2.09.51-2.09,2.34s.96,2.28,1.88,2.28c.79,0,1.38-.31,1.83-.71v-3.4c-.42-.27-.97-.51-1.62-.51ZM44.17,11.67c-.55-.3-1.24-.45-2.05-.45s-1.48.15-2.02.45c-.45.28-.71.56-.77.88.62.53,1.54,1.31,2.79,2.34l2.78-2.34c-.06-.33-.3-.63-.73-.88ZM64.43,12.5c-.13-1.25-.83-1.85-1.91-1.85s-1.68.85-1.68,1.85c0,0-.04.69-.18,1.38-.06.28-.17.57-.32.85.37.38.96.77,1.92.77,1.62,0,2.15-.72,2.2-2.21.02-.32-.03-.79-.03-.79ZM85.77,25.52c-.13-1.25-.83-1.86-1.91-1.86s-1.69.85-1.69,1.86c0,0-.03.69-.18,1.38-.06.28-.16.57-.32.85.38.38.96.78,1.93.78,1.62,0,2.15-.73,2.2-2.22.02-.32-.03-.79-.03-.79ZM85.77,25.52c-.13-1.25-.83-1.86-1.91-1.86s-1.69.85-1.69,1.86c0,0-.03.69-.18,1.38-.06.28-.16.57-.32.85.38.38.96.78,1.93.78,1.62,0,2.15-.73,2.2-2.22.02-.32-.03-.79-.03-.79ZM64.43,12.5c-.13-1.25-.83-1.85-1.91-1.85s-1.68.85-1.68,1.85c0,0-.04.69-.18,1.38-.06.28-.17.57-.32.85.37.38.96.77,1.92.77,1.62,0,2.15-.72,2.2-2.21.02-.32-.03-.79-.03-.79ZM53.9,38.25c-.62,0-1.23.34-1.23,1.57,0,1.3.57,1.61,1.11,1.61.51,0,.86-.26,1.14-.57v-2.26c-.27-.21-.58-.35-1.02-.35ZM44.13,39.94c-.62,0-.99.22-.99.74s.29.73.79.73c.44,0,.73-.19.99-.47v-.92c-.24-.05-.51-.08-.79-.08ZM44.17,11.67c-.55-.3-1.24-.45-2.05-.45s-1.48.15-2.02.45c-.45.28-.71.56-.77.88.62.53,1.54,1.31,2.79,2.34l2.78-2.34c-.06-.33-.3-.63-.73-.88ZM40.72,24.69c-.55-.3-1.25-.45-2.06-.45s-1.49.15-2.04.45c-.45.28-.72.57-.77.89.62.53,1.54,1.32,2.81,2.36l2.79-2.36c-.05-.34-.3-.64-.73-.89ZM33.92,41.58h-1.38c-.18.15-.29.31-.29.55,0,.38.23.63,1.04.63.89,0,1.28-.3,1.28-.7,0-.33-.19-.48-.65-.48ZM33.42,38.18c-.52,0-.81.31-.81.81s.29.8.81.8.82-.3.82-.8-.29-.81-.82-.81ZM29.92,24.56c-.19,0-.4.03-.63.1-.22.07-.44.19-.63.35-.2.17-.36.39-.5.66-.14.26-.21.6-.21,1.01,0,.27.03.54.09.8.06.27.16.53.29.78h2.59v-3.7h-1ZM21.91,10.83c-1.06,0-2.09.51-2.09,2.34s.96,2.28,1.88,2.28c.79,0,1.38-.31,1.83-.71v-3.4c-.42-.27-.97-.51-1.62-.51ZM33.42,38.18c-.52,0-.81.31-.81.81s.29.8.81.8.82-.3.82-.8-.29-.81-.82-.81ZM33.92,41.58h-1.38c-.18.15-.29.31-.29.55,0,.38.23.63,1.04.63.89,0,1.28-.3,1.28-.7,0-.33-.19-.48-.65-.48ZM29.92,24.56c-.19,0-.4.03-.63.1-.22.07-.44.19-.63.35-.2.17-.36.39-.5.66-.14.26-.21.6-.21,1.01,0,.27.03.54.09.8.06.27.16.53.29.78h2.59v-3.7h-1ZM40.72,24.69c-.55-.3-1.25-.45-2.06-.45s-1.49.15-2.04.45c-.45.28-.72.57-.77.89.62.53,1.54,1.32,2.81,2.36l2.79-2.36c-.05-.34-.3-.64-.73-.89ZM44.13,39.94c-.62,0-.99.22-.99.74s.29.73.79.73c.44,0,.73-.19.99-.47v-.92c-.24-.05-.51-.08-.79-.08ZM53.9,38.25c-.62,0-1.23.34-1.23,1.57,0,1.3.57,1.61,1.11,1.61.51,0,.86-.26,1.14-.57v-2.26c-.27-.21-.58-.35-1.02-.35ZM21.91,10.83c-1.06,0-2.09.51-2.09,2.34s.96,2.28,1.88,2.28c.79,0,1.38-.31,1.83-.71v-3.4c-.42-.27-.97-.51-1.62-.51ZM44.17,11.67c-.55-.3-1.24-.45-2.05-.45s-1.48.15-2.02.45c-.45.28-.71.56-.77.88.62.53,1.54,1.31,2.79,2.34l2.78-2.34c-.06-.33-.3-.63-.73-.88ZM64.43,12.5c-.13-1.25-.83-1.85-1.91-1.85s-1.68.85-1.68,1.85c0,0-.04.69-.18,1.38-.06.28-.17.57-.32.85.37.38.96.77,1.92.77,1.62,0,2.15-.72,2.2-2.21.02-.32-.03-.79-.03-.79ZM85.77,25.52c-.13-1.25-.83-1.86-1.91-1.86s-1.69.85-1.69,1.86c0,0-.03.69-.18,1.38-.06.28-.16.57-.32.85.38.38.96.78,1.93.78,1.62,0,2.15-.73,2.2-2.22.02-.32-.03-.79-.03-.79ZM85.77,25.52c-.13-1.25-.83-1.86-1.91-1.86s-1.69.85-1.69,1.86c0,0-.03.69-.18,1.38-.06.28-.16.57-.32.85.38.38.96.78,1.93.78,1.62,0,2.15-.73,2.2-2.22.02-.32-.03-.79-.03-.79ZM64.43,12.5c-.13-1.25-.83-1.85-1.91-1.85s-1.68.85-1.68,1.85c0,0-.04.69-.18,1.38-.06.28-.17.57-.32.85.37.38.96.77,1.92.77,1.62,0,2.15-.72,2.2-2.21.02-.32-.03-.79-.03-.79ZM53.9,38.25c-.62,0-1.23.34-1.23,1.57,0,1.3.57,1.61,1.11,1.61.51,0,.86-.26,1.14-.57v-2.26c-.27-.21-.58-.35-1.02-.35ZM44.13,39.94c-.62,0-.99.22-.99.74s.29.73.79.73c.44,0,.73-.19.99-.47v-.92c-.24-.05-.51-.08-.79-.08ZM44.17,11.67c-.55-.3-1.24-.45-2.05-.45s-1.48.15-2.02.45c-.45.28-.71.56-.77.88.62.53,1.54,1.31,2.79,2.34l2.78-2.34c-.06-.33-.3-.63-.73-.88ZM40.72,24.69c-.55-.3-1.25-.45-2.06-.45s-1.49.15-2.04.45c-.45.28-.72.57-.77.89.62.53,1.54,1.32,2.81,2.36l2.79-2.36c-.05-.34-.3-.64-.73-.89ZM33.92,41.58h-1.38c-.18.15-.29.31-.29.55,0,.38.23.63,1.04.63.89,0,1.28-.3,1.28-.7,0-.33-.19-.48-.65-.48ZM33.42,38.18c-.52,0-.81.31-.81.81s.29.8.81.8.82-.3.82-.8-.29-.81-.82-.81ZM29.92,24.56c-.19,0-.4.03-.63.1-.22.07-.44.19-.63.35-.2.17-.36.39-.5.66-.14.26-.21.6-.21,1.01,0,.27.03.54.09.8.06.27.16.53.29.78h2.59v-3.7h-1ZM21.91,10.83c-1.06,0-2.09.51-2.09,2.34s.96,2.28,1.88,2.28c.79,0,1.38-.31,1.83-.71v-3.4c-.42-.27-.97-.51-1.62-.51ZM33.42,38.18c-.52,0-.81.31-.81.81s.29.8.81.8.82-.3.82-.8-.29-.81-.82-.81ZM33.92,41.58h-1.38c-.18.15-.29.31-.29.55,0,.38.23.63,1.04.63.89,0,1.28-.3,1.28-.7,0-.33-.19-.48-.65-.48ZM29.92,24.56c-.19,0-.4.03-.63.1-.22.07-.44.19-.63.35-.2.17-.36.39-.5.66-.14.26-.21.6-.21,1.01,0,.27.03.54.09.8.06.27.16.53.29.78h2.59v-3.7h-1ZM40.72,24.69c-.55-.3-1.25-.45-2.06-.45s-1.49.15-2.04.45c-.45.28-.72.57-.77.89.62.53,1.54,1.32,2.81,2.36l2.79-2.36c-.05-.34-.3-.64-.73-.89ZM44.13,39.94c-.62,0-.99.22-.99.74s.29.73.79.73c.44,0,.73-.19.99-.47v-.92c-.24-.05-.51-.08-.79-.08ZM53.9,38.25c-.62,0-1.23.34-1.23,1.57,0,1.3.57,1.61,1.11,1.61.51,0,.86-.26,1.14-.57v-2.26c-.27-.21-.58-.35-1.02-.35ZM21.91,10.83c-1.06,0-2.09.51-2.09,2.34s.96,2.28,1.88,2.28c.79,0,1.38-.31,1.83-.71v-3.4c-.42-.27-.97-.51-1.62-.51ZM44.17,11.67c-.55-.3-1.24-.45-2.05-.45s-1.48.15-2.02.45c-.45.28-.71.56-.77.88.62.53,1.54,1.31,2.79,2.34l2.78-2.34c-.06-.33-.3-.63-.73-.88ZM64.43,12.5c-.13-1.25-.83-1.85-1.91-1.85s-1.68.85-1.68,1.85c0,0-.04.69-.18,1.38-.06.28-.17.57-.32.85.37.38.96.77,1.92.77,1.62,0,2.15-.72,2.2-2.21.02-.32-.03-.79-.03-.79ZM85.77,25.52c-.13-1.25-.83-1.86-1.91-1.86s-1.69.85-1.69,1.86c0,0-.03.69-.18,1.38-.06.28-.16.57-.32.85.38.38.96.78,1.93.78,1.62,0,2.15-.73,2.2-2.22.02-.32-.03-.79-.03-.79ZM85.77,25.52c-.13-1.25-.83-1.86-1.91-1.86s-1.69.85-1.69,1.86c0,0-.03.69-.18,1.38-.06.28-.16.57-.32.85.38.38.96.78,1.93.78,1.62,0,2.15-.73,2.2-2.22.02-.32-.03-.79-.03-.79ZM64.43,12.5c-.13-1.25-.83-1.85-1.91-1.85s-1.68.85-1.68,1.85c0,0-.04.69-.18,1.38-.06.28-.17.57-.32.85.37.38.96.77,1.92.77,1.62,0,2.15-.72,2.2-2.21.02-.32-.03-.79-.03-.79ZM53.9,38.25c-.62,0-1.23.34-1.23,1.57,0,1.3.57,1.61,1.11,1.61.51,0,.86-.26,1.14-.57v-2.26c-.27-.21-.58-.35-1.02-.35ZM44.13,39.94c-.62,0-.99.22-.99.74s.29.73.79.73c.44,0,.73-.19.99-.47v-.92c-.24-.05-.51-.08-.79-.08ZM44.17,11.67c-.55-.3-1.24-.45-2.05-.45s-1.48.15-2.02.45c-.45.28-.71.56-.77.88.62.53,1.54,1.31,2.79,2.34l2.78-2.34c-.06-.33-.3-.63-.73-.88ZM40.72,24.69c-.55-.3-1.25-.45-2.06-.45s-1.49.15-2.04.45c-.45.28-.72.57-.77.89.62.53,1.54,1.32,2.81,2.36l2.79-2.36c-.05-.34-.3-.64-.73-.89ZM33.92,41.58h-1.38c-.18.15-.29.31-.29.55,0,.38.23.63,1.04.63.89,0,1.28-.3,1.28-.7,0-.33-.19-.48-.65-.48ZM33.42,38.18c-.52,0-.81.31-.81.81s.29.8.81.8.82-.3.82-.8-.29-.81-.82-.81ZM29.92,24.56c-.19,0-.4.03-.63.1-.22.07-.44.19-.63.35-.2.17-.36.39-.5.66-.14.26-.21.6-.21,1.01,0,.27.03.54.09.8.06.27.16.53.29.78h2.59v-3.7h-1ZM21.91,10.83c-1.06,0-2.09.51-2.09,2.34s.96,2.28,1.88,2.28c.79,0,1.38-.31,1.83-.71v-3.4c-.42-.27-.97-.51-1.62-.51ZM33.42,38.18c-.52,0-.81.31-.81.81s.29.8.81.8.82-.3.82-.8-.29-.81-.82-.81ZM33.92,41.58h-1.38c-.18.15-.29.31-.29.55,0,.38.23.63,1.04.63.89,0,1.28-.3,1.28-.7,0-.33-.19-.48-.65-.48ZM29.92,24.56c-.19,0-.4.03-.63.1-.22.07-.44.19-.63.35-.2.17-.36.39-.5.66-.14.26-.21.6-.21,1.01,0,.27.03.54.09.8.06.27.16.53.29.78h2.59v-3.7h-1ZM40.72,24.69c-.55-.3-1.25-.45-2.06-.45s-1.49.15-2.04.45c-.45.28-.72.57-.77.89.62.53,1.54,1.32,2.81,2.36l2.79-2.36c-.05-.34-.3-.64-.73-.89ZM44.13,39.94c-.62,0-.99.22-.99.74s.29.73.79.73c.44,0,.73-.19.99-.47v-.92c-.24-.05-.51-.08-.79-.08ZM21.91,10.83c-1.06,0-2.09.51-2.09,2.34s.96,2.28,1.88,2.28c.79,0,1.38-.31,1.83-.71v-3.4c-.42-.27-.97-.51-1.62-.51ZM44.17,11.67c-.55-.3-1.24-.45-2.05-.45s-1.48.15-2.02.45c-.45.28-.71.56-.77.88.62.53,1.54,1.31,2.79,2.34l2.78-2.34c-.06-.33-.3-.63-.73-.88ZM64.43,12.5c-.13-1.25-.83-1.85-1.91-1.85s-1.68.85-1.68,1.85c0,0-.04.69-.18,1.38-.06.28-.17.57-.32.85.37.38.96.77,1.92.77,1.62,0,2.15-.72,2.2-2.21.02-.32-.03-.79-.03-.79ZM85.77,25.52c-.13-1.25-.83-1.86-1.91-1.86s-1.69.85-1.69,1.86c0,0-.03.69-.18,1.38-.06.28-.16.57-.32.85.38.38.96.78,1.93.78,1.62,0,2.15-.73,2.2-2.22.02-.32-.03-.79-.03-.79ZM85.77,25.52c-.13-1.25-.83-1.86-1.91-1.86s-1.69.85-1.69,1.86c0,0-.03.69-.18,1.38-.06.28-.16.57-.32.85.38.38.96.78,1.93.78,1.62,0,2.15-.73,2.2-2.22.02-.32-.03-.79-.03-.79ZM64.43,12.5c-.13-1.25-.83-1.85-1.91-1.85s-1.68.85-1.68,1.85c0,0-.04.69-.18,1.38-.06.28-.17.57-.32.85.37.38.96.77,1.92.77,1.62,0,2.15-.72,2.2-2.21.02-.32-.03-.79-.03-.79ZM44.13,39.94c-.62,0-.99.22-.99.74s.29.73.79.73c.44,0,.73-.19.99-.47v-.92c-.24-.05-.51-.08-.79-.08ZM44.17,11.67c-.55-.3-1.24-.45-2.05-.45s-1.48.15-2.02.45c-.45.28-.71.56-.77.88.62.53,1.54,1.31,2.79,2.34l2.78-2.34c-.06-.33-.3-.63-.73-.88ZM40.72,24.69c-.55-.3-1.25-.45-2.06-.45s-1.49.15-2.04.45c-.45.28-.72.57-.77.89.62.53,1.54,1.32,2.81,2.36l2.79-2.36c-.05-.34-.3-.64-.73-.89ZM33.92,41.58h-1.38c-.18.15-.29.31-.29.55,0,.38.23.63,1.04.63.89,0,1.28-.3,1.28-.7,0-.33-.19-.48-.65-.48ZM33.42,38.18c-.52,0-.81.31-.81.81s.29.8.81.8.82-.3.82-.8-.29-.81-.82-.81ZM29.92,24.56c-.19,0-.4.03-.63.1-.22.07-.44.19-.63.35-.2.17-.36.39-.5.66-.14.26-.21.6-.21,1.01,0,.27.03.54.09.8.06.27.16.53.29.78h2.59v-3.7h-1ZM21.91,10.83c-1.06,0-2.09.51-2.09,2.34s.96,2.28,1.88,2.28c.79,0,1.38-.31,1.83-.71v-3.4c-.42-.27-.97-.51-1.62-.51ZM33.42,38.18c-.52,0-.81.31-.81.81s.29.8.81.8.82-.3.82-.8-.29-.81-.82-.81ZM33.92,41.58h-1.38c-.18.15-.29.31-.29.55,0,.38.23.63,1.04.63.89,0,1.28-.3,1.28-.7,0-.33-.19-.48-.65-.48ZM29.92,24.56c-.19,0-.4.03-.63.1-.22.07-.44.19-.63.35-.2.17-.36.39-.5.66-.14.26-.21.6-.21,1.01,0,.27.03.54.09.8.06.27.16.53.29.78h2.59v-3.7h-1ZM40.72,24.69c-.55-.3-1.25-.45-2.06-.45s-1.49.15-2.04.45c-.45.28-.72.57-.77.89.62.53,1.54,1.32,2.81,2.36l2.79-2.36c-.05-.34-.3-.64-.73-.89ZM21.91,10.83c-1.06,0-2.09.51-2.09,2.34s.96,2.28,1.88,2.28c.79,0,1.38-.31,1.83-.71v-3.4c-.42-.27-.97-.51-1.62-.51ZM44.17,11.67c-.55-.3-1.24-.45-2.05-.45s-1.48.15-2.02.45c-.45.28-.71.56-.77.88.62.53,1.54,1.31,2.79,2.34l2.78-2.34c-.06-.33-.3-.63-.73-.88ZM64.43,12.5c-.13-1.25-.83-1.85-1.91-1.85s-1.68.85-1.68,1.85c0,0-.04.69-.18,1.38-.06.28-.17.57-.32.85.37.38.96.77,1.92.77,1.62,0,2.15-.72,2.2-2.21.02-.32-.03-.79-.03-.79ZM85.77,25.52c-.13-1.25-.83-1.86-1.91-1.86s-1.69.85-1.69,1.86c0,0-.03.69-.18,1.38-.06.28-.16.57-.32.85.38.38.96.78,1.93.78,1.62,0,2.15-.73,2.2-2.22.02-.32-.03-.79-.03-.79ZM85.77,25.52c-.13-1.25-.83-1.86-1.91-1.86s-1.69.85-1.69,1.86c0,0-.03.69-.18,1.38-.06.28-.16.57-.32.85.38.38.96.78,1.93.78,1.62,0,2.15-.73,2.2-2.22.02-.32-.03-.79-.03-.79ZM64.43,12.5c-.13-1.25-.83-1.85-1.91-1.85s-1.68.85-1.68,1.85c0,0-.04.69-.18,1.38-.06.28-.17.57-.32.85.37.38.96.77,1.92.77,1.62,0,2.15-.72,2.2-2.21.02-.32-.03-.79-.03-.79ZM44.17,11.67c-.55-.3-1.24-.45-2.05-.45s-1.48.15-2.02.45c-.45.28-.71.56-.77.88.62.53,1.54,1.31,2.79,2.34l2.78-2.34c-.06-.33-.3-.63-.73-.88ZM40.72,24.69c-.55-.3-1.25-.45-2.06-.45s-1.49.15-2.04.45c-.45.28-.72.57-.77.89.62.53,1.54,1.32,2.81,2.36l2.79-2.36c-.05-.34-.3-.64-.73-.89ZM33.92,41.58h-1.38c-.18.15-.29.31-.29.55,0,.38.23.63,1.04.63.89,0,1.28-.3,1.28-.7,0-.33-.19-.48-.65-.48ZM33.42,38.18c-.52,0-.81.31-.81.81s.29.8.81.8.82-.3.82-.8-.29-.81-.82-.81ZM29.92,24.56c-.19,0-.4.03-.63.1-.22.07-.44.19-.63.35-.2.17-.36.39-.5.66-.14.26-.21.6-.21,1.01,0,.27.03.54.09.8.06.27.16.53.29.78h2.59v-3.7h-1ZM21.91,10.83c-1.06,0-2.09.51-2.09,2.34s.96,2.28,1.88,2.28c.79,0,1.38-.31,1.83-.71v-3.4c-.42-.27-.97-.51-1.62-.51ZM29.92,24.56c-.19,0-.4.03-.63.1-.22.07-.44.19-.63.35-.2.17-.36.39-.5.66-.14.26-.21.6-.21,1.01,0,.27.03.54.09.8.06.27.16.53.29.78h2.59v-3.7h-1ZM40.72,24.69c-.55-.3-1.25-.45-2.06-.45s-1.49.15-2.04.45c-.45.28-.72.57-.77.89.62.53,1.54,1.32,2.81,2.36l2.79-2.36c-.05-.34-.3-.64-.73-.89ZM21.91,10.83c-1.06,0-2.09.51-2.09,2.34s.96,2.28,1.88,2.28c.79,0,1.38-.31,1.83-.71v-3.4c-.42-.27-.97-.51-1.62-.51ZM44.17,11.67c-.55-.3-1.24-.45-2.05-.45s-1.48.15-2.02.45c-.45.28-.71.56-.77.88.62.53,1.54,1.31,2.79,2.34l2.78-2.34c-.06-.33-.3-.63-.73-.88ZM64.43,12.5c-.13-1.25-.83-1.85-1.91-1.85s-1.68.85-1.68,1.85c0,0-.04.69-.18,1.38-.06.28-.17.57-.32.85.37.38.96.77,1.92.77,1.62,0,2.15-.72,2.2-2.21.02-.32-.03-.79-.03-.79ZM85.77,25.52c-.13-1.25-.83-1.86-1.91-1.86s-1.69.85-1.69,1.86c0,0-.03.69-.18,1.38-.06.28-.16.57-.32.85.38.38.96.78,1.93.78,1.62,0,2.15-.73,2.2-2.22.02-.32-.03-.79-.03-.79ZM85.77,25.52c-.13-1.25-.83-1.86-1.91-1.86s-1.69.85-1.69,1.86c0,0-.03.69-.18,1.38-.06.28-.16.57-.32.85.38.38.96.78,1.93.78,1.62,0,2.15-.73,2.2-2.22.02-.32-.03-.79-.03-.79ZM64.43,12.5c-.13-1.25-.83-1.85-1.91-1.85s-1.68.85-1.68,1.85c0,0-.04.69-.18,1.38-.06.28-.17.57-.32.85.37.38.96.77,1.92.77,1.62,0,2.15-.72,2.2-2.21.02-.32-.03-.79-.03-.79ZM44.17,11.67c-.55-.3-1.24-.45-2.05-.45s-1.48.15-2.02.45c-.45.28-.71.56-.77.88.62.53,1.54,1.31,2.79,2.34l2.78-2.34c-.06-.33-.3-.63-.73-.88ZM40.72,24.69c-.55-.3-1.25-.45-2.06-.45s-1.49.15-2.04.45c-.45.28-.72.57-.77.89.62.53,1.54,1.32,2.81,2.36l2.79-2.36c-.05-.34-.3-.64-.73-.89ZM29.92,24.56c-.19,0-.4.03-.63.1-.22.07-.44.19-.63.35-.2.17-.36.39-.5.66-.14.26-.21.6-.21,1.01,0,.27.03.54.09.8.06.27.16.53.29.78h2.59v-3.7h-1ZM21.91,10.83c-1.06,0-2.09.51-2.09,2.34s.96,2.28,1.88,2.28c.79,0,1.38-.31,1.83-.71v-3.4c-.42-.27-.97-.51-1.62-.51ZM29.92,24.56c-.19,0-.4.03-.63.1-.22.07-.44.19-.63.35-.2.17-.36.39-.5.66-.14.26-.21.6-.21,1.01,0,.27.03.54.09.8.06.27.16.53.29.78h2.59v-3.7h-1ZM40.72,24.69c-.55-.3-1.25-.45-2.06-.45s-1.49.15-2.04.45c-.45.28-.72.57-.77.89.62.53,1.54,1.32,2.81,2.36l2.79-2.36c-.05-.34-.3-.64-.73-.89ZM21.91,10.83c-1.06,0-2.09.51-2.09,2.34s.96,2.28,1.88,2.28c.79,0,1.38-.31,1.83-.71v-3.4c-.42-.27-.97-.51-1.62-.51ZM44.17,11.67c-.55-.3-1.24-.45-2.05-.45s-1.48.15-2.02.45c-.45.28-.71.56-.77.88.62.53,1.54,1.31,2.79,2.34l2.78-2.34c-.06-.33-.3-.63-.73-.88ZM64.43,12.5c-.13-1.25-.83-1.85-1.91-1.85s-1.68.85-1.68,1.85c0,0-.04.69-.18,1.38-.06.28-.17.57-.32.85.37.38.96.77,1.92.77,1.62,0,2.15-.72,2.2-2.21.02-.32-.03-.79-.03-.79ZM85.77,25.52c-.13-1.25-.83-1.86-1.91-1.86s-1.69.85-1.69,1.86c0,0-.03.69-.18,1.38-.06.28-.16.57-.32.85.38.38.96.78,1.93.78,1.62,0,2.15-.73,2.2-2.22.02-.32-.03-.79-.03-.79ZM85.77,25.52c-.13-1.25-.83-1.86-1.91-1.86s-1.69.85-1.69,1.86c0,0-.03.69-.18,1.38-.06.28-.16.57-.32.85.38.38.96.78,1.93.78,1.62,0,2.15-.73,2.2-2.22.02-.32-.03-.79-.03-.79ZM64.43,12.5c-.13-1.25-.83-1.85-1.91-1.85s-1.68.85-1.68,1.85c0,0-.04.69-.18,1.38-.06.28-.17.57-.32.85.37.38.96.77,1.92.77,1.62,0,2.15-.72,2.2-2.21.02-.32-.03-.79-.03-.79ZM44.17,11.67c-.55-.3-1.24-.45-2.05-.45s-1.48.15-2.02.45c-.45.28-.71.56-.77.88.62.53,1.54,1.31,2.79,2.34l2.78-2.34c-.06-.33-.3-.63-.73-.88ZM40.72,24.69c-.55-.3-1.25-.45-2.06-.45s-1.49.15-2.04.45c-.45.28-.72.57-.77.89.62.53,1.54,1.32,2.81,2.36l2.79-2.36c-.05-.34-.3-.64-.73-.89ZM29.92,24.56c-.19,0-.4.03-.63.1-.22.07-.44.19-.63.35-.2.17-.36.39-.5.66-.14.26-.21.6-.21,1.01,0,.27.03.54.09.8.06.27.16.53.29.78h2.59v-3.7h-1ZM21.91,10.83c-1.06,0-2.09.51-2.09,2.34s.96,2.28,1.88,2.28c.79,0,1.38-.31,1.83-.71v-3.4c-.42-.27-.97-.51-1.62-.51ZM29.92,24.56c-.19,0-.4.03-.63.1-.22.07-.44.19-.63.35-.2.17-.36.39-.5.66-.14.26-.21.6-.21,1.01,0,.27.03.54.09.8.06.27.16.53.29.78h2.59v-3.7h-1ZM40.72,24.69c-.55-.3-1.25-.45-2.06-.45s-1.49.15-2.04.45c-.45.28-.72.57-.77.89.62.53,1.54,1.32,2.81,2.36l2.79-2.36c-.05-.34-.3-.64-.73-.89ZM21.91,10.83c-1.06,0-2.09.51-2.09,2.34s.96,2.28,1.88,2.28c.79,0,1.38-.31,1.83-.71v-3.4c-.42-.27-.97-.51-1.62-.51ZM44.17,11.67c-.55-.3-1.24-.45-2.05-.45s-1.48.15-2.02.45c-.45.28-.71.56-.77.88.62.53,1.54,1.31,2.79,2.34l2.78-2.34c-.06-.33-.3-.63-.73-.88ZM64.43,12.5c-.13-1.25-.83-1.85-1.91-1.85s-1.68.85-1.68,1.85c0,0-.04.69-.18,1.38-.06.28-.17.57-.32.85.37.38.96.77,1.92.77,1.62,0,2.15-.72,2.2-2.21.02-.32-.03-.79-.03-.79ZM85.77,25.52c-.13-1.25-.83-1.86-1.91-1.86s-1.69.85-1.69,1.86c0,0-.03.69-.18,1.38-.06.28-.16.57-.32.85.38.38.96.78,1.93.78,1.62,0,2.15-.73,2.2-2.22.02-.32-.03-.79-.03-.79ZM85.77,25.52c-.13-1.25-.83-1.86-1.91-1.86s-1.69.85-1.69,1.86c0,0-.03.69-.18,1.38-.06.28-.16.57-.32.85.38.38.96.78,1.93.78,1.62,0,2.15-.73,2.2-2.22.02-.32-.03-.79-.03-.79ZM64.43,12.5c-.13-1.25-.83-1.85-1.91-1.85s-1.68.85-1.68,1.85c0,0-.04.69-.18,1.38-.06.28-.17.57-.32.85.37.38.96.77,1.92.77,1.62,0,2.15-.72,2.2-2.21.02-.32-.03-.79-.03-.79ZM44.17,11.67c-.55-.3-1.24-.45-2.05-.45s-1.48.15-2.02.45c-.45.28-.71.56-.77.88.62.53,1.54,1.31,2.79,2.34l2.78-2.34c-.06-.33-.3-.63-.73-.88ZM40.72,24.69c-.55-.3-1.25-.45-2.06-.45s-1.49.15-2.04.45c-.45.28-.72.57-.77.89.62.53,1.54,1.32,2.81,2.36l2.79-2.36c-.05-.34-.3-.64-.73-.89ZM29.92,24.56c-.19,0-.4.03-.63.1-.22.07-.44.19-.63.35-.2.17-.36.39-.5.66-.14.26-.21.6-.21,1.01,0,.27.03.54.09.8.06.27.16.53.29.78h2.59v-3.7h-1ZM21.91,10.83c-1.06,0-2.09.51-2.09,2.34s.96,2.28,1.88,2.28c.79,0,1.38-.31,1.83-.71v-3.4c-.42-.27-.97-.51-1.62-.51ZM29.92,24.56c-.19,0-.4.03-.63.1-.22.07-.44.19-.63.35-.2.17-.36.39-.5.66-.14.26-.21.6-.21,1.01,0,.27.03.54.09.8.06.27.16.53.29.78h2.59v-3.7h-1ZM40.72,24.69c-.55-.3-1.25-.45-2.06-.45s-1.49.15-2.04.45c-.45.28-.72.57-.77.89.62.53,1.54,1.32,2.81,2.36l2.79-2.36c-.05-.34-.3-.64-.73-.89ZM21.91,10.83c-1.06,0-2.09.51-2.09,2.34s.96,2.28,1.88,2.28c.79,0,1.38-.31,1.83-.71v-3.4c-.42-.27-.97-.51-1.62-.51ZM44.17,11.67c-.55-.3-1.24-.45-2.05-.45s-1.48.15-2.02.45c-.45.28-.71.56-.77.88.62.53,1.54,1.31,2.79,2.34l2.78-2.34c-.06-.33-.3-.63-.73-.88ZM64.43,12.5c-.13-1.25-.83-1.85-1.91-1.85s-1.68.85-1.68,1.85c0,0-.04.69-.18,1.38-.06.28-.17.57-.32.85.37.38.96.77,1.92.77,1.62,0,2.15-.72,2.2-2.21.02-.32-.03-.79-.03-.79ZM64.43,12.5c-.13-1.25-.83-1.85-1.91-1.85s-1.68.85-1.68,1.85c0,0-.04.69-.18,1.38-.06.28-.17.57-.32.85.37.38.96.77,1.92.77,1.62,0,2.15-.72,2.2-2.21.02-.32-.03-.79-.03-.79ZM44.17,11.67c-.55-.3-1.24-.45-2.05-.45s-1.48.15-2.02.45c-.45.28-.71.56-.77.88.62.53,1.54,1.31,2.79,2.34l2.78-2.34c-.06-.33-.3-.63-.73-.88ZM40.72,24.69c-.55-.3-1.25-.45-2.06-.45s-1.49.15-2.04.45c-.45.28-.72.57-.77.89.62.53,1.54,1.32,2.81,2.36l2.79-2.36c-.05-.34-.3-.64-.73-.89ZM29.92,24.56c-.19,0-.4.03-.63.1-.22.07-.44.19-.63.35-.2.17-.36.39-.5.66-.14.26-.21.6-.21,1.01,0,.27.03.54.09.8.06.27.16.53.29.78h2.59v-3.7h-1ZM21.91,10.83c-1.06,0-2.09.51-2.09,2.34s.96,2.28,1.88,2.28c.79,0,1.38-.31,1.83-.71v-3.4c-.42-.27-.97-.51-1.62-.51ZM21.91,10.83c-1.06,0-2.09.51-2.09,2.34s.96,2.28,1.88,2.28c.79,0,1.38-.31,1.83-.71v-3.4c-.42-.27-.97-.51-1.62-.51ZM44.17,11.67c-.55-.3-1.24-.45-2.05-.45s-1.48.15-2.02.45c-.45.28-.71.56-.77.88.62.53,1.54,1.31,2.79,2.34l2.78-2.34c-.06-.33-.3-.63-.73-.88ZM64.43,12.5c-.13-1.25-.83-1.85-1.91-1.85s-1.68.85-1.68,1.85c0,0-.04.69-.18,1.38-.06.28-.17.57-.32.85.37.38.96.77,1.92.77,1.62,0,2.15-.72,2.2-2.21.02-.32-.03-.79-.03-.79ZM64.43,12.5c-.13-1.25-.83-1.85-1.91-1.85s-1.68.85-1.68,1.85c0,0-.04.69-.18,1.38-.06.28-.17.57-.32.85.37.38.96.77,1.92.77,1.62,0,2.15-.72,2.2-2.21.02-.32-.03-.79-.03-.79ZM44.17,11.67c-.55-.3-1.24-.45-2.05-.45s-1.48.15-2.02.45c-.45.28-.71.56-.77.88.62.53,1.54,1.31,2.79,2.34l2.78-2.34c-.06-.33-.3-.63-.73-.88ZM21.91,10.83c-1.06,0-2.09.51-2.09,2.34s.96,2.28,1.88,2.28c.79,0,1.38-.31,1.83-.71v-3.4c-.42-.27-.97-.51-1.62-.51ZM21.91,10.83c-1.06,0-2.09.51-2.09,2.34s.96,2.28,1.88,2.28c.79,0,1.38-.31,1.83-.71v-3.4c-.42-.27-.97-.51-1.62-.51ZM44.17,11.67c-.55-.3-1.24-.45-2.05-.45s-1.48.15-2.02.45c-.45.28-.71.56-.77.88.62.53,1.54,1.31,2.79,2.34l2.78-2.34c-.06-.33-.3-.63-.73-.88ZM64.43,12.5c-.13-1.25-.83-1.85-1.91-1.85s-1.68.85-1.68,1.85c0,0-.04.69-.18,1.38-.06.28-.17.57-.32.85.37.38.96.77,1.92.77,1.62,0,2.15-.72,2.2-2.21.02-.32-.03-.79-.03-.79ZM64.43,12.5c-.13-1.25-.83-1.85-1.91-1.85s-1.68.85-1.68,1.85c0,0-.04.69-.18,1.38-.06.28-.17.57-.32.85.37.38.96.77,1.92.77,1.62,0,2.15-.72,2.2-2.21.02-.32-.03-.79-.03-.79ZM44.17,11.67c-.55-.3-1.24-.45-2.05-.45s-1.48.15-2.02.45c-.45.28-.71.56-.77.88.62.53,1.54,1.31,2.79,2.34l2.78-2.34c-.06-.33-.3-.63-.73-.88ZM21.91,10.83c-1.06,0-2.09.51-2.09,2.34s.96,2.28,1.88,2.28c.79,0,1.38-.31,1.83-.71v-3.4c-.42-.27-.97-.51-1.62-.51Z"/>
      <path class="cls-1" d="M122.36,15.53c-.14-.14-1.94-1.81-4.27-2.09,1.31,1.23,1.39,3.47,1.39,3.47,0,0-.94-2.1-2.55-2.89-.01.55-.02,1.15-.02,1.85,0,2.17.05,4.13.14,5.68.34-.14.61-.15.61-.15,0,0-.27.22-.53.63.56-.1,1.04,0,1.04,0,0,0-.01.02-.02.03-.54.23-1.11.5-1.69.82-.63-.36-1.26-.65-1.86-.88,0-.03-.01-.04-.01-.04,0,0,.54-.1,1.13.04-.24-.38-.51-.6-.51-.6,0,0,.31.01.67.17.08-1.55.13-3.51.13-5.7,0-.7,0-1.3,0-1.85-1.62.79-2.55,2.89-2.55,2.89,0,0,.07-2.24,1.39-3.47-2.33.28-4.13,1.95-4.27,2.09.05-.16,1.1-2.69,4.02-3.34-1.91-.72-3.75-.28-4.02-.21.27-.17,2.6-1.5,4.87-.94-.82-.8-1.87-1.05-1.87-1.05,0,0,1.32-.18,2.38.26.13-.65.34-1.38.5-1.65.17.27.39,1.01.53,1.65,1.06-.44,2.38-.26,2.38-.26,0,0-1.05.25-1.87,1.05,2.26-.56,4.6.77,4.87.94-.27-.07-2.11-.51-4.03.21,2.92.65,3.98,3.18,4.03,3.34Z"/>
      <path class="cls-1" d="M121.25,27.54c0,.18-.12.33-.29.41-.1.06-.23.09-.38.08-.63,0-1.42-.46-2.03-.86-.21.16-.41.25-.54.25-.05,0-.09-.01-.12-.03-.04-.02-.06-.07-.07-.12,0-.12.06-.27.17-.45-.04-.05-.1-.07-.15-.1h.02c-.4-.24-.85-.53-1.4-.89-.54.36-1,.65-1.39.89h.02s-.11.05-.16.1c.12.18.18.33.18.45-.01.05-.04.1-.07.12-.03.02-.07.03-.12.03-.13,0-.33-.09-.54-.25-.62.4-1.4.86-2.03.86-.16.01-.28-.02-.39-.08-.17-.08-.28-.23-.29-.41,0-.27.25-.49.58-.49.21-.01.4.09.5.24.14-.09.43-.29,1.07-.73-.1-.15-.15-.29-.14-.39,0-.05.03-.1.07-.12.11-.08.33,0,.58.16.36-.25.8-.55,1.34-.92-.13-.08-.25-.17-.38-.25-3.42-2.34-5.48-2.53-6.73-2.56,0,0,3.45-.81,7.66,2.09.08.06.16.11.24.17.08-.06.16-.11.25-.17,4.21-2.9,7.65-2.09,7.65-2.09-1.24.03-3.31.22-6.73,2.56-.13.08-.25.17-.37.25.53.37.98.67,1.34.92.25-.16.46-.24.58-.16.03.02.06.07.07.12,0,.1-.04.24-.14.39.64.44.93.64,1.06.73.1-.15.3-.25.51-.24.32,0,.57.22.57.49Z"/>
      <path class="cls-1" d="M115.05,34.81c-.35,0-.48.24-.48.56s.17.47.46.47c.21,0,.41-.07.54-.16-.02-.63-.2-.87-.52-.87ZM115.05,34.81c-.35,0-.48.24-.48.56s.17.47.46.47c.21,0,.41-.07.54-.16-.02-.63-.2-.87-.52-.87ZM115.05,34.81c-.35,0-.48.24-.48.56s.17.47.46.47c.21,0,.41-.07.54-.16-.02-.63-.2-.87-.52-.87ZM115.05,34.81c-.35,0-.48.24-.48.56s.17.47.46.47c.21,0,.41-.07.54-.16-.02-.63-.2-.87-.52-.87ZM115.05,34.81c-.35,0-.48.24-.48.56s.17.47.46.47c.21,0,.41-.07.54-.16-.02-.63-.2-.87-.52-.87ZM115.05,34.81c-.35,0-.48.24-.48.56s.17.47.46.47c.21,0,.41-.07.54-.16-.02-.63-.2-.87-.52-.87ZM115.05,34.81c-.35,0-.48.24-.48.56s.17.47.46.47c.21,0,.41-.07.54-.16-.02-.63-.2-.87-.52-.87ZM115.05,34.81c-.35,0-.48.24-.48.56s.17.47.46.47c.21,0,.41-.07.54-.16-.02-.63-.2-.87-.52-.87ZM115.05,34.81c-.35,0-.48.24-.48.56s.17.47.46.47c.21,0,.41-.07.54-.16-.02-.63-.2-.87-.52-.87ZM115.05,34.81c-.35,0-.48.24-.48.56s.17.47.46.47c.21,0,.41-.07.54-.16-.02-.63-.2-.87-.52-.87ZM115.05,34.81c-.35,0-.48.24-.48.56s.17.47.46.47c.21,0,.41-.07.54-.16-.02-.63-.2-.87-.52-.87ZM115.05,34.81c-.35,0-.48.24-.48.56s.17.47.46.47c.21,0,.41-.07.54-.16-.02-.63-.2-.87-.52-.87ZM115.05,34.81c-.35,0-.48.24-.48.56s.17.47.46.47c.21,0,.41-.07.54-.16-.02-.63-.2-.87-.52-.87ZM115.05,34.81c-.35,0-.48.24-.48.56s.17.47.46.47c.21,0,.41-.07.54-.16-.02-.63-.2-.87-.52-.87ZM115.05,34.81c-.35,0-.48.24-.48.56s.17.47.46.47c.21,0,.41-.07.54-.16-.02-.63-.2-.87-.52-.87ZM115.05,34.81c-.35,0-.48.24-.48.56s.17.47.46.47c.21,0,.41-.07.54-.16-.02-.63-.2-.87-.52-.87ZM115.05,34.81c-.35,0-.48.24-.48.56s.17.47.46.47c.21,0,.41-.07.54-.16-.02-.63-.2-.87-.52-.87ZM115.05,34.81c-.35,0-.48.24-.48.56s.17.47.46.47c.21,0,.41-.07.54-.16-.02-.63-.2-.87-.52-.87ZM115.05,34.81c-.35,0-.48.24-.48.56s.17.47.46.47c.21,0,.41-.07.54-.16-.02-.63-.2-.87-.52-.87ZM115.05,34.81c-.35,0-.48.24-.48.56s.17.47.46.47c.21,0,.41-.07.54-.16-.02-.63-.2-.87-.52-.87ZM115.05,34.81c-.35,0-.48.24-.48.56s.17.47.46.47c.21,0,.41-.07.54-.16-.02-.63-.2-.87-.52-.87ZM115.05,34.81c-.35,0-.48.24-.48.56s.17.47.46.47c.21,0,.41-.07.54-.16-.02-.63-.2-.87-.52-.87ZM115.05,34.81c-.35,0-.48.24-.48.56s.17.47.46.47c.21,0,.41-.07.54-.16-.02-.63-.2-.87-.52-.87ZM115.05,34.81c-.35,0-.48.24-.48.56s.17.47.46.47c.21,0,.41-.07.54-.16-.02-.63-.2-.87-.52-.87ZM115.05,34.81c-.35,0-.48.24-.48.56s.17.47.46.47c.21,0,.41-.07.54-.16-.02-.63-.2-.87-.52-.87ZM115.05,34.81c-.35,0-.48.24-.48.56s.17.47.46.47c.21,0,.41-.07.54-.16-.02-.63-.2-.87-.52-.87ZM115.05,34.81c-.35,0-.48.24-.48.56s.17.47.46.47c.21,0,.41-.07.54-.16-.02-.63-.2-.87-.52-.87ZM115.05,34.81c-.35,0-.48.24-.48.56s.17.47.46.47c.21,0,.41-.07.54-.16-.02-.63-.2-.87-.52-.87ZM115.05,34.81c-.35,0-.48.24-.48.56s.17.47.46.47c.21,0,.41-.07.54-.16-.02-.63-.2-.87-.52-.87ZM115.05,34.81c-.35,0-.48.24-.48.56s.17.47.46.47c.21,0,.41-.07.54-.16-.02-.63-.2-.87-.52-.87ZM115.05,34.81c-.35,0-.48.24-.48.56s.17.47.46.47c.21,0,.41-.07.54-.16-.02-.63-.2-.87-.52-.87ZM115.05,34.81c-.35,0-.48.24-.48.56s.17.47.46.47c.21,0,.41-.07.54-.16-.02-.63-.2-.87-.52-.87ZM120.15,31.81c-1.19-.54-2.15-.45-2.63-.23-.47.21-.86,1.04-1.06,1.96-.19-.92-.58-1.75-1.05-1.96-.48-.22-1.45-.31-2.64.23-1.74.81-2.8.7-3.39.64l1.55,7.17s.75-.04,2.2-.52c1.35-.45,2.6-.09,3.33.74.73-.83,1.98-1.19,3.33-.74,1.45.48,2.21.52,2.21.52l1.55-7.17c-.59.06-1.66.17-3.4-.64ZM113.46,37.37h-.66v-2.27l-.36.19h-.17v-.44l.74-.44h.45v2.96ZM114.74,37.4c-.28,0-.48-.04-.66-.11v-.49h.24c.06.06.21.14.45.14.56,0,.74-.31.78-.84-.17.13-.43.19-.66.19-.58,0-.97-.32-.97-.9s.45-1.01,1.13-1.01,1.18.47,1.18,1.45-.53,1.57-1.49,1.57ZM117.28,37.4c-.38,0-.61-.08-.81-.21v-.47h.24c.1.11.29.21.56.21.33,0,.58-.18.58-.51s-.19-.48-.43-.48c-.26,0-.39.11-.47.2h-.39v-1.73h1.78v.52h-1.31v.69h.01c.11-.07.28-.15.54-.15.52,0,.92.29.92.93s-.5,1-1.22,1ZM120.61,34.97l-1.02,2.4h-.63v-.26l1.16-2.17h0s-1.51,0-1.51,0v-.52h2v.56ZM115.05,34.81c-.35,0-.48.24-.48.56s.17.47.46.47c.21,0,.41-.07.54-.16-.02-.63-.2-.87-.52-.87ZM115.05,34.81c-.35,0-.48.24-.48.56s.17.47.46.47c.21,0,.41-.07.54-.16-.02-.63-.2-.87-.52-.87ZM115.05,34.81c-.35,0-.48.24-.48.56s.17.47.46.47c.21,0,.41-.07.54-.16-.02-.63-.2-.87-.52-.87ZM115.05,34.81c-.35,0-.48.24-.48.56s.17.47.46.47c.21,0,.41-.07.54-.16-.02-.63-.2-.87-.52-.87ZM115.05,34.81c-.35,0-.48.24-.48.56s.17.47.46.47c.21,0,.41-.07.54-.16-.02-.63-.2-.87-.52-.87ZM115.05,34.81c-.35,0-.48.24-.48.56s.17.47.46.47c.21,0,.41-.07.54-.16-.02-.63-.2-.87-.52-.87ZM115.05,34.81c-.35,0-.48.24-.48.56s.17.47.46.47c.21,0,.41-.07.54-.16-.02-.63-.2-.87-.52-.87ZM115.05,34.81c-.35,0-.48.24-.48.56s.17.47.46.47c.21,0,.41-.07.54-.16-.02-.63-.2-.87-.52-.87ZM115.05,34.81c-.35,0-.48.24-.48.56s.17.47.46.47c.21,0,.41-.07.54-.16-.02-.63-.2-.87-.52-.87ZM115.05,34.81c-.35,0-.48.24-.48.56s.17.47.46.47c.21,0,.41-.07.54-.16-.02-.63-.2-.87-.52-.87ZM115.05,34.81c-.35,0-.48.24-.48.56s.17.47.46.47c.21,0,.41-.07.54-.16-.02-.63-.2-.87-.52-.87ZM115.05,34.81c-.35,0-.48.24-.48.56s.17.47.46.47c.21,0,.41-.07.54-.16-.02-.63-.2-.87-.52-.87ZM115.05,34.81c-.35,0-.48.24-.48.56s.17.47.46.47c.21,0,.41-.07.54-.16-.02-.63-.2-.87-.52-.87ZM115.05,34.81c-.35,0-.48.24-.48.56s.17.47.46.47c.21,0,.41-.07.54-.16-.02-.63-.2-.87-.52-.87ZM115.05,34.81c-.35,0-.48.24-.48.56s.17.47.46.47c.21,0,.41-.07.54-.16-.02-.63-.2-.87-.52-.87ZM115.05,34.81c-.35,0-.48.24-.48.56s.17.47.46.47c.21,0,.41-.07.54-.16-.02-.63-.2-.87-.52-.87ZM115.05,34.81c-.35,0-.48.24-.48.56s.17.47.46.47c.21,0,.41-.07.54-.16-.02-.63-.2-.87-.52-.87ZM115.05,34.81c-.35,0-.48.24-.48.56s.17.47.46.47c.21,0,.41-.07.54-.16-.02-.63-.2-.87-.52-.87ZM115.05,34.81c-.35,0-.48.24-.48.56s.17.47.46.47c.21,0,.41-.07.54-.16-.02-.63-.2-.87-.52-.87ZM115.05,34.81c-.35,0-.48.24-.48.56s.17.47.46.47c.21,0,.41-.07.54-.16-.02-.63-.2-.87-.52-.87ZM115.05,34.81c-.35,0-.48.24-.48.56s.17.47.46.47c.21,0,.41-.07.54-.16-.02-.63-.2-.87-.52-.87ZM115.05,34.81c-.35,0-.48.24-.48.56s.17.47.46.47c.21,0,.41-.07.54-.16-.02-.63-.2-.87-.52-.87ZM115.05,34.81c-.35,0-.48.24-.48.56s.17.47.46.47c.21,0,.41-.07.54-.16-.02-.63-.2-.87-.52-.87ZM115.05,34.81c-.35,0-.48.24-.48.56s.17.47.46.47c.21,0,.41-.07.54-.16-.02-.63-.2-.87-.52-.87ZM115.05,34.81c-.35,0-.48.24-.48.56s.17.47.46.47c.21,0,.41-.07.54-.16-.02-.63-.2-.87-.52-.87ZM115.05,34.81c-.35,0-.48.24-.48.56s.17.47.46.47c.21,0,.41-.07.54-.16-.02-.63-.2-.87-.52-.87ZM115.05,34.81c-.35,0-.48.24-.48.56s.17.47.46.47c.21,0,.41-.07.54-.16-.02-.63-.2-.87-.52-.87ZM115.05,34.81c-.35,0-.48.24-.48.56s.17.47.46.47c.21,0,.41-.07.54-.16-.02-.63-.2-.87-.52-.87ZM115.05,34.81c-.35,0-.48.24-.48.56s.17.47.46.47c.21,0,.41-.07.54-.16-.02-.63-.2-.87-.52-.87ZM115.05,34.81c-.35,0-.48.24-.48.56s.17.47.46.47c.21,0,.41-.07.54-.16-.02-.63-.2-.87-.52-.87ZM115.05,34.81c-.35,0-.48.24-.48.56s.17.47.46.47c.21,0,.41-.07.54-.16-.02-.63-.2-.87-.52-.87ZM115.05,34.81c-.35,0-.48.24-.48.56s.17.47.46.47c.21,0,.41-.07.54-.16-.02-.63-.2-.87-.52-.87ZM115.05,34.81c-.35,0-.48.24-.48.56s.17.47.46.47c.21,0,.41-.07.54-.16-.02-.63-.2-.87-.52-.87Z"/>
    </g>
  </g>
</svg>