<?xml version="1.0" encoding="UTF-8"?>
<svg id="Layer_2" data-name="Layer 2" xmlns="http://www.w3.org/2000/svg" viewBox="0 0 189.29 56.5">
  <defs>
    <style>
      .cls-1 {
        fill: #626370;
      }
    </style>
  </defs>
  <g id="Layer_1-2" data-name="Layer 1">
    <g>
      <g>
        <g>
          <path class="cls-1" d="M173.47,47.62l1.28,8.88,2.81-4.54-.85-6.21c.07-.07.18-.11.25-.2.36-.29.7-.56.97-.83.34.34.72.67,1.1.94s.83.56,1.35.85c.72.43,1.46.76,2.16,1.03.72.27,1.35.43,1.89.43.61.02,1.21-.22,1.78-.76s1.1-1.28,1.64-2.25c.09-.18.18-.36.2-.61s.04-.52,0-.81c-.02-.29-.07-.61-.11-.9-.04-.31-.16-.63-.27-.99-.18-.54-.36-1.08-.61-1.6-.25-.52-.52-1.01-.81-1.46s-.58-.81-.9-1.1c-.31-.29-.61-.47-.9-.54-.56-.09-1.08,0-1.53.31-.81.52-1.51,1.12-2.09,1.8s-1.08,1.37-1.53,2.16l-2.38,2.47c.07.09.11.18.18.22.04.04.09.16.2.27-.22.09-.47.2-.72.29l-2.72-19.7-3.06,3.49,2.41,16.8h-1.17l-2.02-16.37-2.99,3.1,2.02,16.32h0l.43,3.22c-.34-.11-.7-.25-1.06-.38-.36-.16-.72-.29-1.06-.47-.72-.34-1.42-.72-2.11-1.12-.72-.43-1.35-.88-1.96-1.35-.58-.47-1.12-.94-1.6-1.42-.47-.49-.79-.97-.99-1.42h.22c.07,0,.16-.02.22-.04.38-.04.83-.09,1.3-.11.49,0,1.03-.04,1.62-.07l2.97-3.08c-.56,0-1.1,0-1.57.04-.49.04-.94.07-1.37.16-.43.07-.81.16-1.15.25-.34.07-.67.18-.9.27-.47.22-1.15.79-2.07,1.69-.81.83-1.39,1.48-1.8,1.96-.38.49-.58.81-.58.97-.07.49.07,1.03.47,1.62.38.58.9,1.15,1.57,1.75.67.58,1.39,1.12,2.27,1.66.83.54,1.69,1.01,2.56,1.39.52.27,1.06.52,1.55.7.52.2.99.31,1.42.43.45.09.85.16,1.21.16.34,0,.61-.04.83-.18.9-.52,1.62-1.03,2.18-1.53.54-.52.9-1.03,1.08-1.53.04-.16.07-.29.11-.45.02-.16.02-.34,0-.56l-.31-2.43,1.15-.54-.22-.09ZM184.19,44.78c-.49-.22-.97-.45-1.42-.72-.52-.31-1.03-.63-1.55-1.01-.52-.34-.94-.72-1.28-1.08.29-.43.54-.81.76-1.21.2-.38.38-.81.58-1.24,0-.04.04-.09.09-.11.22-.04.45-.02.67,0,.29.04.58.25.9.54.31.29.61.67.9,1.1.29.45.56.9.81,1.46.25.52.47,1.06.63,1.6.04.22.11.43.16.58.04.18.07.36.11.58-.45-.11-.9-.31-1.37-.54v.04Z"/>
          <path class="cls-1" d="M166.77,24.16c.11.09.27.11.47.04s.47-.16.81-.27.74-.25,1.17-.36c.45-.11.9-.18,1.37-.18l-1.01,1.12.76,3.1,2.81-3.13v-.04h.02l-.74-3.13c-.49-.43-.97-.72-1.46-.85-.47-.16-.94-.22-1.37-.2-.45,0-.85.07-1.26.2s-.76.25-1.1.34c-.2.07-.36.11-.52.2-.16.07-.29.09-.43.07.07-.49.2-.97.38-1.37.18-.43.38-.74.63-.94l-.76-3.13c-.25.25-.49.63-.7,1.15-.2.52-.31,1.08-.38,1.66-.09,1.03-.04,2.05.11,3.06.18.99.56,1.87,1.15,2.61l.04.04Z"/>
          <polygon class="cls-1" points="142.1 39.32 140.57 38.35 138.57 40.02 140.33 41.1 141.47 40.11 143 41.1 144.98 39.43 143.23 38.35 142.1 39.32"/>
          <polygon class="cls-1" points="154.2 28.41 151.86 27.27 150.22 29.76 152.56 30.89 154.2 28.41"/>
          <path class="cls-1" d="M157.69,37.18l.99,7.51,3.04-3.1-.58-4.41h.79l2.97-2.92-2.14-15.69-2.97,2.92,1.93,13.42h-.9l-1.8-13.22-2.97,3.1,1.35,10.21c-.11-.02-.25-.07-.38-.11-.43-.16-.88-.34-1.33-.61-.47-.25-.94-.54-1.39-.83-.47-.31-.97-.63-1.42-.99-.56-.36-1.12-.74-1.66-1.1-.54-.34-1.08-.67-1.57-.88-.52-.22-.99-.38-1.42-.47-.45-.07-.85,0-1.21.18-.49.25-.9.49-1.26.74-.34.27-.61.54-.85.81-.22.27-.38.56-.52.85-.11.29-.2.58-.22.88-.04.25-.04.47,0,.72.02.25.07.49.11.74l1.96-2.16c0-.11-.04-.22-.07-.34,0-.11-.04-.25-.04-.36.36.02.81.16,1.28.36s.97.49,1.46.79.99.63,1.51.97c.49.34.99.63,1.42.94h-8.32l-1.01-5.89-2.45,2.09.52,2.97c-.34-.2-.67-.43-.94-.67-.38-.36-.72-.79-.99-1.24-.25-.47-.47-.9-.63-1.37-.18-.47-.29-.9-.43-1.33-.11-.43-.22-.76-.29-1.03-.09-.22-.18-.45-.27-.67-.07-.22-.18-.45-.27-.67l-1.12,1.15-1.1,1.12c.22.49.38,1.06.56,1.62.18.58.31,1.17.45,1.78.18.81.31,1.57.43,2.29.09.72.18,1.33.18,1.84,0,.11-.02.22-.11.31s-.22.18-.36.25c-.18.07-.34.16-.56.2-.22.07-.45.11-.7.2-.36.09-.76.2-1.15.29-.38.09-.76.22-1.15.36-.36.16-.74.29-1.08.49s-.67.43-.94.67l-2.18,2.27c.27-.25.58-.47.94-.63s.7-.34,1.06-.49.74-.27,1.12-.36c.38-.09.79-.2,1.17-.29.76-.2,1.51-.38,2.18-.58.7-.2,1.33-.47,1.89-.79s1.03-.72,1.39-1.17.61-1.06.72-1.78c0,0,.02.02.04.04l-.04.04h.11c.34.31.7.54,1.01.72.2.09.43.18.63.22.07.02.2.04.34.04h.29c3.37.04,12.39.07,16.3.07h.7v-.04h-.02Z"/>
        </g>
        <g>
          <path class="cls-1" d="M185.86,28.12c-3.37,7.51-7.08,13.13-7.94,12.66-.85-.49,1.12-7.55,4.5-15.04,3.37-7.51,5.67-18.03,6.52-17.56.85.45.29,12.43-3.08,19.94"/>
          <path class="cls-1" d="M182.73,20.39c-2.18,7.91-4.99,14.08-5.94,13.72-.94-.34-.02-7.62,2.16-15.54,2.18-7.91,2.86-18.68,3.78-18.35.94.34,2.18,12.25,0,20.17"/>
          <path class="cls-1" d="M179.36,11.89c-1.6,8.48-2.9,14.53-3.87,14.3-.97-.25-.58-7.58.7-15.69,1.28-8.14,1.01-10.73,1.96-10.48.97.22,2.25,6.39,1.21,11.87"/>
        </g>
      </g>
      <g>
        <g>
          <g>
            <path class="cls-1" d="M4.5,17.22L.02,27.2h1.89l.99-2.32h4.99l.99,2.32h1.93l-4.5-9.98h-1.82ZM3.51,23.45l1.87-4.36,1.87,4.36h-3.73Z"/>
            <polygon class="cls-1" points="21.47 17.22 17.56 23.83 13.6 17.22 12.07 17.22 12.07 27.2 13.85 27.2 13.85 20.68 17.13 26.08 17.97 26.08 21.23 20.59 21.23 27.2 23.02 27.2 22.98 17.22 21.47 17.22"/>
            <path class="cls-1" d="M28.76,17.22l-4.47,9.98h1.89l.99-2.32h4.99l.99,2.32h1.93l-4.5-9.98h-1.82ZM27.79,23.45l1.87-4.36,1.87,4.36h-3.73Z"/>
            <polygon class="cls-1" points="38.2 17.22 36.36 17.22 36.36 27.2 43.42 27.2 43.42 25.63 38.2 25.63 38.2 17.22"/>
            <path class="cls-1" d="M55.85,17.22l-4.47,9.98h1.89l.99-2.32h4.99l.99,2.32h1.93l-4.5-9.98h-1.82ZM54.86,23.45l1.87-4.36,1.87,4.36h-3.73Z"/>
            <polygon class="cls-1" points="65.27 17.22 63.41 17.22 63.41 27.2 70.49 27.2 70.49 25.63 65.27 25.63 65.27 17.22"/>
            <polygon class="cls-1" points="84.77 17.22 82.65 17.22 77.75 22.34 77.75 17.22 75.89 17.22 75.89 27.2 77.75 27.2 77.75 24.61 79.33 23.02 82.83 27.2 85.04 27.2 80.56 21.69 84.77 17.22"/>
            <polygon class="cls-1" points="93.29 21.35 88.12 21.35 88.12 17.22 86.27 17.22 86.27 27.2 88.12 27.2 88.12 22.93 93.29 22.93 93.29 27.2 95.11 27.2 95.11 17.22 93.29 17.22 93.29 21.35"/>
            <path class="cls-1" d="M100.89,17.22l-4.47,9.98h1.89l.99-2.32h4.99l.99,2.32h1.93l-4.5-9.98h-1.82ZM99.9,23.45l1.87-4.36,1.87,4.36h-3.73Z"/>
            <rect class="cls-1" x="108.49" y="17.22" width="1.84" height="9.98"/>
            <path class="cls-1" d="M121.55,27.2l-2.29-3.26s.09-.02.16-.04c.63-.29,1.1-.7,1.46-1.21.34-.52.52-1.15.52-1.87s-.18-1.37-.52-1.91-.83-.94-1.46-1.24c-.63-.27-1.37-.43-2.27-.43h-4.11v9.98h1.84v-2.9h2.65l2.05,2.92h2l-.02-.04ZM118.88,19.31c.43.34.61.83.61,1.46s-.2,1.1-.61,1.48c-.43.34-1.03.52-1.84.52h-2.16v-4h2.16c.81,0,1.42.18,1.84.52v.02Z"/>
          </g>
          <rect class="cls-1" y="32.01" width="121.55" height=".29"/>
        </g>
        <g>
          <path class="cls-1" d="M50.12,53.48c-.31,0-.58-.07-.81-.2-.22-.11-.43-.31-.54-.54s-.2-.49-.2-.79.07-.54.2-.79c.11-.22.29-.38.52-.54.22-.11.47-.2.74-.2s.52.07.74.2c.22.11.38.29.52.54.11.22.2.49.2.79s0,.04,0,.04v.07h-2.59v-.29h2.36l-.16.11c0-.22-.04-.38-.16-.56-.09-.18-.22-.29-.36-.38-.16-.09-.34-.16-.54-.16s-.38.04-.54.16c-.18.09-.29.22-.36.38-.09.18-.16.36-.16.58v.07c0,.22.04.43.16.58.09.18.25.29.43.38s.38.16.61.16.34-.02.52-.09c.16-.07.29-.18.38-.29l.22.27c-.11.16-.29.27-.49.36-.2.07-.43.11-.63.11l-.07.02Z"/>
          <path class="cls-1" d="M53.06,53.48c-.25,0-.47-.02-.7-.09-.22-.07-.38-.16-.52-.27l.18-.31c.11.09.27.18.47.25s.38.09.58.09.49-.04.61-.11.2-.2.2-.34-.02-.2-.09-.25c-.07-.07-.18-.09-.27-.16-.11-.02-.25-.04-.36-.07-.16,0-.27-.04-.43-.07s-.27-.07-.36-.11c-.11-.04-.2-.16-.27-.25s-.09-.25-.09-.43.04-.29.16-.45c.09-.11.22-.22.38-.29.18-.07.38-.09.63-.09s.38.02.56.07c.2.04.34.11.47.2l-.18.31c-.11-.09-.27-.16-.43-.2s-.29-.04-.45-.04c-.27,0-.47.04-.58.16-.11.09-.2.22-.2.34s.02.2.09.27c.07.07.18.11.27.16.11.02.25.07.36.09.11.02.27.04.43.07s.27.07.36.11c.11.04.2.11.27.22.07.09.09.22.09.38s-.04.31-.16.45c-.09.11-.25.22-.43.29-.18.07-.38.09-.67.09l.07-.02Z"/>
          <path class="cls-1" d="M54.55,50.83v-.34h1.84v.34h-1.84ZM55.94,53.48c-.27,0-.49-.07-.63-.22-.16-.16-.22-.36-.22-.63v-2.79h.38v2.74c0,.18.04.29.11.38.09.09.22.16.36.16.16,0,.31-.04.45-.16l.16.29c-.07.07-.18.11-.29.16-.11.02-.22.04-.34.04l.02.02Z"/>
          <path class="cls-1" d="M57.38,53.48c-.07,0-.16-.02-.22-.09-.04-.04-.09-.11-.09-.22s.02-.18.09-.22c.04-.04.11-.07.22-.07s.16.02.22.07c.04.04.09.11.09.22s-.02.16-.09.22c-.04.04-.11.09-.22.09Z"/>
          <path class="cls-1" d="M59.7,53.46v-.29l1.64-1.6c.16-.16.27-.27.34-.38s.11-.22.16-.31c.02-.09.04-.2.04-.27,0-.22-.07-.43-.25-.54-.16-.11-.38-.2-.7-.2-.29,0-.45.02-.61.09-.18.07-.31.18-.47.34l-.29-.25c.16-.18.34-.31.58-.43.25-.09.52-.16.81-.16s.49.04.7.11.34.2.45.36c.09.18.18.34.18.56s0,.25-.04.36c-.02.11-.09.25-.2.38-.09.16-.22.29-.38.47l-1.51,1.48-.11-.16h2.45v.36l-2.79.07h0Z"/>
          <path class="cls-1" d="M64.53,53.51c-.29,0-.56-.07-.81-.25-.25-.16-.43-.38-.56-.7-.16-.29-.2-.67-.2-1.08s.07-.79.2-1.08c.11-.29.31-.52.56-.7.25-.16.52-.25.81-.25s.56.07.81.25c.25.16.43.38.56.7.16.29.2.67.2,1.08s-.07.79-.2,1.08c-.16.29-.31.52-.56.7-.25.16-.52.25-.81.25ZM64.53,53.15c.22,0,.45-.07.61-.2.18-.11.31-.31.43-.54.09-.25.16-.54.16-.88s-.04-.63-.16-.88-.22-.43-.43-.54c-.18-.11-.36-.2-.61-.2s-.43.07-.61.2c-.18.11-.31.31-.43.54-.09.25-.16.54-.16.88s.04.67.16.88c.09.25.25.43.43.54.16.13.36.2.61.2Z"/>
          <path class="cls-1" d="M68.26,53.51c-.29,0-.56-.07-.81-.25-.25-.16-.43-.38-.56-.7-.16-.29-.2-.67-.2-1.08s.07-.79.2-1.08c.11-.29.31-.52.56-.7.25-.16.52-.25.81-.25s.56.07.81.25c.25.16.43.38.56.7.16.29.2.67.2,1.08s-.07.79-.2,1.08c-.16.29-.31.52-.56.7-.25.16-.52.25-.81.25ZM68.26,53.15c.22,0,.45-.07.61-.2.18-.11.31-.31.43-.54.09-.25.16-.54.16-.88s-.04-.63-.16-.88-.22-.43-.43-.54c-.18-.11-.36-.2-.61-.2s-.43.07-.61.2c-.18.11-.31.31-.43.54-.09.25-.16.54-.16.88s.04.67.16.88c.09.25.25.43.43.54.16.13.36.2.61.2Z"/>
          <path class="cls-1" d="M71.55,53.51c-.29,0-.56-.04-.81-.16s-.47-.22-.61-.36l.2-.31c.11.11.29.25.52.31.22.09.45.11.72.11s.58-.07.76-.22.27-.34.27-.56-.07-.45-.25-.56c-.18-.16-.45-.22-.81-.22h-.27v-.29l1.24-1.53.04.16h-2.18v-.36h2.54v.29l-1.24,1.53-.2-.11h.16c.47,0,.83.09,1.06.31.25.22.34.49.34.81s-.04.43-.16.58c-.09.18-.27.31-.47.43-.22.09-.47.16-.79.16h-.07Z"/>
        </g>
        <g>
          <polygon class="cls-1" points="5.76 40.31 1.17 40.31 1.17 36.8 0 36.8 0 45.01 1.17 45.01 1.17 41.39 5.76 41.39 5.76 45.01 6.9 45.01 6.9 36.8 5.76 36.8 5.76 40.31"/>
          <path class="cls-1" d="M17.58,37.93c-.38-.36-.83-.67-1.35-.88-1.06-.43-2.38-.43-3.42,0-.52.2-.99.49-1.37.88-.38.36-.7.81-.9,1.33-.22.49-.31,1.06-.31,1.64s.09,1.15.31,1.64.52.94.9,1.33c.38.36.83.67,1.37.88.52.2,1.1.31,1.69.31s1.17-.09,1.69-.31c.52-.2.99-.49,1.35-.85.38-.36.7-.81.9-1.33.22-.52.31-1.06.31-1.66s-.09-1.15-.31-1.66c-.22-.52-.52-.97-.9-1.33l.04.02ZM17.63,40.89c0,.45-.07.85-.22,1.24-.16.36-.36.7-.63.99-.27.27-.61.49-.99.63-.76.29-1.73.29-2.47,0-.36-.16-.72-.36-.99-.63s-.49-.61-.67-.99c-.16-.36-.22-.79-.22-1.24s.07-.85.22-1.24.36-.7.67-.99c.27-.27.61-.49.99-.63s.79-.22,1.26-.22.85.07,1.24.22c.36.16.72.36.99.63.27.27.49.61.63.99.13.38.2.81.2,1.24Z"/>
          <polygon class="cls-1" points="23.29 36.8 22.1 36.8 22.1 45.01 27.68 45.01 27.68 43.93 23.29 43.93 23.29 36.8"/>
          <path class="cls-1" d="M36.18,37.32c-.67-.34-1.42-.52-2.29-.52h-3.37v8.21h3.37c.85,0,1.62-.18,2.29-.52s1.17-.83,1.55-1.46c.36-.61.54-1.33.54-2.14s-.2-1.53-.54-2.14c-.38-.61-.9-1.1-1.55-1.44h0ZM37.08,40.89c0,.58-.11,1.12-.38,1.57s-.63.81-1.12,1.06c-.49.25-1.06.38-1.73.38h-2.14v-6.05h2.14c.67,0,1.26.11,1.73.38.49.25.85.61,1.12,1.06s.38,1.01.38,1.6h0Z"/>
          <rect class="cls-1" x="41.55" y="36.8" width="1.17" height="8.21"/>
          <polygon class="cls-1" points="52.48 42.85 47.67 36.8 46.75 36.8 46.75 45.01 47.91 45.01 47.91 38.98 52.64 44.94 52.7 45.01 53.65 45.01 53.65 36.8 52.48 36.8 52.48 42.85"/>
          <path class="cls-1" d="M59.02,38.71c.29-.27.61-.49,1.01-.63.74-.29,1.73-.29,2.47-.02.36.11.72.34,1.03.67l.11.11.76-.79-.11-.11c-.36-.38-.81-.72-1.35-.9-1.03-.38-2.38-.38-3.42,0-.52.2-.99.49-1.37.85s-.7.81-.9,1.33c-.22.52-.31,1.06-.31,1.66s.09,1.15.31,1.66c.22.52.52.97.9,1.33.38.36.83.67,1.37.85.52.2,1.1.31,1.73.31s1.1-.09,1.62-.27c.52-.18.99-.45,1.37-.79l.04-.04v-3.24h-1.15v2.72c-.22.16-.43.27-.67.34-.79.27-1.73.25-2.47-.02-.38-.16-.72-.36-1.01-.63s-.52-.61-.67-.99c-.16-.36-.25-.79-.25-1.24s.07-.85.25-1.24c.16-.36.38-.7.67-.99l.02.04Z"/>
          <path class="cls-1" d="M74.2,38.71c.29-.27.61-.49,1.01-.63.74-.29,1.73-.29,2.47-.02.36.11.72.34,1.01.67l.11.11.76-.79-.11-.11c-.36-.38-.81-.72-1.33-.9-1.03-.38-2.38-.38-3.42,0-.52.2-.99.49-1.37.85s-.7.81-.9,1.33c-.22.52-.31,1.06-.31,1.66s.09,1.15.31,1.66c.22.52.52.97.9,1.33.38.36.83.67,1.37.85.52.2,1.1.31,1.73.31s1.1-.09,1.62-.27c.52-.18.99-.45,1.37-.79l.04-.04v-3.24h-1.15v2.72c-.22.16-.45.27-.67.34-.79.27-1.73.25-2.47-.02-.38-.16-.72-.36-1.01-.63-.27-.27-.52-.61-.67-.99-.16-.36-.25-.79-.25-1.24s.07-.85.25-1.24c.16-.36.38-.7.67-.99l.02.04Z"/>
          <path class="cls-1" d="M88.19,42.17c.52-.22.9-.56,1.17-.99s.43-.94.43-1.53-.16-1.12-.43-1.55c-.27-.43-.67-.76-1.17-.99s-1.1-.34-1.8-.34h-3.13v8.21h1.17v-2.47h1.91c.18,0,.34,0,.54-.02l1.8,2.52h1.35l-2-2.79s.07-.02.09-.04h.07ZM84.45,37.88h1.91c.74,0,1.3.16,1.66.47.36.31.54.74.54,1.33s-.18,1.01-.54,1.3c-.36.31-.94.47-1.66.47h-1.91v-3.6.02Z"/>
          <path class="cls-1" d="M99.85,37.93c-.38-.36-.83-.67-1.35-.88-1.06-.43-2.38-.43-3.42,0-.52.2-.99.49-1.35.88-.38.36-.7.81-.9,1.33-.22.49-.31,1.06-.31,1.64s.09,1.15.31,1.64.52.94.9,1.33c.38.36.83.67,1.37.88.52.2,1.1.31,1.69.31s1.17-.09,1.69-.31c.52-.2.99-.49,1.35-.85.38-.36.7-.81.9-1.33.22-.52.31-1.06.31-1.66s-.09-1.15-.31-1.66c-.22-.52-.52-.97-.9-1.33v.02h.02ZM99.88,40.89c0,.45-.07.85-.22,1.24h0c-.16.36-.36.7-.63.99-.27.27-.61.49-.99.63-.76.29-1.73.29-2.47,0-.36-.16-.72-.36-.99-.63-.27-.27-.49-.61-.67-.99-.16-.36-.22-.79-.22-1.24s.07-.85.22-1.24.36-.7.67-.99c.27-.27.61-.49.99-.63.38-.16.81-.22,1.26-.22s.85.07,1.24.22c.36.16.72.36.99.63.27.27.49.61.63.99s.2.81.2,1.24Z"/>
          <path class="cls-1" d="M109.93,41.43c0,.88-.2,1.53-.58,1.91s-.94.61-1.64.61-1.26-.2-1.64-.61c-.38-.38-.58-1.06-.58-1.91v-4.65h-1.17v4.68c0,1.17.31,2.07.9,2.68.61.61,1.46.9,2.47.9s1.89-.31,2.47-.9c.61-.61.9-1.51.9-2.68v-4.68h-1.15v4.65h.02Z"/>
          <path class="cls-1" d="M121.13,38.13c-.27-.43-.67-.76-1.17-.99s-1.1-.34-1.8-.34h-3.13v8.21h1.17v-2.47h1.93c.7,0,1.28-.11,1.8-.34s.9-.56,1.17-.99.43-.94.43-1.53-.13-1.15-.4-1.55ZM120.36,39.68c0,.56-.18,1.01-.54,1.3-.36.31-.94.47-1.66.47h-1.91v-3.58h1.91c.74,0,1.3.16,1.66.47.36.31.54.72.54,1.33h0Z"/>
        </g>
      </g>
    </g>
  </g>
</svg>