<?xml version="1.0" encoding="UTF-8"?>
<svg xmlns="http://www.w3.org/2000/svg" xmlns:xlink="http://www.w3.org/1999/xlink" viewBox="0 0 73.46 66.53">
  <defs>
    <style>
      .cls-1 {
        clip-path: url(#clippath-1);
      }

      .cls-2 {
        isolation: isolate;
      }

      .cls-3 {
        fill: #626370;
      }

      .cls-4 {
        mix-blend-mode: multiply;
        opacity: .29;
      }

      .cls-5 {
        clip-path: url(#clippath-3);
      }

      .cls-6 {
        clip-path: url(#clippath-2);
      }

      .cls-7 {
        clip-path: url(#clippath);
      }
    </style>
    <clipPath id="clippath">
      <rect class="cls-3" x="51.32" y="5.66" width="14.2" height="13.88"/>
    </clipPath>
    <clipPath id="clippath-1">
      <path class="cls-3" d="M52.41,14.49c.71-1.24,1.74-2.27,2.98-2.98l10.13-5.85-2.79,4.83-5.95,3.43c-1.65.95-2.67,2.73-2.67,4.63v.98h-2.79v-.98c0-1.43.38-2.83,1.09-4.07"/>
    </clipPath>
    <clipPath id="clippath-2">
      <rect class="cls-3" x="39.89" y="0" width="11.41" height="21.22"/>
    </clipPath>
    <clipPath id="clippath-3">
      <path class="cls-3" d="M51.3,12.73c-.06-1.84-1.07-3.54-2.67-4.46l-5.95-3.43v5.1c0,1.9,1.02,3.68,2.67,4.63l5.94,3.43v3.22l-7.34-4.24c-1.24-.71-2.27-1.74-2.98-2.98-.71-1.24-1.09-2.64-1.09-4.07V0l10.13,5.85c.45.26,1.27,6.88,1.27,6.88"/>
    </clipPath>
  </defs>
  <g class="cls-2">
    <g id="Layer_2" data-name="Layer 2">
      <g id="Layer_1-2" data-name="Layer 1">
        <g>
          <path class="cls-3" d="M11.29,24.88c.64,0,1.21-.24,1.66-.69.46-.46.69-1.02.69-1.66s-.24-1.21-.69-1.66c-.46-.46-1.02-.69-1.66-.69s-1.21.24-1.66.69c-.46.46-.69,1.02-.69,1.66s.24,1.21.69,1.66c.46.46,1.02.69,1.66.69"/>
          <path class="cls-3" d="M16.56,24.88c.66,0,1.22-.24,1.68-.69s.68-1.02.68-1.66-.22-1.21-.68-1.66c-.46-.46-1.02-.69-1.68-.69s-1.21.24-1.66.69c-.46.46-.69,1.02-.69,1.66s.24,1.21.69,1.66c.46.46,1.02.69,1.66.69"/>
          <path class="cls-3" d="M20.23,27.04c-3.07,0-5.62.51-7.69,1.53-2.06,1.02-3.62,2.37-4.66,4.04-1.04,1.68-1.57,3.49-1.57,5.4s.68,3.54,2.05,4.91c1.35,1.37,2.99,2.05,4.91,2.05s3.56-.68,4.93-2.05c1.35-1.35,2.03-2.99,2.03-4.91v-10.97ZM16.18,38.01c0,.8-.27,1.5-.84,2.06-.57.57-1.26.86-2.06.86s-1.5-.29-2.06-.86c-.57-.57-.86-1.26-.86-2.06,0-3.18,1.94-5.33,5.82-6.46v6.46Z"/>
          <path class="cls-3" d="M41.34,22.33c.66,0,1.22-.24,1.68-.69s.68-1.02.68-1.66-.22-1.21-.68-1.66-1.02-.69-1.68-.69-1.21.24-1.66.69c-.46.46-.69,1.02-.69,1.66s.24,1.21.69,1.66c.46.46,1.02.69,1.66.69"/>
          <path class="cls-3" d="M35.86,28.57c-.97,1.53-1.44,3.18-1.44,4.95s.62,3.25,1.86,4.49c1.24,1.26,2.74,1.88,4.51,1.88.75,0,1.46-.11,2.12-.35-.11.26-.27.49-.47.69-.46.46-1.02.69-1.68.69h-7.39v-.02h-.46c-.64,0-1.21-.24-1.66-.69-.46-.46-.69-1-.69-1.66v-10.02c-1.11,0-2.06.4-2.85,1.19-.79.79-1.19,1.73-1.19,2.85v8.34c0,2.79-1.37,4.88-4.13,6.23-2.05,1.02-3.07,2.52-3.07,4.51v.05c3.16.04,5.82-.99,8-3.09,1.3-1.26,2.21-2.68,2.72-4.31.78.4,1.66.61,2.59.65h0s.27,0,.27,0h7.85c1.77,0,3.27-.62,4.53-1.88,1.24-1.24,1.86-2.74,1.86-4.51v-15.1c-2.79,0-5.15.47-7.03,1.41-1.88.93-3.3,2.17-4.25,3.69M43.11,28.06v5.46c0,.64-.22,1.19-.68,1.64-.46.46-1,.69-1.64.69s-1.19-.24-1.64-.69c-.46-.46-.69-1-.69-1.64,0-1.11.4-2.21,1.22-3.3.8-1.08,1.95-1.81,3.43-2.15"/>
          <path class="cls-3" d="M56.68,29.96c-1.88.93-3.3,2.17-4.25,3.71-.97,1.53-1.44,3.18-1.44,4.95s.62,3.23,1.88,4.47c1.24,1.26,2.74,1.88,4.49,1.88.35,0,.69-.02,1.04-.07-.73,1-1.68,1.77-2.85,2.26-2.03,1.02-3.05,2.52-3.05,4.51v.05c3.14.04,5.77-.97,7.89-2.99,2.12-2.03,3.23-4.6,3.34-7.72v-12.45c-2.81,0-5.17.47-7.05,1.41M59.69,38.61c-.02.66-.26,1.21-.69,1.64-.46.46-1,.68-1.64.68s-1.19-.24-1.64-.69c-.46-.46-.69-.99-.69-1.62,0-1.11.4-2.23,1.22-3.3.8-1.08,1.95-1.81,3.45-2.17v5.48Z"/>
          <path class="cls-3" d="M52.41,14.49c.71-1.24,1.74-2.27,2.98-2.98l10.13-5.85v9.94c0,1.43-.38,2.83-1.09,4.07-.71,1.24-1.74,2.27-2.98,2.98l-10.13,5.85v-9.94c0-1.43.38-2.83,1.09-4.07M60.05,20.23c1.65-.95,2.67-2.73,2.67-4.63v-5.1l-5.95,3.43c-1.65.95-2.67,2.73-2.67,4.63v5.1l5.95-3.43Z"/>
          <g class="cls-4">
            <g>
              <rect class="cls-3" x="51.32" y="5.66" width="14.2" height="13.88"/>
              <g class="cls-7">
                <g>
                  <path class="cls-3" d="M52.41,14.49c.71-1.24,1.74-2.27,2.98-2.98l10.13-5.85-2.79,4.83-5.95,3.43c-1.65.95-2.67,2.73-2.67,4.63v.98h-2.79v-.98c0-1.43.38-2.83,1.09-4.07"/>
                  <g class="cls-1">
                    <rect class="cls-3" x="48.56" y="2.78" width="19.7" height="19.64" transform="translate(4.26 37.88) rotate(-37.19)"/>
                  </g>
                </g>
              </g>
            </g>
          </g>
          <path class="cls-3" d="M54.09,12.9v9.94l-10.13-5.85c-1.24-.71-2.27-1.74-2.98-2.98-.71-1.24-1.09-2.64-1.09-4.07V0l10.13,5.85c1.24.71,2.27,1.74,2.98,2.98.71,1.24,1.09,2.64,1.09,4.07M51.3,18v-5.1c0-1.9-1.02-3.68-2.67-4.63l-5.95-3.43v5.1c0,1.9,1.02,3.68,2.67,4.63l5.95,3.43Z"/>
          <g class="cls-4">
            <g>
              <rect class="cls-3" x="39.89" y="0" width="11.41" height="21.22"/>
              <g class="cls-6">
                <g>
                  <path class="cls-3" d="M51.3,12.73c-.06-1.84-1.07-3.54-2.67-4.46l-5.95-3.43v5.1c0,1.9,1.02,3.68,2.67,4.63l5.94,3.43v3.22l-7.34-4.24c-1.24-.71-2.27-1.74-2.98-2.98-.71-1.24-1.09-2.64-1.09-4.07V0l10.13,5.85c.45.26,1.27,6.88,1.27,6.88"/>
                  <g class="cls-5">
                    <rect class="cls-3" x="39.89" y="0" width="11.41" height="21.22"/>
                  </g>
                </g>
              </g>
            </g>
          </g>
          <path class="cls-3" d="M25.2,59.98c-.26-.15-.35-.23-.58-.47-.42-.45-.32-1.08-.03-1.84.82-2.16,2.59-6.48,3.88-8.83.16-.29.29-.42.47-.26.24.19.55.39.82.56.55.35.6.79.06,1.87-.71,1.43-1.42,3.16-2.27,5.3,1.42-1.82,2.96-3.67,4.12-4.93.19-.21.34-.27.47-.27.14,0,.39.13.56.21.32.19.55.44.37.95-.43,1.26-.84,2.72-1.27,4.32,2.35-2.93,5.61-6.41,7.28-7.83.06-.06.13-.05.13.03s-.11.34-.18.58c-.1.37-.26.6-1.24,1.68-1.64,1.8-3.79,4.4-6.35,8.04-.39.55-.6.64-.9.6-.34-.05-.58-.13-.95-.27-.48-.21-.48-.82-.27-1.76.26-1.13.47-2.05.77-3.03-1.43,1.72-2.82,3.4-3.88,4.77-.55.68-.64.77-1.01.58"/>
          <path class="cls-3" d="M38.54,58.09c-.87,1.21-1.58,1.69-2.09,1.69-.64,0-1.29-.53-1.68-1.21-.35-.61-.32-1.43.58-2.61,1.05-1.37,2.64-2.19,3.56-2.19.48,0,.89.43,1.14.87.1-.13.18-.19.35-.19.14,0,.43.08.92.31.37.18.53.37.53.55,0,.21-.13.53-.64,1.58-.32.68-.61,1.35-.66,1.8.43-.18.87-.47,1.24-.85.03-.03.08-.03.1,0,.02.05.03.18.03.24s-.02.16-.13.31c-.52.64-1.3,1.51-2.24,1.51-.74,0-1.29-.43-1.02-1.8M39.78,55.11c-.69.18-1.37.64-1.93,1.19-.76.74-1.26,1.68-1.16,2.32.95-.34,1.9-1.32,3.09-3.51"/>
          <path class="cls-3" d="M40.92,61.88c-.26,0-.35-.16-.23-.52.39-1.01,1.56-3.22,2.64-4.88.4-.63.79-1.21,1.14-1.74-.23-.02-.29-.06-.43-.21-.23-.23-.39-.53-.39-.58s.05-.08.18-.11c.34-.06.81-.11,1.37-.16,1.58-2.27,2.8-3.8,3.91-4.88.32-.31.53-.39.74-.39.35,0,.82.13,1.05.27.21.13.27.42.23.72-.1.71-.4,1.66-.79,2.37-.16.24-.48.29-.69.24-.11-.02-.24.02-.42-.05-.1-.03-.18-.13-.27-.32-.37.5-.79,1.13-1.27,1.92h.64c1.06,0,1.21.1,1.35.19.21.13.35.24.35.34,0,.06-.06.13-.24.14-.95.08-1.9.18-2.69.26-1.37,2.17-3.56,5.49-4.46,6.54-.4.47-.66.63-1.05.69-.24.05-.45.15-.68.15"/>
          <path class="cls-3" d="M47.32,59.56c-.48-.13-.9-.27-.9-.81,0-.47.31-1.22,1.11-2.27.63-.82,1.68-2.3,1.92-2.77.05-.11.18-.11.27-.08.27.1.47.11.69.24.19.11.26.31.26.53,0,.18-.03.39-.1.61.92-.84,1.74-1.4,2.46-1.74.35-.18.58-.26.71-.26s.16.08.27.18c.05.05.14.11.14.14s-.03.06-.08.1c-1.63,1.01-3.56,2.87-5.11,5.22-.64.97-.79,1.1-.97,1.1-.11,0-.24-.06-.69-.19"/>
          <path class="cls-3" d="M52.7,59.32c-.32-.18-.52-.39-.71-.71-.37-.61-.24-1.55.71-2.67.79-.95,1.88-1.72,3-2.08.35-.11.64-.15,1-.06.39.1.81.42,1.06.77.13-.03.31-.03.47.06.32.18.87.64,1.08.92.05.08.05.24-.06.37-.64.76-1.14,1.76-1.4,2.71.5-.03,1-.18,1.68-.48.11-.05.13.03.13.21,0,.19-.05.26-.13.34-.79.6-1.9,1.08-2.82,1.08-.77,0-1.06-.6-.92-1.51-.66.76-1.24,1.26-1.69,1.45-.4.18-.76.16-1.39-.39M56.34,56.58c.29-.55.63-1.11.92-1.53-1.8.58-3.42,2.38-3.38,3.61.82-.35,1.69-1.06,2.46-2.08"/>
          <path class="cls-3" d="M37.3,12.98c-8.62.39-17.32.56-25.94.67-.72,0-1.49.04-2.19.2-3.82.75-6.91,4.07-7.38,7.92-.12.82-.08,2.17-.09,3.03-.01,2.1-.04,4.19-.07,6.29-.14,7.68-.38,15.89-.46,23.59-.37,6.01,4.48,10.87,10.5,10.46,16.48-.34,33.8-.59,50.31-.64,5.63.19,9.96-4.51,9.57-10.1.08-10.14.26-21.3.52-31.45.12-3.6-1.92-7.07-5.07-8.85l.09-.17c.95.46,1.85,1.06,2.63,1.79,1.97,1.85,3.18,4.51,3.24,7.22,0,.95.17,6.77.18,7.86.13,8.02.34,17.2.33,25.21-.27,6-5.49,10.74-11.48,10.5-15.44-.07-31.77-.25-47.17-.59-1.03-.05-3.73-.02-4.75-.12-5.61-.51-9.83-5.54-9.52-11.14-.07-7.7-.34-15.9-.46-23.59-.03-2.1-.06-4.19-.07-6.29.02-.94-.06-2.32.09-3.25.6-5.14,5.28-9.37,10.45-9.42,4.63.03,9.56.13,14.18.24,4.19.1,8.39.23,12.58.43v.19Z"/>
        </g>
      </g>
    </g>
  </g>
</svg>