<?xml version="1.0" encoding="UTF-8"?>
<svg id="Layer_2" data-name="Layer 2" xmlns="http://www.w3.org/2000/svg" viewBox="0 0 103.03 98.51">
  <defs>
    <style>
      .cls-1 {
        fill: #626370;
      }
    </style>
  </defs>
  <g id="Layer_1-2" data-name="Layer 1">
    <g>
      <g>
        <path class="cls-1" d="M45.18,31.33c.82.76,1.84,2.04,2.6,2.92.21.24.69,1.02.91,1.09,1.93.15,3.84-.12,5.77-.12.76.14,1.35,1.4,2.06,1.77.56.17,2.35-.13,2.66.12.28.21.18,1.09.32,1.5.1.27.76,1.5.93,1.75.11.17,1.24.95,1.52,1.19.71.63,1.09,1.11,1.18,2.13.05.63-.36,1.22-.23,1.79.05.24.7,1.22.88,1.47.22.3.56.78.86.93.56.05.17-1.61.24-1.99.08-.5.5-.79.69-1.22.13-.31.13-.84.24-.98.34-.45.46.32.76.47.42.21,1.03-.1.87.8-.07.4-.41.41-.47.58-.22.64.66,1.81.5,2.76-.12.76-2.21,1.43.1,1.48l.36.99c.63.18,1.01-.22,1.55-.38,1.34-.39,2.9-.5,4.26-.87,1.23-.33.8-.42,1.23-1.38.51-1.15,1.73-1.71,2.32-2.72.37-.63,1.07-2.88,1.73-3.05.44-.11.81-.02.89.46.13.78-.04,1.94,0,2.78.07,1.25.43,2.72,1.31,3.65.66.7.7.39,1.52.48.36.04.77.14,1.13.17,1.05.09,1.51-.26,2.35.61.57.58,1.31,1.96,2.14,2.2.39.11.86,0,1.12.44.13.23.13,1.26.04,1.53-.16.51-1.07.8-1.44,1.08-.52.39-1.78,2.41-1.82,3.06-.02.38.38,1.09.21,1.34-.29.42-.75-.71-1.05-.7-.24-.03-.43.26-.49.46-.12.39-.29,2.13-.24,2.54.08.7.59.81.66,1.08.2.7-1.83.83-2.24.99-1.2.45-2.04,1.85-2.89,2.76-1.46,1.55-3.87,3.88-5.78,4.74-.48.21-1.85.76-2.3.74-.42-.02-.83-.32-1.22,0-.48.39.04,1.79-.44,2.52-.29.45-1.16.9-1.69,1.01-2.78.59-5.69,1.88-8.15,3.33-1.52.89-3.4,2.48-5.12,2.79-1.57.29-4.22.25-5.01,1.95-.28.6-.09,1.34-1.05.99-.26-.1-.39-.31-.58-.37-.94-.31-2.19,1.61-3.03.42-1.08-1.51-.84-3.73-1.34-5.35-.08-.26-.3-.45-.39-.74-.67-2.18.19-4.6-.68-6.71-.76-1.86-2.06-2.82-3.22-4.26-.83-1.03-1.27-2.93-1.65-4.18-.43-1.41-1.52-1.35-2.44-2-.7-.49-1.67-1.52-1.93-2.33-.41-1.24-.75-2.68-.72-3.98.02-.83.34-2.23.02-2.97-.3-.69-1.76-1.8-2.32-2.46-2.37-2.79-3.25-6.69-4.76-9.93-.96-2.05-2.19-1.84-3.86-2.75-.92-.5.04-1.47.06-2.19-.24-.05-.15.07-.21.17-.17.25-.61,1.3-.94,1.21-.62-.58-1-1.39-1.5-2.07-.3-.4-.69-.58-.86-1.14-.21-.67-.07-2.1-1.09-2,0,.16,0,.31,0,.47.32,2.64,2.28,4.8,3.16,7.18,1.16,3.13,1.65,5.83,3.33,8.84.32.57,1.37,1.77,1.46,2.28.09.48-.63.09-.74.41-.04.12-.02.29,0,.41.12,1.08,2.27,3.53,2.88,4.69,1.85,3.51-.3,7.32,2.12,10.57.27.36.71.71.99,1.09.53.72,2.25,3.93,2.4,4.73.1.57-.04,1.16.14,1.72,1.12.25,1.52.72,2,1.7.17.35.62,1.71.76,1.85.28.26.7.17,1.04.27.87.26,1.49,1.51,2.14,2.12.58.54,1.74.95,2,1.65s.09,1.06.61,1.82c.56.81,2.05,1.35,2.05,2.4,0,.98-.56-.18-.75-.39-.57-.65-1.52-1.14-1.98-1.93-.31-.53-.27-.89-.44-1.39-.13-.39-1.14-1.04-1.49-1.38-.56-.55-1.64-2.13-2.31-2.3-.32-.08-.87-.03-1.13-.26-.29-.25-.83-1.89-1.18-2.38-.42-.6-1-.86-1.51-1.27-.84-.69-.39-1.35-.6-2.27-.2-.86-1.59-3.43-2.12-4.23-.43-.65-1.02-1.14-1.45-1.77-1.67-2.46-.85-5.43-1.16-8.23-.18-1.6-1.62-3.09-2.46-4.41-.49-.76-1.69-2.71-1.42-3.59.07-.22.41-.24.31-.6-.63-1.15-1.48-2.28-2-3.48-1.18-2.74-1.5-6-2.95-8.52-.86-1.49-1.49-2.42-2.05-4.13-.23-.72-.28-1.57-.12-2.31.75-.39,1.52.09,1.71.89.21.89.03,1.37.73,2.14.46.51.68.61,1.08,1.27.12.2.23.82.61.33.24-.31.36-.95.57-1.35.13-.24,1.12-1.64,1.28-1.68.31-.08.29.31.42.51.38.54.86.4,1.41.59.49.16,1.58.71,2.04.62.87-.18,1.23-2.25,2.03-2.3.39-.03.75.19,1.19-.04.09-.05,1.26-1.29,1.36-1.42.76-1.07-.57-1.21-1.05-1.82-.18-.23-.2-.56-.36-.77-.14-.18-.57-.29-.34-.54.17-.18,1.98-.48,2.42-.62.58-.19,1.16-.59,1.75-.68.95-.15,3.01-.08,3.89.29.32.13,1.02,1.04,1.37,1.33.28.23,1.29.97,1.58,1.12.54.27,1.04.1,1.59.59.22.19.4.59.62.77.46.37,1.12.5,1.71,1.03ZM22.61,35.3c.53.13,1.36-1.46.82-1.56-.47-.09-1.02,1.15-.82,1.56Z"/>
        <path class="cls-1" d="M54.66,94.53c-.13-.1-.54-.29-.71-.28-.7,0-.26,1.26-.22,1.69.06.77-.09,1.68.35,2.34-.04.18-1.24.2-1.48.22l.27-.83-.35-3.12c-.64-.35-.98.19-1.31.64l-.13-.61-.39-.08c-.13,1.26-.16,2.52-.26,3.78-.01.13.07.25-.13.22l-2.6-3.3-.4.26c-.02-.26.04-.55-.02-.81s-.32-.33-.33-.58c.45.04.97-.13,1.35.17.27.21,1.03,1.31,1.3,1.66.12.17.31.69.53.69l.21-.15c.05-.66.19-1.21-.03-1.86-.06-.17-.24-.24-.22-.43,1.55.21,3.1-.04,4.65-.18.32,0,.4.88.18.87-.12-.06-.17-.26-.24-.32Z"/>
        <path class="cls-1" d="M90.85,72.08c.17.42,2.13,2.71,2.09,2.91-.02.11-.18.13-.29.13-1.08-.05-2.15-.35-3.23-.34-.08,0-.06.18-.04.22.1.23,1.96,1.05,2.26,1.3l.6.05c.05.29-.1.45-.31.61l-.48-.47c-.73-.38-1.56-1.03-2.28-1.37-.29-.14-.61-.09-.84-.3-.05-.17.47-1,.67-1.06.15-.05,1.13.05,1.37.07.18.02,1.53.36,1.52.04-.26-.48-1.64-1.83-1.66-2.26-.01-.27.62-1.26.7-1.17,0,.11.02.22.08.31.19.26,2.42,1.5,2.84,1.68.23.1.47.05.64.23-.11.2-.52,1.14-.74,1.08-.11-.11-.15-.24-.27-.33-.35-.26-1.76-1.1-2.14-1.25-.17-.07-.32-.09-.5-.07Z"/>
        <path class="cls-1" d="M10.17,68.95c.17.44.58.78.52,1.3-.59-.06-1.22.3-1.7.61-.06.11.48,1.2.54,1.22.25.06,1.12-.32,1.33-.49.17-.14.2-.41.44-.39.1.46.56.82.52,1.3-.22-.02-.38,0-.59.07-.61.2-2.16.99-2.75,1.34-.19.11-.28.37-.52.33-.17-.05-.59-1.11-.49-1.21.62.08,1.09-.39,1.65-.56l.09-.17c0-.11-.4-1.02-.48-1.09-.35-.32-1.64.5-1.87.87-.04-.23-.68-1.15-.52-1.3.28,0,.55-.09.8-.2.66-.27,1.79-.81,2.39-1.18.15-.09.53-.53.63-.45Z"/>
        <path class="cls-1" d="M6.78,59.64c-.34-.07-1.52,0-1.74.21-.19.18.16,1.43.23,1.44.57-.07,1.32-.09,1.72-.52.35.37.25.93.39,1.39-.46-.12-.78-.04-1.23.03-1.02.16-2.04.45-3.02.76l-.26-1.3c.67.15,1.36-.04,1.99-.27-.02-.34-.08-1.32-.47-1.38-.18-.03-1.19.2-1.37.28-.27.12-.15.37-.41.33.12-.33-.44-1.25-.18-1.44.08-.06.37.06.56.05.72-.07,2.3-.42,3.03-.63.32-.09.22-.28.46-.33.23.11.35,1.13.31,1.39Z"/>
        <path class="cls-1" d="M30.95,94.42l-1.08-.61-.4-2.25c-.33-.22-.8.82-.87,1.08-.07.24.06.42-.12.57l-1.17-.65c.1-.11.24-.15.33-.27.23-.31,1.42-2.59,1.51-2.93.06-.23-.03-.36-.02-.58.08-.08,1.73.76,1.94.89,1.36.83,1.33,2.24-.38,2.37l-.07.1c-.07.78.21,1.53.34,2.29ZM30.23,89.65c-.17.06-.77,1.23-.76,1.43.02.5.94.58,1.32.18.62-.66.33-1.51-.55-1.6Z"/>
        <path class="cls-1" d="M7.56,68.51c.03.44-.17.92-.56,1.13-1.42.76-2.22-2.01-2.39-2.96.02-.03.21.07.3.07.38-.01,2.63-.8,3.06-1.01.25-.12.41-.25.59-.45.1,0,.75,1.69.79,1.91.1.54.16,1.03-.27,1.39-.64.54-.87.11-1.52-.08ZM8.76,67.62c.21-.22.33-.9-.04-1.01-.21-.06-1.36.33-1.41.48-.13.38.47.89.9.81.06,0,.51-.25.55-.28ZM7.02,67.31c-.19-.2-1.36.25-1.57.41-.39.31.19.98.61,1.03.67.09,1.32-.83.95-1.44Z"/>
        <path class="cls-1" d="M57.62,96.27c-.18-.15-.48-.18-.5.1,0,.14.12,1.07.18,1.22.08.21.25.27.26.48l-1.48.17.25-.56c-.26-.99-.2-2.14-.43-3.13-.05-.2-.39-.48-.17-.62,1.04.01,2.65-.74,3.39.26.31.42.28.88-.01,1.29-.15.22-.52.22-.41.6l1.46,1.58c-.96.45-1.36-.01-1.96-.65-.17-.18-.43-.62-.59-.76ZM57.19,94c-.09.02-.17.06-.24.11-.06.04-.08.1-.09.18s.16,1.27.19,1.37.11.18.22.22c1.46.14,1.28-2.17-.08-1.88Z"/>
        <path class="cls-1" d="M46.49,95.87c0,1.27-1.03,2.3-2.3,2.3s-2.3-1.03-2.3-2.3,1.03-2.3,2.3-2.3,2.3,1.03,2.3,2.3ZM44.14,93.92c-1.05.21-1.18,1.96-1.11,2.81.05.6.32,1.16,1,1.18,1.25.04,1.46-2.09,1.34-3-.08-.59-.62-1.11-1.23-.99Z"/>
        <path class="cls-1" d="M90.63,78.13c0,1.27-1.03,2.29-2.29,2.29s-2.29-1.03-2.29-2.29,1.03-2.29,2.29-2.29,2.29,1.03,2.29,2.29ZM87.27,76.53c-.7.14-.88.77-.65,1.4.34.93,2.53,2.45,3.37,1.41.88-1.1-1.65-3.02-2.71-2.8Z"/>
        <path class="cls-1" d="M81.46,84.07c-.61-.2-1.08-.27-1.67.02-1.07.52-.75,1.68-.15,2.46.57.73,1.42,1.46,2.38.9,1.29-.75-.51-1.47-.46-1.76l.99-.75c.18.14.12.37.23.55.14.23.57.51.48.84-.12.44-1.2,1.48-1.64,1.67-2.01.84-3.93-1.01-3.06-2.97.17-.38.86-1.1,1.24-1.28s.86-.09.89-.63h.13c.14.11.79.82.65.96Z"/>
        <path class="cls-1" d="M26.34,87.29l-4.13,1.74c-.1.21,1.03.89,1.24.94.49.1.86-.09,1.33-.15.05.04-.72,1.05-.96.83-.39-.37-2.73-1.8-2.86-2.11-.03-.06-.05-.19.04-.21l4.03-1.69c-.22-.34-.91-.85-1.31-.79-.17.03-.44.27-.61.18s-.01-.14.05-.22c.14-.19.3-.44.53-.51.19-.02,2.18,1.45,2.46,1.68.1.09.21.13.18.3Z"/>
        <path class="cls-1" d="M95.55,70.42c.1.1-.36,1.11-.57,1.22-.1-.07-.13-.22-.22-.3-.28-.21-2.51-1.25-2.84-1.33-.29-.07-.46,0-.72.02-.07,0-.12.13-.08-.08.08-.4.76-1.85,1.04-2.16.78-.85,2.05-.35,2,.84-.02.42-.3.69-.33.89-.08.42,1.37.89,1.72.9ZM92.65,68.27c-.21.01-.65.22-.67.46l.05.21,1.48.7c.5-.61-.19-1.4-.85-1.37Z"/>
        <path class="cls-1" d="M77.29,85.9c-.05.33.1.57.25.84.41.77,1.37,1.84,1.68,2.58.05.11.09.2.07.32l-4.04-1.22c-.24.05.11.58.17.7.18.33.95,1.5,1.2,1.67.11.08.27.14.41.16.12.15-.51.62-.69.52,0-.21.02-.41-.04-.61-.07-.23-1.68-2.58-1.85-2.67s-.52,0-.45-.28l1.17-.6c.38.11,2.75,1.02,2.91.86-.07-.39-.75-1.51-1.07-1.67-.1-.05-.21-.06-.32-.07-.17-.26.56-.58.61-.52Z"/>
        <path class="cls-1" d="M5.3,57.73c-.11-.1.52-.62.6-.75.33-.56.15-1.23-.53-1.32-.57.09-.84,1.56-1.19,2.03-.87,1.17-2.38.36-2.43-.97-.02-.47.29-.86,0-1.33l1.22-.17c.08.33-.28.33-.48.52-.44.43-.74,1.45-.02,1.76.89.38,1.14-1.31,1.5-1.85.84-1.29,2.57-.45,2.39,1-.04.3-.27.52-.09.87-.05.22-.75.25-.94.22Z"/>
        <path class="cls-1" d="M98.94,60.69c.04.18-.09.2-.2.28-.58.4-1.74.73-2.43,1.05-.19.09-1.08.52-1.11.63-.02.15.11.17.21.22.25.13,1.63.52,1.94.58.34.06.57-.02.89-.07.03,1.09-.33.41-.78.22-.33-.14-2.61-.74-2.93-.73-.22,0-.32.21-.55.17-.07-.07.2-1.1.39-1.22l2.75-1.17v-.29c-.8-.12-1.55-.51-2.35-.27l.22-.78.63.5,3.33.89Z"/>
        <path class="cls-1" d="M41.99,93.46l-.18.95h-.25c-.17-1.14-1.58-1.69-2.39-.78-.63.71-1.03,2.64-.07,3.19.69.4,1.23.11,1.93.02.16.14-.4.39-.5.41-1.24.34-2.89-.39-3.06-1.77-.22-1.76,1.34-3.06,3.03-2.6.56.15.9.65,1.48.57Z"/>
        <path class="cls-1" d="M35.04,91.38l.17,4.69-1.27-.52-.04-.13c.22-.27.29-1.02,0-1.22-.09-.06-1.07-.4-1.16-.4-.34.02-.8.61-.57.96l-.87-.39c.31-.11.56-.27.82-.48.87-.7,1.74-1.69,2.61-2.44l.31-.08ZM33.04,93.63c.7.34,1.15.56,1.04-.48s-1.15.33-1.04.48Z"/>
        <path class="cls-1" d="M85.81,79.64c-.72-.13-1.44-.06-1.86.62-.47.76-.11,1.4.43,1.99,1.27,1.41,2.87,1.12,3.17-.83.21-.04.18.21.17.34-.06.79-.77,1.62-1.47,1.92-2.54,1.08-4.32-2.39-2.17-3.99.31-.23.85-.28.87-.74.15-.11.99.59.87.69Z"/>
        <path class="cls-1" d="M20.52,88.16c-.2.19-.93-.67-1.12-.84-.02-.09.54-.58.51-1.04-.02-.26-.97-1.02-1.25-.99-.63.06-.55.75-.79.69-.04,0-.68-.51-.57-.61.31.03.6-.09.89-.19.99-.36,2.29-1.17,3.19-1.42.14-.04.44-.1.4.14l-1.25,3.71-.02.55ZM20.43,84.59c-1.15.16-1.76.65-.4,1.22l.4-1.22Z"/>
        <path class="cls-1" d="M11.74,79.46c-.18.16-.85-.96-.94-1.09.3-.25.92-.73.72-1.17-.03-.07-.68-.89-.74-.92-.41-.2-.98.1-1,.57-.24-.21-.46-.44-.48-.78.65.18,4.24-.85,4.52-.66.09.06.11.15.07.25-.72,1.25-1.69,2.43-2.16,3.8ZM12.43,75.9l-1.27.26c-.09.13.37.84.41.86.33.19.97-1.01.86-1.12Z"/>
        <path class="cls-1" d="M67.64,91.12l.26.87c-.31.09-.42-.18-.65-.27-.52-.19-.74-.19-1.23.09-1,.58-.83,1.58-.41,2.5.72,1.52,2,1.55,2.93.2.21-.04.14.15.09.26-.32.77-1.59,1.17-2.35,1.13-2.14-.12-2.63-3.27-.76-4.25.77-.4,1.41-.11,2.11-.54Z"/>
        <path class="cls-1" d="M71.45,89.48l.19.68c-.2.04-.25-.19-.41-.24-.26-.08-.98.07-.98.37l1.74,3.48c-.19.08-1.09.61-1.22.48l-.04-.53-1.39-2.95c-.43-.38-1.14.5-1,.96-.2.05-.14-.04-.2-.11-.16-.2-.34-.49-.15-.71.11-.13,2.2-1.09,2.52-1.22.3-.12.61-.29.94-.2Z"/>
        <path class="cls-1" d="M16.03,77.95c.12.16.39.22.31.55-.69.19-1.45.87-2,1.35-.3.26-1.13.88-.98,1.24.28.69,1.23,1.13,1.94.81.17.19-.64.78-.98.68-.21-.06-1.91-2.13-2.06-2.51.18-.03.37-.12.52-.22.6-.44,1.88-1.41,2.36-1.9.14-.14.24-.27.26-.48.33-.05.47.28.64.49Z"/>
        <path class="cls-1" d="M95.98,54.95c.13.33.51.67.78.91.81.72,1.8,1.51,2.96,1.17-.01.42.08.89-.17,1.26-.06.05-1.19-.4-1.5-.38-.38.03-2.03.66-2.46.85-.17.07-.31.19-.48.26l.17-1.39c.79.02,1.53-.33,2.26-.57.01-.14,0-.24-.09-.35-.03-.04-.74-.66-.83-.73-.28-.22-.53-.41-.91-.35v-.55s.26-.14.26-.14Z"/>
        <path class="cls-1" d="M19.65,82.07c-.2-.01-.33.07-.48.17-.64.45-1.57,1.85-2.22,2.13-.97.42-2.02-.51-1.82-1.56.12-.64,1.17-.46.94.24-.07.23-.55.15-.52.54.03.28.33.25.53.18.17-.06,2.01-1.88,2.21-2.13.15-.18.26-.37.31-.61l.26.04c.19.4.8.52.78,1Z"/>
        <path class="cls-1" d="M96.25,68.68c-.55-1.26-2.07-2.1-2.87-3.17-.06-.08-.24-.27-.09-.35,1.11-.14,2.23-.09,3.35-.13.19,0,1.23-.25,1.26.04l-.52,1.05-.11.02c-.36-.26-1.04-.29-1.26.16-.05.1-.37,1.04-.36,1.09.02.09.39.44.48.49.25.13.39-.07.55.14-.05.12-.24.79-.43.65ZM94.51,66.08c-.15.23.69.85.83,1.04.96-.96.31-1.37-.83-1.04Z"/>
        <path class="cls-1" d="M63.21,96.94c.04-.8-.35-1.16-1.14-1.01-.59.11-1.35.48-.9,1.18.04.06.14.07.15.08.26.29-.65.34-.81.35.59-1.14.65-2.44.89-3.67.05-.25.26-.51.15-.85.1-.01.17,0,.26.04.3.15,1.58,2.09,1.91,2.52.26.33.57.65.87.96l-1.39.39ZM61.56,94.51l-.22,1.22c1.41.32,1.25-.3.47-1.08-.08-.08-.08-.19-.24-.15Z"/>
        <path class="cls-1" d="M28.26,88.42c-.11,0-.22.02-.31.08-.28.2-1.68,2.43-1.8,2.81-.07.2-.09.37-.07.58-.07.07-1.13-.53-1.18-.6-.18-.28.12-.27.26-.44.27-.34,1.62-2.48,1.72-2.81.07-.2-.01-.3-.02-.49.09-.09,1.02.43,1.16.54.12.09.26.16.23.33Z"/>
        <path class="cls-1" d="M8.17,64.42c-.41-.17-.75,0-1.15.11-.66.19-1.85.57-2.44.86-.21.11-.39.5-.52.22-.08-.18-.32-.89-.33-1.06,0-.2,0-.1.13-.13.98-.2,2.09-.51,3.02-.89.28-.11.59-.22.72-.5.35,0,.61,1.11.56,1.39Z"/>
        <path class="cls-1" d="M73.29,88.33c-.06.36.13.6.28.89.3.59,1.02,1.8,1.42,2.31.13.16.23.21.39.31.09.29-1.05.82-1.13.74.02-.2-.04-.36-.13-.53-.2-.4-1.42-2.44-1.66-2.69-.17-.17-.31-.16-.47-.31l1.3-.74Z"/>
        <path class="cls-1" d="M47.38,97.85c.03.13.44.48.35.56h-.72s-.15-.22-.15-.22c.68-.43.18-1.65.44-2.39.36.14.09.52.09.65,0,.37-.07,1.09,0,1.39Z"/>
      </g>
      <g>
        <path class="cls-1" d="M103.03,41.47v1.22c-.48.19-1,.17-1.11-.41-.16-.87.37-1.12,1.11-.81Z"/>
        <path class="cls-1" d="M0,41.82c1.58-1.09,1.53,1.72,0,.7v-.7Z"/>
        <path class="cls-1" d="M13.2,25.19l3.31-4.13c-.36-.73-.87.43-1.2.71-.64.55-1.68.34-1.99-.45-.48-1.21.74-1.83,1.25-2.73.14-.25.13-.51.31-.74l.31.14,2.13,1.87.2.03,1.58-1.47c-.04-.61.19-1.09.28-1.63.04-.24-.04-.83.11-.94.82.22,1.62-.05,2.46.12.34-.36,2.23-1.28,2.36-1.58.06-.13.05-.24-.04-.35l-3.23-4.69c-.24-.32.12-1.9.61-1.43l3.74,5.46c.12.08.23.09.37.05.12-.03,1.29-.78,1.33-.86s.07-.15.02-.23l-2.81-5.2c-.15-.27.36-1.48.63-1.41l4.04,7.36-.04.29-5.7,3.78c-.4.38-.14.48-.18.78-.15,1.1-.95,1.97-2.12,1.88-.54-.04-.64-.34-1.18.13-1.02.88-2.33,2.43-3.21,3.48-1.02,1.22-1.92,2.55-2.93,3.77l-.4-.09c-1.91-1.55-4.03-2.86-5.96-4.39-.09-.07-.61-.48-.62-.52-.05-.25,1.35-.76,1.62-.41l4.55,3.36.42.03ZM21.72,17.83c0-.37-.3-.66-.66-.66s-.66.3-.66.66.3.66.66.66.66-.3.66-.66ZM14.93,19.75c-.23.06-.83.76-.5.99s.85-.34.97-.62c0-.27-.21-.45-.46-.37Z"/>
        <path class="cls-1" d="M97.64,30.34c-.19.02-.35-.07-.51-.14-.89-.39-2.02-1.51-2.9-1.79-.3-.1-.58-.17-.59.24-.02.66,1.41,2.37,1.62,3.17.34,1.31-.59,1.65-1.55,2.19-.42.23-1.06.73-1.51.53-.35-.16-1.4-2.26-1.69-2.74-1.75-2.89-3.63-5.7-5.76-8.32v-.35c1.12-.92,1.72-1.66,3.3-1.48.9.1,1.15.9,1.79,1.34.31.21.65.25.95.44.07.32-2.23,1.76-2.33,2.24l4.42,7.06c.24.12.44-.03.61-.17.58-.49.21-.95-.07-1.5-.78-1.52-1.77-2.96-2.58-4.46-.23-.61.58-.87,1.03-.6l5.65,4,.14.33ZM86.79,23.15c-.34.33.52,1.02.75,1.25,1.72-.57.45-1.86-.75-1.25Z"/>
        <path class="cls-1" d="M73.2,8.35c.15.15-1.07,2.49-1.11,2.89l.1.21,3.08,1.75c.54-.35.31-.7,1.11-.77,1.56-.13.38.65.24,1.37-.1.49.56.78.9,1.07.32.03.45-.28.67-.37.48-.2.99.08,1.45.2.2.28-.63.84-.66,1.16.87,1.38,1.01-.25,1.62-.44.38-.12.82.16,1.22.14.22.24-.95,1.4-1.03,1.71.75,1.47,1.21-.62,1.88-.82.21-.06,1.1.07,1.2.24.09.15-.12.32-.19.43-.2.31-1.88,2.51-2.03,2.58-.3.14-.66-.16-.9-.32-.65-.43-1.3-1.06-1.94-1.53-2.24-1.64-4.59-3.28-7.01-4.64-.54-.31-4-1.95-4.11-2.16-.06-.11-.03-.16,0-.26.08-.3.61-1.36.8-1.64.31-.47.62-.72,1.13-.95,1.29-.57,1.44.12,2.52.24.39.04.7-.04,1.08-.08ZM70.23,9.41c-.24.05-.82.43-.75.7s1.07.66,1.32.57c.1-.03.36-.56.39-.66.15-.61-.48-.71-.96-.61Z"/>
        <path class="cls-1" d="M49.56,5.78c.07-.34,1.03-1.08,1.34-1,.25.07.08,1.14.28,1.39l4.59.42.13-.2c-.13-.2-.31-.43-.4-.64-.29-.68-.07-1.22-1.1-1.08l-.15-.2c.05-.49.18-1.2.76-1.33,1.26-.29,1.57,1.8,1.98,2.59.16.32.86,1.06.9,1.19.14.46-.47,1.94.34,2.18.65.2.9-.59.97-1.08.36-2.31.37-4.7.81-7.01.15-.59.83-.88,1.37-1.02l-1.06,8.98c-.6,1.78-3.13,2.03-3.68.07-.08-.29.06-.75-.28-.85l-5.1-.37c-.19.05-.13.78-.17.98-.27,1.4-2.08,1.68-2.89.58-.12-.16-.43-.64-.18-.78h1.3s.13-.12.22-.09c.12-.77-.16-2.03,0-2.74Z"/>
        <path class="cls-1" d="M94.87,38.09c-.07.11.48,2.02.64,2.16.2.18.68.01,1,.22.16.1.82.89.69,1.08-.34.14-1.34.12-1.28.64.12,1.13,1.05.21,1.62.38.21.06.95.85.79,1.07-.31.13-1.55.3-1.73.48-.15.15-.07.61.04.74.24.28,1-.13,1.31-.17.81-.1,1.06.24,1.42.91l-.13.12c-.93.22-1.94.62-2.87.78-.34.06-.69.16-.94-.17l-1.97-7.42c-.22-.3-.91.13-1.34.13-1.62,0-2.07-2.28-.71-3.04.36.14.49,1.3.72,1.38.49.17,2.16-.97,2.83-.84.26.05,1.19.68,1.1.97-.06.19-1,.41-1.2.59Z"/>
        <path class="cls-1" d="M41.32,8.71c-.19.18.12.95.05,1.39-.26,1.55-2.66,1.71-2.99.15l1.45-.49c-.06-1.44-1.28-3.16.61-3.9.37.18.15,1.3.74,1.27l4.31-.82c.19-.23,0-1.04.13-1.44.08-.24.83-1.12,1.04-.79l.39,3c0,.17-.14.49-.27.6-.33.29-1.78.32-2.29.41-.43.07-3.02.48-3.16.62Z"/>
        <path class="cls-1" d="M6.97,36.42c-.08-.44.22-.8.35-1.2.72-.03,1.8.9,2.47.52.9-.51.14-1.29-.49-1.6-2.11-1.04-4.65-1.74-6.8-2.76-.41-.15-.86-1.42-.49-1.6.35.04.71.23,1.04.36,2.29.91,5.02,1.9,7.19,2.98,1.94.96,1.91,3.79-.37,4.09-1.16.15-1.86-.45-2.89-.79Z"/>
        <path class="cls-1" d="M8.39,26.52l5.3,3.13c1.06,1.23-.23,3.52-1.83,3.22-.11-.02-.22-.07-.27-.17-.21-.41,1.2-1.73.87-2.26-.1-.16-.61-.42-.83-.22-.38.35-.64,1.31-.95,1.66s-1.03-.18-1.35-.39c-1.2-.78-1.88-1.64-1.49-3.15.08-.31.32-.7.39-1,.06-.28-.08-.61.15-.81ZM9.36,28.62c-.56.27-.07,1.61.49,1.45.21-.06.42-.59.48-.8l-.98-.65Z"/>
        <path class="cls-1" d="M35.69,5.39c.15-.03.21.16.26.26.24.49,1.04,3.03,1.08,3.53.05.71-.08.79-.69,1.03-.91.35-1.97.58-2.9.91-.62-1.21-1.05-2.7-.21-3.93.51-.74,1.28-.69,1.89-1.15.17-.13.51-.63.57-.65ZM34.84,7.66c-.54.11-1.19,1.36-.61,1.54.17.05,1.27-.31,1.32-.48.08-.25-.28-1.14-.71-1.06Z"/>
        <path class="cls-1" d="M3.04,44.08c.36-.14,1.19.38,1.43.09l.99-3.88c-.02-.42-1.02-.35-1.35-.73-.21-.24-.39-.89-.47-1.22.18-.17,2.8.61,3.22.74.43.3.23,1.01.15,1.45-.23,1.25-.73,3.32-1.13,4.52-.33.98-.83.88-1.73.57-.81-.28-.89-.77-1.11-1.54Z"/>
        <path class="cls-1" d="M64.84,1.06c.14-.02.21-.01.27.13l-2.07,8c-.24.5-1.55.1-1.22-.61.74-2.01,1-4.38,1.71-6.38.21-.59.65-1.06,1.31-1.13Z"/>
        <path class="cls-1" d="M.44,33.72v-.24c.56-.17,1.03-.68,1.67-.51l4.15,1.68c.42.18-.04,1.36-.37,1.33l-5.44-2.26Z"/>
        <path class="cls-1" d="M100.39,40.44c.93-.28,1.14,1.27.57,1.45-1.02.31-1.14-1.27-.57-1.45Z"/>
        <path class="cls-1" d="M84.05,13.32c.81-.15,1.28,1.11.55,1.34-.86.27-1.52-1.16-.55-1.34Z"/>
        <path class="cls-1" d="M101,43.05c.98-.3,1.15,1.22.55,1.42-.92.31-1.14-1.24-.55-1.42Z"/>
        <path class="cls-1" d="M82.74,12.93c-.63.51-1.62-.52-1.02-1.15.73-.43,1.6.68,1.02,1.15Z"/>
        <path class="cls-1" d="M84.05,11.23c.82-.07,1.12,1.18.48,1.36-.88.25-1.5-1.28-.48-1.36Z"/>
        <path class="cls-1" d="M11.72,18.11c.22.26.19.73-.07.97-.7.65-1.46-.42-.82-1,.22-.2.72-.18.89.02Z"/>
        <path class="cls-1" d="M46.14,9.23c1.17-.35,1.29,1.34.16,1.2-.69-.09-.67-1.05-.16-1.2Z"/>
        <circle class="cls-1" cx="34.05" cy="3.18" r=".65"/>
        <path class="cls-1" d="M31.88,3.23c.78-.08.85,1.01.35,1.22-1.03.44-1.32-1.12-.35-1.22Z"/>
        <circle class="cls-1" cx="49.94" cy="2" r=".65"/>
        <path class="cls-1" d="M54.23,9.32c1.09-.22,1.04,1.6-.07,1.25-.52-.16-.5-1.13.07-1.25Z"/>
        <circle class="cls-1" cx="73.28" cy="16.22" r=".65"/>
        <circle class="cls-1" cx="90.72" cy="19.6" r=".64"/>
        <circle class="cls-1" cx="92.1" cy="21.37" r=".64"/>
        <circle class="cls-1" cx="44.23" cy="10.09" r=".64"/>
        <circle class="cls-1" cx="12.61" cy="16.98" r=".64"/>
        <path class="cls-1" d="M1.02,39.49c.82-.17.86,1.13.14,1.2s-.9-1.05-.14-1.2Z"/>
      </g>
    </g>
  </g>
</svg>