<?xml version="1.0" encoding="UTF-8"?>
<svg id="Layer_2" data-name="Layer 2" xmlns="http://www.w3.org/2000/svg" viewBox="0 0 115.04 44.38">
  <defs>
    <style>
      .cls-1 {
        fill: #626370;
      }
    </style>
  </defs>
  <g id="Layer_1-2" data-name="Layer 1">
    <g>
      <g>
        <path class="cls-1" d="M10.68,41.34c-.63.31-1.28.46-1.94.46-.85,0-1.63-.15-2.32-.45-.69-.3-1.28-.72-1.78-1.24-.5-.53-.88-1.15-1.15-1.88-.27-.72-.41-1.51-.41-2.37,0-.8.14-1.54.41-2.24.27-.69.66-1.3,1.15-1.82.5-.52,1.09-.93,1.78-1.22.69-.29,1.46-.44,2.32-.44.57,0,1.14.11,1.71.32.57.21,1.15.63,1.76,1.27l2.28-1.63c-.82-.92-1.71-1.57-2.67-1.95-.95-.38-1.99-.58-3.11-.58-1.27,0-2.44.2-3.5.6-1.06.4-1.98.97-2.75,1.71-.77.74-1.37,1.63-1.8,2.68-.43,1.05-.65,2.21-.65,3.49s.22,2.39.65,3.41c.43,1.02,1.04,1.9,1.8,2.63.77.73,1.68,1.3,2.75,1.69,1.06.4,2.23.6,3.5.6s2.35-.23,3.42-.68c1.07-.45,1.98-1.17,2.72-2.17l-2.42-1.67c-.54.68-1.13,1.17-1.76,1.48Z"/>
        <path class="cls-1" d="M58.14,38.34s.06-.06.09-.09c.39-.38.84-.68,1.37-.91.47-.2,1.06-.3,1.78-.3h3.53v-2.61h-3.55c-.9,0-1.72.16-2.44.45-.27.11-.53.23-.78.37v-4.69h7.99v-2.58h-10.92v15.99h11.34v-2.58h-8.41v-3.07Z"/>
        <polygon class="cls-1" points="72.36 27.98 69.43 27.98 69.43 43.98 79.37 43.98 79.37 41.4 72.36 41.4 72.36 27.98"/>
        <polygon class="cls-1" points="84.45 27.98 81.51 27.98 81.51 43.98 91.45 43.98 91.45 41.4 84.45 41.4 84.45 27.98"/>
        <rect class="cls-1" x="93.53" y="27.98" width="2.93" height="15.99"/>
        <path class="cls-1" d="M22.17,27.98l-7.17,15.99h3.28l.35-.86c.26-.49.61-.95,1.06-1.39.39-.37.84-.68,1.37-.9.47-.2,1.06-.3,1.77-.3h4.23l1.4,3.45h3.35l-7.1-15.99h-2.54ZM22.8,37.93c-.82,0-1.57.14-2.25.38l2.79-6.94,2.65,6.56h-3.2Z"/>
        <path class="cls-1" d="M115.04,43.98l-7.1-15.99h-2.54l-7.17,15.99h3.28l.35-.86c.26-.49.61-.95,1.06-1.39.39-.37.84-.68,1.37-.9.47-.2,1.06-.3,1.77-.3h4.23l1.4,3.45h3.35ZM106.04,37.93c-.82,0-1.57.14-2.25.38l2.79-6.94,2.65,6.56h-3.2Z"/>
        <path class="cls-1" d="M46.31,29.64l-3.72,9.48-3.72-9.48c-.57-1.66-1.96-1.66-2.14-1.66h-2.98v15.99h2.79v-12.86c.24.22.4.55.5.76l4.56,12.09h1.99l4.56-12.09c.09-.21.26-.54.5-.76v12.86h2.79v-15.99h-2.98c-.18,0-1.57,0-2.14,1.66Z"/>
      </g>
      <g>
        <path class="cls-1" d="M54.22,7.91c-.61-.37-1.26-.64-1.9-.8-.21.98-.09,2,.33,2.91.38.83,1,1.52,1.79,2,.78.47,1.66.71,2.57.68v-.89h0c0-1.33-1.13-2.9-2.78-3.91Z"/>
        <path class="cls-1" d="M59.21,5.39l-1.69-1.69-1.69,1.69c.24.24.55.58.87.96.33.4.61.77.81,1.12.21-.34.48-.72.81-1.12.32-.38.64-.72.87-.96Z"/>
        <path class="cls-1" d="M62.4,10.02c.43-.92.54-1.94.33-2.91-.65.16-1.3.43-1.9.8-1.66,1.01-2.78,2.59-2.78,3.91v.89c.9.03,1.79-.2,2.57-.68.79-.48,1.4-1.17,1.79-2Z"/>
        <path class="cls-1" d="M51.7,10.46c-.04-.08-.07-.16-.1-.24l-1.03.36c.24.63.6,1.24,1.05,1.79,1.12,1.38,3.41,2.18,5.18,1.38-1.02-.01-2.02-.3-2.9-.83-.96-.59-1.72-1.44-2.19-2.46Z"/>
        <path class="cls-1" d="M63.34,10.46c-.47,1.02-1.23,1.87-2.19,2.46-.88.54-1.87.82-2.9.83,1.77.8,4.05,0,5.18-1.38.45-.55.81-1.17,1.05-1.79l-1.03-.36c-.03.08-.07.16-.1.24Z"/>
        <path class="cls-1" d="M65.21,0h-17.98v20.57h20.57V2.6c0-1.43-1.16-2.6-2.6-2.6ZM65.63,10.39c-.26.92-.74,1.83-1.39,2.63-1.16,1.43-2.83,2.07-4.38,2.07-.64,0-1.26-.11-1.82-.32v3.57h-1.04v-3.57c-.56.21-1.18.32-1.82.32-1.55,0-3.21-.64-4.38-2.07-.65-.8-1.13-1.71-1.39-2.63l-.13-.47,2.02-.7c-.2-.95-.15-1.94.15-2.88l.14-.42.44.07c.93.14,1.88.5,2.74,1.03.91.56,1.68,1.26,2.24,2.02v-.06c0-.77-1.32-2.33-2.26-3.2l-.4-.37,3.18-3.18,3.18,3.18-.4.37c-.94.87-2.26,2.43-2.26,3.2v.06c.56-.76,1.33-1.46,2.24-2.01.87-.53,1.81-.88,2.74-1.03l.44-.07.14.42c.3.94.35,1.93.15,2.88l2.02.7-.13.47Z"/>
      </g>
    </g>
  </g>
</svg>