<?xml version="1.0" encoding="UTF-8"?>
<svg id="Layer_2" data-name="Layer 2" xmlns="http://www.w3.org/2000/svg" viewBox="0 0 112.48 48.19">
  <defs>
    <style>
      .cls-1 {
        letter-spacing: .07em;
      }

      .cls-2 {
        letter-spacing: .07em;
      }

      .cls-3 {
        font-family: AcuminConcept-Medium, 'Acumin Variable Concept';
        font-size: 4.43px;
        font-variation-settings: 'wght' 500, 'wdth' 100, 'slnt' 0;
        font-weight: 500;
      }

      .cls-3, .cls-4 {
        fill: #626370;
      }

      .cls-5 {
        letter-spacing: .07em;
      }

      .cls-6 {
        letter-spacing: .06em;
      }

      .cls-7 {
        letter-spacing: .06em;
      }

      .cls-8 {
        letter-spacing: .07em;
      }
    </style>
  </defs>
  <g id="Layer_1-2" data-name="Layer 1">
    <g>
      <path class="cls-4" d="M27.66,13.69c1.04,0,1.9.85,1.9,1.9s-.85,1.99-1.9,1.99-1.99-.9-1.99-1.99.9-1.9,1.99-1.9"/>
      <path class="cls-4" d="M21.55,6.69c0,1.31.88,2.49,3.25,2.49h8.95c.4,0,.74,0,1.02-.07-.36-1.4-.81-2.73-1.57-4.15h2.28v8.4c-.45-.47-1.28-.57-1.76-.57h-9.73c-3.02,0-4.25-2.28-4.25-4.51s1.23-4.42,3.09-4.25c-.78.64-1.28,1.69-1.28,2.66"/>
      <path class="cls-4" d="M48.1,5.08c1.31,0,2.49.88,2.49,3.25v2.71c0,.4,0,.45-.07.74-1.4-.36-5.27-.52-6.69-1.28v2.28h10.94c-.47-.45-.57-1.28-.57-1.76v-3.49c0-3.02-2.28-4.25-4.51-4.25s-4.42,1.23-4.25,3.09c.64-.78,1.69-1.28,2.66-1.28"/>
      <path class="cls-4" d="M42.73,4.44h-4.35c.47.45.57,1.28.57,1.76h.02s0,6.33,0,6.33c0,2.37-1.19,3.25-2.49,3.25-.97,0-2.02-.5-2.66-1.28-.17,1.85,2.02,3.09,4.25,3.09s4.51-1.23,4.51-4.25v-7.14c0-.48.1-1.31.57-1.76h-.42Z"/>
      <path class="cls-4" d="M0,35.99c.52-.41.5-.8.5-1.43v-11.19c0-.63.02-1.02-.5-1.43h6.11c4.82-.02,7.24,2.87,7.24,6.98s-2.46,7.06-6.87,7.06H0ZM3.54,22.47c.19.32.24.8.24,1.27v10.46c0,.48-.04.95-.24,1.27h2.94c2.07,0,3.35-3.09,3.35-6.57s-1.22-5.15-3.65-5.91l-2.63-.53Z"/>
      <path class="cls-4" d="M13.74,35.99l4.62-12.77c.15-.45.24-.93-.17-1.27h3.8l4.32,12.21c.22.63.43,1.43.95,1.84h-3.05c-.63,0-.95-.32-1.1-.8l-1.27-3.59h-4.69l-1.17,4.39h-2.25ZM17.35,30.78h4.21l-2.42-6.87-1.79,6.87Z"/>
      <path class="cls-4" d="M33.96,21.95c2.96,0,5.98.3,5.98,4,0,2.87-2.33,3.82-4.62,4.02,3.05,1.36,3.91,4.9,5.83,5.55-.65.43-1.58.73-2.68.73-3.39.02-2.77-5.14-5.34-6.31v-.69c2.18,0,3.31-1.08,3.31-3.31s-1.95-2.63-3.12-3l-1.37-.47c.19.32.24.8.24,1.27v10.82c0,.63-.02,1.02.5,1.43h-2.57c-1.02,0-1.21-.84-1.21-1.79v-10.82c0-.63.02-1.02-.5-1.43h5.55Z"/>
      <path class="cls-4" d="M42.97,23.37c0-.63.02-1.02-.5-1.43h6.5c2.81,0,4.49.99,4.49,3.18,0,1.68-.97,2.64-2.16,3.15,1.79.39,3.57,1.62,3.57,3.89s-2.05,3.82-4.71,3.82h-7.69c.52-.41.5-.8.5-1.43v-11.19ZM46.01,22.47c.19.32.24.8.24,1.27v10.46c0,.48-.04.95-.24,1.27h2.68c1.64,0,2.77-1.32,2.77-3.18,0-2.23-1.3-3.43-3.13-3.43h-1.1v-.73h.76c1.23,0,2.07-1.02,2.07-2.89s-1.77-1.87-2.68-2.29l-1.36-.47Z"/>
      <g>
        <polygon class="cls-4" points="112.48 17.08 112.48 0 101.09 6.83 101.09 23.91 112.48 17.08"/>
        <polygon class="cls-4" points="84.01 47.09 101.09 35.3 101.09 23.91 84.01 35.7 84.01 47.09"/>
        <polygon class="cls-4" points="64.99 15.46 64.99 4.05 72.6 8.61 72.6 20.02 64.99 15.46"/>
        <polygon class="cls-4" points="84.01 35.5 72.6 27.63 72.6 20.02 84.01 27.89 84.01 35.5"/>
      </g>
      <path class="cls-4" d="M1.9,41.22c-.13-.03-.22-.1-.29-.21-.06.03-.13.06-.23.08s-.21.04-.34.04c-.11,0-.22-.01-.32-.04s-.2-.07-.28-.14-.15-.15-.2-.25-.08-.23-.08-.38c0-.14.02-.27.07-.38s.11-.21.2-.28.19-.14.31-.17.25-.06.39-.06h.84v1.15c0,.13.03.22.09.26s.16.07.3.07h.03s.07.01.09.04.03.08.03.15c0,.08,0,.13-.01.15s-.02.03-.04.03h-.11c-.17,0-.32-.02-.45-.05ZM.64,38.57s.11-.07.18-.07.13.02.18.07.07.11.07.18-.02.13-.07.18-.1.07-.18.07-.13-.02-.18-.07-.07-.11-.07-.18.02-.13.07-.18ZM.67,40.52c.03.06.07.1.12.13s.1.05.15.07.11.02.16.02c.1,0,.18,0,.24-.02s.12-.04.18-.07v-.85h-.36c-.07,0-.14,0-.21.02s-.12.04-.17.08-.09.09-.11.15-.04.15-.04.24c0,.09.02.17.05.22ZM1.28,38.57s.11-.07.18-.07.13.02.18.07.07.11.07.18-.02.13-.07.18-.1.07-.18.07-.13-.02-.18-.07-.07-.11-.07-.18.02-.13.07-.18ZM3.12,40.94s.03.08.03.16,0,.12-.02.14-.03.03-.05.03h-.63c-.07,0-.12-.01-.14-.04s-.04-.08-.04-.15c0-.12.04-.18.13-.18h.63s.07.01.09.04ZM3.75,40.94s.03.08.03.16,0,.12-.02.14-.03.03-.05.03h-.63c-.07,0-.12-.01-.14-.04s-.04-.08-.04-.15c0-.12.04-.18.13-.18h.63s.07.01.09.04ZM4.37,40.94s.03.08.03.16,0,.12-.02.14-.03.03-.05.03h-.63c-.07,0-.12-.01-.14-.04s-.04-.08-.04-.15c0-.12.04-.18.13-.18h.63s.07.01.09.04ZM5,40.94s.03.08.03.16,0,.12-.02.14-.03.03-.05.03h-.63c-.07,0-.12-.01-.14-.04s-.04-.08-.04-.15c0-.12.04-.18.13-.18h.63s.07.01.09.04ZM5.63,40.94s.03.08.03.16,0,.12-.02.14-.03.03-.05.03h-.63c-.07,0-.12-.01-.14-.04s-.04-.08-.04-.15c0-.12.04-.18.13-.18h.63s.07.01.09.04ZM6.26,40.94s.03.08.03.16,0,.12-.02.14-.03.03-.05.03h-.63c-.07,0-.12-.01-.14-.04s-.04-.08-.04-.15c0-.12.04-.18.13-.18h.63s.07.01.09.04ZM6.89,40.94s.03.08.03.16,0,.12-.02.14-.03.03-.05.03h-.63c-.07,0-.12-.01-.14-.04s-.04-.08-.04-.15c0-.12.04-.18.13-.18h.63s.07.01.09.04ZM7.52,40.94s.03.08.03.16,0,.12-.02.14-.03.03-.05.03h-.63c-.07,0-.12-.01-.14-.04s-.04-.08-.04-.15c0-.12.04-.18.13-.18h.63s.07.01.09.04ZM8.14,40.94s.03.08.03.16,0,.12-.02.14-.03.03-.05.03h-.63c-.07,0-.12-.01-.14-.04s-.04-.08-.04-.15c0-.12.04-.18.13-.18h.63s.07.01.09.04ZM8.35,40.86c.08-.02.14-.06.18-.1s.07-.1.08-.16.02-.13.02-.21v-.97h.46v.97c0,.15-.02.28-.05.39s-.09.2-.16.27-.17.13-.3.16-.28.05-.46.05c-.06,0-.11-.01-.14-.04s-.06-.07-.06-.14c0-.05,0-.1.03-.14s.05-.06.11-.06c.12,0,.22-.01.29-.03ZM8.17,41.69s.11-.07.18-.07.13.02.18.07.07.11.07.18-.02.13-.07.18-.1.07-.18.07-.13-.02-.18-.07-.07-.11-.07-.18.02-.13.07-.18ZM8.81,41.69s.11-.07.18-.07.13.02.18.07.07.11.07.18-.02.13-.07.18-.1.07-.18.07-.13-.02-.18-.07-.07-.11-.07-.18.02-.13.07-.18ZM9.48,42c-.06,0-.11-.02-.15-.03l.06-.37c.07.01.13.02.19.02.13,0,.22-.04.27-.12s.07-.19.07-.35v-1.74h.46v1.77c0,.15-.02.28-.05.38s-.08.19-.15.26-.14.11-.23.14-.19.04-.3.04c-.06,0-.12,0-.18-.01ZM11.94,41.27c-.13,0-.25,0-.36-.03s-.21-.05-.3-.1-.15-.12-.2-.2-.07-.19-.07-.32v-2.47h.46v2.35c0,.07.01.14.03.19s.05.09.09.12.08.05.13.06.1.02.15.02c.05,0,.07.02.09.05s.02.08.02.15c0,.12-.01.18-.04.18ZM12.59,40.94s.03.08.03.16,0,.12-.02.14-.03.03-.05.03h-.63c-.07,0-.12-.01-.14-.04s-.04-.08-.04-.15c0-.12.04-.18.13-.18h.63s.07.01.09.04ZM13.22,40.94s.03.08.03.16,0,.12-.02.14-.03.03-.05.03h-.63c-.07,0-.12-.01-.14-.04s-.04-.08-.04-.15c0-.12.04-.18.13-.18h.63s.07.01.09.04ZM13.85,40.94s.03.08.03.16,0,.12-.02.14-.03.03-.05.03h-.63c-.07,0-.12-.01-.14-.04s-.04-.08-.04-.15c0-.12.04-.18.13-.18h.63s.07.01.09.04ZM14.48,40.94s.03.08.03.16,0,.12-.02.14-.03.03-.05.03h-.63c-.07,0-.12-.01-.14-.04s-.04-.08-.04-.15c0-.12.04-.18.13-.18h.63s.07.01.09.04ZM15.11,40.94s.03.08.03.16,0,.12-.02.14-.03.03-.05.03h-.63c-.07,0-.12-.01-.14-.04s-.04-.08-.04-.15c0-.12.04-.18.13-.18h.63s.07.01.09.04ZM15.73,40.94s.03.08.03.16,0,.12-.02.14-.03.03-.05.03h-.63c-.07,0-.12-.01-.14-.04s-.04-.08-.04-.15c0-.12.04-.18.13-.18h.63s.07.01.09.04ZM16.36,40.94s.03.08.03.16,0,.12-.02.14-.03.03-.05.03h-.63c-.07,0-.12-.01-.14-.04s-.04-.08-.04-.15c0-.12.04-.18.13-.18h.63s.07.01.09.04ZM16.99,40.94s.03.08.03.16,0,.12-.02.14-.03.03-.05.03h-.63c-.07,0-.12-.01-.14-.04s-.04-.08-.04-.15c0-.12.04-.18.13-.18h.63s.07.01.09.04ZM18.41,41.25c-.14-.02-.25-.03-.34-.06-.1.02-.22.04-.35.06s-.26.02-.4.02h-.35c-.06,0-.11-.01-.14-.04s-.06-.07-.06-.14c0-.13.05-.2.14-.2h.35s.08,0,.11,0,.07,0,.11-.01c-.22-.19-.34-.41-.34-.67,0-.13.02-.25.07-.35s.11-.19.2-.26.18-.12.3-.16.23-.06.37-.06.26.02.37.06.21.09.29.16.15.16.19.26.07.22.07.36-.03.26-.08.37-.14.21-.25.29c.04,0,.07,0,.1,0s.07,0,.11,0h.31s.07.01.09.04.03.08.03.16,0,.13-.02.15-.03.03-.05.03h-.42c-.14,0-.29,0-.42-.02ZM17.57,38.57s.11-.07.18-.07.13.02.18.07.07.11.07.18-.02.13-.07.18-.1.07-.18.07-.13-.02-.18-.07-.07-.11-.07-.18.02-.13.07-.18ZM17.73,40.56c.08.11.19.19.34.24.15-.06.26-.14.34-.24s.11-.22.11-.35c0-.06,0-.12-.03-.18s-.05-.11-.09-.15-.09-.08-.14-.1-.12-.04-.19-.04c-.14,0-.25.04-.33.13s-.13.2-.13.34c0,.12.04.23.11.34ZM18.21,38.57s.11-.07.18-.07.13.02.18.07.07.11.07.18-.02.13-.07.18-.1.07-.18.07-.13-.02-.18-.07-.07-.11-.07-.18.02-.13.07-.18ZM19.91,40.94s.03.08.03.16,0,.12-.02.14-.03.03-.05.03h-.63c-.07,0-.12-.01-.14-.04s-.04-.08-.04-.15c0-.12.04-.18.13-.18h.63s.07.01.09.04ZM21.23,41.22c-.1-.03-.19-.07-.27-.12-.11.05-.22.09-.35.12s-.26.05-.39.05h-.34c-.06,0-.11-.01-.14-.04s-.06-.07-.06-.14c0-.13.05-.2.14-.2h.45c.08,0,.16,0,.23-.02s.14-.03.19-.05c-.06-.07-.11-.14-.16-.21s-.11-.13-.16-.18-.11-.11-.18-.17-.14-.11-.22-.16c0-.03,0-.06.01-.11s.01-.08.02-.13.02-.08.03-.12.02-.07.03-.09c.05-.03.1-.06.17-.09s.14-.06.22-.09.16-.05.25-.06.18-.02.28-.03c.14,0,.26.01.37.04s.21.07.29.12.14.12.19.2.07.18.07.28c0,.14-.05.29-.16.43s-.24.27-.41.39c.05.01.1.02.15.03s.1,0,.17,0h.45s.07.01.09.04.03.08.03.15,0,.12-.01.15-.02.04-.04.04h-.55c-.15,0-.28-.02-.39-.05ZM20.78,39.79s-.1.02-.15.04-.1.03-.14.05-.06.03-.08.04c.14.12.25.24.34.36s.18.24.26.37c.12-.08.22-.17.3-.27s.12-.19.12-.28c0-.1-.04-.17-.11-.23s-.2-.09-.36-.09c-.07,0-.13,0-.17.01ZM22.82,40.94s.03.08.03.16,0,.12-.02.14-.03.03-.05.03h-.63c-.07,0-.12-.01-.14-.04s-.04-.08-.04-.15c0-.12.04-.18.13-.18h.63s.07.01.09.04ZM23.11,40.79c.07-.07.11-.19.11-.34v-2.29h.46v2.37c0,.26-.07.45-.21.57s-.36.18-.67.18c-.06,0-.11-.01-.15-.04s-.06-.07-.06-.14c0-.05,0-.09.03-.13s.06-.06.11-.06c.18,0,.3-.04.37-.11ZM24.78,41.27h-.46v-3.12h.46v3.12ZM26.94,41.23c-.12-.03-.22-.08-.31-.14-.09-.06-.15-.15-.2-.25-.05-.1-.07-.22-.07-.36,0-.09.01-.2.03-.32s.06-.24.11-.36l.41.12c-.04.11-.06.21-.07.29-.01.08-.02.15-.02.2,0,.17.06.29.17.37s.26.12.45.12h1.4c.09,0,.17,0,.22-.03s.11-.05.14-.08.06-.09.08-.16.02-.15.02-.24v-.97h.46v1.12c0,.25-.06.43-.18.55-.12.12-.31.18-.58.18h-1.68c-.14,0-.26-.01-.38-.04ZM27.54,38.82s.11-.07.18-.07.13.02.18.07.07.11.07.18-.02.13-.07.18-.1.07-.18.07-.13-.02-.18-.07-.07-.11-.07-.18.02-.13.07-.18ZM28.18,38.82s.11-.07.18-.07.13.02.18.07.07.11.07.18-.02.13-.07.18-.1.07-.18.07-.13-.02-.18-.07-.07-.11-.07-.18.02-.13.07-.18ZM30.83,41.27h-.46v-3.12h.46v3.12ZM31.23,42c-.06,0-.11-.02-.15-.03l.06-.37c.07.01.13.02.19.02.13,0,.22-.04.27-.12.05-.07.07-.19.07-.35v-1.74h.46v1.77c0,.15-.02.28-.05.38s-.08.19-.15.26c-.06.07-.14.11-.23.14-.09.03-.19.04-.3.04-.06,0-.12,0-.18-.01ZM33.69,41.27c-.13,0-.25,0-.36-.03-.11-.02-.21-.05-.29-.1s-.15-.12-.2-.2c-.05-.09-.07-.19-.07-.32v-2.47h.46v2.35c0,.07.01.14.03.19s.05.09.09.12c.04.03.08.05.13.06s.1.02.15.02c.05,0,.07.02.09.05s.02.08.02.15c0,.12-.01.18-.04.18ZM34.34,40.94s.03.08.03.16,0,.12-.02.14c-.01.02-.03.03-.05.03h-.63c-.07,0-.12-.01-.14-.04s-.04-.08-.04-.15c0-.12.04-.18.13-.18h.63s.07.01.09.04ZM34.96,40.94s.03.08.03.16,0,.12-.02.14c-.01.02-.03.03-.05.03h-.63c-.07,0-.12-.01-.14-.04s-.04-.08-.04-.15c0-.12.04-.18.13-.18h.63s.07.01.09.04ZM35.59,40.94s.03.08.03.16,0,.12-.02.14c-.01.02-.03.03-.05.03h-.63c-.07,0-.12-.01-.14-.04s-.04-.08-.04-.15c0-.12.04-.18.13-.18h.63s.07.01.09.04ZM36.22,40.94s.03.08.03.16,0,.12-.02.14c-.01.02-.03.03-.05.03h-.63c-.07,0-.12-.01-.14-.04s-.04-.08-.04-.15c0-.12.04-.18.13-.18h.63s.07.01.09.04ZM36.85,40.94s.03.08.03.16,0,.12-.02.14c-.01.02-.03.03-.05.03h-.63c-.07,0-.12-.01-.14-.04s-.04-.08-.04-.15c0-.12.04-.18.13-.18h.63s.07.01.09.04ZM37.48,40.94s.03.08.03.16,0,.12-.02.14c-.01.02-.03.03-.05.03h-.63c-.07,0-.12-.01-.14-.04s-.04-.08-.04-.15c0-.12.04-.18.13-.18h.63s.07.01.09.04ZM38.11,40.94s.03.08.03.16,0,.12-.02.14c-.01.02-.03.03-.05.03h-.63c-.07,0-.12-.01-.14-.04s-.04-.08-.04-.15c0-.12.04-.18.13-.18h.63s.07.01.09.04ZM38.73,40.94s.03.08.03.16,0,.12-.02.14c-.01.02-.03.03-.05.03h-.63c-.07,0-.12-.01-.14-.04s-.04-.08-.04-.15c0-.12.04-.18.13-.18h.63s.07.01.09.04ZM38.56,41.23s-.05-.08-.05-.15c0-.05,0-.1.03-.14s.06-.06.11-.06h.11c.1,0,.17-.04.22-.1s.08-.16.08-.29c.03-.34.12-.61.28-.81s.38-.3.67-.31c.16,0,.3.03.42.08s.21.12.29.21c.07.09.13.19.17.3.04.11.05.23.05.36,0,.06,0,.11,0,.16s-.01.1-.03.14c.02.09.07.16.15.2s.17.06.27.06c.04,0,.07.01.09.04s.03.08.03.15c0,.08,0,.13-.01.15s-.02.03-.03.03c-.06,0-.12,0-.18-.01s-.12-.02-.18-.05-.11-.05-.16-.09-.09-.09-.13-.15c-.08.11-.18.19-.3.24-.12.05-.25.08-.39.08-.12,0-.23-.02-.34-.06s-.23-.11-.36-.21c-.05.09-.11.15-.19.19-.08.04-.18.06-.31.06h-.15c-.07,0-.11-.01-.15-.04ZM39.65,40.02c-.09.15-.14.36-.16.62.08.08.17.14.26.19.09.05.18.07.29.07.08,0,.15-.02.2-.05.06-.03.1-.07.13-.13s.06-.11.07-.17c.02-.07.02-.13.02-.2,0-.2-.04-.34-.12-.44s-.19-.14-.33-.14c-.16,0-.28.08-.37.23ZM42.05,40.94s.03.08.03.16,0,.12-.02.14c-.01.02-.03.03-.05.03h-.63c-.07,0-.12-.01-.14-.04s-.04-.08-.04-.15c0-.12.04-.18.13-.18h.63s.07.01.09.04ZM42.67,40.94s.03.08.03.16,0,.12-.02.14c-.01.02-.03.03-.05.03h-.63c-.07,0-.12-.01-.14-.04s-.04-.08-.04-.15c0-.12.04-.18.13-.18h.63s.07.01.09.04ZM42.89,40.86c.07-.03.13-.06.17-.11s.07-.11.08-.18c.01-.07.02-.16.02-.25v-.89h.46v1.07c0,.13.04.23.12.3s.2.11.35.11c.04,0,.07.01.09.04s.03.08.03.15,0,.12-.01.15-.02.04-.04.04c-.06,0-.12,0-.19-.01s-.13-.03-.19-.05c-.06-.02-.12-.05-.17-.09s-.09-.08-.13-.14c-.07.1-.17.18-.31.22-.14.05-.31.07-.53.07-.07,0-.11-.01-.15-.04s-.05-.08-.05-.15c0-.05.01-.1.03-.14.02-.04.06-.06.1-.06.13,0,.23-.01.3-.04ZM42.88,38.57s.11-.07.18-.07.13.02.18.07.07.11.07.18-.02.13-.07.18-.1.07-.18.07-.13-.02-.18-.07-.07-.11-.07-.18.02-.13.07-.18ZM43.2,38.02s.11-.07.18-.07.13.02.18.07.07.11.07.18-.02.13-.07.18-.1.07-.18.07-.13-.02-.18-.07-.07-.11-.07-.18.02-.13.07-.18ZM43.52,38.57s.11-.07.18-.07.13.02.18.07.07.11.07.18-.02.13-.07.18-.1.07-.18.07-.13-.02-.18-.07-.07-.11-.07-.18.02-.13.07-.18ZM44.81,40.94s.03.08.03.16,0,.12-.02.14c-.01.02-.03.03-.05.03h-.63c-.07,0-.12-.01-.14-.04s-.04-.08-.04-.15c0-.12.04-.18.13-.18h.63s.07.01.09.04ZM45.44,40.94s.03.08.03.16,0,.12-.02.14c-.01.02-.03.03-.05.03h-.63c-.07,0-.12-.01-.14-.04s-.04-.08-.04-.15c0-.12.04-.18.13-.18h.63s.07.01.09.04ZM45.65,40.86c.08-.03.13-.06.17-.11s.07-.11.08-.18c.01-.07.02-.16.02-.25v-.89h.46v1.07c0,.13.04.23.12.3s.2.11.35.11c.04,0,.07.01.09.04s.03.08.03.15,0,.12-.01.15-.02.04-.04.04c-.06,0-.12,0-.19-.01s-.13-.03-.19-.05c-.06-.02-.12-.05-.17-.09s-.09-.08-.13-.14c-.07.1-.17.18-.31.22-.14.05-.31.07-.53.07-.07,0-.11-.01-.15-.04s-.05-.08-.05-.15c0-.05.01-.1.03-.14.02-.04.06-.06.1-.06.13,0,.23-.01.3-.04ZM45.64,38.57s.11-.07.18-.07.13.02.18.07.07.11.07.18-.02.13-.07.18-.1.07-.18.07-.13-.02-.18-.07-.07-.11-.07-.18.02-.13.07-.18ZM46.28,38.57s.11-.07.18-.07.13.02.18.07.07.11.07.18-.02.13-.07.18-.1.07-.18.07-.13-.02-.18-.07-.07-.11-.07-.18.02-.13.07-.18ZM47.1,40.87c.07-.02.12-.04.15-.08s.06-.08.08-.13.02-.12.02-.2v-.67h.46v.72c0,.11.03.2.08.27.06.07.15.1.27.1.12,0,.21-.04.26-.11s.07-.18.07-.32v-.67h.46v.72c0,.11.03.2.08.27.06.07.14.1.27.1.07,0,.12-.01.17-.04s.07-.06.1-.1c.02-.04.04-.09.04-.14,0-.05.01-.11.01-.17v-1.03h.46v1.12c0,.1-.01.19-.04.28-.02.09-.06.17-.12.24s-.12.12-.21.16-.19.06-.31.06c-.14,0-.26-.02-.35-.07-.1-.05-.17-.11-.21-.2-.05.07-.12.13-.21.19-.09.05-.22.08-.37.08-.14,0-.26-.02-.35-.07-.09-.05-.16-.11-.21-.2-.03.04-.07.08-.11.11-.05.04-.1.07-.15.08s-.13.04-.21.05c-.09.01-.19.02-.31.02-.07,0-.12-.01-.16-.04s-.06-.07-.06-.14c0-.05.01-.1.03-.14s.06-.06.12-.06c.1,0,.19,0,.25-.03ZM52.01,41.27h-1.47v-.38h1.32c.18,0,.3-.04.37-.12.07-.08.1-.21.1-.39v-2.23h.46v2.33c0,.12.04.22.13.3.08.07.2.11.34.11.04,0,.07.01.09.04s.03.08.03.15,0,.12-.01.15-.02.04-.04.04c-.13,0-.25-.02-.37-.06s-.21-.11-.28-.21c-.12.18-.34.28-.67.28ZM51.61,38.63v2.07h-.46v-2.07h.46ZM53.62,40.79c.07-.07.11-.19.11-.34v-2.29h.46v2.37c0,.26-.07.45-.21.57s-.36.18-.67.18c-.06,0-.11-.01-.15-.04s-.06-.07-.06-.14c0-.05,0-.09.03-.13.02-.04.06-.06.11-.06.18,0,.3-.04.37-.11Z"/>
      <text class="cls-3" transform="translate(0 47.03)"><tspan class="cls-1" x="0" y="0">R</tspan><tspan class="cls-8" x="3.18" y="0">e</tspan><tspan class="cls-1" x="5.82" y="0">al Es</tspan><tspan class="cls-5" x="16.76" y="0">t</tspan><tspan class="cls-7" x="18.5" y="0">a</tspan><tspan class="cls-6" x="21.15" y="0">t</tspan><tspan class="cls-2" x="22.87" y="0">e I</tspan><tspan class="cls-7" x="28.53" y="0">n</tspan><tspan class="cls-1" x="31.34" y="0">vestment</tspan><tspan x="52.08" y="0">s</tspan></text>
    </g>
  </g>
</svg>