<?xml version="1.0" encoding="UTF-8"?>
<svg id="Layer_1" xmlns="http://www.w3.org/2000/svg" version="1.1" viewBox="0 0 73.5 66.5">
  <!-- Generator: Adobe Illustrator 29.4.0, SVG Export Plug-In . SVG Version: 2.1.0 Build 152)  -->
  <defs>
    <style>
      .st0 {
        isolation: isolate;
      }

      .st1 {
        fill: #626370;
      }
    </style>
  </defs>
  <g class="st0">
    <g id="Layer_2">
      <g id="Layer_1-2">
        <g>
          <path class="st1" d="M11.3,24.9c.6,0,1.2-.2,1.7-.7.5-.5.7-1,.7-1.7s-.2-1.2-.7-1.7c-.5-.5-1-.7-1.7-.7s-1.2.2-1.7.7c-.5.5-.7,1-.7,1.7s.2,1.2.7,1.7c.5.5,1,.7,1.7.7"/>
          <path class="st1" d="M16.6,24.9c.7,0,1.2-.2,1.7-.7s.7-1,.7-1.7-.2-1.2-.7-1.7c-.5-.5-1-.7-1.7-.7s-1.2.2-1.7.7c-.5.5-.7,1-.7,1.7s.2,1.2.7,1.7c.5.5,1,.7,1.7.7"/>
          <path class="st1" d="M20.2,27c-3.1,0-5.6.5-7.7,1.5-2.1,1-3.6,2.4-4.7,4-1,1.7-1.6,3.5-1.6,5.4s.7,3.5,2,4.9c1.4,1.4,3,2,4.9,2s3.6-.7,4.9-2c1.4-1.3,2-3,2-4.9v-11ZM16.2,38c0,.8-.3,1.5-.8,2.1-.6.6-1.3.9-2.1.9s-1.5-.3-2.1-.9c-.6-.6-.9-1.3-.9-2.1,0-3.2,1.9-5.3,5.8-6.5,0,0,0,6.5,0,6.5Z"/>
          <path class="st1" d="M41.3,22.3c.7,0,1.2-.2,1.7-.7s.7-1,.7-1.7-.2-1.2-.7-1.7-1-.7-1.7-.7-1.2.2-1.7.7-.7,1-.7,1.7.2,1.2.7,1.7c.5.5,1,.7,1.7.7"/>
          <path class="st1" d="M35.9,28.6c-1,1.5-1.4,3.2-1.4,5s.6,3.2,1.9,4.5c1.2,1.3,2.7,1.9,4.5,1.9s1.5-.1,2.1-.3c-.1.3-.3.5-.5.7-.5.5-1,.7-1.7.7h-7.4s-.5,0-.5,0c-.6,0-1.2-.2-1.7-.7-.5-.5-.7-1-.7-1.7v-10c-1.1,0-2.1.4-2.9,1.2s-1.2,1.7-1.2,2.9v8.3c0,2.8-1.4,4.9-4.1,6.2-2,1-3.1,2.5-3.1,4.5h0c3.2,0,5.8-.9,8-3,1.3-1.3,2.2-2.7,2.7-4.3.8.4,1.7.6,2.6.7h8.1c1.8,0,3.3-.6,4.5-1.9,1.2-1.2,1.9-2.7,1.9-4.5v-15.1c-2.8,0-5.2.5-7,1.4-1.9.9-3.3,2.2-4.2,3.7M43.1,28.1v5.5c0,.6-.2,1.2-.7,1.6-.5.5-1,.7-1.6.7s-1.2-.2-1.6-.7c-.5-.5-.7-1-.7-1.6,0-1.1.4-2.2,1.2-3.3.8-1.1,2-1.8,3.4-2.1"/>
          <path class="st1" d="M56.7,30c-1.9.9-3.3,2.2-4.2,3.7-1,1.5-1.4,3.2-1.4,5s.6,3.2,1.9,4.5c1.2,1.3,2.7,1.9,4.5,1.9s.7,0,1,0c-.7,1-1.7,1.8-2.8,2.3-2,1-3,2.5-3,4.5h0c3.1,0,5.8-.9,7.9-2.9,2.1-2,3.2-4.6,3.3-7.7v-12.5c-2.8,0-5.2.5-7,1.4M59.7,38.6c0,.7-.3,1.2-.7,1.6s-1,.7-1.6.7-1.2-.2-1.6-.7c-.5-.5-.7-1-.7-1.6,0-1.1.4-2.2,1.2-3.3.8-1.1,2-1.8,3.5-2.2v5.5h0Z"/>
          <path class="st1" d="M52.4,14.5c.7-1.2,1.7-2.3,3-3l10.1-5.8v9.9c0,1.4-.4,2.8-1.1,4.1s-1.7,2.3-3,3l-10.1,5.9v-9.9c0-1.4.4-2.8,1.1-4.1M60,20.2c1.7-1,2.7-2.7,2.7-4.6v-5.1l-6,3.4c-1.7.9-2.7,2.7-2.7,4.6v5.1s6-3.4,6-3.4Z"/>
          <path class="st1" d="M54.1,12.9v9.9l-10.1-5.9c-1.2-.7-2.3-1.7-3-3s-1.1-2.6-1.1-4.1V0l10.1,5.8c1.2.7,2.3,1.7,3,3s1.1,2.6,1.1,4.1M51.3,18v-5.1c0-1.9-1-3.7-2.7-4.6l-6-3.4v5.1c0,1.9,1,3.7,2.7,4.6,0,0,6,3.4,6,3.4Z"/>
          <path class="st1" d="M25.2,60c-.3-.2-.4-.2-.6-.5-.4-.5-.3-1.1,0-1.8.8-2.2,2.6-6.5,3.9-8.8.2-.3.3-.4.5-.3.2.2.5.4.8.6.5.3.6.8,0,1.9-.7,1.4-1.4,3.2-2.3,5.3,1.4-1.8,3-3.7,4.1-4.9.2-.2.3-.3.5-.3s.4.1.6.2c.3.2.5.4.4,1-.4,1.3-.8,2.7-1.3,4.3,2.3-2.9,5.6-6.4,7.3-7.8,0,0,.1,0,.1,0s-.1.3-.2.6c0,.4-.3.6-1.2,1.7-1.6,1.8-3.8,4.4-6.4,8-.4.5-.6.6-.9.6-.3,0-.6-.1-1-.3-.5-.2-.5-.8-.3-1.8.3-1.1.5-2,.8-3-1.4,1.7-2.8,3.4-3.9,4.8-.5.7-.6.8-1,.6"/>
          <path class="st1" d="M38.5,58.1c-.9,1.2-1.6,1.7-2.1,1.7s-1.3-.5-1.7-1.2c-.3-.6-.3-1.4.6-2.6,1-1.4,2.6-2.2,3.6-2.2s.9.4,1.1.9c0-.1.2-.2.3-.2s.4,0,.9.3c.4.2.5.4.5.5s-.1.5-.6,1.6c-.3.7-.6,1.3-.7,1.8.4-.2.9-.5,1.2-.8,0,0,0,0,0,0,0,0,0,.2,0,.2s0,.2-.1.3c-.5.6-1.3,1.5-2.2,1.5s-1.3-.4-1-1.8M39.8,55.1c-.7.2-1.4.6-1.9,1.2-.8.7-1.3,1.7-1.2,2.3,1-.3,1.9-1.3,3.1-3.5"/>
          <path class="st1" d="M40.9,61.9c-.3,0-.3-.2-.2-.5.4-1,1.6-3.2,2.6-4.9.4-.6.8-1.2,1.1-1.7-.2,0-.3,0-.4-.2-.2-.2-.4-.5-.4-.6s0,0,.2-.1c.3,0,.8-.1,1.4-.2,1.6-2.3,2.8-3.8,3.9-4.9.3-.3.5-.4.7-.4.3,0,.8.1,1,.3.2.1.3.4.2.7,0,.7-.4,1.7-.8,2.4-.2.2-.5.3-.7.2-.1,0-.2,0-.4,0,0,0-.2-.1-.3-.3-.4.5-.8,1.1-1.3,1.9h.6c1.1,0,1.2,0,1.3.2.2.1.3.2.3.3s0,.1-.2.1c-1,0-1.9.2-2.7.3-1.4,2.2-3.6,5.5-4.5,6.5-.4.5-.7.6-1,.7-.2,0-.5.2-.7.2"/>
          <path class="st1" d="M47.3,59.6c-.5-.1-.9-.3-.9-.8s.3-1.2,1.1-2.3c.6-.8,1.7-2.3,1.9-2.8,0-.1.2-.1.3,0,.3,0,.5.1.7.2.2.1.3.3.3.5s0,.4,0,.6c.9-.8,1.7-1.4,2.5-1.7.3-.2.6-.3.7-.3s.2,0,.3.2c0,0,.1.1.1.1s0,0,0,0c-1.6,1-3.6,2.9-5.1,5.2-.6,1-.8,1.1-1,1.1s-.2,0-.7-.2"/>
          <path class="st1" d="M52.7,59.3c-.3-.2-.5-.4-.7-.7-.4-.6-.2-1.5.7-2.7.8-1,1.9-1.7,3-2.1.3-.1.6-.2,1,0,.4,0,.8.4,1.1.8.1,0,.3,0,.5,0,.3.2.9.6,1.1.9,0,0,0,.2,0,.4-.6.8-1.1,1.8-1.4,2.7.5,0,1-.2,1.7-.5.1,0,.1,0,.1.2s0,.3-.1.3c-.8.6-1.9,1.1-2.8,1.1s-1.1-.6-.9-1.5c-.7.8-1.2,1.3-1.7,1.5-.4.2-.8.2-1.4-.4M56.3,56.6c.3-.5.6-1.1.9-1.5-1.8.6-3.4,2.4-3.4,3.6.8-.3,1.7-1.1,2.5-2.1"/>
          <path class="st1" d="M37.3,13c-8.6.4-17.3.6-25.9.7-.7,0-1.5,0-2.2.2-3.8.8-6.9,4.1-7.4,7.9-.1.8,0,2.2,0,3,0,2.1,0,4.2,0,6.3-.1,7.7-.4,15.9-.5,23.6-.4,6,4.5,10.9,10.5,10.5,16.5-.3,33.8-.6,50.3-.6,5.6.2,10-4.5,9.6-10.1,0-10.1.3-21.3.5-31.5.1-3.6-1.9-7.1-5.1-8.9v-.2c1,.5,1.9,1.1,2.7,1.8,2,1.8,3.2,4.5,3.2,7.2,0,1,.2,6.8.2,7.9.1,8,.3,17.2.3,25.2-.3,6-5.5,10.7-11.5,10.5-15.4,0-31.8-.2-47.2-.6-1,0-3.7,0-4.8-.1-5.6-.5-9.8-5.5-9.5-11.1,0-7.7-.3-15.9-.5-23.6,0-2.1,0-4.2,0-6.3,0-.9,0-2.3,0-3.2.6-5.1,5.3-9.4,10.5-9.4,4.6,0,9.6.1,14.2.2,4.2.1,8.4.2,12.6.4v.2h0Z"/>
        </g>
      </g>
    </g>
  </g>
</svg>