<?xml version="1.0" encoding="UTF-8"?>
<svg id="Layer_2" data-name="Layer 2" xmlns="http://www.w3.org/2000/svg" viewBox="0 0 116.59 67.88">
  <defs>
    <style>
      .cls-1 {
        fill: #626370;
      }
    </style>
  </defs>
  <g id="Layer_1-2" data-name="Layer 1">
    <g>
      <path class="cls-1" d="M62.45,67.88h-.64c-.36-.35-.73-.32-.8-.93-.11-1,.37-1.66,1.44-1.44.86.18,1.15,1.47.5,2-.16.13-.47.15-.51.37Z"/>
      <path class="cls-1" d="M59.04,67.88c-.35-.35-.79-.35-.89-.95-.17-1.03.58-1.71,1.59-1.37.7.24.89,1.17.54,1.77-.19.33-.52.26-.65.55h-.59Z"/>
      <g>
        <path class="cls-1" d="M0,34.37c.14,0,.16-.1.19-.21.16-.6.19-1.4.31-2.04,1.49-8,7.1-14.86,14.55-18.06,3.48-1.5,6.77-1.93,10.56-1.75.24.01.47.09.72.06-.15.23-.57.27-.83.31-6.86,1.2-13.44,4.76-17.2,10.77C-.04,36.8,10.03,56.66,26.24,56c4.96-.2,9.69-2.31,13.68-5.13.71-.5,1.5-1.29,2.19-1.7.06-.03.28-.21.24-.03-.06.33-1.01,1.41-1.28,1.71-7.5,8.19-19.55,9.95-29.29,4.67C5.39,52.06.9,45.31.27,38.02c-.02-.28.13-.88-.27-.88v-2.77Z"/>
        <path class="cls-1" d="M87.96,16.37c.39-.04.75,0,1.12.13,3.09,1.02,1.82,5.63-1.65,4.64-2.7-.78-2.15-4.49.53-4.76Z"/>
        <g>
          <g>
            <path class="cls-1" d="M41.19,22.59l.14-.1c2.52-.12,5.05-.43,7.57-.16.08,0,.13,0,.18.08-.51.35-.88.87-.95,1.5-.12,1,0,2.41,0,3.46-.01,3.24.14,6.41-1.46,9.35-.12.23-.31.42-.4.67,0,.11.59.61.72.72,1.12.94,2.85,1.91,3.99.48,1.23-1.55,1.12-4.75,1.2-6.68.09-2.1.11-4.03,0-6.13-.05-1.05.11-2.26-.81-2.97-.12-.1-.37-.11-.36-.31,2.61-.1,5.22-.45,7.83-.16.03.1-.04.1-.09.15-1.12,1.02-.85,1.52-.92,2.92-.14,2.6-.21,5.23-.48,7.83-.15,1.45-.36,2.91-.75,4.32.98,1.22,3.27,2.67,4.52,1,1.07-1.43,1.06-4.01,1.13-5.75.1-2.64.24-5.97,0-8.58-.07-.78-.47-1.26-1.12-1.65,0-.13.69-.07.82-.08,1.86-.13,3.72-.35,5.6-.27.42.02.88.1,1.3.11.07.06-.39.46-.45.54-.68.9-.52,2.88-.57,4.02-.12,3.09-.25,6.25-.81,9.31-.39,2.09-.9,4.4-2.79,5.63-2.82,1.83-5.17-.16-6.94-2.31-.13-.16-.72-1.07-.88-1.04-.38.8-.57,1.66-1.15,2.37-2.52,3.08-5.73,1.52-7.83-1.01-.46-.55-.94-1.46-1.39-1.91-.04-.04-.05-.1-.13-.09-.11,0-1.07,1.04-1.25,1.2-2.12,1.9-5.01,2.86-7.86,2.69-.69-.04-1.38-.23-2.07-.27-1.83-.1-3.74.1-5.57-.02-.09-.07-.02-.08.03-.13.09-.12.23-.16.32-.26.33-.36.56-.84.65-1.32.11-11.45.11-22.94,0-34.39-.11-.63-.37-1.09-.84-1.5-.09-.08-.24-.06-.26-.24.92-.17,1.86-.31,2.78-.5.7-.14,1.72-.5,2.37-.56.49-.05.47.19.5.61.05.72-.02,1.51,0,2.24.21,11.09-.04,22.21.05,33.3-.02.38.2.61.57.66,2.2.3,5.88-.81,6.72-3.07.26-.71.22-1.48.28-2.22.24-3,.33-6.16.11-9.16-.04-.49-.06-1.03-.29-1.47-.2-.38-.53-.67-.93-.8Z"/>
            <path class="cls-1" d="M21.3,32.15c6.39-.57,6.99,8.54.94,8.99-6.43.48-7.05-8.45-.94-8.99Z"/>
          </g>
          <g>
            <path class="cls-1" d="M106.25,41.45h-14.12c.09.22.35.45.53.61.96.86,2.46,1.64,1.89,3.22-.87,2.42-4.75,1.16-6.6,1.06s-3.79.12-5.5.95c-.77.38-1.48.92-2.2,1.39-.05-.07.29-.59.35-.69,2.08-3.38,5.38-3.23,8.95-2.93,1.08.09,1.95.4,3.04,0,.96-.35.71-.89.32-1.6-.48-.86-1.18-1.6-2.08-2.02h-14.43c-.76.12-.48,1.52-.51,2.1-.09,1.65-.76,4.52-1.82,5.8-2.08,2.54-5.95,1.72-8.25-.06-.32-.25-.82-.6-.74-1.05l1.65-3.28h.15c.22,1.45.43,3.06,1.23,4.33,1.67,2.61,3.26-.45,3.55-2.19.53-3.23.23-7.04.23-10.32,0-3.03.15-6.27,0-9.28-.02-.47-.08-1.18-.28-1.59-.18-.38-.58-.77-1.01-.83v-.16c1.67-.15,3.3-.58,4.93-.96.21-.02.4.06.48.26l.06,13.42.15.17,10.76.37.08-.12-.13-.2c-2.3-2.19-4.78-4.5-6.5-7.2-1.51-2.37-3.48-7.2.52-8.21,1.83-.46,3.62-.05,5.22.87.18.11.63.47.77.51.4.11.81-.46,1.32.06.86.89-.55,1.95-1.23,1.12-.31-.38.03-.82-.65-1.05-.8-.27-2.73-.6-3.55-.55-5,.31-.62,7.07.73,9.02s2.74,3.8,4.15,5.66c.05.05.12.07.19.08.37.06,1.69.05,2.08,0,.09-.01.13-.02.21-.06.24-.13.9-1.1,1.12-1.38,1.47-1.94,3.04-4.01,4.28-6.11.96-1.61,2.24-3.95,1.69-5.88-.5-1.75-3.1-1.39-4.46-1.1-.28.06-1.48.34-1.62.51-.23.26-.04.76-.55,1.05-.94.52-1.8-.88-.9-1.38.53-.3.87.12,1.28,0,.16-.05.53-.39.73-.5,1.56-.91,3.38-1.31,5.18-.88,2.58.61,2.73,2.58,2.13,4.82-1.07,3.97-4.87,7.57-7.74,10.38-.1.1-.73.51-.31.63.09.03.5.06.63.06,2.02.13,4.05.13,6.07.32,1.35.13,2.68.34,4.02.51.17-.12-.11-.36-.17-.47-1.16-2.18-.81-5.94-.84-8.43-.09-6.72-.01-13.47-.11-20.19-.02-1.57.08-3.37-.05-4.9-.04-.47-.24-1-.58-1.33-.07-.07-.69-.42-.59-.5,1.79-.2,3.56-.57,5.3-1.02l.22.05c.07.07.11.15.13.25.11.67-.04,1.55.11,2.23v34.58c.07.84.48,1.47,1.12,2Z"/>
            <path class="cls-1" d="M109.66,41.4c-.04-.22.19-.22.32-.34.46-.41.79-.92.85-1.54-.02-9.71.05-19.44-.06-29.15-.02-1.55.02-3.09-.05-4.64-.07-1.4.1-1.71-1.15-2.52-.05-.03-.1,0-.07-.12,1.6-.23,3.18-.52,4.75-.87.45-.1.99-.51,1.06.25v36.93c.08.97.49,1.31,1.19,1.85.06.05.11.05.09.15h-6.93Z"/>
          </g>
        </g>
        <g>
          <path class="cls-1" d="M57.49,0c.32.26.59.23.73.68.23.74-.01,1.49-.86,1.56-1.06.08-1.48-.35-1.36-1.41.06-.55.4-.58.8-.83h.69Z"/>
          <path class="cls-1" d="M68.73,12.95c.46.04.88.26,1.33.35,1.22.23,2.5-.54,2.67-1.81v-5.95c.13-.59,1.64-.96,2.12-1.31.31.1.17.33.17.55,0,1.23-.12,2.81,0,3.99.04.34.16.64.45.82.6.38,2.93.33,3.64.14,1.2-.31.72-2.14.8-3.09.33-3.81,6.41-3.74,6.97.33.43,3.11-1.37,5.55-4.67,4.78-.4-.09-.87-.34-1.26-.34s-1.01.32-1.46.41c-.74.15-1.62.16-2.38.13-.53-.02-1.29-.2-1.79-.15-.06,0-.2.04-.25.07-.23.13-.5,1.09-.67,1.41-.91,1.65-2.59,2.26-4.4,1.89-.26-.05-1.28-.27-1.28-.59v-1.63ZM83.05,5.82c-.33.06-.74.4-.81.73-.08.39-.08,2.05-.02,2.48.09.75,1.16.91,1.74.62,1.2-.6,1.21-4.19-.9-3.83Z"/>
          <path class="cls-1" d="M52.11,12.95c.9.19,1.51.58,2.47.32,1.94-.54,1.51-2.67,1.52-4.24,0-.32,0-.64,0-.95,0-.64-.1-1.99.03-2.54.06-.24.24-.4.44-.52.5-.29,1.15-.47,1.65-.8.36-.05.17.89.17,1.14.02,1.04-.06,2.54.06,3.51.1.85.79.95,1.51.99,1.49.09,3.75.11,5.23,0,1.36-.1,1.93-1.07,1.29-2.31s-2.08-1.34-3.26-1.2c-.4.04-1.15.4-1.25-.15-.37-2.01,1.26-2.96,2.47-4.22.49-.51.84-1.24,1.62-1.36.4-.06,1.02.04,1.47.03.14,0,.27-.12.29.08l-3.09,3.3c0,.09,1.07.35,1.24.41.32.11.7.27,1,.44,3,1.69,2.77,6.75-1.09,7.01-1.83.12-4.06.03-5.92,0-.12,0-.23.05-.32.05-.3,0-.73-.24-1.01-.2-.46.06-.52.85-.66,1.21-.68,1.72-2.57,2.56-4.34,2.29-.27-.04-1.53-.32-1.53-.65v-1.63Z"/>
        </g>
      </g>
      <g>
        <path class="cls-1" d="M86.9,49.34v4.66c0,.07.17.14.27.11.18-.06.83-.64,1.12-.81,2.95-1.69,7.05-.74,7.56,2.99.1.75-.12,1.85.79,2.08.85.22,2.1.23,2.95,0,.61-.17.87-.38.94-1.03.2-1.85-.11-4.02,0-5.91.01-.21.05-.55.11-.75.19-.69,1.5-.91,2.06-1.24l.12.07v8.1c0,.57-.62,1.62-1.04,2-1.14,1.04-3.69,1.23-5.15.93-.67-.13-1.21-.42-1.95-.4-.65.02-1.18.33-1.81.43-3.84.03-7.68-.04-11.51,0-.3,0-.58.08-.91.06-1.05-.07-1.87-.8-2.97-.52-.28.07-.54.26-.81.36-.85.3-1.69.11-2.56.1-2.51-.02-5.01.02-7.52,0-.53.04-.5.63-.68,1.02-.54,1.18-2.25,1.83-3.44,2.1-3.2.74-7.61-.37-7.79-4.27-.03-.63.18-1.97.59-2.45.33-.39,1.56-.39,2.06-.61.11-.03.09.05.07.13-.05.31-.23.71-.3,1.03-.3,1.37-.41,2.96.92,3.8,1.41.89,4.04.9,5.33-.21.14-.12.4-.34.4-.53h-1.47c-.05,0-.16-.22-.08-.29.27-.3.76-1.54,1.02-1.7.29-.17.53-.03.82-.03,2.98.05,5.98,0,8.95-.06.82-.02,2.77.14,3.42-.2.23-.12.4-.43.44-.68.13-.98-.09-2.24,0-3.25.03-.31.13-.46.39-.62l1.9-.9v4.5s.06.36.08.4c.1.37.4.59.76.68.91.22,2.55.13,3.5.07.46-.03,1,.14,1.09-.51,0-1.62.07-3.23.05-4.85,0-1.04-.41-2.46.66-3.12.22-.14.44-.16.65-.25.3-.14.61-.35.92-.44ZM93.44,58.22c.42-.42.22-1.99-.04-2.5-.97-1.88-3.36-1.32-4.7-.19-.49.41-1.77,1.98-1.79,2.58s.68.4,1.04.4c1.52-.02,3.07.12,4.58,0,.27-.02.72-.09.91-.28Z"/>
        <path class="cls-1" d="M108.2,49.4c.68-.06.34,1.12.33,1.45-.13,3.11.1,6.31,0,9.43-.03.15-.21.27-.35.29-.28.04-1.38.03-1.61-.09-.27-.15-.31-.55-.33-.84-.22-2.81.16-5.89,0-8.73.09-.75.51-.71,1.02-1,.24-.13.67-.49.93-.51Z"/>
      </g>
      <circle class="cls-1" cx="78.18" cy="63.35" r="1.17"/>
    </g>
  </g>
</svg>